<svg width="375" height="812" viewBox="0 0 375 812" fill="none" xmlns="http://www.w3.org/2000/svg">
    <g clip-path="url(#clip0_239_5712)">
        <rect width="375" height="812" fill="white"/>
        <g filter="url(#filter0_d_239_5712)">
            <path d="M0 486C0 477.163 7.16344 470 16 470H359C367.837 470 375 477.163 375 486V796C375 804.837 367.837 812 359 812H16C7.16345 812 0 804.837 0 796V486Z" fill="white"/>
            <path d="M16 471H359V469H16V471ZM374 486V796H376V486H374ZM359 811H16V813H359V811ZM1 796V486H-1V796H1ZM16 811C7.71573 811 1 804.284 1 796H-1C-1 805.389 6.61116 813 16 813V811ZM374 796C374 804.284 367.284 811 359 811V813C368.389 813 376 805.389 376 796H374ZM359 471C367.284 471 374 477.716 374 486H376C376 476.611 368.389 469 359 469V471ZM16 469C6.61116 469 -1 476.611 -1 486H1C1 477.716 7.71573 471 16 471V469Z" fill="#666666"/>
        </g>
        <path d="M91.3539 544.309C89.7996 544.309 88.4 544.026 87.1551 543.459C85.9101 542.884 84.9267 542.092 84.2048 541.083C83.4902 540.066 83.1182 538.917 83.0888 537.635H87.6523C87.6891 538.21 87.877 538.722 88.2158 539.171C88.5547 539.621 88.9967 539.974 89.5418 540.232C90.0943 540.483 90.6983 540.608 91.3539 540.608C92.1274 540.608 92.8162 540.438 93.4202 540.099C94.0317 539.753 94.5068 539.278 94.8457 538.674C95.1845 538.063 95.3539 537.366 95.3539 536.586C95.3539 535.805 95.1808 535.105 94.8346 534.486C94.4884 533.86 94.0022 533.378 93.376 533.039C92.7573 532.692 92.0574 532.516 91.2766 532.508C90.4295 532.508 89.7075 532.667 89.1109 532.983C88.5215 533.3 88.0648 533.772 87.7407 534.398H83.4644L84.702 521.37H98.6247V525.227H88.5694L87.9506 530.939H88.1274C88.4074 530.564 88.7757 530.232 89.2324 529.945C89.6965 529.65 90.2195 529.422 90.8015 529.26C91.3908 529.098 92.0132 529.017 92.6689 529.017C94.039 529.017 95.2729 529.337 96.3705 529.978C97.4755 530.611 98.3374 531.495 98.9562 532.63C99.5823 533.764 99.8954 535.042 99.8954 536.464C99.8954 537.974 99.5381 539.326 98.8236 540.519C98.109 541.705 97.1035 542.634 95.807 543.304C94.5105 543.974 93.0261 544.309 91.3539 544.309ZM123.514 529.193H116.111V526H123.514V529.193ZM126.509 539.436H122.531V518.464H126.509V539.436ZM127.116 546.387H107.569V543.171H127.116V546.387ZM111.603 544.994H107.569V537.348H111.603V544.994ZM107.746 524.685H113.348V520.32H117.293V534.95H103.746V520.32H107.746V524.685ZM113.348 531.812V527.713H107.746V531.812H113.348ZM160.885 539.16H156.885V518.442H160.885V539.16ZM164.708 529.89H159.735V526.608H164.708V529.89ZM161.901 546.387H142.432V543.171H161.901V546.387ZM146.409 544.608H142.432V536.972H146.409V544.608ZM146.31 520.265C147.746 520.265 149.058 520.575 150.244 521.193C151.43 521.805 152.362 522.663 153.039 523.768C153.724 524.873 154.071 526.114 154.078 527.492C154.071 528.862 153.724 530.099 153.039 531.204C152.362 532.302 151.43 533.164 150.244 533.79C149.058 534.409 147.746 534.718 146.31 534.718C144.866 534.718 143.548 534.405 142.354 533.779C141.168 533.153 140.229 532.291 139.537 531.193C138.851 530.096 138.513 528.862 138.52 527.492C138.513 526.114 138.851 524.877 139.537 523.779C140.229 522.674 141.168 521.812 142.354 521.193C143.548 520.575 144.866 520.265 146.31 520.265ZM146.31 523.735C145.581 523.735 144.921 523.886 144.332 524.188C143.743 524.483 143.275 524.917 142.929 525.492C142.583 526.059 142.413 526.726 142.421 527.492C142.413 528.25 142.583 528.91 142.929 529.47C143.275 530.029 143.743 530.464 144.332 530.773C144.921 531.083 145.581 531.238 146.31 531.238C147.039 531.238 147.699 531.083 148.288 530.773C148.877 530.464 149.341 530.029 149.68 529.47C150.019 528.91 150.188 528.25 150.188 527.492C150.188 526.726 150.019 526.059 149.68 525.492C149.349 524.917 148.885 524.483 148.288 524.188C147.699 523.886 147.039 523.735 146.31 523.735ZM182.572 532.133H177.832V528.95H182.572V532.133ZM190.992 546.884H187.18V518.42H190.992V546.884ZM185.07 545.569H181.302V518.862H185.07V545.569ZM172.771 520.464C174.031 520.464 175.132 520.88 176.075 521.713C177.025 522.538 177.758 523.727 178.274 525.282C178.797 526.829 179.059 528.648 179.059 530.74C179.059 532.855 178.797 534.689 178.274 536.243C177.758 537.797 177.025 538.994 176.075 539.834C175.132 540.674 174.031 541.09 172.771 541.083C171.534 541.09 170.447 540.674 169.512 539.834C168.583 538.994 167.865 537.797 167.357 536.243C166.849 534.689 166.594 532.855 166.594 530.74C166.594 528.648 166.849 526.829 167.357 525.282C167.865 523.727 168.583 522.538 169.512 521.713C170.447 520.88 171.534 520.464 172.771 520.464ZM172.771 524.232C172.241 524.225 171.788 524.464 171.412 524.95C171.036 525.436 170.749 526.166 170.55 527.138C170.351 528.103 170.256 529.304 170.263 530.74C170.256 532.184 170.351 533.392 170.55 534.365C170.749 535.33 171.036 536.055 171.412 536.541C171.788 537.028 172.241 537.267 172.771 537.26C173.324 537.267 173.795 537.028 174.186 536.541C174.576 536.055 174.874 535.33 175.081 534.365C175.287 533.392 175.39 532.184 175.39 530.74C175.39 529.304 175.287 528.103 175.081 527.138C174.874 526.166 174.576 525.436 174.186 524.95C173.795 524.464 173.324 524.225 172.771 524.232ZM223.158 528.608H217.678V525.359H223.158V528.608ZM226.097 535.326H222.12V518.42H226.097V535.326ZM216.374 535.956C218.392 535.956 220.138 536.173 221.611 536.608C223.085 537.042 224.212 537.672 224.992 538.497C225.781 539.315 226.175 540.295 226.175 541.436C226.175 542.578 225.781 543.558 224.992 544.376C224.212 545.193 223.085 545.82 221.611 546.254C220.138 546.696 218.392 546.917 216.374 546.917C214.355 546.917 212.613 546.696 211.147 546.254C209.689 545.82 208.565 545.193 207.777 544.376C206.989 543.558 206.598 542.578 206.606 541.436C206.598 540.295 206.989 539.315 207.777 538.497C208.565 537.672 209.692 537.042 211.158 536.608C212.624 536.173 214.363 535.956 216.374 535.956ZM216.374 538.983C215.107 538.983 214.042 539.076 213.18 539.26C212.318 539.436 211.666 539.709 211.225 540.077C210.79 540.438 210.573 540.891 210.573 541.436C210.573 541.974 210.79 542.424 211.225 542.785C211.666 543.145 212.318 543.418 213.18 543.602C214.042 543.779 215.107 543.867 216.374 543.867C217.641 543.867 218.705 543.779 219.567 543.602C220.436 543.418 221.092 543.145 221.534 542.785C221.983 542.424 222.212 541.974 222.219 541.436C222.212 540.891 221.983 540.438 221.534 540.077C221.092 539.709 220.436 539.436 219.567 539.26C218.705 539.076 217.641 538.983 216.374 538.983ZM212.042 523.149C212.042 524.998 211.744 526.729 211.147 528.343C210.558 529.956 209.659 531.374 208.451 532.597C207.25 533.82 205.77 534.733 204.009 535.337L201.943 532.177C203.46 531.676 204.735 530.95 205.766 530C206.797 529.05 207.56 527.989 208.053 526.818C208.547 525.639 208.797 524.416 208.805 523.149V521.282H212.042V523.149ZM212.86 523.116C212.86 524.287 213.096 525.414 213.567 526.497C214.046 527.58 214.775 528.56 215.755 529.436C216.735 530.306 217.95 530.98 219.401 531.459L217.434 534.597C215.718 534.037 214.274 533.179 213.103 532.022C211.932 530.866 211.055 529.525 210.473 528C209.899 526.475 209.611 524.847 209.611 523.116V521.282H212.86V523.116ZM218.528 523.359H203.103V520.155H218.528V523.359ZM252.724 533.657H248.724V518.42H252.724V533.657ZM256.548 527.856H251.597V524.586H256.548V527.856ZM233.641 529.779C235.881 529.772 237.704 529.746 239.111 529.702C240.525 529.657 241.807 529.573 242.956 529.448C244.106 529.322 245.251 529.134 246.393 528.884L246.813 532.088C245.634 532.339 244.441 532.53 243.233 532.663C242.025 532.788 240.688 532.873 239.222 532.917C237.756 532.961 235.896 532.987 233.641 532.994H231.266V529.779H233.641ZM243.951 523.326H235.233V531.912H231.266V520.144H243.951V523.326ZM238.017 537.669H248.724V535.017H252.724V546.53H234.039V535.017H238.017V537.669ZM248.724 543.348V540.796H238.017V543.348H248.724ZM271.141 518.84C273.329 518.84 275.193 519.028 276.733 519.403C278.279 519.772 279.458 520.317 280.268 521.039C281.079 521.761 281.484 522.641 281.484 523.68C281.484 524.733 281.079 525.624 280.268 526.354C279.458 527.076 278.279 527.624 276.733 528C275.193 528.376 273.329 528.564 271.141 528.564C268.954 528.571 267.086 528.387 265.539 528.011C264 527.628 262.821 527.076 262.003 526.354C261.186 525.624 260.78 524.733 260.788 523.68C260.78 522.648 261.186 521.772 262.003 521.05C262.821 520.32 264 519.772 265.539 519.403C267.086 519.028 268.954 518.84 271.141 518.84ZM271.141 521.757C269.764 521.75 268.615 521.82 267.694 521.967C266.78 522.114 266.095 522.331 265.639 522.619C265.182 522.906 264.957 523.26 264.965 523.68C264.957 524.136 265.175 524.508 265.616 524.796C266.066 525.076 266.736 525.285 267.628 525.425C268.519 525.565 269.69 525.635 271.141 525.635C272.607 525.635 273.79 525.565 274.688 525.425C275.587 525.285 276.257 525.076 276.699 524.796C277.149 524.516 277.373 524.144 277.373 523.68C277.373 523.26 277.145 522.906 276.688 522.619C276.239 522.331 275.55 522.118 274.622 521.978C273.701 521.831 272.541 521.757 271.141 521.757ZM284.136 533.072H258.191V529.912H284.136V533.072ZM280.965 541.967H265.119V544.541H261.208V539.182H277.031V537.635H261.186V534.707H280.965V541.967ZM281.705 546.685H261.208V543.68H281.705V546.685ZM141.668 565.21C141.661 566.853 141.359 568.378 140.762 569.785C140.165 571.192 139.263 572.414 138.055 573.453C136.847 574.484 135.373 575.247 133.635 575.74L131.745 572.602C133.226 572.212 134.471 571.637 135.48 570.878C136.497 570.12 137.248 569.254 137.734 568.282C138.228 567.309 138.475 566.285 138.475 565.21V564.138H141.668V565.21ZM142.452 565.21C142.452 566.204 142.692 567.158 143.171 568.072C143.65 568.985 144.386 569.803 145.381 570.525C146.382 571.239 147.624 571.788 149.104 572.171L147.347 575.21C145.557 574.761 144.055 574.042 142.839 573.055C141.624 572.068 140.714 570.904 140.11 569.564C139.506 568.223 139.208 566.772 139.215 565.21V564.138H142.452V565.21ZM148.176 565.331H132.751V562.182H148.176V565.331ZM142.497 563.652H138.475V559.32H142.497V563.652ZM154.541 575.641H150.541V559.42H154.541V575.641ZM158.364 569.099H153.414V565.818H158.364V569.099ZM146.53 578.856C146.53 580.344 146.117 581.707 145.292 582.945C144.467 584.182 143.259 585.217 141.668 586.05C140.077 586.882 138.165 587.449 135.933 587.751L134.497 584.735C136.382 584.499 137.977 584.083 139.281 583.486C140.592 582.882 141.568 582.182 142.209 581.387C142.858 580.584 143.182 579.74 143.182 578.856V578.171H146.53V578.856ZM147.447 578.856C147.44 579.703 147.76 580.532 148.408 581.343C149.064 582.145 150.047 582.856 151.359 583.475C152.67 584.094 154.261 584.525 156.132 584.768L154.707 587.818C152.467 587.523 150.545 586.945 148.939 586.083C147.34 585.228 146.121 584.179 145.281 582.934C144.449 581.689 144.036 580.33 144.044 578.856V578.171H147.447V578.856ZM154.883 579.994H135.723V576.856H154.883V579.994ZM172.958 560.89C174.962 560.89 176.777 561.232 178.405 561.917C180.041 562.595 181.326 563.552 182.262 564.79C183.205 566.028 183.676 567.453 183.676 569.066C183.676 570.68 183.205 572.109 182.262 573.354C181.326 574.591 180.041 575.552 178.405 576.238C176.777 576.923 174.962 577.265 172.958 577.265C170.962 577.265 169.149 576.923 167.521 576.238C165.901 575.552 164.623 574.591 163.687 573.354C162.752 572.109 162.287 570.68 162.295 569.066C162.287 567.453 162.752 566.028 163.687 564.79C164.623 563.552 165.901 562.595 167.521 561.917C169.149 561.232 170.962 560.89 172.958 560.89ZM172.958 564.116C171.647 564.109 170.475 564.308 169.444 564.713C168.42 565.118 167.617 565.696 167.035 566.448C166.453 567.199 166.162 568.072 166.162 569.066C166.162 570.076 166.45 570.952 167.024 571.696C167.606 572.44 168.409 573.011 169.433 573.409C170.464 573.799 171.639 573.994 172.958 573.994C174.276 573.994 175.448 573.799 176.472 573.409C177.503 573.011 178.306 572.44 178.88 571.696C179.455 570.952 179.742 570.076 179.742 569.066C179.742 568.064 179.451 567.192 178.869 566.448C178.295 565.696 177.492 565.118 176.461 564.713C175.437 564.308 174.269 564.109 172.958 564.116ZM186.019 584.414H160.008V581.188H186.019V584.414ZM204.159 572.282H199.32V569.033H204.159V572.282ZM196.347 566.779C196.34 569.011 196.111 571.122 195.662 573.11C195.213 575.099 194.509 576.886 193.552 578.47C192.601 580.046 191.397 581.28 189.938 582.171L187.507 579.21C188.848 578.378 189.949 577.306 190.811 575.994C191.673 574.676 192.299 573.239 192.69 571.685C193.08 570.131 193.275 568.495 193.275 566.779V561.873H196.347V566.779ZM197.143 566.591C197.143 568.271 197.312 569.843 197.651 571.309C197.99 572.775 198.542 574.134 199.309 575.387C200.075 576.632 201.08 577.652 202.325 578.448L200.148 581.519C198.697 580.65 197.526 579.446 196.635 577.906C195.743 576.366 195.102 574.65 194.712 572.757C194.329 570.856 194.141 568.801 194.148 566.591V561.873H197.143V566.591ZM212.679 587.884H208.867V559.42H212.679V587.884ZM206.734 586.569H202.999V559.862H206.734V586.569ZM225.814 581.884H221.869V573.895H225.814V581.884ZM236.3 581.884H232.267V573.895H236.3V581.884ZM242.079 584.547H216.068V581.298H242.079V584.547ZM229.018 560.823C231.066 560.823 232.9 561.14 234.521 561.773C236.149 562.407 237.424 563.306 238.344 564.47C239.273 565.626 239.737 566.956 239.737 568.459C239.737 569.969 239.276 571.298 238.355 572.448C237.435 573.597 236.16 574.488 234.532 575.122C232.912 575.748 231.074 576.061 229.018 576.061C226.97 576.061 225.136 575.748 223.516 575.122C221.895 574.488 220.628 573.597 219.714 572.448C218.801 571.298 218.348 569.969 218.355 568.459C218.348 566.948 218.801 565.615 219.714 564.459C220.628 563.302 221.895 562.407 223.516 561.773C225.144 561.14 226.978 560.823 229.018 560.823ZM229.018 563.972C227.663 563.965 226.477 564.138 225.46 564.492C224.451 564.845 223.667 565.361 223.107 566.039C222.554 566.716 222.278 567.523 222.278 568.459C222.278 569.379 222.554 570.179 223.107 570.856C223.667 571.534 224.455 572.057 225.471 572.425C226.488 572.794 227.67 572.978 229.018 572.978C230.359 572.971 231.541 572.786 232.565 572.425C233.597 572.057 234.392 571.534 234.952 570.856C235.519 570.179 235.803 569.379 235.803 568.459C235.803 567.523 235.519 566.716 234.952 566.039C234.392 565.361 233.6 564.845 232.576 564.492C231.552 564.138 230.366 563.965 229.018 563.972Z" fill="#080B14"/>
        <path d="M137.114 630.35H135.857V615.593H137.114V630.35ZM136.339 622.531H133.451V621.439H136.339V622.531ZM133.791 629.599H132.547V615.91H133.791V629.599ZM130.668 626.37H125.009V617.318H130.668V626.37ZM126.242 625.325H129.435V618.363H126.242V625.325ZM154.529 623.564H144.338V622.508H154.529V623.564ZM156.125 628.483H142.612V627.392H156.125V628.483ZM149.973 627.838H148.682V622.965H149.973V627.838ZM154.388 617.858H145.641V623.001H144.338V616.79H154.388V617.858ZM168.567 620.758H164.786V619.69H168.567V620.758ZM169.13 626.429H167.827V615.604H169.13V626.429ZM169.541 630.021H159.656V628.941H169.541V630.021ZM160.959 629.47H159.656V625.454H160.959V629.47ZM161.792 618.645C161.788 619.529 161.61 620.363 161.258 621.146C160.91 621.928 160.423 622.613 159.797 623.2C159.17 623.787 158.45 624.233 157.636 624.539L156.955 623.47C157.679 623.216 158.325 622.844 158.893 622.355C159.464 621.862 159.91 621.294 160.231 620.653C160.552 620.007 160.712 619.338 160.712 618.645V617.436H161.792V618.645ZM162.027 618.645C162.027 619.271 162.182 619.884 162.491 620.482C162.8 621.081 163.229 621.613 163.777 622.079C164.324 622.545 164.954 622.899 165.667 623.142L164.986 624.186C164.191 623.901 163.489 623.48 162.878 622.924C162.272 622.365 161.8 621.717 161.464 620.981C161.127 620.242 160.959 619.463 160.959 618.645V617.436H162.027V618.645ZM165.326 617.882H157.378V616.802H165.326V617.882ZM184.635 624.433H171.181V623.376H184.635V624.433ZM183.133 630.021H172.919V628.941H183.133V630.021ZM174.234 629.27H172.919V625.736H174.234V629.27ZM177.897 616.109C178.953 616.105 179.875 616.219 180.661 616.45C181.448 616.677 182.053 617.013 182.475 617.459C182.898 617.901 183.109 618.426 183.109 619.032C183.109 619.639 182.898 620.165 182.475 620.612C182.053 621.054 181.448 621.392 180.661 621.627C179.875 621.862 178.953 621.979 177.897 621.979C176.836 621.979 175.912 621.862 175.126 621.627C174.343 621.392 173.739 621.054 173.312 620.612C172.885 620.165 172.672 619.639 172.672 619.032C172.672 618.426 172.885 617.901 173.312 617.459C173.739 617.013 174.343 616.677 175.126 616.45C175.912 616.219 176.836 616.105 177.897 616.109ZM177.897 617.166C177.11 617.166 176.423 617.24 175.836 617.389C175.253 617.538 174.803 617.755 174.486 618.04C174.173 618.322 174.018 618.653 174.022 619.032C174.018 619.42 174.173 619.754 174.486 620.036C174.803 620.314 175.253 620.529 175.836 620.682C176.423 620.835 177.11 620.911 177.897 620.911C178.683 620.911 179.368 620.835 179.951 620.682C180.538 620.529 180.99 620.314 181.307 620.036C181.624 619.754 181.783 619.42 181.783 619.032C181.783 618.653 181.624 618.322 181.307 618.04C180.99 617.755 180.538 617.538 179.951 617.389C179.368 617.24 178.683 617.166 177.897 617.166ZM200.865 623.106H199.562V615.593H200.865V623.106ZM203.084 619.89H200.278V618.798H203.084V619.89ZM196.779 622.331H189.958V616.438H196.779V622.331ZM191.226 621.287H195.511V617.494H191.226V621.287ZM200.865 627.403H192.764V629.657H191.484V626.417H199.573V624.856H191.449V623.811H200.865V627.403ZM201.405 630.151H191.484V629.094H201.405V630.151ZM215.771 630.374H214.468V615.593H215.771V630.374ZM207.929 616.731C208.657 616.735 209.306 616.949 209.878 617.371C210.449 617.79 210.895 618.389 211.216 619.167C211.537 619.946 211.698 620.848 211.698 621.874C211.698 622.903 211.537 623.807 211.216 624.586C210.895 625.36 210.447 625.959 209.872 626.382C209.301 626.805 208.653 627.016 207.929 627.016C207.197 627.016 206.545 626.805 205.974 626.382C205.407 625.959 204.962 625.36 204.642 624.586C204.321 623.811 204.16 622.907 204.16 621.874C204.16 620.844 204.321 619.942 204.642 619.167C204.962 618.389 205.407 617.79 205.974 617.371C206.545 616.949 207.197 616.735 207.929 616.731ZM207.929 617.894C207.44 617.898 207.003 618.066 206.62 618.398C206.24 618.727 205.945 619.193 205.733 619.796C205.522 620.394 205.416 621.087 205.416 621.874C205.416 622.664 205.522 623.361 205.733 623.963C205.945 624.566 206.24 625.032 206.62 625.36C207.003 625.689 207.44 625.854 207.929 625.854C208.418 625.854 208.85 625.689 209.226 625.36C209.606 625.032 209.901 624.566 210.113 623.963C210.324 623.361 210.43 622.664 210.43 621.874C210.43 621.087 210.324 620.394 210.113 619.796C209.901 619.193 209.606 618.727 209.226 618.398C208.85 618.066 208.418 617.898 207.929 617.894ZM230.545 623.048H222.961V621.968H230.545V623.048ZM227.316 626.241H226.013V622.813H227.316V626.241ZM230.486 618.058H224.24V622.355H222.961V617.001H230.486V618.058ZM233.856 630.374H232.553V615.593H233.856V630.374ZM221.834 626.041C223.669 626.041 225.395 626.014 227.011 625.959C228.627 625.904 230.15 625.795 231.578 625.631L231.684 626.605C230.682 626.75 229.639 626.863 228.555 626.945C227.471 627.024 226.416 627.077 225.391 627.104C224.366 627.131 223.305 627.145 222.209 627.145H222.01L221.834 626.041ZM247.964 621.122H237.867V620.066H247.964V621.122ZM249.525 624.186H236.012V623.13H249.525V624.186ZM239.159 620.606H237.867V616.133H239.159V620.606ZM248.058 629.986H237.773V628.906H248.058V629.986ZM239.065 629.211H237.773V625.689H239.065V629.211ZM104.614 651.164C103.824 651.164 103.116 651.031 102.489 650.765C101.863 650.499 101.368 650.125 101.004 649.644C100.644 649.163 100.45 648.609 100.423 647.983H101.938C101.965 648.355 102.098 648.681 102.337 648.963C102.579 649.241 102.896 649.456 103.288 649.609C103.679 649.761 104.113 649.838 104.591 649.838C105.115 649.838 105.585 649.748 106 649.568C106.415 649.388 106.739 649.139 106.974 648.822C107.209 648.501 107.326 648.135 107.326 647.724C107.326 647.286 107.213 646.899 106.986 646.562C106.759 646.226 106.424 645.963 105.982 645.776C105.544 645.588 105.017 645.494 104.403 645.494H103.429V644.179H104.403C104.888 644.179 105.321 644.093 105.7 643.921C106.08 643.748 106.373 643.508 106.581 643.199C106.788 642.885 106.892 642.523 106.892 642.113C106.892 641.717 106.8 641.369 106.616 641.068C106.432 640.762 106.17 640.528 105.829 640.363C105.489 640.199 105.092 640.117 104.638 640.117C104.207 640.117 103.804 640.193 103.429 640.346C103.053 640.498 102.746 640.717 102.507 641.003C102.272 641.285 102.145 641.616 102.125 641.995H100.681C100.705 641.377 100.897 640.825 101.257 640.34C101.617 639.855 102.096 639.479 102.695 639.213C103.294 638.947 103.949 638.814 104.661 638.814C105.401 638.814 106.049 638.96 106.604 639.254C107.164 639.547 107.592 639.941 107.89 640.434C108.191 640.927 108.34 641.463 108.336 642.042C108.34 642.488 108.26 642.895 108.095 643.263C107.935 643.631 107.698 643.942 107.385 644.196C107.076 644.451 106.712 644.637 106.293 644.754V644.848C106.81 644.926 107.258 645.095 107.637 645.353C108.017 645.611 108.305 645.946 108.5 646.357C108.7 646.768 108.798 647.227 108.794 647.736C108.798 648.382 108.618 648.967 108.254 649.491C107.894 650.012 107.393 650.421 106.751 650.718C106.113 651.016 105.401 651.164 104.614 651.164ZM121.32 639.295H111.728V638.238H121.32V639.295ZM123.527 644.167H110.014V643.11H123.527V644.167ZM121.754 639.236C121.754 639.976 121.731 640.663 121.684 641.297C121.637 641.931 121.527 642.641 121.355 643.427L120.076 643.287C120.193 642.743 120.281 642.23 120.34 641.749C120.398 641.263 120.434 640.835 120.445 640.463C120.457 640.091 120.463 639.682 120.463 639.236V639.177V638.238H121.754V639.177V639.236ZM121.801 649.368H112.949V651.47H111.646V648.347H120.51V646.703H111.623V645.646H121.801V649.368ZM122.177 652.174H111.646V651.117H122.177V652.174ZM129.053 642.124C129.053 643.122 128.862 644.118 128.478 645.112C128.095 646.102 127.58 646.987 126.934 647.766C126.292 648.54 125.594 649.122 124.839 649.509L124.052 648.476C124.752 648.135 125.404 647.623 126.007 646.938C126.613 646.249 127.097 645.48 127.457 644.631C127.821 643.778 128.005 642.942 128.008 642.124V639.682H129.053V642.124ZM129.288 642.124C129.284 642.895 129.453 643.68 129.793 644.478C130.137 645.273 130.603 645.993 131.19 646.638C131.777 647.284 132.423 647.775 133.127 648.112L132.376 649.145C131.609 648.769 130.91 648.214 130.28 647.478C129.65 646.742 129.153 645.905 128.789 644.965C128.425 644.026 128.243 643.079 128.243 642.124V639.682H129.288V642.124ZM132.611 640.199H124.58V639.107H132.611V640.199ZM135.722 652.35H134.419V637.593H135.722V652.35ZM138.187 644.672H135.428V643.557H138.187V644.672ZM152.096 650.519H138.583V649.415H152.096V650.519ZM145.944 649.896H144.653V646.245H145.944V649.896ZM150.394 643.146H141.565V646.128H140.274V642.077H149.102V639.765H140.238V638.684H150.394V643.146ZM150.734 646.633H140.274V645.552H150.734V646.633ZM168.889 652.374H167.586V637.593H168.889V652.374ZM161.046 638.731C161.774 638.735 162.424 638.949 162.995 639.371C163.567 639.79 164.013 640.389 164.334 641.167C164.655 641.946 164.815 642.848 164.815 643.874C164.815 644.903 164.655 645.807 164.334 646.586C164.013 647.36 163.565 647.959 162.989 648.382C162.418 648.805 161.77 649.016 161.046 649.016C160.315 649.016 159.663 648.805 159.092 648.382C158.524 647.959 158.08 647.36 157.759 646.586C157.438 645.811 157.278 644.907 157.278 643.874C157.278 642.844 157.438 641.942 157.759 641.167C158.08 640.389 158.524 639.79 159.092 639.371C159.663 638.949 160.315 638.735 161.046 638.731ZM161.046 639.894C160.557 639.898 160.121 640.066 159.737 640.398C159.358 640.727 159.062 641.193 158.851 641.796C158.64 642.394 158.534 643.087 158.534 643.874C158.534 644.664 158.64 645.361 158.851 645.963C159.062 646.566 159.358 647.032 159.737 647.36C160.121 647.689 160.557 647.854 161.046 647.854C161.536 647.854 161.968 647.689 162.344 647.36C162.723 647.032 163.019 646.566 163.23 645.963C163.441 645.361 163.547 644.664 163.547 643.874C163.547 643.087 163.441 642.394 163.23 641.796C163.019 641.193 162.723 640.727 162.344 640.398C161.968 640.066 161.536 639.898 161.046 639.894ZM182.868 642.019H173.969V644.555H172.654V640.997H181.541V639.248H172.619V638.191H182.868V642.019ZM183.185 645.012H172.654V643.932H183.185V645.012ZM184.5 647.619H170.987V646.562H184.5V647.619ZM178.371 652.374H177.068V646.95H178.371V652.374ZM189.263 638.731C189.979 638.735 190.615 638.949 191.171 639.371C191.73 639.79 192.165 640.389 192.474 641.167C192.787 641.942 192.945 642.844 192.949 643.874C192.945 644.907 192.787 645.811 192.474 646.586C192.165 647.36 191.73 647.959 191.171 648.382C190.615 648.805 189.979 649.016 189.263 649.016C188.539 649.016 187.895 648.805 187.332 648.382C186.772 647.959 186.336 647.36 186.023 646.586C185.713 645.811 185.561 644.907 185.565 643.874C185.561 642.844 185.713 641.942 186.023 641.167C186.336 640.389 186.772 639.79 187.332 639.371C187.895 638.949 188.539 638.735 189.263 638.731ZM189.263 639.894C188.782 639.898 188.355 640.066 187.983 640.398C187.615 640.727 187.328 641.193 187.12 641.796C186.913 642.394 186.809 643.087 186.809 643.874C186.809 644.664 186.913 645.361 187.12 645.963C187.328 646.566 187.615 647.032 187.983 647.36C188.355 647.689 188.782 647.854 189.263 647.854C189.74 647.854 190.165 647.689 190.537 647.36C190.908 647.032 191.198 646.566 191.405 645.963C191.613 645.361 191.717 644.664 191.717 643.874C191.717 643.087 191.613 642.394 191.405 641.796C191.198 641.193 190.908 640.727 190.537 640.398C190.165 640.066 189.74 639.898 189.263 639.894ZM197.528 652.374H196.237V637.593H197.528V652.374ZM196.812 644.308H192.515V643.228H196.812V644.308ZM211.812 652.35H210.509V637.593H211.812V652.35ZM204.44 641.972C204.436 643.001 204.248 644.016 203.876 645.018C203.508 646.016 203.011 646.908 202.385 647.695C201.763 648.478 201.082 649.075 200.342 649.485L199.473 648.499C200.174 648.151 200.822 647.629 201.416 646.932C202.015 646.231 202.491 645.445 202.843 644.572C203.199 643.696 203.379 642.829 203.383 641.972V639.671H204.44V641.972ZM204.698 641.972C204.698 642.727 204.874 643.516 205.226 644.337C205.578 645.155 206.05 645.905 206.641 646.586C207.232 647.263 207.872 647.775 208.56 648.124L207.774 649.122C207.03 648.734 206.343 648.159 205.713 647.396C205.083 646.629 204.582 645.768 204.211 644.813C203.839 643.858 203.653 642.911 203.653 641.972V639.671H204.698V641.972ZM208.056 640.199H200.013V639.107H208.056V640.199ZM211.355 642.84H207.48V641.749H211.355V642.84ZM211.355 645.987H207.48V644.895H211.355V645.987ZM217.808 638.731C218.532 638.735 219.176 638.949 219.739 639.371C220.307 639.79 220.747 640.389 221.06 641.167C221.377 641.942 221.538 642.844 221.542 643.874C221.538 644.907 221.377 645.811 221.06 646.586C220.747 647.36 220.307 647.959 219.739 648.382C219.176 648.805 218.532 649.016 217.808 649.016C217.084 649.016 216.44 648.805 215.877 648.382C215.317 647.959 214.879 647.36 214.562 646.586C214.249 645.811 214.094 644.907 214.098 643.874C214.094 642.844 214.249 641.942 214.562 641.167C214.879 640.389 215.317 639.79 215.877 639.371C216.44 638.949 217.084 638.735 217.808 638.731ZM217.808 639.894C217.327 639.898 216.898 640.066 216.523 640.398C216.151 640.727 215.859 641.193 215.648 641.796C215.437 642.394 215.331 643.087 215.331 643.874C215.331 644.664 215.437 645.361 215.648 645.963C215.859 646.566 216.151 647.032 216.523 647.36C216.898 647.689 217.327 647.854 217.808 647.854C218.297 647.854 218.728 647.689 219.1 647.36C219.475 647.032 219.767 646.568 219.974 645.969C220.182 645.367 220.285 644.668 220.285 643.874C220.285 643.083 220.182 642.388 219.974 641.79C219.767 641.191 219.475 640.727 219.1 640.398C218.728 640.066 218.297 639.898 217.808 639.894ZM227.682 642.418H224.935V641.302H227.682V642.418ZM227.682 646.797H224.935V645.705H227.682V646.797ZM225.287 652.35H223.984V637.593H225.287V652.35ZM243.547 646.163H242.244V637.593H243.547V646.163ZM245.766 642.477H242.984V641.373H245.766V642.477ZM235.505 648.394H242.244V646.809H243.547V652.151H234.214V646.809H235.505V648.394ZM242.244 651.094V649.427H235.505V651.094H242.244ZM240.835 640.187H232.042V639.119H240.835V640.187ZM236.444 640.88C237.145 640.88 237.761 640.985 238.293 641.197C238.83 641.408 239.244 641.709 239.538 642.101C239.835 642.492 239.986 642.946 239.99 643.463C239.986 643.983 239.835 644.439 239.538 644.83C239.244 645.218 238.83 645.519 238.293 645.734C237.757 645.946 237.141 646.049 236.444 646.046C235.736 646.049 235.112 645.946 234.572 645.734C234.036 645.519 233.619 645.218 233.321 644.83C233.028 644.439 232.883 643.983 232.887 643.463C232.883 642.946 233.028 642.492 233.321 642.101C233.619 641.709 234.036 641.408 234.572 641.197C235.108 640.985 235.732 640.88 236.444 640.88ZM236.444 641.878C235.982 641.874 235.577 641.938 235.229 642.071C234.881 642.201 234.609 642.387 234.413 642.629C234.221 642.872 234.127 643.15 234.131 643.463C234.127 643.78 234.221 644.06 234.413 644.302C234.609 644.541 234.881 644.727 235.229 644.86C235.577 644.993 235.982 645.059 236.444 645.059C236.898 645.059 237.299 644.993 237.648 644.86C237.996 644.727 238.266 644.541 238.458 644.302C238.653 644.06 238.753 643.78 238.757 643.463C238.753 643.15 238.653 642.872 238.458 642.629C238.266 642.387 237.996 642.201 237.648 642.071C237.299 641.938 236.898 641.874 236.444 641.878ZM237.09 639.694H235.799V637.452H237.09V639.694ZM258.454 652.35H257.162V637.593H258.454V652.35ZM248.533 648.171H247.254V639.048H248.533V648.171ZM248.451 647.407C249.664 647.407 250.858 647.353 252.032 647.243C253.206 647.134 254.392 646.953 255.589 646.703L255.765 647.818C254.505 648.077 253.28 648.263 252.091 648.376C250.905 648.49 249.692 648.546 248.451 648.546H247.254V647.407H248.451ZM271.999 652.374H270.695V637.593H271.999V652.374ZM274.464 644.519H271.705V643.427H274.464V644.519ZM262.383 647.572C263.827 647.572 265.068 647.535 266.105 647.46C267.146 647.386 268.202 647.251 269.275 647.055L269.439 648.182C268.343 648.378 267.271 648.509 266.222 648.576C265.173 648.642 263.894 648.675 262.383 648.675H261.221V647.572H262.383ZM268.112 640.105H262.524V648.077H261.221V639.037H268.112V640.105Z" fill="#818384"/>
        <path d="M130.586 684.523H127.205V683.443H130.586V684.523ZM131.49 688.386H130.187V679.593H131.49V688.386ZM126.594 688.844C127.612 688.844 128.492 688.952 129.236 689.167C129.979 689.382 130.549 689.697 130.944 690.112C131.339 690.523 131.537 691.016 131.537 691.591C131.537 692.166 131.339 692.658 130.944 693.065C130.549 693.475 129.979 693.789 129.236 694.004C128.496 694.223 127.616 694.334 126.594 694.338C125.569 694.334 124.686 694.223 123.947 694.004C123.207 693.789 122.638 693.475 122.238 693.065C121.843 692.658 121.648 692.166 121.651 691.591C121.648 691.016 121.843 690.523 122.238 690.112C122.638 689.697 123.207 689.382 123.947 689.167C124.69 688.952 125.573 688.844 126.594 688.844ZM126.594 689.865C125.843 689.865 125.193 689.934 124.645 690.071C124.097 690.208 123.675 690.407 123.377 690.67C123.084 690.928 122.939 691.235 122.943 691.591C122.939 691.943 123.084 692.249 123.377 692.507C123.675 692.765 124.097 692.961 124.645 693.094C125.193 693.231 125.843 693.297 126.594 693.294C127.342 693.297 127.989 693.231 128.537 693.094C129.089 692.961 129.512 692.765 129.805 692.507C130.099 692.249 130.245 691.943 130.245 691.591C130.245 691.235 130.099 690.928 129.805 690.67C129.512 690.407 129.089 690.208 128.537 690.071C127.989 689.934 127.342 689.865 126.594 689.865ZM124.152 682.305C124.148 683.193 123.97 684.032 123.618 684.823C123.27 685.609 122.782 686.3 122.156 686.895C121.53 687.486 120.81 687.936 119.996 688.245L119.315 687.212C120.039 686.95 120.687 686.566 121.258 686.061C121.833 685.553 122.28 684.974 122.597 684.324C122.914 683.67 123.072 682.997 123.072 682.305V681.084H124.152V682.305ZM124.387 682.293C124.387 682.927 124.54 683.541 124.845 684.136C125.15 684.731 125.579 685.261 126.13 685.727C126.682 686.193 127.314 686.547 128.026 686.789L127.346 687.834C126.551 687.549 125.849 687.126 125.238 686.566C124.632 686.003 124.16 685.353 123.823 684.617C123.487 683.882 123.319 683.107 123.319 682.293V681.084H124.387V682.293ZM127.686 681.753H119.738V680.673H127.686V681.753ZM145.082 687.459H143.778V679.593H145.082V687.459ZM147.3 684.16H144.718V683.056H147.3V684.16ZM135.384 685.862C136.472 685.862 137.388 685.848 138.131 685.821C138.875 685.793 139.566 685.744 140.203 685.674C140.845 685.6 141.497 685.494 142.158 685.357L142.323 686.437C141.638 686.578 140.963 686.686 140.297 686.76C139.636 686.834 138.924 686.885 138.161 686.913C137.401 686.94 136.476 686.954 135.384 686.954H134.245V685.862H135.384ZM140.773 681.647H135.537V686.613H134.245V680.567H140.773V681.647ZM137.028 690.088H143.778V688.257H145.082V694.104H135.736V688.257H137.028V690.088ZM143.778 693.023V691.145H137.028V693.023H143.778ZM163.225 690.276H161.921V679.581H163.225V690.276ZM165.455 685.075H162.814V683.983H165.455V685.075ZM153.527 686.555C154.607 686.558 155.519 686.549 156.263 686.525C157.006 686.498 157.699 686.451 158.341 686.384C158.986 686.314 159.64 686.21 160.301 686.073L160.466 687.153C159.448 687.349 158.433 687.482 157.419 687.552C156.409 687.623 155.112 687.654 153.527 687.646H152.388V686.555H153.527ZM158.951 681.952H153.68V687.165H152.388V680.872H158.951V681.952ZM163.905 694.021H153.985V692.941H163.905V694.021ZM155.276 693.434H153.985V689.196H155.276V693.434ZM169.936 680.731C170.653 680.735 171.289 680.949 171.844 681.371C172.404 681.79 172.838 682.389 173.147 683.167C173.46 683.942 173.619 684.844 173.623 685.874C173.619 686.907 173.46 687.811 173.147 688.586C172.838 689.36 172.404 689.959 171.844 690.382C171.289 690.805 170.653 691.016 169.936 691.016C169.212 691.016 168.569 690.805 168.005 690.382C167.446 689.959 167.009 689.36 166.696 688.586C166.387 687.811 166.234 686.907 166.238 685.874C166.234 684.844 166.387 683.942 166.696 683.167C167.009 682.389 167.446 681.79 168.005 681.371C168.569 680.949 169.212 680.735 169.936 680.731ZM169.936 681.894C169.455 681.898 169.029 682.066 168.657 682.398C168.289 682.727 168.001 683.193 167.794 683.796C167.586 684.394 167.483 685.087 167.483 685.874C167.483 686.664 167.586 687.361 167.794 687.963C168.001 688.566 168.289 689.032 168.657 689.36C169.029 689.689 169.455 689.854 169.936 689.854C170.414 689.854 170.838 689.689 171.21 689.36C171.582 689.032 171.872 688.566 172.079 687.963C172.286 687.361 172.39 686.664 172.39 685.874C172.39 685.087 172.286 684.394 172.079 683.796C171.872 683.193 171.582 682.727 171.21 682.398C170.838 682.066 170.414 681.898 169.936 681.894ZM178.202 694.374H176.91V679.593H178.202V694.374ZM177.485 686.308H173.188V685.228H177.485V686.308ZM192.181 685.122H182.084V684.066H192.181V685.122ZM193.742 688.186H180.229V687.13H193.742V688.186ZM183.375 684.606H182.084V680.133H183.375V684.606ZM192.275 693.986H181.99V692.906H192.275V693.986ZM183.282 693.211H181.99V689.689H183.282V693.211ZM209.831 683.068H205.487V681.999H209.831V683.068ZM209.854 686.003H205.487V684.923H209.854V686.003ZM210.629 688.339H209.326V679.593H210.629V688.339ZM205.862 687.271H199.088V680.72H205.862V687.271ZM200.38 686.202H204.583V681.776H200.38V686.202ZM205.733 688.762C206.751 688.762 207.631 688.871 208.375 689.09C209.118 689.31 209.688 689.629 210.083 690.047C210.478 690.466 210.676 690.969 210.676 691.556C210.676 692.135 210.478 692.632 210.083 693.047C209.688 693.462 209.118 693.777 208.375 693.992C207.635 694.207 206.755 694.315 205.733 694.315C204.708 694.315 203.825 694.207 203.086 693.992C202.346 693.777 201.777 693.462 201.378 693.047C200.982 692.632 200.787 692.135 200.791 691.556C200.787 690.969 200.982 690.466 201.378 690.047C201.777 689.629 202.346 689.31 203.086 689.09C203.829 688.871 204.712 688.762 205.733 688.762ZM205.733 689.783C204.978 689.787 204.326 689.859 203.778 690C203.235 690.137 202.814 690.339 202.516 690.605C202.223 690.871 202.078 691.188 202.082 691.556C202.078 691.908 202.223 692.213 202.516 692.472C202.814 692.73 203.236 692.93 203.784 693.07C204.332 693.211 204.982 693.282 205.733 693.282C206.481 693.282 207.128 693.211 207.676 693.07C208.228 692.93 208.651 692.73 208.944 692.472C209.238 692.213 209.384 691.908 209.384 691.556C209.384 691.188 209.238 690.871 208.944 690.605C208.651 690.339 208.23 690.137 207.682 690C207.134 689.859 206.485 689.787 205.733 689.783ZM217.411 683.561C217.411 684.617 217.231 685.654 216.871 686.672C216.511 687.689 216.016 688.593 215.386 689.384C214.76 690.174 214.061 690.777 213.29 691.192L212.469 690.147C213.177 689.795 213.827 689.269 214.418 688.568C215.012 687.868 215.48 687.079 215.82 686.202C216.165 685.322 216.339 684.441 216.343 683.561V680.872H217.411V683.561ZM217.634 683.561C217.63 684.406 217.799 685.249 218.139 686.091C218.484 686.932 218.947 687.686 219.53 688.351C220.114 689.016 220.753 689.521 221.45 689.865L220.64 690.91C219.877 690.507 219.184 689.926 218.562 689.167C217.944 688.404 217.456 687.533 217.1 686.555C216.748 685.576 216.574 684.578 216.578 683.561V680.872H217.634V683.561ZM224.103 694.35H222.8V679.593H224.103V694.35ZM226.569 686.707H223.81V685.58H226.569V686.707ZM239.127 694.374H237.824V679.593H239.127V694.374ZM231.285 680.731C232.013 680.735 232.662 680.949 233.234 681.371C233.805 681.79 234.251 682.389 234.572 683.167C234.893 683.946 235.053 684.848 235.053 685.874C235.053 686.903 234.893 687.807 234.572 688.586C234.251 689.36 233.803 689.959 233.228 690.382C232.656 690.805 232.009 691.016 231.285 691.016C230.553 691.016 229.901 690.805 229.33 690.382C228.763 689.959 228.318 689.36 227.997 688.586C227.677 687.811 227.516 686.907 227.516 685.874C227.516 684.844 227.677 683.942 227.997 683.167C228.318 682.389 228.763 681.79 229.33 681.371C229.901 680.949 230.553 680.735 231.285 680.731ZM231.285 681.894C230.796 681.898 230.359 682.066 229.976 682.398C229.596 682.727 229.301 683.193 229.089 683.796C228.878 684.394 228.772 685.087 228.772 685.874C228.772 686.664 228.878 687.361 229.089 687.963C229.301 688.566 229.596 689.032 229.976 689.36C230.359 689.689 230.796 689.854 231.285 689.854C231.774 689.854 232.206 689.689 232.582 689.36C232.962 689.032 233.257 688.566 233.468 687.963C233.68 687.361 233.785 686.664 233.785 685.874C233.785 685.087 233.68 684.394 233.468 683.796C233.257 683.193 232.962 682.727 232.582 682.398C232.206 682.066 231.774 681.898 231.285 681.894ZM252.696 684.218H248.07V683.138H252.696V684.218ZM252.696 688.28H248.07V687.212H252.696V688.28ZM248.575 690.617H241.847V681.06H248.575V690.617ZM243.139 689.56H247.307V682.093H243.139V689.56ZM253.482 694.374H252.191V679.593H253.482V694.374ZM78.5284 703.131C78.5245 704.649 78.3092 706.058 77.8826 707.357C77.46 708.656 76.7399 709.869 75.7224 710.997C74.7088 712.12 73.347 713.098 71.6368 713.932L70.9206 712.898C72.4469 712.163 73.6777 711.308 74.613 710.333C75.5483 709.359 76.2233 708.288 76.6382 707.122C77.053 705.952 77.2604 704.669 77.2604 703.271V703.131H78.5284ZM77.9296 704.211H71.719V703.131H77.9296V704.211ZM71.1907 708.355L70.9793 707.193L77.0373 706.794V707.803L71.1907 708.355ZM82.8136 716.35H81.5104V701.593H82.8136V716.35ZM98.4129 714.46H84.8998V713.368H98.4129V714.46ZM92.261 713.709H90.9695V709.811H92.261V713.709ZM87.7996 705.302H95.4661V702.637H96.7575V710.186H86.4964V702.637H87.7996V705.302ZM95.4661 709.118V706.371H87.7996V709.118H95.4661ZM111.101 709.764H100.91V708.684H111.101V709.764ZM112.697 714.331H99.1841V713.239H112.697V714.331ZM110.96 704.046H102.201V709.177H100.91V702.966H110.96V704.046ZM129.514 709.506H128.21V701.593H129.514V709.506ZM121.237 712.053H128.222V710.257H129.514V716.151H119.957V710.257H121.237V712.053ZM128.222 715.082V713.098H121.237V715.082H128.222ZM121.542 702.309C122.282 702.305 122.945 702.446 123.532 702.731C124.123 703.013 124.583 703.414 124.911 703.935C125.24 704.451 125.404 705.04 125.404 705.702C125.404 706.363 125.24 706.95 124.911 707.463C124.583 707.971 124.123 708.371 123.532 708.66C122.945 708.946 122.282 709.087 121.542 709.083C120.802 709.087 120.137 708.946 119.546 708.66C118.959 708.371 118.499 707.969 118.167 707.457C117.834 706.944 117.668 706.359 117.668 705.702C117.668 705.04 117.834 704.451 118.167 703.935C118.499 703.414 118.959 703.013 119.546 702.731C120.137 702.446 120.802 702.305 121.542 702.309ZM121.542 703.412C121.041 703.408 120.593 703.504 120.198 703.7C119.802 703.892 119.493 704.164 119.27 704.516C119.051 704.864 118.943 705.259 118.947 705.702C118.943 706.144 119.051 706.541 119.27 706.893C119.493 707.242 119.802 707.514 120.198 707.709C120.593 707.905 121.041 708.003 121.542 708.003C122.039 708.003 122.483 707.905 122.874 707.709C123.27 707.514 123.579 707.242 123.802 706.893C124.025 706.541 124.137 706.144 124.137 705.702C124.137 705.259 124.025 704.864 123.802 704.516C123.579 704.164 123.27 703.892 122.874 703.7C122.483 703.504 122.039 703.408 121.542 703.412ZM133.29 708.93C134.86 708.93 136.071 708.907 136.924 708.86C137.777 708.813 138.628 708.711 139.478 708.555L139.607 709.635C138.734 709.779 137.859 709.875 136.983 709.922C136.11 709.965 134.879 709.987 133.29 709.987H132.245V708.93H133.29ZM138.609 706.641H133.537V709.552H132.245V705.631H137.317V703.553H132.21V702.497H138.609V706.641ZM143.845 710.668H142.542V701.604H143.845V710.668ZM142.847 704.856H139.595V703.8H142.847V704.856ZM142.847 707.921H139.595V706.852H142.847V707.921ZM143.845 716.374H142.542V712.535H133.901V711.466H143.845V716.374ZM161.295 712.664H159.992V701.604H161.295V712.664ZM163.514 707.568H160.884V706.465H163.514V707.568ZM158.583 704.481H149.79V703.412H158.583V704.481ZM154.192 705.291C154.889 705.291 155.505 705.404 156.041 705.631C156.578 705.858 156.992 706.181 157.286 706.6C157.583 707.015 157.734 707.498 157.738 708.05C157.734 708.594 157.583 709.071 157.286 709.482C156.992 709.889 156.578 710.206 156.041 710.433C155.505 710.66 154.889 710.773 154.192 710.773C153.484 710.773 152.86 710.662 152.32 710.439C151.784 710.216 151.367 709.899 151.069 709.488C150.776 709.073 150.631 708.594 150.635 708.05C150.631 707.498 150.776 707.015 151.069 706.6C151.367 706.181 151.784 705.858 152.32 705.631C152.86 705.404 153.484 705.291 154.192 705.291ZM154.192 706.312C153.731 706.312 153.326 706.383 152.977 706.523C152.629 706.664 152.357 706.868 152.161 707.134C151.97 707.396 151.876 707.701 151.879 708.05C151.876 708.39 151.97 708.69 152.161 708.948C152.357 709.202 152.629 709.4 152.977 709.541C153.326 709.678 153.731 709.744 154.192 709.74C154.646 709.744 155.047 709.678 155.396 709.541C155.744 709.4 156.014 709.202 156.206 708.948C156.401 708.69 156.501 708.39 156.505 708.05C156.501 707.701 156.401 707.396 156.206 707.134C156.014 706.868 155.744 706.664 155.396 706.523C155.047 706.383 154.646 706.312 154.192 706.312ZM154.838 703.964H153.547V701.604H154.838V703.964ZM161.976 716.021H152.056V714.941H161.976V716.021ZM153.347 715.387H152.056V711.771H153.347V715.387ZM179.227 706.84H174.93V705.76H179.227V706.84ZM180.131 712.523H178.828V701.604H180.131V712.523ZM180.471 716.021H170.586V714.941H180.471V716.021ZM171.901 715.47H170.586V711.454H171.901V715.47ZM169.94 705.209H174.049V702.579H175.341V709.999H168.637V702.579H169.94V705.209ZM174.049 708.93V706.23H169.94V708.93H174.049ZM188.897 702.544C189.923 702.547 190.846 702.72 191.668 703.06C192.49 703.397 193.134 703.872 193.599 704.487C194.065 705.101 194.298 705.807 194.298 706.606C194.298 707.408 194.065 708.116 193.599 708.731C193.134 709.341 192.49 709.817 191.668 710.157C190.846 710.494 189.923 710.66 188.897 710.656C187.876 710.66 186.956 710.494 186.138 710.157C185.324 709.817 184.683 709.341 184.213 708.731C183.743 708.116 183.509 707.408 183.509 706.606C183.509 705.807 183.743 705.101 184.213 704.487C184.683 703.872 185.324 703.397 186.138 703.06C186.956 702.72 187.876 702.547 188.897 702.544ZM188.897 703.612C188.115 703.608 187.408 703.733 186.778 703.988C186.148 704.238 185.651 704.592 185.287 705.05C184.927 705.508 184.749 706.026 184.753 706.606C184.749 707.189 184.925 707.707 185.281 708.161C185.641 708.611 186.136 708.962 186.766 709.212C187.4 709.462 188.111 709.588 188.897 709.588C189.684 709.588 190.392 709.462 191.022 709.212C191.656 708.962 192.151 708.611 192.507 708.161C192.864 707.707 193.042 707.189 193.042 706.606C193.042 706.023 192.862 705.504 192.502 705.05C192.142 704.592 191.647 704.238 191.016 703.988C190.386 703.733 189.68 703.608 188.897 703.612ZM195.695 714.378H182.182V713.286H195.695V714.378ZM209.979 714.519H196.466V713.415H209.979V714.519ZM203.827 713.896H202.536V710.245H203.827V713.896ZM208.277 707.146H199.448V710.128H198.157V706.077H206.986V703.765H198.122V702.684H208.277V707.146ZM208.617 710.633H198.157V709.552H208.617V710.633ZM219.798 709.975H218.495V707.733H219.798V709.975ZM219.106 702.285C219.818 702.285 220.452 702.407 221.008 702.649C221.563 702.892 221.996 703.234 222.305 703.676C222.618 704.115 222.777 704.622 222.78 705.197C222.777 705.764 222.618 706.269 222.305 706.711C221.996 707.15 221.563 707.49 221.008 707.733C220.452 707.975 219.818 708.097 219.106 708.097C218.394 708.097 217.76 707.975 217.204 707.733C216.648 707.49 216.216 707.15 215.907 706.711C215.601 706.269 215.451 705.764 215.455 705.197C215.451 704.622 215.601 704.115 215.907 703.676C216.216 703.234 216.646 702.892 217.198 702.649C217.754 702.407 218.39 702.285 219.106 702.285ZM219.106 703.295C218.632 703.295 218.21 703.373 217.838 703.53C217.47 703.686 217.182 703.909 216.975 704.199C216.771 704.488 216.672 704.821 216.676 705.197C216.672 705.569 216.771 705.897 216.975 706.183C217.182 706.465 217.47 706.688 217.838 706.852C218.21 707.013 218.632 707.095 219.106 707.099C219.583 707.095 220.006 707.013 220.374 706.852C220.742 706.688 221.027 706.465 221.231 706.183C221.438 705.897 221.544 705.569 221.548 705.197C221.544 704.821 221.438 704.488 221.231 704.199C221.027 703.909 220.742 703.686 220.374 703.53C220.006 703.373 219.583 703.295 219.106 703.295ZM226.126 712.898H224.823V701.604H226.126V712.898ZM228.334 707.709H225.575V706.606H228.334V707.709ZM226.667 716.01H216.758V714.918H226.667V716.01ZM218.061 715.411H216.758V711.912H218.061V715.411ZM214.597 709.611C216.241 709.619 217.855 709.588 219.44 709.517C221.029 709.447 222.507 709.31 223.872 709.106L223.978 710.081C222.585 710.331 221.127 710.496 219.605 710.574C218.086 710.652 216.468 710.691 214.75 710.691L214.597 709.611ZM233.742 703.964C233.738 704.903 233.564 705.778 233.22 706.588C232.879 707.398 232.396 708.103 231.77 708.701C231.144 709.3 230.416 709.756 229.586 710.069L228.882 709.012C229.633 708.746 230.295 708.361 230.866 707.856C231.437 707.351 231.88 706.766 232.193 706.101C232.51 705.432 232.67 704.719 232.674 703.964V702.438H233.742V703.964ZM233.965 703.917C233.962 704.606 234.112 705.263 234.417 705.89C234.727 706.516 235.159 707.064 235.715 707.533C236.27 708.003 236.908 708.359 237.628 708.602L236.901 709.623C236.102 709.326 235.402 708.897 234.799 708.337C234.196 707.778 233.729 707.12 233.396 706.365C233.063 705.61 232.897 704.794 232.897 703.917V702.438H233.965V703.917ZM241.127 710.339H239.824V701.593H241.127V710.339ZM236.231 710.762C237.249 710.762 238.129 710.871 238.873 711.09C239.616 711.31 240.186 711.629 240.581 712.047C240.976 712.466 241.174 712.969 241.174 713.556C241.174 714.135 240.976 714.632 240.581 715.047C240.186 715.462 239.616 715.777 238.873 715.992C238.133 716.207 237.253 716.315 236.231 716.315C235.206 716.315 234.324 716.207 233.584 715.992C232.844 715.777 232.275 715.462 231.876 715.047C231.48 714.632 231.285 714.135 231.289 713.556C231.285 712.969 231.48 712.466 231.876 712.047C232.275 711.629 232.844 711.31 233.584 711.09C234.327 710.871 235.21 710.762 236.231 710.762ZM236.231 711.795C235.48 711.795 234.83 711.865 234.282 712.006C233.735 712.147 233.312 712.351 233.014 712.617C232.721 712.879 232.576 713.192 232.58 713.556C232.576 713.908 232.721 714.213 233.014 714.472C233.312 714.73 233.735 714.928 234.282 715.065C234.83 715.202 235.48 715.27 236.231 715.27C236.979 715.27 237.626 715.202 238.174 715.065C238.726 714.928 239.149 714.73 239.442 714.472C239.736 714.213 239.883 713.908 239.883 713.556C239.883 713.192 239.736 712.879 239.442 712.617C239.149 712.351 238.726 712.147 238.174 712.006C237.626 711.865 236.979 711.795 236.231 711.795ZM240.094 705.831H236.537V704.751H240.094V705.831ZM251.972 709.048H244.387V707.968H251.972V709.048ZM248.743 712.241H247.44V708.813H248.743V712.241ZM251.913 704.058H245.667V708.355H244.387V703.001H251.913V704.058ZM255.282 716.374H253.979V701.593H255.282V716.374ZM243.26 712.041C245.096 712.041 246.821 712.014 248.438 711.959C250.054 711.904 251.576 711.795 253.005 711.631L253.11 712.605C252.108 712.75 251.066 712.863 249.982 712.945C248.898 713.024 247.843 713.077 246.818 713.104C245.792 713.131 244.732 713.145 243.636 713.145H243.436L243.26 712.041ZM262.511 706.124C262.507 707.138 262.311 708.14 261.924 709.13C261.54 710.116 261.022 710.997 260.368 711.771C259.718 712.542 259.008 713.122 258.237 713.509L257.462 712.476C258.163 712.143 258.816 711.636 259.423 710.955C260.034 710.271 260.519 709.502 260.879 708.648C261.243 707.795 261.427 706.954 261.431 706.124V703.682H262.511V706.124ZM262.746 706.124C262.746 706.938 262.926 707.746 263.286 708.549C263.646 709.351 264.131 710.067 264.741 710.697C265.352 711.327 266.017 711.799 266.737 712.112L266.009 713.145C265.211 712.781 264.483 712.241 263.826 711.525C263.168 710.805 262.646 709.975 262.258 709.036C261.875 708.093 261.685 707.122 261.689 706.124V703.682H262.746V706.124ZM266.256 704.199H257.944V703.107H266.256V704.199ZM269.625 716.35H268.322V701.593H269.625V716.35ZM279.726 702.438C280.454 702.438 281.11 702.583 281.693 702.872C282.276 703.162 282.732 703.567 283.06 704.087C283.389 704.604 283.554 705.189 283.554 705.843C283.554 706.5 283.389 707.087 283.06 707.604C282.732 708.12 282.276 708.525 281.693 708.819C281.11 709.108 280.454 709.255 279.726 709.259C278.994 709.255 278.335 709.108 277.748 708.819C277.165 708.525 276.707 708.12 276.374 707.604C276.046 707.087 275.883 706.5 275.887 705.843C275.883 705.189 276.048 704.604 276.38 704.087C276.717 703.567 277.177 703.162 277.76 702.872C278.343 702.583 278.998 702.438 279.726 702.438ZM279.726 703.53C279.245 703.53 278.809 703.629 278.417 703.829C278.03 704.029 277.723 704.305 277.496 704.657C277.273 705.009 277.163 705.404 277.167 705.843C277.163 706.285 277.273 706.684 277.496 707.04C277.723 707.392 278.03 707.67 278.417 707.874C278.809 708.077 279.245 708.179 279.726 708.179C280.208 708.179 280.642 708.077 281.029 707.874C281.421 707.67 281.728 707.392 281.951 707.04C282.174 706.684 282.286 706.285 282.286 705.843C282.286 705.404 282.174 705.009 281.951 704.657C281.728 704.305 281.421 704.029 281.029 703.829C280.642 703.629 280.208 703.53 279.726 703.53ZM287.146 708.965H285.843V701.593H287.146V708.965ZM289.365 706.007H286.583V704.915H289.365V706.007ZM277.883 714.883C278.439 714.883 279.032 714.845 279.662 714.771C280.296 714.697 280.9 714.562 281.476 714.366L281.687 715.411C281.241 715.56 280.791 715.675 280.337 715.757C279.883 715.839 279.458 715.892 279.063 715.916C278.672 715.939 278.278 715.951 277.883 715.951H277.179V714.883H277.883ZM278.447 715.282H277.179V710.562H278.447V715.282ZM288.625 711.654H281.159V710.633H288.625V711.654ZM284.892 712.147C285.424 712.147 285.9 712.231 286.318 712.4C286.737 712.568 287.062 712.812 287.293 713.133C287.528 713.45 287.647 713.818 287.651 714.237C287.647 714.656 287.528 715.022 287.293 715.335C287.062 715.652 286.737 715.894 286.318 716.062C285.904 716.231 285.428 716.315 284.892 716.315C284.348 716.315 283.869 716.231 283.454 716.062C283.043 715.894 282.72 715.652 282.485 715.335C282.254 715.022 282.141 714.656 282.145 714.237C282.141 713.818 282.254 713.45 282.485 713.133C282.72 712.812 283.045 712.568 283.46 712.4C283.874 712.231 284.352 712.147 284.892 712.147ZM284.892 713.086C284.587 713.09 284.315 713.141 284.076 713.239C283.837 713.333 283.649 713.468 283.512 713.644C283.376 713.816 283.307 714.014 283.307 714.237C283.307 714.464 283.376 714.663 283.512 714.836C283.649 715.008 283.835 715.141 284.07 715.235C284.309 715.329 284.583 715.376 284.892 715.376C285.197 715.376 285.469 715.329 285.708 715.235C285.947 715.141 286.133 715.008 286.266 714.836C286.399 714.663 286.465 714.464 286.465 714.237C286.465 714.014 286.399 713.816 286.266 713.644C286.133 713.468 285.947 713.333 285.708 713.239C285.469 713.141 285.197 713.09 284.892 713.086ZM285.549 711.419H284.27V709.329H285.549V711.419ZM301.818 707.122H291.721V706.066H301.818V707.122ZM303.379 710.186H289.866V709.13H303.379V710.186ZM293.013 706.606H291.721V702.133H293.013V706.606ZM301.912 715.986H291.627V714.906H301.912V715.986ZM292.919 715.211H291.627V711.689H292.919V715.211ZM93.1502 736.448H79.6371V735.356H93.1502V736.448ZM86.9983 735.673H85.7068V731.494H86.9983V735.673ZM91.4713 731.752H81.2338V724.825H91.4713V731.752ZM82.5017 730.707H90.2034V725.882H82.5017V730.707ZM100.637 723.921C101.705 723.921 102.631 724.031 103.414 724.25C104.2 724.469 104.803 724.792 105.222 725.219C105.64 725.641 105.85 726.144 105.85 726.727C105.85 727.302 105.64 727.798 105.222 728.212C104.803 728.623 104.2 728.938 103.414 729.157C102.631 729.377 101.705 729.486 100.637 729.486C99.5725 729.486 98.6489 729.377 97.8662 729.157C97.0835 728.938 96.4789 728.621 96.0523 728.206C95.6258 727.792 95.4125 727.299 95.4125 726.727C95.4125 726.144 95.6238 725.641 96.0465 725.219C96.4691 724.792 97.0737 724.469 97.8603 724.25C98.6469 724.031 99.5725 723.921 100.637 723.921ZM100.637 724.966C99.8464 724.966 99.1596 725.037 98.5765 725.177C97.9934 725.318 97.5433 725.522 97.2264 725.788C96.9133 726.05 96.7587 726.363 96.7626 726.727C96.7587 727.079 96.9133 727.385 97.2264 727.643C97.5433 727.901 97.9934 728.101 98.5765 728.242C99.1596 728.379 99.8464 728.449 100.637 728.453C101.424 728.449 102.108 728.379 102.691 728.242C103.278 728.101 103.731 727.901 104.047 727.643C104.364 727.385 104.523 727.079 104.523 726.727C104.523 726.363 104.364 726.05 104.047 725.788C103.731 725.522 103.278 725.318 102.691 725.177C102.108 725.037 101.424 724.966 100.637 724.966ZM105.72 738.151H95.5651V733.302H105.72V738.151ZM96.8565 737.082H104.453V734.347H96.8565V737.082ZM107.376 731.834H93.9215V730.766H107.376V731.834ZM109.345 740.393H108.112L109.028 735.873H110.624L109.345 740.393ZM127.199 726.997H123.184V725.929H127.199V726.997ZM127.106 730.026H123.043V728.923H127.106V730.026ZM123.689 724.497C123.685 725.718 123.407 726.813 122.856 727.784C122.308 728.754 121.513 729.58 120.472 730.261C119.435 730.942 118.187 731.47 116.727 731.846L116.222 730.801C117.518 730.476 118.619 730.04 119.527 729.492C120.439 728.94 121.13 728.295 121.599 727.555C122.069 726.811 122.304 725.995 122.304 725.107V724.497H123.689ZM123.184 725.6H116.974V724.497H123.184V725.6ZM128.244 731.529H126.953V723.593H128.244V731.529ZM119.956 734.135H126.953V732.269H128.244V738.151H118.641V732.269H119.956V734.135ZM126.953 737.094V735.18H119.956V737.094H126.953ZM141.848 732.222H140.545V723.593H141.848V732.222ZM144.067 728.253H141.484V727.15H144.067V728.253ZM132.221 726.692H136.518V724.426H137.809V731.294H130.941V724.426H132.221V726.692ZM136.518 730.238V727.737H132.221V730.238H136.518ZM141.965 734.088H133.876V737.834H132.573V733.044H141.965V734.088ZM142.247 738.139H132.573V737.082H142.247V738.139ZM149.734 726.598C149.73 727.443 149.55 728.234 149.194 728.97C148.841 729.705 148.346 730.343 147.708 730.883C147.071 731.423 146.341 731.83 145.519 732.104L144.885 731.095C145.613 730.856 146.262 730.51 146.834 730.056C147.405 729.598 147.851 729.071 148.172 728.477C148.493 727.878 148.654 727.252 148.654 726.598V725.952H149.734V726.598ZM149.945 726.598C149.945 727.209 150.109 727.792 150.438 728.347C150.767 728.903 151.221 729.392 151.8 729.815C152.379 730.234 153.037 730.551 153.772 730.766L153.15 731.787C152.317 731.537 151.577 731.157 150.931 730.648C150.289 730.14 149.787 729.539 149.423 728.846C149.063 728.15 148.884 727.4 148.888 726.598V725.952H149.945V726.598ZM153.338 726.398H145.249V725.342H153.338V726.398ZM149.968 725.823H148.654V723.522H149.968V725.823ZM156.778 732.351H155.475V723.604H156.778V732.351ZM156.778 738.151H147.174V733.09H156.778V738.151ZM148.466 737.082H155.498V734.159H148.466V737.082ZM171.039 738.374H169.736V723.593H171.039V738.374ZM163.196 724.731C163.924 724.735 164.574 724.949 165.145 725.371C165.716 725.79 166.163 726.389 166.484 727.167C166.804 727.946 166.965 728.848 166.965 729.874C166.965 730.903 166.804 731.807 166.484 732.586C166.163 733.36 165.715 733.959 165.139 734.382C164.568 734.805 163.92 735.016 163.196 735.016C162.464 735.016 161.813 734.805 161.241 734.382C160.674 733.959 160.23 733.36 159.909 732.586C159.588 731.811 159.428 730.907 159.428 729.874C159.428 728.844 159.588 727.942 159.909 727.167C160.23 726.389 160.674 725.79 161.241 725.371C161.813 724.949 162.464 724.735 163.196 724.731ZM163.196 725.894C162.707 725.898 162.271 726.066 161.887 726.398C161.508 726.727 161.212 727.193 161.001 727.796C160.789 728.394 160.684 729.087 160.684 729.874C160.684 730.664 160.789 731.361 161.001 731.963C161.212 732.566 161.508 733.032 161.887 733.36C162.271 733.689 162.707 733.854 163.196 733.854C163.685 733.854 164.118 733.689 164.494 733.36C164.873 733.032 165.169 732.566 165.38 731.963C165.591 731.361 165.697 730.664 165.697 729.874C165.697 729.087 165.591 728.394 165.38 727.796C165.169 727.193 164.873 726.727 164.494 726.398C164.118 726.066 163.685 725.898 163.196 725.894ZM190.532 736.519H177.019V735.403H190.532V736.519ZM184.356 735.908H183.077V731.541H184.356V735.908ZM189.24 726.105H178.216V725.025H189.24V726.105ZM189.205 732.01H178.24V730.954H189.205V732.01ZM181.844 731.153H180.553V725.858H181.844V731.153ZM186.892 731.153H185.613V725.858H186.892V731.153ZM202.844 732.48H201.541V723.593H202.844V732.48ZM205.063 728.641H202.48V727.514H205.063V728.641ZM202.844 738.151H193.522V733.325H202.844V738.151ZM194.802 737.082H201.552V734.37H194.802V737.082ZM200.132 726.234H191.338V725.166H200.132V726.234ZM195.741 726.974C196.438 726.974 197.054 727.081 197.59 727.297C198.126 727.512 198.541 727.819 198.835 728.218C199.132 728.617 199.283 729.079 199.287 729.604C199.283 730.128 199.132 730.588 198.835 730.983C198.541 731.378 198.126 731.686 197.59 731.905C197.058 732.124 196.442 732.233 195.741 732.233C195.029 732.233 194.405 732.124 193.868 731.905C193.332 731.686 192.916 731.378 192.618 730.983C192.325 730.588 192.18 730.128 192.184 729.604C192.18 729.079 192.325 728.617 192.618 728.218C192.916 727.819 193.332 727.512 193.868 727.297C194.408 727.081 195.033 726.974 195.741 726.974ZM195.741 727.983C195.279 727.983 194.874 728.05 194.526 728.183C194.178 728.316 193.906 728.506 193.71 728.752C193.518 728.999 193.424 729.283 193.428 729.604C193.424 729.932 193.516 730.218 193.704 730.461C193.896 730.703 194.166 730.893 194.514 731.03C194.866 731.163 195.275 731.232 195.741 731.235C196.199 731.232 196.6 731.163 196.944 731.03C197.293 730.893 197.563 730.703 197.754 730.461C197.95 730.218 198.05 729.932 198.054 729.604C198.05 729.283 197.95 728.999 197.754 728.752C197.563 728.506 197.293 728.316 196.944 728.183C196.596 728.05 196.195 727.983 195.741 727.983ZM196.387 725.706H195.095V723.475H196.387V725.706ZM214.381 731.048H206.797V729.968H214.381V731.048ZM211.152 734.241H209.849V730.813H211.152V734.241ZM214.322 726.058H208.077V730.355H206.797V725.001H214.322V726.058ZM217.692 738.374H216.389V723.593H217.692V738.374ZM205.67 734.041C207.505 734.041 209.231 734.014 210.847 733.959C212.463 733.904 213.986 733.795 215.414 733.631L215.52 734.605C214.518 734.75 213.475 734.863 212.391 734.945C211.307 735.024 210.252 735.077 209.227 735.104C208.202 735.131 207.141 735.145 206.045 735.145H205.846L205.67 734.041ZM224.92 728.124C224.916 729.138 224.721 730.14 224.333 731.13C223.95 732.116 223.431 732.997 222.778 733.771C222.128 734.542 221.418 735.122 220.647 735.509L219.872 734.476C220.572 734.143 221.226 733.636 221.833 732.955C222.443 732.271 222.928 731.502 223.288 730.648C223.652 729.795 223.836 728.954 223.84 728.124V725.682H224.92V728.124ZM225.155 728.124C225.155 728.938 225.335 729.746 225.695 730.549C226.055 731.351 226.54 732.067 227.151 732.697C227.761 733.327 228.427 733.799 229.147 734.112L228.419 735.145C227.621 734.781 226.893 734.241 226.235 733.525C225.578 732.805 225.055 731.975 224.668 731.036C224.284 730.093 224.095 729.122 224.098 728.124V725.682H225.155V728.124ZM228.665 726.199H220.353V725.107H228.665V726.199ZM232.035 738.35H230.732V723.593H232.035V738.35ZM242.136 724.438C242.864 724.438 243.519 724.583 244.102 724.872C244.685 725.162 245.141 725.567 245.47 726.087C245.799 726.604 245.963 727.189 245.963 727.843C245.963 728.5 245.799 729.087 245.47 729.604C245.141 730.12 244.685 730.525 244.102 730.819C243.519 731.108 242.864 731.255 242.136 731.259C241.404 731.255 240.745 731.108 240.158 730.819C239.574 730.525 239.117 730.12 238.784 729.604C238.455 729.087 238.293 728.5 238.297 727.843C238.293 727.189 238.457 726.604 238.79 726.087C239.126 725.567 239.586 725.162 240.169 724.872C240.752 724.583 241.408 724.438 242.136 724.438ZM242.136 725.53C241.654 725.53 241.218 725.629 240.827 725.829C240.439 726.029 240.132 726.305 239.905 726.657C239.682 727.009 239.572 727.404 239.576 727.843C239.572 728.285 239.682 728.684 239.905 729.04C240.132 729.392 240.439 729.67 240.827 729.874C241.218 730.077 241.654 730.179 242.136 730.179C242.617 730.179 243.052 730.077 243.439 729.874C243.83 729.67 244.137 729.392 244.361 729.04C244.584 728.684 244.695 728.285 244.695 727.843C244.695 727.404 244.584 727.009 244.361 726.657C244.137 726.305 243.83 726.029 243.439 725.829C243.052 725.629 242.617 725.53 242.136 725.53ZM249.556 730.965H248.252V723.593H249.556V730.965ZM251.775 728.007H248.992V726.915H251.775V728.007ZM240.293 736.883C240.848 736.883 241.441 736.845 242.071 736.771C242.705 736.697 243.31 736.562 243.885 736.366L244.096 737.411C243.65 737.56 243.2 737.675 242.746 737.757C242.292 737.839 241.868 737.892 241.472 737.916C241.081 737.939 240.688 737.951 240.293 737.951H239.588V736.883H240.293ZM240.856 737.282H239.588V732.562H240.856V737.282ZM251.035 733.654H243.568V732.633H251.035V733.654ZM247.302 734.147C247.834 734.147 248.309 734.231 248.728 734.4C249.147 734.568 249.472 734.812 249.702 735.133C249.937 735.45 250.057 735.818 250.06 736.237C250.057 736.656 249.937 737.022 249.702 737.335C249.472 737.652 249.147 737.894 248.728 738.062C248.313 738.231 247.838 738.315 247.302 738.315C246.758 738.315 246.278 738.231 245.863 738.062C245.452 737.894 245.13 737.652 244.895 737.335C244.664 737.022 244.55 736.656 244.554 736.237C244.55 735.818 244.664 735.45 244.895 735.133C245.13 734.812 245.454 734.568 245.869 734.4C246.284 734.231 246.761 734.147 247.302 734.147ZM247.302 735.086C246.996 735.09 246.724 735.141 246.486 735.239C246.247 735.333 246.059 735.468 245.922 735.644C245.785 735.816 245.717 736.014 245.717 736.237C245.717 736.464 245.785 736.663 245.922 736.836C246.059 737.008 246.245 737.141 246.48 737.235C246.718 737.329 246.992 737.376 247.302 737.376C247.607 737.376 247.879 737.329 248.117 737.235C248.356 737.141 248.542 737.008 248.675 736.836C248.808 736.663 248.875 736.464 248.875 736.237C248.875 736.014 248.808 735.816 248.675 735.644C248.542 735.468 248.356 735.333 248.117 735.239C247.879 735.141 247.607 735.09 247.302 735.086ZM247.959 733.419H246.679V731.329H247.959V733.419ZM255.305 734.171H262.678V732.445H263.993V738.151H254.013V732.445H255.305V734.171ZM262.678 737.094V735.204H255.305V737.094H262.678ZM265.754 731.412H252.299V730.32H265.754V731.412ZM259.484 724.45C259.484 725.264 259.207 726.009 258.651 726.686C258.095 727.363 257.361 727.927 256.45 728.377C255.542 728.823 254.577 729.122 253.556 729.275L253.062 728.242C253.955 728.116 254.808 727.87 255.622 727.502C256.436 727.134 257.095 726.684 257.6 726.152C258.105 725.62 258.357 725.052 258.357 724.45V723.757H259.484V724.45ZM259.696 724.45C259.696 725.033 259.952 725.594 260.465 726.134C260.977 726.67 261.639 727.128 262.449 727.508C263.263 727.884 264.106 728.128 264.979 728.242L264.498 729.275C263.476 729.122 262.511 728.821 261.604 728.371C260.7 727.917 259.968 727.351 259.408 726.674C258.852 725.993 258.576 725.252 258.58 724.45V723.757H259.696V724.45ZM278.747 738.35H277.455V723.593H278.747V738.35ZM268.826 734.171H267.546V725.048H268.826V734.171ZM268.744 733.407C269.957 733.407 271.151 733.353 272.325 733.243C273.499 733.134 274.685 732.953 275.882 732.703L276.058 733.818C274.798 734.077 273.573 734.263 272.383 734.376C271.198 734.49 269.984 734.546 268.744 734.546H267.546V733.407H268.744ZM292.291 738.374H290.988V723.593H292.291V738.374ZM294.757 730.519H291.998V729.427H294.757V730.519ZM282.676 733.572C284.12 733.572 285.361 733.535 286.398 733.46C287.439 733.386 288.495 733.251 289.568 733.055L289.732 734.182C288.636 734.378 287.564 734.509 286.515 734.576C285.466 734.642 284.187 734.675 282.676 734.675H281.514V733.572H282.676ZM288.405 726.105H282.817V734.077H281.514V725.037H288.405V726.105Z" fill="#05944F"/>
        <rect x="75.5" y="96.5" width="69" height="69" fill="white" stroke="#D3D6DA"/>
        <path d="M75.5 165.5H98.5V188.5H75.5V165.5Z" fill="white" stroke="#D3D6DA"/>
        <path d="M98.5 165.5H121.5V188.5H98.5V165.5Z" fill="white" stroke="#D3D6DA"/>
        <rect x="121.5" y="165.5" width="23" height="23" fill="white" stroke="#D3D6DA"/>
        <rect x="153.5" y="96.5" width="69" height="69" fill="white" stroke="#D3D6DA"/>
        <rect x="153.5" y="165.5" width="23" height="23" fill="white" stroke="#D3D6DA"/>
        <rect x="176.5" y="165.5" width="23" height="23" fill="white" stroke="#D3D6DA"/>
        <rect x="199.5" y="165.5" width="23" height="23" fill="white" stroke="#D3D6DA"/>
        <rect x="231.5" y="96.5" width="69" height="69" fill="white" stroke="#D3D6DA"/>
        <rect x="231.5" y="165.5" width="23" height="23" fill="white" stroke="#D3D6DA"/>
        <rect x="254.5" y="165.5" width="23" height="23" fill="white" stroke="#D3D6DA"/>
        <rect x="277.5" y="165.5" width="23" height="23" fill="white" stroke="#D3D6DA"/>
        <rect x="75.5" y="261.5" width="69" height="69" fill="white" stroke="#D3D6DA"/>
        <rect x="75.5" y="329.5" width="23" height="23" fill="white" stroke="#D3D6DA"/>
        <rect x="98.5" y="329.5" width="23" height="23" fill="white" stroke="#D3D6DA"/>
        <rect x="121.5" y="329.5" width="23" height="23" fill="white" stroke="#D3D6DA"/>
        <rect x="153.5" y="261.5" width="69" height="69" fill="white" stroke="#D3D6DA"/>
        <rect x="153.5" y="329.5" width="23" height="23" fill="white" stroke="#D3D6DA"/>
        <rect x="176.5" y="329.5" width="23" height="23" fill="white" stroke="#D3D6DA"/>
        <path d="M199.5 329.5H222.5V352.5H199.5V329.5Z" fill="white" stroke="#D3D6DA"/>
        <rect x="231.5" y="261.5" width="69" height="69" fill="white" stroke="#D3D6DA"/>
        <rect x="231.5" y="329.5" width="23" height="23" fill="white" stroke="#D3D6DA"/>
        <rect x="254.5" y="329.5" width="23" height="23" fill="white" stroke="#D3D6DA"/>
        <path d="M277.5 329.5H300.5V352.5H277.5V329.5Z" fill="white" stroke="#D3D6DA"/>
        <path d="M103.174 111.191C103.174 114.506 102.581 117.572 101.393 120.39C100.219 123.193 98.5129 125.631 96.2753 127.703C94.0515 129.761 91.4065 131.315 88.3402 132.365L85.5847 127.931C88.2781 127.033 90.6123 125.749 92.5875 124.077C94.5626 122.406 96.0681 120.472 97.104 118.276C98.1399 116.066 98.6648 113.704 98.6786 111.191V107.296H103.174V111.191ZM104.19 111.17C104.176 113.463 104.68 115.631 105.702 117.675C106.738 119.706 108.209 121.494 110.115 123.041C112.035 124.575 114.293 125.735 116.89 126.522L113.989 130.831C111.034 129.865 108.478 128.421 106.324 126.501C104.169 124.581 102.518 122.316 101.372 119.706C100.239 117.081 99.68 114.236 99.6938 111.17V107.296H104.19V111.17ZM127.27 132.779H121.697V105.472H127.27V132.779ZM134.873 121.156H124.846V116.536H134.873V121.156ZM127.27 148.028H98.9065V155.528H93.4369V143.925H121.738V139.409H93.3126V135.017H127.27V148.028ZM129.052 157.475H93.4369V153H129.052V157.475Z" fill="#080B14"/>
        <path d="M203.011 113.304H169.842V108.787H203.011V113.304ZM211.879 135.804H164.02V131.267H211.879V135.804ZM190.581 158.055H185.007V134.312H190.581V158.055ZM205.788 113.698C205.774 116.101 205.732 118.228 205.663 120.079C205.594 121.916 205.408 124.022 205.104 126.398C204.814 128.76 204.365 131.308 203.757 134.043L198.205 133.359C198.84 130.735 199.303 128.269 199.593 125.963C199.897 123.642 200.083 121.591 200.152 119.809C200.221 118.014 200.256 115.942 200.256 113.594V113.407V108.787H205.788V113.407V113.698Z" fill="#080B14"/>
        <path d="M91.5101 305.61C95.9162 305.61 99.5004 305.535 102.263 305.383C105.025 305.217 107.822 304.885 110.654 304.388L111.151 308.988C108.209 309.512 105.308 309.865 102.449 310.044C99.604 310.224 95.9576 310.314 91.5101 310.314H88.0294V305.61H91.5101ZM109.017 280.811H93.3333V307.434H88.0294V276.336H109.017V280.811ZM108.147 294.568H91.738V290.155H108.147V294.568ZM131.165 322.972H125.82V270.472H131.165V322.972ZM127.746 295.852H117.947V291.315H127.746V295.852ZM119.521 320.383H114.197V271.488H119.521V320.383Z" fill="#080B14"/>
        <path d="M205.29 284.084H194.165V279.609H205.29V284.084ZM205.29 293.656H194.165V289.14H205.29V293.656ZM193.398 278.801H165.511V274.264H193.398V278.801ZM164.082 295.396C169.897 295.383 175.373 295.293 180.511 295.127C185.65 294.948 190.422 294.588 194.828 294.05L195.076 298.235C190.574 298.953 185.774 299.43 180.677 299.664C175.594 299.899 170.284 300.017 164.745 300.017L164.082 295.396ZM175.85 296.93H170.442V277.931H175.85V296.93ZM188.405 296.93H183.06V277.931H188.405V296.93ZM207.777 302.772H202.224V270.472H207.777V302.772ZM190.187 303.767C193.861 303.767 197.031 304.14 199.697 304.885C202.376 305.631 204.42 306.722 205.829 308.159C207.238 309.595 207.942 311.329 207.942 313.359C207.942 315.348 207.231 317.061 205.808 318.497C204.4 319.934 202.362 321.025 199.697 321.771C197.031 322.517 193.861 322.89 190.187 322.89C186.513 322.89 183.336 322.517 180.657 321.771C177.991 321.025 175.953 319.934 174.545 318.497C173.136 317.061 172.438 315.348 172.452 313.359C172.438 311.329 173.136 309.595 174.545 308.159C175.953 306.722 177.991 305.631 180.657 304.885C183.322 304.14 186.499 303.767 190.187 303.767ZM190.187 308.076C187.604 308.076 185.394 308.283 183.557 308.698C181.734 309.098 180.339 309.699 179.372 310.5C178.419 311.287 177.949 312.24 177.963 313.359C177.949 314.45 178.419 315.39 179.372 316.177C180.339 316.95 181.734 317.544 183.557 317.959C185.394 318.359 187.604 318.559 190.187 318.559C192.742 318.559 194.931 318.359 196.755 317.959C198.592 317.544 199.994 316.95 200.96 316.177C201.927 315.39 202.418 314.45 202.431 313.359C202.418 312.24 201.927 311.287 200.96 310.5C199.994 309.699 198.592 309.098 196.755 308.698C194.931 308.283 192.742 308.076 190.187 308.076Z" fill="#080B14"/>
        <path d="M290.77 282.613H281.633V278.014H290.77V282.613ZM290.77 293.843H281.633V289.181H290.77V293.843ZM283.27 301.55H277.697V270.472H283.27V301.55ZM266.239 302.213C269.761 302.199 272.842 302.613 275.48 303.456C278.118 304.285 280.155 305.486 281.592 307.061C283.028 308.622 283.746 310.459 283.746 312.572C283.746 314.699 283.035 316.543 281.612 318.104C280.19 319.678 278.152 320.88 275.5 321.709C272.862 322.537 269.775 322.959 266.239 322.972C262.69 322.959 259.589 322.53 256.937 321.688C254.285 320.859 252.234 319.664 250.784 318.104C249.347 316.543 248.629 314.699 248.629 312.572C248.629 310.459 249.354 308.622 250.804 307.061C252.255 305.486 254.306 304.285 256.958 303.456C259.61 302.613 262.703 302.199 266.239 302.213ZM266.239 306.729C263.739 306.729 261.578 306.957 259.755 307.413C257.931 307.869 256.529 308.539 255.549 309.423C254.568 310.293 254.085 311.343 254.099 312.572C254.085 313.787 254.568 314.837 255.549 315.721C256.529 316.605 257.931 317.289 259.755 317.772C261.578 318.256 263.739 318.504 266.239 318.518C268.684 318.504 270.811 318.256 272.621 317.772C274.444 317.289 275.846 316.605 276.826 315.721C277.807 314.837 278.297 313.787 278.297 312.572C278.297 311.343 277.807 310.293 276.826 309.423C275.846 308.539 274.444 307.869 272.621 307.413C270.811 306.957 268.684 306.729 266.239 306.729ZM249.996 294.775H244.402V273.601H249.996V294.775ZM248.691 292.682C252.752 292.682 256.737 292.517 260.645 292.185C264.554 291.84 268.539 291.26 272.6 290.445L273.284 294.961C269.057 295.804 264.927 296.412 260.894 296.785C256.861 297.144 252.793 297.316 248.691 297.302H244.402V292.682H248.691Z" fill="#080B14"/>
        <path d="M72 210C72 207.239 74.2386 205 77 205H299C301.761 205 304 207.239 304 210V240C304 242.761 301.761 245 299 245H77C74.2386 245 72 242.761 72 240V210Z" fill="#080B14"/>
        <path d="M98.3149 226.149H96.3149V223.983H98.3149V226.149ZM97.2873 218.801C97.9724 218.801 98.5856 218.923 99.1271 219.166C99.6722 219.409 100.098 219.75 100.403 220.188C100.713 220.626 100.869 221.127 100.873 221.691C100.869 222.243 100.713 222.738 100.403 223.177C100.098 223.611 99.6722 223.952 99.1271 224.199C98.582 224.446 97.9687 224.569 97.2873 224.569C96.5985 224.569 95.9816 224.446 95.4365 224.199C94.895 223.952 94.4715 223.611 94.1658 223.177C93.86 222.738 93.709 222.243 93.7127 221.691C93.709 221.127 93.8582 220.626 94.1602 220.188C94.4659 219.75 94.8895 219.409 95.431 219.166C95.9761 218.923 96.5949 218.801 97.2873 218.801ZM97.2873 220.304C96.9484 220.304 96.6483 220.357 96.3868 220.464C96.1252 220.571 95.9208 220.729 95.7735 220.939C95.6298 221.149 95.5599 221.4 95.5635 221.691C95.5599 221.974 95.6298 222.219 95.7735 222.425C95.9208 222.628 96.1252 222.785 96.3868 222.895C96.6483 223.006 96.9484 223.061 97.2873 223.061C97.6298 223.061 97.9282 223.006 98.1823 222.895C98.4402 222.785 98.6391 222.628 98.779 222.425C98.9227 222.219 98.9963 221.974 99 221.691C98.9963 221.4 98.9227 221.149 98.779 220.939C98.6391 220.729 98.4402 220.571 98.1823 220.464C97.9282 220.357 97.6298 220.304 97.2873 220.304ZM104.376 229.083H102.381V218.232H104.376V229.083ZM106.199 224.365H103.669V222.707H106.199V224.365ZM104.867 232.177H94.8453V230.575H104.867V232.177ZM96.8564 231.287H94.8453V228.127H96.8564V231.287ZM92.9669 225.641C94.5138 225.645 96.0203 225.615 97.4862 225.552C98.9558 225.49 100.322 225.368 101.586 225.188L101.735 226.635C100.427 226.871 99.0571 227.028 97.6243 227.105C96.1952 227.182 94.7127 227.221 93.1768 227.221L92.9669 225.641ZM111.834 220.243C111.83 221.223 111.679 222.129 111.381 222.961C111.082 223.794 110.627 224.517 110.016 225.133C109.408 225.748 108.657 226.208 107.762 226.514L106.701 224.923C107.489 224.669 108.143 224.302 108.662 223.823C109.185 223.344 109.57 222.801 109.817 222.193C110.068 221.586 110.195 220.936 110.198 220.243V218.956H111.834V220.243ZM112.209 220.149C112.206 220.812 112.318 221.429 112.546 222C112.778 222.571 113.138 223.077 113.624 223.519C114.114 223.958 114.729 224.291 115.469 224.519L114.408 226.077C113.55 225.783 112.839 225.348 112.276 224.773C111.712 224.199 111.294 223.523 111.022 222.746C110.749 221.969 110.613 221.103 110.613 220.149V218.956H112.209V220.149ZM118.823 226.552H116.834V218.21H118.823V226.552ZM113.961 226.917C114.97 226.917 115.843 227.028 116.58 227.249C117.316 227.466 117.88 227.783 118.27 228.199C118.664 228.611 118.861 229.107 118.861 229.685C118.861 230.263 118.664 230.761 118.27 231.177C117.88 231.593 117.316 231.908 116.58 232.122C115.843 232.335 114.97 232.44 113.961 232.436C112.952 232.44 112.08 232.335 111.347 232.122C110.618 231.908 110.056 231.593 109.662 231.177C109.268 230.761 109.073 230.263 109.077 229.685C109.073 229.107 109.268 228.611 109.662 228.199C110.056 227.783 110.62 227.466 111.353 227.249C112.086 227.028 112.955 226.917 113.961 226.917ZM113.961 228.464C113.327 228.464 112.795 228.51 112.364 228.602C111.933 228.694 111.607 228.831 111.386 229.011C111.169 229.192 111.06 229.416 111.06 229.685C111.06 229.947 111.171 230.168 111.392 230.348C111.616 230.525 111.942 230.659 112.37 230.751C112.801 230.843 113.331 230.888 113.961 230.884C114.591 230.888 115.123 230.843 115.557 230.751C115.992 230.659 116.32 230.525 116.541 230.348C116.766 230.168 116.88 229.947 116.883 229.685C116.88 229.416 116.766 229.192 116.541 229.011C116.32 228.831 115.992 228.694 115.557 228.602C115.126 228.51 114.594 228.464 113.961 228.464ZM117.104 222.453H114.165V220.823H117.104V222.453ZM129.126 225.597H121.662V223.994H129.126V225.597ZM126.369 228.309H124.374V225.282H126.369V228.309ZM129.06 221.061H123.64V224.514H121.662V219.481H129.06V221.061ZM132.612 232.475H130.629V218.21H132.612V232.475ZM120.728 228.017C122.441 228.024 124.05 228.007 125.557 227.967C127.063 227.923 128.485 227.831 129.822 227.691L129.971 229.138C129.028 229.285 128.056 229.394 127.054 229.464C126.056 229.534 125.111 229.582 124.22 229.608C123.332 229.63 122.306 229.641 121.142 229.641H120.955L120.728 228.017ZM139.584 222.088C139.58 223.208 139.422 224.276 139.109 225.293C138.796 226.306 138.333 227.206 137.722 227.994C137.114 228.779 136.381 229.366 135.523 229.757L134.39 228.193C135.149 227.855 135.797 227.361 136.335 226.713C136.877 226.064 137.284 225.341 137.556 224.541C137.829 223.738 137.967 222.921 137.971 222.088V220.436H139.584V222.088ZM139.998 222.088C139.998 222.888 140.133 223.663 140.402 224.414C140.674 225.166 141.077 225.845 141.611 226.453C142.149 227.057 142.801 227.519 143.567 227.84L142.495 229.403C141.615 229.031 140.869 228.475 140.258 227.735C139.65 226.991 139.192 226.136 138.882 225.171C138.576 224.203 138.425 223.175 138.429 222.088V220.436H139.998V222.088ZM142.976 221.215H134.948V219.586H142.976V221.215ZM146.396 232.442H144.379V218.21H146.396V232.442ZM155.934 218.901C156.656 218.901 157.306 219.042 157.884 219.326C158.462 219.61 158.915 220.004 159.243 220.508C159.575 221.013 159.74 221.58 159.74 222.21C159.74 222.855 159.576 223.429 159.249 223.934C158.921 224.438 158.466 224.834 157.884 225.122C157.306 225.405 156.656 225.547 155.934 225.547C155.215 225.547 154.564 225.403 153.978 225.116C153.396 224.829 152.937 224.433 152.602 223.928C152.271 223.424 152.107 222.851 152.111 222.21C152.107 221.58 152.273 221.013 152.608 220.508C152.943 220.004 153.401 219.61 153.983 219.326C154.565 219.042 155.215 218.901 155.934 218.901ZM155.934 220.541C155.573 220.541 155.249 220.61 154.961 220.746C154.678 220.882 154.453 221.077 154.287 221.331C154.125 221.582 154.046 221.875 154.05 222.21C154.046 222.556 154.125 222.858 154.287 223.116C154.453 223.37 154.678 223.569 154.961 223.713C155.249 223.853 155.573 223.923 155.934 223.923C156.291 223.923 156.611 223.853 156.895 223.713C157.182 223.569 157.407 223.37 157.569 223.116C157.731 222.858 157.812 222.556 157.812 222.21C157.812 221.875 157.731 221.582 157.569 221.331C157.407 221.077 157.182 220.882 156.895 220.746C156.611 220.61 156.291 220.541 155.934 220.541ZM163.293 225.238H161.293V218.21H163.293V225.238ZM165.204 222.812H162.492V221.171H165.204V222.812ZM154.072 230.47C154.753 230.47 155.366 230.438 155.912 230.376C156.46 230.313 156.987 230.197 157.492 230.028L157.779 231.575C157.4 231.711 157.015 231.816 156.624 231.89C156.234 231.963 155.84 232.011 155.442 232.033C155.048 232.055 154.591 232.066 154.072 232.066H153.287V230.47H154.072ZM155.232 230.978H153.287V226.613H155.232V230.978ZM164.448 228.088H157.287V226.624H164.448V228.088ZM160.856 228.42C161.394 228.42 161.871 228.503 162.287 228.669C162.707 228.834 163.033 229.072 163.265 229.381C163.497 229.687 163.615 230.041 163.619 230.442C163.615 230.847 163.497 231.201 163.265 231.503C163.033 231.805 162.707 232.037 162.287 232.199C161.871 232.361 161.394 232.44 160.856 232.436C160.311 232.44 159.831 232.361 159.414 232.199C159.002 232.037 158.68 231.805 158.448 231.503C158.219 231.201 158.107 230.847 158.111 230.442C158.107 230.041 158.221 229.687 158.453 229.381C158.685 229.072 159.007 228.834 159.42 228.669C159.836 228.503 160.315 228.42 160.856 228.42ZM160.856 229.801C160.665 229.805 160.495 229.831 160.348 229.878C160.201 229.926 160.085 230 160 230.099C159.919 230.195 159.878 230.309 159.878 230.442C159.878 230.578 159.919 230.694 160 230.79C160.085 230.886 160.199 230.958 160.343 231.006C160.49 231.053 160.661 231.077 160.856 231.077C161.052 231.077 161.221 231.053 161.365 231.006C161.512 230.958 161.626 230.886 161.707 230.79C161.792 230.694 161.834 230.578 161.834 230.442C161.834 230.309 161.792 230.195 161.707 230.099C161.626 230 161.512 229.926 161.365 229.878C161.221 229.831 161.052 229.805 160.856 229.801ZM161.856 227.729H159.917V225.624H161.856V227.729ZM178.812 227.072H165.839V225.486H178.812V227.072ZM177.331 232.193H167.403V230.586H177.331V232.193ZM169.403 231.105H167.403V228.028H169.403V231.105ZM172.314 218.646C173.349 218.646 174.257 218.762 175.038 218.994C175.819 219.223 176.421 219.558 176.845 220C177.272 220.442 177.486 220.961 177.486 221.558C177.486 222.158 177.272 222.68 176.845 223.122C176.421 223.564 175.819 223.904 175.038 224.144C174.257 224.383 173.349 224.503 172.314 224.503C171.276 224.503 170.366 224.383 169.585 224.144C168.804 223.904 168.2 223.564 167.773 223.122C167.346 222.68 167.134 222.158 167.138 221.558C167.134 220.961 167.346 220.442 167.773 220C168.2 219.558 168.804 219.223 169.585 218.994C170.366 218.762 171.276 218.646 172.314 218.646ZM172.314 220.227C171.655 220.227 171.093 220.278 170.629 220.381C170.165 220.481 169.812 220.632 169.568 220.834C169.325 221.033 169.206 221.274 169.209 221.558C169.206 221.849 169.324 222.094 169.563 222.293C169.806 222.488 170.16 222.637 170.624 222.74C171.088 222.84 171.651 222.888 172.314 222.884C172.977 222.888 173.539 222.84 173.999 222.74C174.463 222.637 174.817 222.488 175.06 222.293C175.307 222.094 175.43 221.849 175.43 221.558C175.43 221.274 175.307 221.033 175.06 220.834C174.817 220.632 174.463 220.481 173.999 220.381C173.535 220.278 172.974 220.227 172.314 220.227ZM194.04 220.37H184.946V218.801H194.04V220.37ZM196.36 224.812H183.355V223.249H196.36V224.812ZM194.824 219.829C194.824 220.525 194.802 221.169 194.758 221.762C194.714 222.352 194.611 223.004 194.449 223.718L192.476 223.536C192.583 223.046 192.662 222.582 192.714 222.144C192.765 221.705 192.797 221.322 192.808 220.994C192.823 220.667 192.832 220.276 192.835 219.823V219.768V218.801H194.824V219.768V219.829ZM194.764 229.79H186.819V231.282H184.835V228.298H192.791V227.354H184.824V225.812H194.764V229.79ZM195.139 232.331H184.835V230.79H195.139V232.331ZM202.017 222.088C202.014 223.186 201.855 224.245 201.542 225.265C201.233 226.282 200.776 227.188 200.172 227.983C199.568 228.775 198.848 229.37 198.012 229.768L196.851 228.193C197.61 227.836 198.258 227.331 198.796 226.68C199.334 226.024 199.739 225.3 200.012 224.508C200.284 223.713 200.422 222.906 200.426 222.088V220.436H202.017V222.088ZM202.432 222.088C202.428 222.843 202.557 223.595 202.818 224.343C203.08 225.087 203.472 225.77 203.995 226.392C204.522 227.011 205.161 227.494 205.912 227.84L204.802 229.403C203.966 229.02 203.249 228.449 202.653 227.691C202.06 226.928 201.61 226.063 201.304 225.094C201.002 224.122 200.851 223.12 200.851 222.088V220.436H202.432V222.088ZM205.293 221.215H197.415V219.586H205.293V221.215ZM208.398 232.442H206.404V218.21H208.398V232.442ZM210.498 225.309H207.956V223.646H210.498V225.309ZM222.227 232.409H220.232V218.21H222.227V232.409ZM224.238 225.309H221.713V223.663H224.238V225.309ZM218.431 219.669C218.427 221.153 218.214 222.523 217.79 223.779C217.366 225.031 216.678 226.184 215.724 227.238C214.773 228.287 213.525 229.192 211.978 229.95L210.856 228.425C212.127 227.785 213.177 227.059 214.006 226.249C214.834 225.438 215.451 224.519 215.856 223.492C216.265 222.464 216.47 221.309 216.47 220.028V219.669H218.431ZM217.481 221.298H211.657V219.669H217.481V221.298ZM233.289 227.337C233.285 228.081 233.168 228.775 232.936 229.42C232.703 230.061 232.346 230.626 231.864 231.116C231.385 231.606 230.785 231.976 230.063 232.227L229.085 230.785C229.685 230.578 230.184 230.295 230.582 229.934C230.983 229.573 231.278 229.171 231.466 228.729C231.657 228.287 231.755 227.823 231.759 227.337V226.851H233.289V227.337ZM233.698 227.337C233.698 227.823 233.785 228.293 233.958 228.746C234.131 229.195 234.401 229.608 234.77 229.983C235.138 230.355 235.604 230.656 236.168 230.884L235.383 232.354C234.654 232.092 234.059 231.703 233.599 231.188C233.138 230.672 232.803 230.087 232.593 229.431C232.383 228.775 232.28 228.077 232.284 227.337V226.851H233.698V227.337ZM238.438 227.337C238.435 228.033 238.326 228.711 238.112 229.37C237.902 230.029 237.569 230.624 237.112 231.155C236.656 231.685 236.079 232.085 235.383 232.354L234.56 230.884C235.109 230.641 235.567 230.324 235.936 229.934C236.308 229.543 236.582 229.125 236.759 228.68C236.936 228.23 237.026 227.783 237.029 227.337V226.851H238.438V227.337ZM238.991 227.337C238.987 227.856 239.079 228.341 239.267 228.79C239.455 229.236 239.748 229.634 240.145 229.983C240.543 230.33 241.048 230.597 241.659 230.785L240.692 232.227C239.956 231.98 239.348 231.617 238.869 231.138C238.394 230.659 238.04 230.099 237.808 229.459C237.58 228.814 237.466 228.107 237.466 227.337V226.851H238.991V227.337ZM240.427 226.265H238.427V218.232H240.427V226.265ZM232.632 218.95C233.365 218.95 234.028 219.096 234.621 219.387C235.214 219.678 235.678 220.085 236.013 220.608C236.348 221.127 236.516 221.715 236.516 222.37C236.516 223.022 236.348 223.606 236.013 224.122C235.678 224.637 235.212 225.041 234.615 225.331C234.022 225.622 233.361 225.768 232.632 225.768C231.899 225.768 231.236 225.622 230.643 225.331C230.05 225.041 229.584 224.637 229.245 224.122C228.91 223.606 228.742 223.022 228.742 222.37C228.742 221.711 228.91 221.122 229.245 220.602C229.584 220.083 230.05 219.678 230.643 219.387C231.236 219.096 231.899 218.95 232.632 218.95ZM232.632 220.624C232.252 220.624 231.915 220.694 231.621 220.834C231.326 220.971 231.096 221.171 230.93 221.436C230.768 221.702 230.689 222.013 230.692 222.37C230.689 222.724 230.77 223.033 230.936 223.298C231.101 223.56 231.33 223.762 231.621 223.906C231.915 224.046 232.252 224.116 232.632 224.116C233 224.116 233.33 224.046 233.621 223.906C233.912 223.762 234.138 223.56 234.3 223.298C234.466 223.033 234.549 222.724 234.549 222.37C234.549 222.013 234.468 221.702 234.306 221.436C234.144 221.171 233.917 220.971 233.626 220.834C233.335 220.694 233.004 220.624 232.632 220.624ZM245.841 227.956H251.697V226.746H253.681V232.282H243.869V226.746H245.841V227.956ZM251.697 230.713V229.464H245.841V230.713H251.697ZM255.327 226.028H242.355V224.425H255.327V226.028ZM249.537 218.84C249.533 219.661 249.298 220.42 248.83 221.116C248.362 221.808 247.688 222.39 246.808 222.862C245.931 223.333 244.9 223.645 243.714 223.796L242.985 222.238C244.005 222.112 244.88 221.877 245.609 221.53C246.342 221.18 246.891 220.772 247.255 220.304C247.624 219.836 247.81 219.348 247.813 218.84V218.359H249.537V218.84ZM249.869 218.84C249.865 219.333 250.049 219.818 250.421 220.293C250.793 220.764 251.342 221.177 252.068 221.53C252.793 221.884 253.662 222.12 254.675 222.238L253.974 223.796C252.773 223.645 251.734 223.333 250.858 222.862C249.981 222.387 249.311 221.803 248.847 221.11C248.382 220.418 248.152 219.661 248.156 218.84V218.359H249.869V218.84ZM268.139 232.442H266.155V218.21H268.139V232.442ZM258.918 228.403H256.945V219.575H258.918V228.403ZM258.2 227.232C259.316 227.232 260.444 227.182 261.586 227.083C262.728 226.983 263.862 226.825 264.99 226.608L265.238 228.254C264.06 228.497 262.888 228.672 261.724 228.779C260.564 228.882 259.389 228.932 258.2 228.928H256.945V227.232H258.2ZM281.227 232.475H279.232V218.21H281.227V232.475ZM283.326 225.127H280.785V223.497H283.326V225.127ZM271.768 227.376C273.061 227.379 274.204 227.35 275.199 227.287C276.193 227.221 277.195 227.099 278.204 226.923L278.425 228.591C277.398 228.768 276.381 228.884 275.376 228.939C274.374 228.994 273.171 229.02 271.768 229.017H270.575V227.376H271.768ZM277.243 221.144H272.558V228.188H270.575V219.536H277.243V221.144Z" fill="white"/>
        <path d="M96 197L88 205H104L96 197Z" fill="#080B14"/>
        <path d="M74 375C74 372.239 76.2386 370 79 370H297C299.761 370 302 372.239 302 375V405C302 407.761 299.761 410 297 410H79C76.2386 410 74 407.761 74 405V375Z" fill="#080B14"/>
        <path d="M128.724 393.503H126.724V383.221H128.724V393.503ZM130.646 388.74H128.132V387.099H130.646V388.74ZM119.182 389.547C120.28 389.547 121.184 389.536 121.895 389.514C122.609 389.492 123.254 389.451 123.828 389.392C124.407 389.33 124.983 389.236 125.558 389.11L125.768 390.707C124.898 390.884 123.992 391.004 123.049 391.066C122.107 391.125 120.817 391.155 119.182 391.155H117.994V389.547H119.182ZM124.403 385.95H119.978V390.414H117.994V384.359H124.403V385.95ZM129.232 397.193H119.497V395.586H129.232V397.193ZM121.486 396.409H119.497V392.403H121.486V396.409ZM135.187 384.215C135.898 384.215 136.531 384.424 137.088 384.84C137.647 385.252 138.084 385.842 138.397 386.608C138.71 387.37 138.867 388.26 138.867 389.276C138.867 390.3 138.71 391.197 138.397 391.967C138.084 392.733 137.647 393.324 137.088 393.74C136.531 394.153 135.898 394.359 135.187 394.359C134.469 394.359 133.83 394.153 133.27 393.74C132.71 393.324 132.274 392.733 131.96 391.967C131.647 391.197 131.491 390.3 131.491 389.276C131.491 388.26 131.647 387.37 131.96 386.608C132.274 385.842 132.71 385.252 133.27 384.84C133.83 384.424 134.469 384.215 135.187 384.215ZM135.187 386.017C134.833 386.017 134.522 386.144 134.253 386.398C133.984 386.648 133.774 387.018 133.623 387.508C133.472 387.998 133.399 388.587 133.402 389.276C133.399 389.969 133.472 390.562 133.623 391.055C133.774 391.545 133.984 391.917 134.253 392.171C134.522 392.425 134.833 392.552 135.187 392.552C135.548 392.552 135.863 392.425 136.132 392.171C136.401 391.917 136.607 391.545 136.751 391.055C136.898 390.565 136.973 389.972 136.977 389.276C136.973 388.584 136.898 387.994 136.751 387.508C136.603 387.018 136.395 386.648 136.126 386.398C135.861 386.144 135.548 386.017 135.187 386.017ZM143.264 397.475H141.292V383.21H143.264V397.475ZM142.143 389.95H138.281V388.354H142.143V389.95ZM157.01 397.475H155.026V383.21H157.01V397.475ZM147.137 392.508C148.481 392.508 149.685 392.473 150.75 392.403C151.818 392.333 152.905 392.206 154.01 392.022L154.181 393.641C153.087 393.832 151.997 393.965 150.91 394.039C149.824 394.109 148.566 394.144 147.137 394.144H145.86V392.508H147.137ZM152.606 389.89H147.916V393.122H145.86V388.32H150.573V386.017H145.849V384.409H152.606V389.89ZM166.031 385.088C166.031 386.12 165.79 387.085 165.307 387.983C164.825 388.882 164.134 389.65 163.236 390.287C162.34 390.924 161.298 391.365 160.108 391.608L159.252 389.95C160.269 389.77 161.158 389.429 161.921 388.928C162.683 388.424 163.265 387.836 163.666 387.166C164.072 386.492 164.276 385.799 164.28 385.088V384.066H166.031V385.088ZM166.407 385.088C166.403 385.807 166.602 386.503 167.003 387.177C167.409 387.851 167.994 388.438 168.76 388.939C169.53 389.436 170.433 389.773 171.468 389.95L170.589 391.608C169.392 391.372 168.348 390.939 167.457 390.309C166.569 389.676 165.886 388.91 165.407 388.011C164.928 387.109 164.69 386.134 164.694 385.088V384.066H166.407V385.088ZM171.932 395.696H158.926V394.055H171.932V395.696ZM184.345 392.133H174.29V390.564H184.345V392.133ZM185.76 395.785H172.754V394.16H185.76V395.785ZM184.235 385.878H176.312V390.994H174.29V384.265H184.235V385.878ZM183.898 388.945H175.716V387.381H183.898V388.945ZM194.693 390.066H192.323V388.475H194.693V390.066ZM198.903 397.442H196.997V383.21H198.903V397.442ZM195.941 396.785H194.058V383.431H195.941V396.785ZM189.792 384.232C190.422 384.232 190.973 384.44 191.444 384.856C191.919 385.269 192.286 385.864 192.544 386.641C192.805 387.414 192.936 388.324 192.936 389.37C192.936 390.427 192.805 391.344 192.544 392.122C192.286 392.899 191.919 393.497 191.444 393.917C190.973 394.337 190.422 394.545 189.792 394.541C189.174 394.545 188.63 394.337 188.162 393.917C187.698 393.497 187.339 392.899 187.085 392.122C186.831 391.344 186.704 390.427 186.704 389.37C186.704 388.324 186.831 387.414 187.085 386.641C187.339 385.864 187.698 385.269 188.162 384.856C188.63 384.44 189.174 384.232 189.792 384.232ZM189.792 386.116C189.527 386.112 189.301 386.232 189.113 386.475C188.925 386.718 188.781 387.083 188.682 387.569C188.582 388.052 188.534 388.652 188.538 389.37C188.534 390.092 188.582 390.696 188.682 391.182C188.781 391.665 188.925 392.028 189.113 392.271C189.301 392.514 189.527 392.634 189.792 392.63C190.069 392.634 190.304 392.514 190.5 392.271C190.695 392.028 190.844 391.665 190.947 391.182C191.05 390.696 191.102 390.092 191.102 389.37C191.102 388.652 191.05 388.052 190.947 387.569C190.844 387.083 190.695 386.718 190.5 386.475C190.304 386.232 190.069 386.112 189.792 386.116ZM207.518 392.945H209.043V391.536H210.888V397.282H205.667V391.536H207.518V392.945ZM209.043 395.773V394.414H207.518V395.773H209.043ZM214.673 392.514C214.673 393.225 214.568 393.902 214.358 394.547C214.148 395.188 213.82 395.759 213.374 396.26C212.932 396.761 212.376 397.14 211.706 397.398L210.717 395.917C211.266 395.696 211.722 395.407 212.087 395.05C212.452 394.689 212.719 394.293 212.888 393.862C213.057 393.427 213.144 392.978 213.148 392.514V391.42H214.673V392.514ZM215.142 392.514C215.139 393.018 215.221 393.494 215.391 393.939C215.56 394.385 215.829 394.781 216.197 395.127C216.566 395.47 217.034 395.733 217.601 395.917L216.579 397.398C215.883 397.158 215.313 396.797 214.871 396.315C214.433 395.836 214.115 395.274 213.916 394.63C213.717 393.985 213.619 393.28 213.623 392.514V391.42H215.142V392.514ZM214.943 387.901H211.336V386.271H214.943V387.901ZM208.059 383.757C208.763 383.757 209.4 383.901 209.971 384.188C210.542 384.471 210.991 384.867 211.319 385.376C211.65 385.884 211.818 386.459 211.822 387.099C211.818 387.748 211.65 388.328 211.319 388.84C210.991 389.352 210.542 389.751 209.971 390.039C209.4 390.326 208.763 390.47 208.059 390.47C207.337 390.47 206.687 390.326 206.109 390.039C205.534 389.751 205.083 389.354 204.755 388.845C204.431 388.333 204.271 387.751 204.275 387.099C204.271 386.455 204.431 385.88 204.755 385.376C205.083 384.867 205.534 384.471 206.109 384.188C206.687 383.901 207.337 383.757 208.059 383.757ZM208.059 385.398C207.691 385.398 207.363 385.468 207.076 385.608C206.789 385.744 206.564 385.941 206.402 386.199C206.243 386.453 206.164 386.753 206.164 387.099C206.164 387.449 206.243 387.755 206.402 388.017C206.564 388.278 206.789 388.481 207.076 388.624C207.363 388.768 207.691 388.842 208.059 388.845C208.42 388.842 208.741 388.768 209.021 388.624C209.301 388.481 209.52 388.278 209.678 388.017C209.84 387.755 209.923 387.449 209.927 387.099C209.923 386.753 209.84 386.453 209.678 386.199C209.52 385.941 209.301 385.744 209.021 385.608C208.741 385.468 208.42 385.398 208.059 385.398ZM216.081 390.746H214.092V383.21H216.081V390.746ZM221.412 392.956H227.269V391.746H229.252V397.282H219.44V391.746H221.412V392.956ZM227.269 395.713V394.464H221.412V395.713H227.269ZM230.899 391.028H217.926V389.425H230.899V391.028ZM225.108 383.84C225.105 384.661 224.869 385.42 224.401 386.116C223.933 386.808 223.259 387.39 222.379 387.862C221.503 388.333 220.471 388.645 219.285 388.796L218.556 387.238C219.576 387.112 220.451 386.877 221.18 386.53C221.913 386.18 222.462 385.772 222.827 385.304C223.195 384.836 223.381 384.348 223.385 383.84V383.359H225.108V383.84ZM225.44 383.84C225.436 384.333 225.62 384.818 225.992 385.293C226.364 385.764 226.913 386.177 227.639 386.53C228.364 386.884 229.234 387.12 230.247 387.238L229.545 388.796C228.344 388.645 227.306 388.333 226.429 387.862C225.552 387.387 224.882 386.803 224.418 386.11C223.954 385.418 223.724 384.661 223.727 383.84V383.359H225.44V383.84ZM243.71 397.442H241.727V383.21H243.71V397.442ZM234.489 393.403H232.517V384.575H234.489V393.403ZM233.771 392.232C234.887 392.232 236.016 392.182 237.158 392.083C238.299 391.983 239.434 391.825 240.561 391.608L240.81 393.254C239.631 393.497 238.46 393.672 237.296 393.779C236.135 393.882 234.961 393.932 233.771 393.928H232.517V392.232H233.771ZM256.798 397.475H254.803V383.21H256.798V397.475ZM258.897 390.127H256.356V388.497H258.897V390.127ZM247.339 392.376C248.632 392.379 249.776 392.35 250.77 392.287C251.765 392.221 252.767 392.099 253.776 391.923L253.997 393.591C252.969 393.768 251.953 393.884 250.947 393.939C249.945 393.994 248.743 394.02 247.339 394.017H246.146V392.376H247.339ZM252.814 386.144H248.129V393.188H246.146V384.536H252.814V386.144Z" fill="white"/>
        <path d="M96 362L88 370H104L96 362Z" fill="#080B14"/>
    </g>
    <defs>
        <filter id="filter0_d_239_5712" x="-16" y="450" width="407" height="374" filterUnits="userSpaceOnUse" color-interpolation-filters="sRGB">
            <feFlood flood-opacity="0" result="BackgroundImageFix"/>
            <feColorMatrix in="SourceAlpha" type="matrix" values="0 0 0 0 0 0 0 0 0 0 0 0 0 0 0 0 0 0 127 0" result="hardAlpha"/>
            <feOffset dy="-4"/>
            <feGaussianBlur stdDeviation="8"/>
            <feColorMatrix type="matrix" values="0 0 0 0 0 0 0 0 0 0 0 0 0 0 0 0 0 0 0.12 0"/>
            <feBlend mode="normal" in2="BackgroundImageFix" result="effect1_dropShadow_239_5712"/>
            <feBlend mode="normal" in="SourceGraphic" in2="effect1_dropShadow_239_5712" result="shape"/>
        </filter>
        <clipPath id="clip0_239_5712">
            <rect width="375" height="812" fill="white"/>
        </clipPath>
    </defs>
</svg>
