<svg width="375" height="812" viewBox="0 0 375 812" fill="none" xmlns="http://www.w3.org/2000/svg">
    <g clip-path="url(#clip0_239_5771)">
        <rect width="375" height="812" fill="white"/>
        <g filter="url(#filter0_d_239_5771)">
            <path d="M0 486C0 477.163 7.16344 470 16 470H359C367.837 470 375 477.163 375 486V796C375 804.837 367.837 812 359 812H16C7.16345 812 0 804.837 0 796V486Z" fill="white"/>
            <path d="M16 471H359V469H16V471ZM374 486V796H376V486H374ZM359 811H16V813H359V811ZM1 796V486H-1V796H1ZM16 811C7.71573 811 1 804.284 1 796H-1C-1 805.389 6.61116 813 16 813V811ZM374 796C374 804.284 367.284 811 359 811V813C368.389 813 376 805.389 376 796H374ZM359 471C367.284 471 374 477.716 374 486H376C376 476.611 368.389 469 359 469V471ZM16 469C6.61116 469 -1 476.611 -1 486H1C1 477.716 7.71573 471 16 471V469Z" fill="#666666"/>
        </g>
        <path d="M95.2284 544.309C93.6741 544.309 92.2745 544.026 91.0296 543.459C89.7846 542.884 88.8012 542.092 88.0793 541.083C87.3647 540.066 86.9927 538.917 86.9633 537.635H91.5268C91.5636 538.21 91.7515 538.722 92.0903 539.171C92.4292 539.621 92.8712 539.974 93.4163 540.232C93.9688 540.483 94.5728 540.608 95.2284 540.608C96.0019 540.608 96.6907 540.438 97.2947 540.099C97.9062 539.753 98.3813 539.278 98.7202 538.674C99.059 538.063 99.2284 537.366 99.2284 536.586C99.2284 535.805 99.0553 535.105 98.7091 534.486C98.3629 533.86 97.8767 533.378 97.2505 533.039C96.6318 532.692 95.9319 532.516 95.1511 532.508C94.304 532.508 93.582 532.667 92.9854 532.983C92.396 533.3 91.9393 533.772 91.6152 534.398H87.3389L88.5765 521.37H102.499V525.227H92.4439L91.8251 530.939H92.0019C92.2819 530.564 92.6502 530.232 93.1069 529.945C93.571 529.65 94.094 529.422 94.676 529.26C95.2653 529.098 95.8877 529.017 96.5434 529.017C97.9135 529.017 99.1474 529.337 100.245 529.978C101.35 530.611 102.212 531.495 102.831 532.63C103.457 533.764 103.77 535.042 103.77 536.464C103.77 537.974 103.413 539.326 102.698 540.519C101.984 541.705 100.978 542.634 99.6815 543.304C98.385 543.974 96.9006 544.309 95.2284 544.309ZM127.389 529.193H119.985V526H127.389V529.193ZM130.383 539.436H126.405V518.464H130.383V539.436ZM130.991 546.387H111.444V543.171H130.991V546.387ZM115.477 544.994H111.444V537.348H115.477V544.994ZM111.621 524.685H117.223V520.32H121.168V534.95H107.621V520.32H111.621V524.685ZM117.223 531.812V527.713H111.621V531.812H117.223ZM164.759 539.16H160.759V518.442H164.759V539.16ZM168.582 529.89H163.61V526.608H168.582V529.89ZM165.776 546.387H146.306V543.171H165.776V546.387ZM150.284 544.608H146.306V536.972H150.284V544.608ZM150.185 520.265C151.621 520.265 152.932 520.575 154.118 521.193C155.304 521.805 156.236 522.663 156.914 523.768C157.599 524.873 157.945 526.114 157.952 527.492C157.945 528.862 157.599 530.099 156.914 531.204C156.236 532.302 155.304 533.164 154.118 533.79C152.932 534.409 151.621 534.718 150.185 534.718C148.741 534.718 147.422 534.405 146.229 533.779C145.043 533.153 144.103 532.291 143.411 531.193C142.726 530.096 142.387 528.862 142.394 527.492C142.387 526.114 142.726 524.877 143.411 523.779C144.103 522.674 145.043 521.812 146.229 521.193C147.422 520.575 148.741 520.265 150.185 520.265ZM150.185 523.735C149.455 523.735 148.796 523.886 148.207 524.188C147.617 524.483 147.15 524.917 146.803 525.492C146.457 526.059 146.288 526.726 146.295 527.492C146.288 528.25 146.457 528.91 146.803 529.47C147.15 530.029 147.617 530.464 148.207 530.773C148.796 531.083 149.455 531.238 150.185 531.238C150.914 531.238 151.573 531.083 152.162 530.773C152.752 530.464 153.216 530.029 153.555 529.47C153.894 528.91 154.063 528.25 154.063 527.492C154.063 526.726 153.894 526.059 153.555 525.492C153.223 524.917 152.759 524.483 152.162 524.188C151.573 523.886 150.914 523.735 150.185 523.735ZM186.447 532.133H181.706V528.95H186.447V532.133ZM194.867 546.884H191.055V518.42H194.867V546.884ZM188.944 545.569H185.176V518.862H188.944V545.569ZM176.646 520.464C177.905 520.464 179.007 520.88 179.95 521.713C180.9 522.538 181.633 523.727 182.148 525.282C182.672 526.829 182.933 528.648 182.933 530.74C182.933 532.855 182.672 534.689 182.148 536.243C181.633 537.797 180.9 538.994 179.95 539.834C179.007 540.674 177.905 541.09 176.646 541.083C175.408 541.09 174.322 540.674 173.386 539.834C172.458 538.994 171.74 537.797 171.231 536.243C170.723 534.689 170.469 532.855 170.469 530.74C170.469 528.648 170.723 526.829 171.231 525.282C171.74 523.727 172.458 522.538 173.386 521.713C174.322 520.88 175.408 520.464 176.646 520.464ZM176.646 524.232C176.115 524.225 175.662 524.464 175.287 524.95C174.911 525.436 174.624 526.166 174.425 527.138C174.226 528.103 174.13 529.304 174.137 530.74C174.13 532.184 174.226 533.392 174.425 534.365C174.624 535.33 174.911 536.055 175.287 536.541C175.662 537.028 176.115 537.267 176.646 537.26C177.198 537.267 177.67 537.028 178.06 536.541C178.451 536.055 178.749 535.33 178.955 534.365C179.161 533.392 179.265 532.184 179.265 530.74C179.265 529.304 179.161 528.103 178.955 527.138C178.749 526.166 178.451 525.436 178.06 524.95C177.67 524.464 177.198 524.225 176.646 524.232ZM227.033 528.608H221.552V525.359H227.033V528.608ZM229.972 535.326H225.994V518.42H229.972V535.326ZM220.248 535.956C222.267 535.956 224.012 536.173 225.486 536.608C226.959 537.042 228.086 537.672 228.867 538.497C229.655 539.315 230.049 540.295 230.049 541.436C230.049 542.578 229.655 543.558 228.867 544.376C228.086 545.193 226.959 545.82 225.486 546.254C224.012 546.696 222.267 546.917 220.248 546.917C218.23 546.917 216.488 546.696 215.022 546.254C213.563 545.82 212.44 545.193 211.651 544.376C210.863 543.558 210.473 542.578 210.48 541.436C210.473 540.295 210.863 539.315 211.651 538.497C212.44 537.672 213.567 537.042 215.033 536.608C216.499 536.173 218.237 535.956 220.248 535.956ZM220.248 538.983C218.981 538.983 217.917 539.076 217.055 539.26C216.193 539.436 215.541 539.709 215.099 540.077C214.664 540.438 214.447 540.891 214.447 541.436C214.447 541.974 214.664 542.424 215.099 542.785C215.541 543.145 216.193 543.418 217.055 543.602C217.917 543.779 218.981 543.867 220.248 543.867C221.515 543.867 222.58 543.779 223.442 543.602C224.311 543.418 224.966 543.145 225.408 542.785C225.858 542.424 226.086 541.974 226.093 541.436C226.086 540.891 225.858 540.438 225.408 540.077C224.966 539.709 224.311 539.436 223.442 539.26C222.58 539.076 221.515 538.983 220.248 538.983ZM215.917 523.149C215.917 524.998 215.618 526.729 215.022 528.343C214.432 529.956 213.534 531.374 212.326 532.597C211.125 533.82 209.644 534.733 207.884 535.337L205.817 532.177C207.335 531.676 208.609 530.95 209.64 530C210.672 529.05 211.434 527.989 211.928 526.818C212.421 525.639 212.672 524.416 212.679 523.149V521.282H215.917V523.149ZM216.734 523.116C216.734 524.287 216.97 525.414 217.442 526.497C217.92 527.58 218.65 528.56 219.629 529.436C220.609 530.306 221.825 530.98 223.276 531.459L221.309 534.597C219.593 534.037 218.149 533.179 216.977 532.022C215.806 530.866 214.93 529.525 214.348 528C213.773 526.475 213.486 524.847 213.486 523.116V521.282H216.734V523.116ZM222.403 523.359H206.977V520.155H222.403V523.359ZM256.599 533.657H252.599V518.42H256.599V533.657ZM260.422 527.856H255.472V524.586H260.422V527.856ZM237.516 529.779C239.755 529.772 241.579 529.746 242.986 529.702C244.4 529.657 245.682 529.573 246.831 529.448C247.98 529.322 249.126 529.134 250.267 528.884L250.687 532.088C249.509 532.339 248.315 532.53 247.107 532.663C245.899 532.788 244.562 532.873 243.096 532.917C241.63 532.961 239.77 532.987 237.516 532.994H235.14V529.779H237.516ZM247.825 523.326H239.107V531.912H235.14V520.144H247.825V523.326ZM241.892 537.669H252.599V535.017H256.599V546.53H237.914V535.017H241.892V537.669ZM252.599 543.348V540.796H241.892V543.348H252.599ZM275.016 518.84C277.204 518.84 279.067 519.028 280.607 519.403C282.154 519.772 283.333 520.317 284.143 521.039C284.953 521.761 285.358 522.641 285.358 523.68C285.358 524.733 284.953 525.624 284.143 526.354C283.333 527.076 282.154 527.624 280.607 528C279.067 528.376 277.204 528.564 275.016 528.564C272.828 528.571 270.961 528.387 269.414 528.011C267.874 527.628 266.695 527.076 265.878 526.354C265.06 525.624 264.655 524.733 264.662 523.68C264.655 522.648 265.06 521.772 265.878 521.05C266.695 520.32 267.874 519.772 269.414 519.403C270.961 519.028 272.828 518.84 275.016 518.84ZM275.016 521.757C273.638 521.75 272.489 521.82 271.568 521.967C270.655 522.114 269.97 522.331 269.513 522.619C269.056 522.906 268.832 523.26 268.839 523.68C268.832 524.136 269.049 524.508 269.491 524.796C269.94 525.076 270.611 525.285 271.502 525.425C272.393 525.565 273.565 525.635 275.016 525.635C276.482 525.635 277.664 525.565 278.563 525.425C279.462 525.285 280.132 525.076 280.574 524.796C281.023 524.516 281.248 524.144 281.248 523.68C281.248 523.26 281.02 522.906 280.563 522.619C280.113 522.331 279.425 522.118 278.497 521.978C277.576 521.831 276.415 521.757 275.016 521.757ZM288.01 533.072H262.066V529.912H288.01V533.072ZM284.839 541.967H268.994V544.541H265.082V539.182H280.905V537.635H265.06V534.707H284.839V541.967ZM285.579 546.685H265.082V543.68H285.579V546.685ZM141.668 565.21C141.661 566.853 141.359 568.378 140.762 569.785C140.165 571.192 139.263 572.414 138.055 573.453C136.847 574.484 135.373 575.247 133.635 575.74L131.745 572.602C133.226 572.212 134.471 571.637 135.48 570.878C136.497 570.12 137.248 569.254 137.734 568.282C138.228 567.309 138.475 566.285 138.475 565.21V564.138H141.668V565.21ZM142.452 565.21C142.452 566.204 142.692 567.158 143.171 568.072C143.65 568.985 144.386 569.803 145.381 570.525C146.382 571.239 147.624 571.788 149.104 572.171L147.347 575.21C145.557 574.761 144.055 574.042 142.839 573.055C141.624 572.068 140.714 570.904 140.11 569.564C139.506 568.223 139.208 566.772 139.215 565.21V564.138H142.452V565.21ZM148.176 565.331H132.751V562.182H148.176V565.331ZM142.497 563.652H138.475V559.32H142.497V563.652ZM154.541 575.641H150.541V559.42H154.541V575.641ZM158.364 569.099H153.414V565.818H158.364V569.099ZM146.53 578.856C146.53 580.344 146.117 581.707 145.292 582.945C144.467 584.182 143.259 585.217 141.668 586.05C140.077 586.882 138.165 587.449 135.933 587.751L134.497 584.735C136.382 584.499 137.977 584.083 139.281 583.486C140.592 582.882 141.568 582.182 142.209 581.387C142.858 580.584 143.182 579.74 143.182 578.856V578.171H146.53V578.856ZM147.447 578.856C147.44 579.703 147.76 580.532 148.408 581.343C149.064 582.145 150.047 582.856 151.359 583.475C152.67 584.094 154.261 584.525 156.132 584.768L154.707 587.818C152.467 587.523 150.545 586.945 148.939 586.083C147.34 585.228 146.121 584.179 145.281 582.934C144.449 581.689 144.036 580.33 144.044 578.856V578.171H147.447V578.856ZM154.883 579.994H135.723V576.856H154.883V579.994ZM172.958 560.89C174.962 560.89 176.777 561.232 178.405 561.917C180.041 562.595 181.326 563.552 182.262 564.79C183.205 566.028 183.676 567.453 183.676 569.066C183.676 570.68 183.205 572.109 182.262 573.354C181.326 574.591 180.041 575.552 178.405 576.238C176.777 576.923 174.962 577.265 172.958 577.265C170.962 577.265 169.149 576.923 167.521 576.238C165.901 575.552 164.623 574.591 163.687 573.354C162.752 572.109 162.287 570.68 162.295 569.066C162.287 567.453 162.752 566.028 163.687 564.79C164.623 563.552 165.901 562.595 167.521 561.917C169.149 561.232 170.962 560.89 172.958 560.89ZM172.958 564.116C171.647 564.109 170.475 564.308 169.444 564.713C168.42 565.118 167.617 565.696 167.035 566.448C166.453 567.199 166.162 568.072 166.162 569.066C166.162 570.076 166.45 570.952 167.024 571.696C167.606 572.44 168.409 573.011 169.433 573.409C170.464 573.799 171.639 573.994 172.958 573.994C174.276 573.994 175.448 573.799 176.472 573.409C177.503 573.011 178.306 572.44 178.88 571.696C179.455 570.952 179.742 570.076 179.742 569.066C179.742 568.064 179.451 567.192 178.869 566.448C178.295 565.696 177.492 565.118 176.461 564.713C175.437 564.308 174.269 564.109 172.958 564.116ZM186.019 584.414H160.008V581.188H186.019V584.414ZM204.159 572.282H199.32V569.033H204.159V572.282ZM196.347 566.779C196.34 569.011 196.111 571.122 195.662 573.11C195.213 575.099 194.509 576.886 193.552 578.47C192.601 580.046 191.397 581.28 189.938 582.171L187.507 579.21C188.848 578.378 189.949 577.306 190.811 575.994C191.673 574.676 192.299 573.239 192.69 571.685C193.08 570.131 193.275 568.495 193.275 566.779V561.873H196.347V566.779ZM197.143 566.591C197.143 568.271 197.312 569.843 197.651 571.309C197.99 572.775 198.542 574.134 199.309 575.387C200.075 576.632 201.08 577.652 202.325 578.448L200.148 581.519C198.697 580.65 197.526 579.446 196.635 577.906C195.743 576.366 195.102 574.65 194.712 572.757C194.329 570.856 194.141 568.801 194.148 566.591V561.873H197.143V566.591ZM212.679 587.884H208.867V559.42H212.679V587.884ZM206.734 586.569H202.999V559.862H206.734V586.569ZM225.814 581.884H221.869V573.895H225.814V581.884ZM236.3 581.884H232.267V573.895H236.3V581.884ZM242.079 584.547H216.068V581.298H242.079V584.547ZM229.018 560.823C231.066 560.823 232.9 561.14 234.521 561.773C236.149 562.407 237.424 563.306 238.344 564.47C239.273 565.626 239.737 566.956 239.737 568.459C239.737 569.969 239.276 571.298 238.355 572.448C237.435 573.597 236.16 574.488 234.532 575.122C232.912 575.748 231.074 576.061 229.018 576.061C226.97 576.061 225.136 575.748 223.516 575.122C221.895 574.488 220.628 573.597 219.714 572.448C218.801 571.298 218.348 569.969 218.355 568.459C218.348 566.948 218.801 565.615 219.714 564.459C220.628 563.302 221.895 562.407 223.516 561.773C225.144 561.14 226.978 560.823 229.018 560.823ZM229.018 563.972C227.663 563.965 226.477 564.138 225.46 564.492C224.451 564.845 223.667 565.361 223.107 566.039C222.554 566.716 222.278 567.523 222.278 568.459C222.278 569.379 222.554 570.179 223.107 570.856C223.667 571.534 224.455 572.057 225.471 572.425C226.488 572.794 227.67 572.978 229.018 572.978C230.359 572.971 231.541 572.786 232.565 572.425C233.597 572.057 234.392 571.534 234.952 570.856C235.519 570.179 235.803 569.379 235.803 568.459C235.803 567.523 235.519 566.716 234.952 566.039C234.392 565.361 233.6 564.845 232.576 564.492C231.552 564.138 230.366 563.965 229.018 563.972Z" fill="#080B14"/>
        <path d="M137.114 630.35H135.857V615.593H137.114V630.35ZM136.339 622.531H133.451V621.439H136.339V622.531ZM133.791 629.599H132.547V615.91H133.791V629.599ZM130.668 626.37H125.009V617.318H130.668V626.37ZM126.242 625.325H129.435V618.363H126.242V625.325ZM154.529 623.564H144.338V622.508H154.529V623.564ZM156.125 628.483H142.612V627.392H156.125V628.483ZM149.973 627.838H148.682V622.965H149.973V627.838ZM154.388 617.858H145.641V623.001H144.338V616.79H154.388V617.858ZM168.567 620.758H164.786V619.69H168.567V620.758ZM169.13 626.429H167.827V615.604H169.13V626.429ZM169.541 630.021H159.656V628.941H169.541V630.021ZM160.959 629.47H159.656V625.454H160.959V629.47ZM161.792 618.645C161.788 619.529 161.61 620.363 161.258 621.146C160.91 621.928 160.423 622.613 159.797 623.2C159.17 623.787 158.45 624.233 157.636 624.539L156.955 623.47C157.679 623.216 158.325 622.844 158.893 622.355C159.464 621.862 159.91 621.294 160.231 620.653C160.552 620.007 160.712 619.338 160.712 618.645V617.436H161.792V618.645ZM162.027 618.645C162.027 619.271 162.182 619.884 162.491 620.482C162.8 621.081 163.229 621.613 163.777 622.079C164.324 622.545 164.954 622.899 165.667 623.142L164.986 624.186C164.191 623.901 163.489 623.48 162.878 622.924C162.272 622.365 161.8 621.717 161.464 620.981C161.127 620.242 160.959 619.463 160.959 618.645V617.436H162.027V618.645ZM165.326 617.882H157.378V616.802H165.326V617.882ZM184.635 624.433H171.181V623.376H184.635V624.433ZM183.133 630.021H172.919V628.941H183.133V630.021ZM174.234 629.27H172.919V625.736H174.234V629.27ZM177.897 616.109C178.953 616.105 179.875 616.219 180.661 616.45C181.448 616.677 182.053 617.013 182.475 617.459C182.898 617.901 183.109 618.426 183.109 619.032C183.109 619.639 182.898 620.165 182.475 620.612C182.053 621.054 181.448 621.392 180.661 621.627C179.875 621.862 178.953 621.979 177.897 621.979C176.836 621.979 175.912 621.862 175.126 621.627C174.343 621.392 173.739 621.054 173.312 620.612C172.885 620.165 172.672 619.639 172.672 619.032C172.672 618.426 172.885 617.901 173.312 617.459C173.739 617.013 174.343 616.677 175.126 616.45C175.912 616.219 176.836 616.105 177.897 616.109ZM177.897 617.166C177.11 617.166 176.423 617.24 175.836 617.389C175.253 617.538 174.803 617.755 174.486 618.04C174.173 618.322 174.018 618.653 174.022 619.032C174.018 619.42 174.173 619.754 174.486 620.036C174.803 620.314 175.253 620.529 175.836 620.682C176.423 620.835 177.11 620.911 177.897 620.911C178.683 620.911 179.368 620.835 179.951 620.682C180.538 620.529 180.99 620.314 181.307 620.036C181.624 619.754 181.783 619.42 181.783 619.032C181.783 618.653 181.624 618.322 181.307 618.04C180.99 617.755 180.538 617.538 179.951 617.389C179.368 617.24 178.683 617.166 177.897 617.166ZM200.865 623.106H199.562V615.593H200.865V623.106ZM203.084 619.89H200.278V618.798H203.084V619.89ZM196.779 622.331H189.958V616.438H196.779V622.331ZM191.226 621.287H195.511V617.494H191.226V621.287ZM200.865 627.403H192.764V629.657H191.484V626.417H199.573V624.856H191.449V623.811H200.865V627.403ZM201.405 630.151H191.484V629.094H201.405V630.151ZM215.771 630.374H214.468V615.593H215.771V630.374ZM207.929 616.731C208.657 616.735 209.306 616.949 209.878 617.371C210.449 617.79 210.895 618.389 211.216 619.167C211.537 619.946 211.698 620.848 211.698 621.874C211.698 622.903 211.537 623.807 211.216 624.586C210.895 625.36 210.447 625.959 209.872 626.382C209.301 626.805 208.653 627.016 207.929 627.016C207.197 627.016 206.545 626.805 205.974 626.382C205.407 625.959 204.962 625.36 204.642 624.586C204.321 623.811 204.16 622.907 204.16 621.874C204.16 620.844 204.321 619.942 204.642 619.167C204.962 618.389 205.407 617.79 205.974 617.371C206.545 616.949 207.197 616.735 207.929 616.731ZM207.929 617.894C207.44 617.898 207.003 618.066 206.62 618.398C206.24 618.727 205.945 619.193 205.733 619.796C205.522 620.394 205.416 621.087 205.416 621.874C205.416 622.664 205.522 623.361 205.733 623.963C205.945 624.566 206.24 625.032 206.62 625.36C207.003 625.689 207.44 625.854 207.929 625.854C208.418 625.854 208.85 625.689 209.226 625.36C209.606 625.032 209.901 624.566 210.113 623.963C210.324 623.361 210.43 622.664 210.43 621.874C210.43 621.087 210.324 620.394 210.113 619.796C209.901 619.193 209.606 618.727 209.226 618.398C208.85 618.066 208.418 617.898 207.929 617.894ZM230.545 623.048H222.961V621.968H230.545V623.048ZM227.316 626.241H226.013V622.813H227.316V626.241ZM230.486 618.058H224.24V622.355H222.961V617.001H230.486V618.058ZM233.856 630.374H232.553V615.593H233.856V630.374ZM221.834 626.041C223.669 626.041 225.395 626.014 227.011 625.959C228.627 625.904 230.15 625.795 231.578 625.631L231.684 626.605C230.682 626.75 229.639 626.863 228.555 626.945C227.471 627.024 226.416 627.077 225.391 627.104C224.366 627.131 223.305 627.145 222.209 627.145H222.01L221.834 626.041ZM247.964 621.122H237.867V620.066H247.964V621.122ZM249.525 624.186H236.012V623.13H249.525V624.186ZM239.159 620.606H237.867V616.133H239.159V620.606ZM248.058 629.986H237.773V628.906H248.058V629.986ZM239.065 629.211H237.773V625.689H239.065V629.211ZM104.614 651.164C103.824 651.164 103.116 651.031 102.489 650.765C101.863 650.499 101.368 650.125 101.004 649.644C100.644 649.163 100.45 648.609 100.423 647.983H101.938C101.965 648.355 102.098 648.681 102.337 648.963C102.579 649.241 102.896 649.456 103.288 649.609C103.679 649.761 104.113 649.838 104.591 649.838C105.115 649.838 105.585 649.748 106 649.568C106.415 649.388 106.739 649.139 106.974 648.822C107.209 648.501 107.326 648.135 107.326 647.724C107.326 647.286 107.213 646.899 106.986 646.562C106.759 646.226 106.424 645.963 105.982 645.776C105.544 645.588 105.017 645.494 104.403 645.494H103.429V644.179H104.403C104.888 644.179 105.321 644.093 105.7 643.921C106.08 643.748 106.373 643.508 106.581 643.199C106.788 642.885 106.892 642.523 106.892 642.113C106.892 641.717 106.8 641.369 106.616 641.068C106.432 640.762 106.17 640.528 105.829 640.363C105.489 640.199 105.092 640.117 104.638 640.117C104.207 640.117 103.804 640.193 103.429 640.346C103.053 640.498 102.746 640.717 102.507 641.003C102.272 641.285 102.145 641.616 102.125 641.995H100.681C100.705 641.377 100.897 640.825 101.257 640.34C101.617 639.855 102.096 639.479 102.695 639.213C103.294 638.947 103.949 638.814 104.661 638.814C105.401 638.814 106.049 638.96 106.604 639.254C107.164 639.547 107.592 639.941 107.89 640.434C108.191 640.927 108.34 641.463 108.336 642.042C108.34 642.488 108.26 642.895 108.095 643.263C107.935 643.631 107.698 643.942 107.385 644.196C107.076 644.451 106.712 644.637 106.293 644.754V644.848C106.81 644.926 107.258 645.095 107.637 645.353C108.017 645.611 108.305 645.946 108.5 646.357C108.7 646.768 108.798 647.227 108.794 647.736C108.798 648.382 108.618 648.967 108.254 649.491C107.894 650.012 107.393 650.421 106.751 650.718C106.113 651.016 105.401 651.164 104.614 651.164ZM121.32 639.295H111.728V638.238H121.32V639.295ZM123.527 644.167H110.014V643.11H123.527V644.167ZM121.754 639.236C121.754 639.976 121.731 640.663 121.684 641.297C121.637 641.931 121.527 642.641 121.355 643.427L120.076 643.287C120.193 642.743 120.281 642.23 120.34 641.749C120.398 641.263 120.434 640.835 120.445 640.463C120.457 640.091 120.463 639.682 120.463 639.236V639.177V638.238H121.754V639.177V639.236ZM121.801 649.368H112.949V651.47H111.646V648.347H120.51V646.703H111.623V645.646H121.801V649.368ZM122.177 652.174H111.646V651.117H122.177V652.174ZM129.053 642.124C129.053 643.122 128.862 644.118 128.478 645.112C128.095 646.102 127.58 646.987 126.934 647.766C126.292 648.54 125.594 649.122 124.839 649.509L124.052 648.476C124.752 648.135 125.404 647.623 126.007 646.938C126.613 646.249 127.097 645.48 127.457 644.631C127.821 643.778 128.005 642.942 128.008 642.124V639.682H129.053V642.124ZM129.288 642.124C129.284 642.895 129.453 643.68 129.793 644.478C130.137 645.273 130.603 645.993 131.19 646.638C131.777 647.284 132.423 647.775 133.127 648.112L132.376 649.145C131.609 648.769 130.91 648.214 130.28 647.478C129.65 646.742 129.153 645.905 128.789 644.965C128.425 644.026 128.243 643.079 128.243 642.124V639.682H129.288V642.124ZM132.611 640.199H124.58V639.107H132.611V640.199ZM135.722 652.35H134.419V637.593H135.722V652.35ZM138.187 644.672H135.428V643.557H138.187V644.672ZM152.096 650.519H138.583V649.415H152.096V650.519ZM145.944 649.896H144.653V646.245H145.944V649.896ZM150.394 643.146H141.565V646.128H140.274V642.077H149.102V639.765H140.238V638.684H150.394V643.146ZM150.734 646.633H140.274V645.552H150.734V646.633ZM168.889 652.374H167.586V637.593H168.889V652.374ZM161.046 638.731C161.774 638.735 162.424 638.949 162.995 639.371C163.567 639.79 164.013 640.389 164.334 641.167C164.655 641.946 164.815 642.848 164.815 643.874C164.815 644.903 164.655 645.807 164.334 646.586C164.013 647.36 163.565 647.959 162.989 648.382C162.418 648.805 161.77 649.016 161.046 649.016C160.315 649.016 159.663 648.805 159.092 648.382C158.524 647.959 158.08 647.36 157.759 646.586C157.438 645.811 157.278 644.907 157.278 643.874C157.278 642.844 157.438 641.942 157.759 641.167C158.08 640.389 158.524 639.79 159.092 639.371C159.663 638.949 160.315 638.735 161.046 638.731ZM161.046 639.894C160.557 639.898 160.121 640.066 159.737 640.398C159.358 640.727 159.062 641.193 158.851 641.796C158.64 642.394 158.534 643.087 158.534 643.874C158.534 644.664 158.64 645.361 158.851 645.963C159.062 646.566 159.358 647.032 159.737 647.36C160.121 647.689 160.557 647.854 161.046 647.854C161.536 647.854 161.968 647.689 162.344 647.36C162.723 647.032 163.019 646.566 163.23 645.963C163.441 645.361 163.547 644.664 163.547 643.874C163.547 643.087 163.441 642.394 163.23 641.796C163.019 641.193 162.723 640.727 162.344 640.398C161.968 640.066 161.536 639.898 161.046 639.894ZM182.868 642.019H173.969V644.555H172.654V640.997H181.541V639.248H172.619V638.191H182.868V642.019ZM183.185 645.012H172.654V643.932H183.185V645.012ZM184.5 647.619H170.987V646.562H184.5V647.619ZM178.371 652.374H177.068V646.95H178.371V652.374ZM189.263 638.731C189.979 638.735 190.615 638.949 191.171 639.371C191.73 639.79 192.165 640.389 192.474 641.167C192.787 641.942 192.945 642.844 192.949 643.874C192.945 644.907 192.787 645.811 192.474 646.586C192.165 647.36 191.73 647.959 191.171 648.382C190.615 648.805 189.979 649.016 189.263 649.016C188.539 649.016 187.895 648.805 187.332 648.382C186.772 647.959 186.336 647.36 186.023 646.586C185.713 645.811 185.561 644.907 185.565 643.874C185.561 642.844 185.713 641.942 186.023 641.167C186.336 640.389 186.772 639.79 187.332 639.371C187.895 638.949 188.539 638.735 189.263 638.731ZM189.263 639.894C188.782 639.898 188.355 640.066 187.983 640.398C187.615 640.727 187.328 641.193 187.12 641.796C186.913 642.394 186.809 643.087 186.809 643.874C186.809 644.664 186.913 645.361 187.12 645.963C187.328 646.566 187.615 647.032 187.983 647.36C188.355 647.689 188.782 647.854 189.263 647.854C189.74 647.854 190.165 647.689 190.537 647.36C190.908 647.032 191.198 646.566 191.405 645.963C191.613 645.361 191.717 644.664 191.717 643.874C191.717 643.087 191.613 642.394 191.405 641.796C191.198 641.193 190.908 640.727 190.537 640.398C190.165 640.066 189.74 639.898 189.263 639.894ZM197.528 652.374H196.237V637.593H197.528V652.374ZM196.812 644.308H192.515V643.228H196.812V644.308ZM211.812 652.35H210.509V637.593H211.812V652.35ZM204.44 641.972C204.436 643.001 204.248 644.016 203.876 645.018C203.508 646.016 203.011 646.908 202.385 647.695C201.763 648.478 201.082 649.075 200.342 649.485L199.473 648.499C200.174 648.151 200.822 647.629 201.416 646.932C202.015 646.231 202.491 645.445 202.843 644.572C203.199 643.696 203.379 642.829 203.383 641.972V639.671H204.44V641.972ZM204.698 641.972C204.698 642.727 204.874 643.516 205.226 644.337C205.578 645.155 206.05 645.905 206.641 646.586C207.232 647.263 207.872 647.775 208.56 648.124L207.774 649.122C207.03 648.734 206.343 648.159 205.713 647.396C205.083 646.629 204.582 645.768 204.211 644.813C203.839 643.858 203.653 642.911 203.653 641.972V639.671H204.698V641.972ZM208.056 640.199H200.013V639.107H208.056V640.199ZM211.355 642.84H207.48V641.749H211.355V642.84ZM211.355 645.987H207.48V644.895H211.355V645.987ZM217.808 638.731C218.532 638.735 219.176 638.949 219.739 639.371C220.307 639.79 220.747 640.389 221.06 641.167C221.377 641.942 221.538 642.844 221.542 643.874C221.538 644.907 221.377 645.811 221.06 646.586C220.747 647.36 220.307 647.959 219.739 648.382C219.176 648.805 218.532 649.016 217.808 649.016C217.084 649.016 216.44 648.805 215.877 648.382C215.317 647.959 214.879 647.36 214.562 646.586C214.249 645.811 214.094 644.907 214.098 643.874C214.094 642.844 214.249 641.942 214.562 641.167C214.879 640.389 215.317 639.79 215.877 639.371C216.44 638.949 217.084 638.735 217.808 638.731ZM217.808 639.894C217.327 639.898 216.898 640.066 216.523 640.398C216.151 640.727 215.859 641.193 215.648 641.796C215.437 642.394 215.331 643.087 215.331 643.874C215.331 644.664 215.437 645.361 215.648 645.963C215.859 646.566 216.151 647.032 216.523 647.36C216.898 647.689 217.327 647.854 217.808 647.854C218.297 647.854 218.728 647.689 219.1 647.36C219.475 647.032 219.767 646.568 219.974 645.969C220.182 645.367 220.285 644.668 220.285 643.874C220.285 643.083 220.182 642.388 219.974 641.79C219.767 641.191 219.475 640.727 219.1 640.398C218.728 640.066 218.297 639.898 217.808 639.894ZM227.682 642.418H224.935V641.302H227.682V642.418ZM227.682 646.797H224.935V645.705H227.682V646.797ZM225.287 652.35H223.984V637.593H225.287V652.35ZM243.547 646.163H242.244V637.593H243.547V646.163ZM245.766 642.477H242.984V641.373H245.766V642.477ZM235.505 648.394H242.244V646.809H243.547V652.151H234.214V646.809H235.505V648.394ZM242.244 651.094V649.427H235.505V651.094H242.244ZM240.835 640.187H232.042V639.119H240.835V640.187ZM236.444 640.88C237.145 640.88 237.761 640.985 238.293 641.197C238.83 641.408 239.244 641.709 239.538 642.101C239.835 642.492 239.986 642.946 239.99 643.463C239.986 643.983 239.835 644.439 239.538 644.83C239.244 645.218 238.83 645.519 238.293 645.734C237.757 645.946 237.141 646.049 236.444 646.046C235.736 646.049 235.112 645.946 234.572 645.734C234.036 645.519 233.619 645.218 233.321 644.83C233.028 644.439 232.883 643.983 232.887 643.463C232.883 642.946 233.028 642.492 233.321 642.101C233.619 641.709 234.036 641.408 234.572 641.197C235.108 640.985 235.732 640.88 236.444 640.88ZM236.444 641.878C235.982 641.874 235.577 641.938 235.229 642.071C234.881 642.201 234.609 642.387 234.413 642.629C234.221 642.872 234.127 643.15 234.131 643.463C234.127 643.78 234.221 644.06 234.413 644.302C234.609 644.541 234.881 644.727 235.229 644.86C235.577 644.993 235.982 645.059 236.444 645.059C236.898 645.059 237.299 644.993 237.648 644.86C237.996 644.727 238.266 644.541 238.458 644.302C238.653 644.06 238.753 643.78 238.757 643.463C238.753 643.15 238.653 642.872 238.458 642.629C238.266 642.387 237.996 642.201 237.648 642.071C237.299 641.938 236.898 641.874 236.444 641.878ZM237.09 639.694H235.799V637.452H237.09V639.694ZM258.454 652.35H257.162V637.593H258.454V652.35ZM248.533 648.171H247.254V639.048H248.533V648.171ZM248.451 647.407C249.664 647.407 250.858 647.353 252.032 647.243C253.206 647.134 254.392 646.953 255.589 646.703L255.765 647.818C254.505 648.077 253.28 648.263 252.091 648.376C250.905 648.49 249.692 648.546 248.451 648.546H247.254V647.407H248.451ZM271.999 652.374H270.695V637.593H271.999V652.374ZM274.464 644.519H271.705V643.427H274.464V644.519ZM262.383 647.572C263.827 647.572 265.068 647.535 266.105 647.46C267.146 647.386 268.202 647.251 269.275 647.055L269.439 648.182C268.343 648.378 267.271 648.509 266.222 648.576C265.173 648.642 263.894 648.675 262.383 648.675H261.221V647.572H262.383ZM268.112 640.105H262.524V648.077H261.221V639.037H268.112V640.105Z" fill="#818384"/>
        <path d="M131.086 684.523H127.705V683.443H131.086V684.523ZM131.99 688.386H130.687V679.593H131.99V688.386ZM127.094 688.844C128.112 688.844 128.992 688.952 129.736 689.167C130.479 689.382 131.049 689.697 131.444 690.112C131.839 690.523 132.037 691.016 132.037 691.591C132.037 692.166 131.839 692.658 131.444 693.065C131.049 693.475 130.479 693.789 129.736 694.004C128.996 694.223 128.116 694.334 127.094 694.338C126.069 694.334 125.186 694.223 124.447 694.004C123.707 693.789 123.138 693.475 122.738 693.065C122.343 692.658 122.148 692.166 122.151 691.591C122.148 691.016 122.343 690.523 122.738 690.112C123.138 689.697 123.707 689.382 124.447 689.167C125.19 688.952 126.073 688.844 127.094 688.844ZM127.094 689.865C126.343 689.865 125.693 689.934 125.145 690.071C124.597 690.208 124.175 690.407 123.877 690.67C123.584 690.928 123.439 691.235 123.443 691.591C123.439 691.943 123.584 692.249 123.877 692.507C124.175 692.765 124.597 692.961 125.145 693.094C125.693 693.231 126.343 693.297 127.094 693.294C127.842 693.297 128.489 693.231 129.037 693.094C129.589 692.961 130.012 692.765 130.305 692.507C130.599 692.249 130.745 691.943 130.745 691.591C130.745 691.235 130.599 690.928 130.305 690.67C130.012 690.407 129.589 690.208 129.037 690.071C128.489 689.934 127.842 689.865 127.094 689.865ZM124.652 682.305C124.648 683.193 124.47 684.032 124.118 684.823C123.77 685.609 123.282 686.3 122.656 686.895C122.03 687.486 121.31 687.936 120.496 688.245L119.815 687.212C120.539 686.95 121.187 686.566 121.758 686.061C122.333 685.553 122.78 684.974 123.097 684.324C123.414 683.67 123.572 682.997 123.572 682.305V681.084H124.652V682.305ZM124.887 682.293C124.887 682.927 125.04 683.541 125.345 684.136C125.65 684.731 126.079 685.261 126.63 685.727C127.182 686.193 127.814 686.547 128.526 686.789L127.846 687.834C127.051 687.549 126.349 687.126 125.738 686.566C125.132 686.003 124.66 685.353 124.323 684.617C123.987 683.882 123.819 683.107 123.819 682.293V681.084H124.887V682.293ZM128.186 681.753H120.238V680.673H128.186V681.753ZM145.582 687.459H144.278V679.593H145.582V687.459ZM147.8 684.16H145.218V683.056H147.8V684.16ZM135.884 685.862C136.972 685.862 137.888 685.848 138.631 685.821C139.375 685.793 140.066 685.744 140.703 685.674C141.345 685.6 141.997 685.494 142.658 685.357L142.823 686.437C142.138 686.578 141.463 686.686 140.797 686.76C140.136 686.834 139.424 686.885 138.661 686.913C137.901 686.94 136.976 686.954 135.884 686.954H134.745V685.862H135.884ZM141.273 681.647H136.037V686.613H134.745V680.567H141.273V681.647ZM137.528 690.088H144.278V688.257H145.582V694.104H136.236V688.257H137.528V690.088ZM144.278 693.023V691.145H137.528V693.023H144.278ZM163.725 690.276H162.421V679.581H163.725V690.276ZM165.955 685.075H163.314V683.983H165.955V685.075ZM154.027 686.555C155.107 686.558 156.019 686.549 156.763 686.525C157.506 686.498 158.199 686.451 158.841 686.384C159.486 686.314 160.14 686.21 160.801 686.073L160.966 687.153C159.948 687.349 158.933 687.482 157.919 687.552C156.909 687.623 155.612 687.654 154.027 687.646H152.888V686.555H154.027ZM159.451 681.952H154.18V687.165H152.888V680.872H159.451V681.952ZM164.405 694.021H154.485V692.941H164.405V694.021ZM155.776 693.434H154.485V689.196H155.776V693.434ZM170.436 680.731C171.153 680.735 171.789 680.949 172.344 681.371C172.904 681.79 173.338 682.389 173.647 683.167C173.96 683.942 174.119 684.844 174.123 685.874C174.119 686.907 173.96 687.811 173.647 688.586C173.338 689.36 172.904 689.959 172.344 690.382C171.789 690.805 171.153 691.016 170.436 691.016C169.712 691.016 169.069 690.805 168.505 690.382C167.946 689.959 167.509 689.36 167.196 688.586C166.887 687.811 166.734 686.907 166.738 685.874C166.734 684.844 166.887 683.942 167.196 683.167C167.509 682.389 167.946 681.79 168.505 681.371C169.069 680.949 169.712 680.735 170.436 680.731ZM170.436 681.894C169.955 681.898 169.529 682.066 169.157 682.398C168.789 682.727 168.501 683.193 168.294 683.796C168.086 684.394 167.983 685.087 167.983 685.874C167.983 686.664 168.086 687.361 168.294 687.963C168.501 688.566 168.789 689.032 169.157 689.36C169.529 689.689 169.955 689.854 170.436 689.854C170.914 689.854 171.338 689.689 171.71 689.36C172.082 689.032 172.372 688.566 172.579 687.963C172.786 687.361 172.89 686.664 172.89 685.874C172.89 685.087 172.786 684.394 172.579 683.796C172.372 683.193 172.082 682.727 171.71 682.398C171.338 682.066 170.914 681.898 170.436 681.894ZM178.702 694.374H177.41V679.593H178.702V694.374ZM177.985 686.308H173.688V685.228H177.985V686.308ZM192.681 685.122H182.584V684.066H192.681V685.122ZM194.242 688.186H180.729V687.13H194.242V688.186ZM183.875 684.606H182.584V680.133H183.875V684.606ZM192.775 693.986H182.49V692.906H192.775V693.986ZM183.782 693.211H182.49V689.689H183.782V693.211ZM210.331 683.068H205.987V681.999H210.331V683.068ZM210.354 686.003H205.987V684.923H210.354V686.003ZM211.129 688.339H209.826V679.593H211.129V688.339ZM206.362 687.271H199.588V680.72H206.362V687.271ZM200.88 686.202H205.083V681.776H200.88V686.202ZM206.233 688.762C207.251 688.762 208.131 688.871 208.875 689.09C209.618 689.31 210.188 689.629 210.583 690.047C210.978 690.466 211.176 690.969 211.176 691.556C211.176 692.135 210.978 692.632 210.583 693.047C210.188 693.462 209.618 693.777 208.875 693.992C208.135 694.207 207.255 694.315 206.233 694.315C205.208 694.315 204.325 694.207 203.586 693.992C202.846 693.777 202.277 693.462 201.878 693.047C201.482 692.632 201.287 692.135 201.291 691.556C201.287 690.969 201.482 690.466 201.878 690.047C202.277 689.629 202.846 689.31 203.586 689.09C204.329 688.871 205.212 688.762 206.233 688.762ZM206.233 689.783C205.478 689.787 204.826 689.859 204.278 690C203.735 690.137 203.314 690.339 203.016 690.605C202.723 690.871 202.578 691.188 202.582 691.556C202.578 691.908 202.723 692.213 203.016 692.472C203.314 692.73 203.736 692.93 204.284 693.07C204.832 693.211 205.482 693.282 206.233 693.282C206.981 693.282 207.628 693.211 208.176 693.07C208.728 692.93 209.151 692.73 209.444 692.472C209.738 692.213 209.884 691.908 209.884 691.556C209.884 691.188 209.738 690.871 209.444 690.605C209.151 690.339 208.73 690.137 208.182 690C207.634 689.859 206.985 689.787 206.233 689.783ZM217.911 683.561C217.911 684.617 217.731 685.654 217.371 686.672C217.011 687.689 216.516 688.593 215.886 689.384C215.26 690.174 214.561 690.777 213.79 691.192L212.969 690.147C213.677 689.795 214.327 689.269 214.918 688.568C215.512 687.868 215.98 687.079 216.32 686.202C216.665 685.322 216.839 684.441 216.843 683.561V680.872H217.911V683.561ZM218.134 683.561C218.13 684.406 218.299 685.249 218.639 686.091C218.984 686.932 219.447 687.686 220.03 688.351C220.614 689.016 221.253 689.521 221.95 689.865L221.14 690.91C220.377 690.507 219.684 689.926 219.062 689.167C218.444 688.404 217.956 687.533 217.6 686.555C217.248 685.576 217.074 684.578 217.078 683.561V680.872H218.134V683.561ZM224.603 694.35H223.3V679.593H224.603V694.35ZM227.069 686.707H224.31V685.58H227.069V686.707ZM239.627 694.374H238.324V679.593H239.627V694.374ZM231.785 680.731C232.513 680.735 233.162 680.949 233.734 681.371C234.305 681.79 234.751 682.389 235.072 683.167C235.393 683.946 235.553 684.848 235.553 685.874C235.553 686.903 235.393 687.807 235.072 688.586C234.751 689.36 234.303 689.959 233.728 690.382C233.156 690.805 232.509 691.016 231.785 691.016C231.053 691.016 230.401 690.805 229.83 690.382C229.263 689.959 228.818 689.36 228.497 688.586C228.177 687.811 228.016 686.907 228.016 685.874C228.016 684.844 228.177 683.942 228.497 683.167C228.818 682.389 229.263 681.79 229.83 681.371C230.401 680.949 231.053 680.735 231.785 680.731ZM231.785 681.894C231.296 681.898 230.859 682.066 230.476 682.398C230.096 682.727 229.801 683.193 229.589 683.796C229.378 684.394 229.272 685.087 229.272 685.874C229.272 686.664 229.378 687.361 229.589 687.963C229.801 688.566 230.096 689.032 230.476 689.36C230.859 689.689 231.296 689.854 231.785 689.854C232.274 689.854 232.706 689.689 233.082 689.36C233.462 689.032 233.757 688.566 233.968 687.963C234.18 687.361 234.285 686.664 234.285 685.874C234.285 685.087 234.18 684.394 233.968 683.796C233.757 683.193 233.462 682.727 233.082 682.398C232.706 682.066 232.274 681.898 231.785 681.894ZM253.196 684.218H248.57V683.138H253.196V684.218ZM253.196 688.28H248.57V687.212H253.196V688.28ZM249.075 690.617H242.347V681.06H249.075V690.617ZM243.639 689.56H247.807V682.093H243.639V689.56ZM253.982 694.374H252.691V679.593H253.982V694.374ZM78.0157 716.374H76.7125V701.593H78.0157V716.374ZM70.1731 702.731C70.901 702.735 71.5507 702.949 72.122 703.371C72.6934 703.79 73.1395 704.389 73.4604 705.167C73.7813 705.946 73.9418 706.848 73.9418 707.874C73.9418 708.903 73.7813 709.807 73.4604 710.586C73.1395 711.36 72.6914 711.959 72.1162 712.382C71.5448 712.805 70.8971 713.016 70.1731 713.016C69.4413 713.016 68.7897 712.805 68.2184 712.382C67.6509 711.959 67.2067 711.36 66.8858 710.586C66.5649 709.811 66.4045 708.907 66.4045 707.874C66.4045 706.844 66.5649 705.942 66.8858 705.167C67.2067 704.389 67.6509 703.79 68.2184 703.371C68.7897 702.949 69.4413 702.735 70.1731 702.731ZM70.1731 703.894C69.6839 703.898 69.2476 704.066 68.8641 704.398C68.4845 704.727 68.189 705.193 67.9777 705.796C67.7664 706.394 67.6607 707.087 67.6607 707.874C67.6607 708.664 67.7664 709.361 67.9777 709.963C68.189 710.566 68.4845 711.032 68.8641 711.36C69.2476 711.689 69.6839 711.854 70.1731 711.854C70.6623 711.854 71.0947 711.689 71.4704 711.36C71.85 711.032 72.1455 710.566 72.3568 709.963C72.5682 709.361 72.6738 708.664 72.6738 707.874C72.6738 707.087 72.5682 706.394 72.3568 705.796C72.1455 705.193 71.85 704.727 71.4704 704.398C71.0947 704.066 70.6623 703.898 70.1731 703.894ZM87.4983 711.537H86.2068V708.954H87.4983V711.537ZM93.5915 709.576H80.1371V708.496H93.5915V709.576ZM86.8525 711.137C87.9092 711.137 88.8171 711.237 89.5763 711.437C90.3355 711.636 90.9167 711.932 91.3197 712.323C91.7267 712.711 91.9322 713.18 91.9361 713.732C91.9322 714.28 91.7267 714.748 91.3197 715.135C90.9167 715.522 90.3355 715.816 89.5763 716.016C88.8171 716.215 87.9092 716.315 86.8525 716.315C85.7881 716.315 84.8762 716.215 84.117 716.016C83.3578 715.816 82.7747 715.522 82.3677 715.135C81.9607 714.748 81.7572 714.28 81.7572 713.732C81.7572 713.18 81.9588 712.711 82.3619 712.323C82.7649 711.932 83.348 711.636 84.1112 711.437C84.8743 711.237 85.7881 711.137 86.8525 711.137ZM86.8525 712.147C86.0659 712.151 85.3889 712.216 84.8215 712.341C84.2579 712.462 83.8255 712.642 83.5242 712.881C83.2267 713.12 83.08 713.403 83.0839 713.732C83.08 714.057 83.2267 714.339 83.5242 714.577C83.8255 714.812 84.2599 714.99 84.8273 715.112C85.3948 715.237 86.0698 715.297 86.8525 715.294C87.6313 715.297 88.3025 715.237 88.866 715.112C89.4335 714.99 89.8678 714.812 90.1692 714.577C90.4744 714.339 90.629 714.057 90.6329 713.732C90.629 713.403 90.4744 713.12 90.1692 712.881C89.8678 712.642 89.4354 712.462 88.8719 712.341C88.3083 712.216 87.6352 712.151 86.8525 712.147ZM87.1813 703.248C87.1774 704.011 86.9073 704.7 86.3712 705.314C85.839 705.925 85.1306 706.428 84.2462 706.823C83.3657 707.214 82.4069 707.474 81.3698 707.604L80.9002 706.57C81.7807 706.477 82.6123 706.271 83.395 705.954C84.1816 705.637 84.8156 705.244 85.2969 704.774C85.7783 704.305 86.019 703.796 86.019 703.248V702.79H87.1813V703.248ZM87.7096 703.248C87.7057 703.796 87.9424 704.305 88.4199 704.774C88.9012 705.244 89.5332 705.637 90.3159 705.954C91.1025 706.271 91.9439 706.477 92.8401 706.57L92.3588 707.604C91.3217 707.474 90.3609 707.214 89.4765 706.823C88.596 706.428 87.8876 705.925 87.3515 705.314C86.8154 704.7 86.5473 704.011 86.5473 703.248V702.79H87.7096V703.248ZM92.3822 703.342H81.3698V702.285H92.3822V703.342ZM107.935 714.448H94.4215V713.356H107.935V714.448ZM101.783 713.673H100.491V709.494H101.783V713.673ZM106.256 709.752H96.0181V702.825H106.256V709.752ZM97.2861 708.707H104.988V703.882H97.2861V708.707ZM115.421 701.921C116.49 701.921 117.415 702.031 118.198 702.25C118.984 702.469 119.587 702.792 120.006 703.219C120.425 703.641 120.634 704.144 120.634 704.727C120.634 705.302 120.425 705.798 120.006 706.212C119.587 706.623 118.984 706.938 118.198 707.157C117.415 707.377 116.49 707.486 115.421 707.486C114.357 707.486 113.433 707.377 112.651 707.157C111.868 706.938 111.263 706.621 110.837 706.206C110.41 705.792 110.197 705.299 110.197 704.727C110.197 704.144 110.408 703.641 110.831 703.219C111.253 702.792 111.858 702.469 112.645 702.25C113.431 702.031 114.357 701.921 115.421 701.921ZM115.421 702.966C114.631 702.966 113.944 703.037 113.361 703.177C112.778 703.318 112.328 703.522 112.011 703.788C111.698 704.05 111.543 704.363 111.547 704.727C111.543 705.079 111.698 705.385 112.011 705.643C112.328 705.901 112.778 706.101 113.361 706.242C113.944 706.379 114.631 706.449 115.421 706.453C116.208 706.449 116.893 706.379 117.476 706.242C118.063 706.101 118.515 705.901 118.832 705.643C119.149 705.385 119.307 705.079 119.307 704.727C119.307 704.363 119.149 704.05 118.832 703.788C118.515 703.522 118.063 703.318 117.476 703.177C116.893 703.037 116.208 702.966 115.421 702.966ZM120.505 716.151H110.349V711.302H120.505V716.151ZM111.641 715.082H119.237V712.347H111.641V715.082ZM122.16 709.834H108.706V708.766H122.16V709.834ZM124.129 718.393H122.896L123.812 713.873H125.409L124.129 718.393ZM141.984 704.997H137.969V703.929H141.984V704.997ZM141.89 708.026H137.828V706.923H141.89V708.026ZM138.473 702.497C138.47 703.718 138.192 704.813 137.64 705.784C137.092 706.754 136.298 707.58 135.257 708.261C134.22 708.942 132.971 709.47 131.511 709.846L131.007 708.801C132.302 708.476 133.404 708.04 134.312 707.492C135.223 706.94 135.914 706.295 136.384 705.555C136.853 704.811 137.088 703.995 137.088 703.107V702.497H138.473ZM137.969 703.6H131.758V702.497H137.969V703.6ZM143.029 709.529H141.737V701.593H143.029V709.529ZM134.74 712.135H141.737V710.269H143.029V716.151H133.425V710.269H134.74V712.135ZM141.737 715.094V713.18H134.74V715.094H141.737ZM156.632 710.222H155.329V701.593H156.632V710.222ZM158.851 706.253H156.268V705.15H158.851V706.253ZM147.005 704.692H151.302V702.426H152.593V709.294H145.725V702.426H147.005V704.692ZM151.302 708.238V705.737H147.005V708.238H151.302ZM156.75 712.088H148.66V715.834H147.357V711.044H156.75V712.088ZM157.031 716.139H147.357V715.082H157.031V716.139ZM164.518 704.598C164.514 705.443 164.334 706.234 163.978 706.97C163.626 707.705 163.131 708.343 162.493 708.883C161.855 709.423 161.125 709.83 160.303 710.104L159.669 709.095C160.397 708.856 161.047 708.51 161.618 708.056C162.19 707.598 162.636 707.071 162.957 706.477C163.277 705.878 163.438 705.252 163.438 704.598V703.952H164.518V704.598ZM164.729 704.598C164.729 705.209 164.894 705.792 165.222 706.347C165.551 706.903 166.005 707.392 166.584 707.815C167.164 708.234 167.821 708.551 168.557 708.766L167.934 709.787C167.101 709.537 166.361 709.157 165.716 708.648C165.074 708.14 164.571 707.539 164.207 706.846C163.847 706.15 163.669 705.4 163.673 704.598V703.952H164.729V704.598ZM168.122 704.398H160.033V703.342H168.122V704.398ZM164.753 703.823H163.438V701.522H164.753V703.823ZM171.562 710.351H170.259V701.604H171.562V710.351ZM171.562 716.151H161.959V711.09H171.562V716.151ZM163.25 715.082H170.283V712.159H163.25V715.082ZM185.823 716.374H184.52V701.593H185.823V716.374ZM177.981 702.731C178.709 702.735 179.358 702.949 179.93 703.371C180.501 703.79 180.947 704.389 181.268 705.167C181.589 705.946 181.749 706.848 181.749 707.874C181.749 708.903 181.589 709.807 181.268 710.586C180.947 711.36 180.499 711.959 179.924 712.382C179.352 712.805 178.705 713.016 177.981 713.016C177.249 713.016 176.597 712.805 176.026 712.382C175.458 711.959 175.014 711.36 174.693 710.586C174.372 709.811 174.212 708.907 174.212 707.874C174.212 706.844 174.372 705.942 174.693 705.167C175.014 704.389 175.458 703.79 176.026 703.371C176.597 702.949 177.249 702.735 177.981 702.731ZM177.981 703.894C177.491 703.898 177.055 704.066 176.672 704.398C176.292 704.727 175.997 705.193 175.785 705.796C175.574 706.394 175.468 707.087 175.468 707.874C175.468 708.664 175.574 709.361 175.785 709.963C175.997 710.566 176.292 711.032 176.672 711.36C177.055 711.689 177.491 711.854 177.981 711.854C178.47 711.854 178.902 711.689 179.278 711.36C179.658 711.032 179.953 710.566 180.164 709.963C180.376 709.361 180.481 708.664 180.481 707.874C180.481 707.087 180.376 706.394 180.164 705.796C179.953 705.193 179.658 704.727 179.278 704.398C178.902 704.066 178.47 703.898 177.981 703.894ZM205.316 714.519H191.803V713.403H205.316V714.519ZM199.141 713.908H197.861V709.541H199.141V713.908ZM204.025 704.105H193.001V703.025H204.025V704.105ZM203.99 710.01H193.024V708.954H203.99V710.01ZM196.628 709.153H195.337V703.858H196.628V709.153ZM201.677 709.153H200.397V703.858H201.677V709.153ZM217.628 710.48H216.325V701.593H217.628V710.48ZM219.847 706.641H217.264V705.514H219.847V706.641ZM217.628 716.151H208.306V711.325H217.628V716.151ZM209.586 715.082H216.337V712.37H209.586V715.082ZM214.916 704.234H206.123V703.166H214.916V704.234ZM210.525 704.974C211.222 704.974 211.838 705.081 212.375 705.297C212.911 705.512 213.325 705.819 213.619 706.218C213.916 706.617 214.067 707.079 214.071 707.604C214.067 708.128 213.916 708.588 213.619 708.983C213.325 709.378 212.911 709.686 212.375 709.905C211.842 710.124 211.226 710.233 210.525 710.233C209.813 710.233 209.189 710.124 208.653 709.905C208.117 709.686 207.7 709.378 207.402 708.983C207.109 708.588 206.964 708.128 206.968 707.604C206.964 707.079 207.109 706.617 207.402 706.218C207.7 705.819 208.117 705.512 208.653 705.297C209.193 705.081 209.817 704.974 210.525 704.974ZM210.525 705.983C210.064 705.983 209.659 706.05 209.31 706.183C208.962 706.316 208.69 706.506 208.494 706.752C208.303 706.999 208.209 707.283 208.213 707.604C208.209 707.932 208.301 708.218 208.488 708.461C208.68 708.703 208.95 708.893 209.299 709.03C209.651 709.163 210.06 709.232 210.525 709.235C210.983 709.232 211.384 709.163 211.729 709.03C212.077 708.893 212.347 708.703 212.539 708.461C212.735 708.218 212.834 707.932 212.838 707.604C212.834 707.283 212.735 706.999 212.539 706.752C212.347 706.506 212.077 706.316 211.729 706.183C211.38 706.05 210.979 705.983 210.525 705.983ZM211.171 703.706H209.88V701.475H211.171V703.706ZM229.165 709.048H221.581V707.968H229.165V709.048ZM225.937 712.241H224.634V708.813H225.937V712.241ZM229.107 704.058H222.861V708.355H221.581V703.001H229.107V704.058ZM232.476 716.374H231.173V701.593H232.476V716.374ZM220.454 712.041C222.29 712.041 224.015 712.014 225.632 711.959C227.248 711.904 228.77 711.795 230.199 711.631L230.304 712.605C229.302 712.75 228.259 712.863 227.175 712.945C226.091 713.024 225.037 713.077 224.011 713.104C222.986 713.131 221.926 713.145 220.83 713.145H220.63L220.454 712.041ZM239.705 706.124C239.701 707.138 239.505 708.14 239.118 709.13C238.734 710.116 238.216 710.997 237.562 711.771C236.912 712.542 236.202 713.122 235.431 713.509L234.656 712.476C235.357 712.143 236.01 711.636 236.617 710.955C237.227 710.271 237.713 709.502 238.073 708.648C238.437 707.795 238.621 706.954 238.625 706.124V703.682H239.705V706.124ZM239.939 706.124C239.939 706.938 240.119 707.746 240.48 708.549C240.84 709.351 241.325 710.067 241.935 710.697C242.546 711.327 243.211 711.799 243.931 712.112L243.203 713.145C242.405 712.781 241.677 712.241 241.02 711.525C240.362 710.805 239.84 709.975 239.452 709.036C239.069 708.093 238.879 707.122 238.883 706.124V703.682H239.939V706.124ZM243.45 704.199H235.138V703.107H243.45V704.199ZM246.819 716.35H245.516V701.593H246.819V716.35ZM256.92 702.438C257.648 702.438 258.304 702.583 258.887 702.872C259.47 703.162 259.926 703.567 260.254 704.087C260.583 704.604 260.747 705.189 260.747 705.843C260.747 706.5 260.583 707.087 260.254 707.604C259.926 708.12 259.47 708.525 258.887 708.819C258.304 709.108 257.648 709.255 256.92 709.259C256.188 709.255 255.529 709.108 254.942 708.819C254.359 708.525 253.901 708.12 253.568 707.604C253.24 707.087 253.077 706.5 253.081 705.843C253.077 705.189 253.242 704.604 253.574 704.087C253.911 703.567 254.371 703.162 254.954 702.872C255.537 702.583 256.192 702.438 256.92 702.438ZM256.92 703.53C256.439 703.53 256.002 703.629 255.611 703.829C255.224 704.029 254.916 704.305 254.689 704.657C254.466 705.009 254.357 705.404 254.361 705.843C254.357 706.285 254.466 706.684 254.689 707.04C254.916 707.392 255.224 707.67 255.611 707.874C256.002 708.077 256.439 708.179 256.92 708.179C257.401 708.179 257.836 708.077 258.223 707.874C258.615 707.67 258.922 707.392 259.145 707.04C259.368 706.684 259.48 706.285 259.48 705.843C259.48 705.404 259.368 705.009 259.145 704.657C258.922 704.305 258.615 704.029 258.223 703.829C257.836 703.629 257.401 703.53 256.92 703.53ZM264.34 708.965H263.037V701.593H264.34V708.965ZM266.559 706.007H263.776V704.915H266.559V706.007ZM255.077 714.883C255.633 714.883 256.226 714.845 256.856 714.771C257.49 714.697 258.094 714.562 258.669 714.366L258.881 715.411C258.435 715.56 257.985 715.675 257.531 715.757C257.077 715.839 256.652 715.892 256.257 715.916C255.865 715.939 255.472 715.951 255.077 715.951H254.372V714.883H255.077ZM255.64 715.282H254.372V710.562H255.64V715.282ZM265.819 711.654H258.352V710.633H265.819V711.654ZM262.086 712.147C262.618 712.147 263.094 712.231 263.512 712.4C263.931 712.568 264.256 712.812 264.487 713.133C264.722 713.45 264.841 713.818 264.845 714.237C264.841 714.656 264.722 715.022 264.487 715.335C264.256 715.652 263.931 715.894 263.512 716.062C263.098 716.231 262.622 716.315 262.086 716.315C261.542 716.315 261.063 716.231 260.648 716.062C260.237 715.894 259.914 715.652 259.679 715.335C259.448 715.022 259.335 714.656 259.339 714.237C259.335 713.818 259.448 713.45 259.679 713.133C259.914 712.812 260.239 712.568 260.654 712.4C261.068 712.231 261.546 712.147 262.086 712.147ZM262.086 713.086C261.781 713.09 261.509 713.141 261.27 713.239C261.031 713.333 260.843 713.468 260.706 713.644C260.569 713.816 260.501 714.014 260.501 714.237C260.501 714.464 260.569 714.663 260.706 714.836C260.843 715.008 261.029 715.141 261.264 715.235C261.503 715.329 261.777 715.376 262.086 715.376C262.391 715.376 262.663 715.329 262.902 715.235C263.141 715.141 263.326 715.008 263.46 714.836C263.593 714.663 263.659 714.464 263.659 714.237C263.659 714.014 263.593 713.816 263.46 713.644C263.326 713.468 263.141 713.333 262.902 713.239C262.663 713.141 262.391 713.09 262.086 713.086ZM262.743 711.419H261.464V709.329H262.743V711.419ZM270.089 712.171H277.462V710.445H278.777V716.151H268.798V710.445H270.089V712.171ZM277.462 715.094V713.204H270.089V715.094H277.462ZM280.538 709.412H267.084V708.32H280.538V709.412ZM274.269 702.45C274.269 703.264 273.991 704.009 273.435 704.686C272.879 705.363 272.146 705.927 271.234 706.377C270.326 706.823 269.361 707.122 268.34 707.275L267.847 706.242C268.739 706.116 269.592 705.87 270.406 705.502C271.22 705.134 271.88 704.684 272.384 704.152C272.889 703.62 273.142 703.052 273.142 702.45V701.757H274.269V702.45ZM274.48 702.45C274.48 703.033 274.736 703.594 275.249 704.134C275.762 704.67 276.423 705.128 277.233 705.508C278.047 705.884 278.891 706.128 279.763 706.242L279.282 707.275C278.26 707.122 277.296 706.821 276.388 706.371C275.484 705.917 274.752 705.351 274.192 704.674C273.637 703.993 273.361 703.252 273.365 702.45V701.757H274.48V702.45ZM293.531 716.35H292.24V701.593H293.531V716.35ZM283.61 712.171H282.331V703.048H283.61V712.171ZM283.528 711.407C284.741 711.407 285.935 711.353 287.109 711.243C288.283 711.134 289.469 710.953 290.666 710.703L290.843 711.818C289.582 712.077 288.357 712.263 287.168 712.376C285.982 712.49 284.769 712.546 283.528 712.546H282.331V711.407H283.528ZM307.076 716.374H305.773V701.593H307.076V716.374ZM309.541 708.519H306.782V707.427H309.541V708.519ZM297.46 711.572C298.905 711.572 300.145 711.535 301.182 711.46C302.223 711.386 303.28 711.251 304.352 711.055L304.516 712.182C303.421 712.378 302.348 712.509 301.3 712.576C300.251 712.642 298.971 712.675 297.46 712.675H296.298V711.572H297.46ZM303.19 704.105H297.601V712.077H296.298V703.037H303.19V704.105Z" fill="#05944F"/>
        <rect x="75.5" y="96.5" width="69" height="69" fill="white" stroke="#D3D6DA"/>
        <path d="M75.5 165.5H98.5V188.5H75.5V165.5Z" fill="#787C7E" stroke="#D3D6DA"/>
        <path d="M98.5 165.5H121.5V188.5H98.5V165.5Z" fill="#787C7E" stroke="#D3D6DA"/>
        <rect x="121.5" y="165.5" width="23" height="23" fill="#BC8B2C" stroke="#D3D6DA"/>
        <rect x="153.5" y="96.5" width="69" height="69" fill="white" stroke="#D3D6DA"/>
        <rect x="153.5" y="165.5" width="23" height="23" fill="#787C7E" stroke="#D3D6DA"/>
        <rect x="176.5" y="165.5" width="23" height="23" fill="#787C7E" stroke="#D3D6DA"/>
        <rect x="199.5" y="165.5" width="23" height="23" fill="white" stroke="#D3D6DA"/>
        <rect x="231.5" y="96.5" width="69" height="69" fill="white" stroke="#D3D6DA"/>
        <rect x="231.5" y="165.5" width="23" height="23" fill="#787C7E" stroke="#D3D6DA"/>
        <rect x="254.5" y="165.5" width="23" height="23" fill="#787C7E" stroke="#D3D6DA"/>
        <rect x="277.5" y="165.5" width="23" height="23" fill="#787C7E" stroke="#D3D6DA"/>
        <rect x="75.5" y="261.5" width="69" height="69" fill="white" stroke="#D3D6DA"/>
        <rect x="75.5" y="329.5" width="23" height="23" fill="#05944F" stroke="#D3D6DA"/>
        <rect x="98.5" y="329.5" width="23" height="23" fill="#05944F" stroke="#D3D6DA"/>
        <rect x="121.5" y="329.5" width="23" height="23" fill="white" stroke="#D3D6DA"/>
        <rect x="153.5" y="261.5" width="69" height="69" fill="white" stroke="#D3D6DA"/>
        <rect x="153.5" y="329.5" width="23" height="23" fill="#787C7E" stroke="#D3D6DA"/>
        <rect x="176.5" y="329.5" width="23" height="23" fill="#BC8B2C" stroke="#D3D6DA"/>
        <path d="M199.5 329.5H222.5V352.5H199.5V329.5Z" fill="#05944F" stroke="#D3D6DA"/>
        <rect x="231.5" y="261.5" width="69" height="69" fill="white" stroke="#D3D6DA"/>
        <rect x="231.5" y="329.5" width="23" height="23" fill="#05944F" stroke="#D3D6DA"/>
        <rect x="254.5" y="329.5" width="23" height="23" fill="#BC8B2C" stroke="#D3D6DA"/>
        <path d="M277.5 329.5H300.5V352.5H277.5V329.5Z" fill="#BC8B2C" stroke="#D3D6DA"/>
        <path d="M143 210C143 207.239 145.239 205 148 205H226C228.761 205 231 207.239 231 210V240C231 242.761 228.761 245 226 245H148C145.239 245 143 242.761 143 240V210Z" fill="#080B14"/>
        <path d="M168.439 223.304H165.698V221.68H168.439V223.304ZM169.908 226.663H167.919V218.21H169.908V226.663ZM165.046 226.978C166.056 226.978 166.929 227.087 167.665 227.304C168.402 227.521 168.965 227.836 169.356 228.249C169.75 228.657 169.947 229.147 169.947 229.718C169.947 230.289 169.75 230.779 169.356 231.188C168.965 231.597 168.402 231.91 167.665 232.127C166.929 232.348 166.056 232.459 165.046 232.459C164.037 232.459 163.166 232.348 162.433 232.127C161.704 231.91 161.142 231.597 160.748 231.188C160.354 230.779 160.159 230.289 160.162 229.718C160.159 229.147 160.354 228.657 160.748 228.249C161.142 227.836 161.706 227.521 162.439 227.304C163.172 227.087 164.041 226.978 165.046 226.978ZM165.046 228.492C164.413 228.492 163.881 228.538 163.45 228.63C163.019 228.718 162.693 228.855 162.472 229.039C162.255 229.219 162.146 229.446 162.146 229.718C162.146 229.987 162.255 230.212 162.472 230.392C162.693 230.573 163.019 230.709 163.45 230.801C163.881 230.89 164.413 230.934 165.046 230.934C165.68 230.934 166.212 230.89 166.643 230.801C167.078 230.709 167.406 230.573 167.627 230.392C167.851 230.212 167.965 229.987 167.969 229.718C167.965 229.446 167.851 229.219 167.627 229.039C167.406 228.855 167.078 228.718 166.643 228.63C166.212 228.538 165.68 228.492 165.046 228.492ZM162.881 220.575C162.881 221.499 162.731 222.365 162.433 223.171C162.138 223.978 161.689 224.687 161.085 225.298C160.485 225.91 159.744 226.366 158.864 226.669L157.831 225.088C158.59 224.838 159.227 224.475 159.743 224C160.258 223.525 160.639 222.994 160.886 222.409C161.133 221.82 161.258 221.208 161.262 220.575V219.641H162.881V220.575ZM163.29 220.558C163.29 221.144 163.407 221.707 163.643 222.249C163.883 222.79 164.247 223.28 164.737 223.718C165.227 224.153 165.835 224.49 166.56 224.729L165.577 226.298C164.719 226.018 163.997 225.589 163.411 225.011C162.825 224.433 162.387 223.762 162.096 223C161.809 222.238 161.665 221.424 161.665 220.558V219.641H163.29V220.558ZM166.124 220.68H158.411V219.077H166.124V220.68ZM183.035 225.829H181.035V218.21H183.035V225.829ZM184.946 222.928H182.471V221.293H184.946V222.928ZM173.493 223.89C174.613 223.886 175.525 223.873 176.228 223.851C176.935 223.829 177.576 223.786 178.151 223.724C178.725 223.661 179.298 223.567 179.869 223.442L180.079 225.044C179.49 225.169 178.893 225.265 178.289 225.331C177.685 225.394 177.016 225.436 176.283 225.459C175.55 225.481 174.62 225.494 173.493 225.497H172.305V223.89H173.493ZM178.648 220.663H174.289V224.956H172.305V219.072H178.648V220.663ZM175.681 227.834H181.035V226.508H183.035V232.265H173.692V226.508H175.681V227.834ZM181.035 230.674V229.398H175.681V230.674H181.035ZM194.556 226.757H192.567V224.729H194.556V226.757ZM200.633 227.895H198.639V218.232H200.633V227.895ZM202.456 223.934H199.926V222.298H202.456V223.934ZM189.108 226.072C190.184 226.072 191.197 226.063 192.147 226.044C193.097 226.026 194.081 225.989 195.097 225.934C196.118 225.875 197.077 225.79 197.976 225.68L198.119 227.05C197.191 227.212 196.221 227.333 195.208 227.414C194.195 227.495 193.234 227.549 192.324 227.575C191.418 227.597 190.414 227.61 189.313 227.613L189.108 226.072ZM200.633 232.442H198.639V230H190.915V228.459H200.633V232.442ZM197.617 220.718H189.484V219.271H197.617V220.718ZM193.545 221.044C194.237 221.044 194.847 221.131 195.374 221.304C195.9 221.473 196.307 221.718 196.595 222.039C196.882 222.355 197.026 222.731 197.026 223.166C197.026 223.6 196.882 223.978 196.595 224.298C196.307 224.619 195.9 224.866 195.374 225.039C194.847 225.208 194.237 225.293 193.545 225.293C192.849 225.293 192.237 225.206 191.711 225.033C191.184 224.86 190.775 224.613 190.484 224.293C190.197 223.972 190.055 223.597 190.059 223.166C190.055 222.735 190.197 222.359 190.484 222.039C190.775 221.718 191.184 221.473 191.711 221.304C192.237 221.131 192.849 221.044 193.545 221.044ZM193.545 222.37C193.199 222.37 192.908 222.4 192.672 222.459C192.44 222.514 192.263 222.6 192.142 222.718C192.024 222.836 191.965 222.985 191.965 223.166C191.965 223.339 192.026 223.486 192.147 223.608C192.272 223.729 192.453 223.823 192.689 223.89C192.924 223.956 193.21 223.987 193.545 223.983C193.876 223.987 194.16 223.956 194.396 223.89C194.631 223.823 194.81 223.729 194.932 223.608C195.057 223.486 195.119 223.339 195.119 223.166C195.119 222.985 195.059 222.836 194.937 222.718C194.816 222.6 194.637 222.514 194.401 222.459C194.169 222.4 193.884 222.37 193.545 222.37ZM194.556 219.95H192.567V218.11H194.556V219.95ZM214.997 228.453H212.997V218.232H214.997V228.453ZM215.373 232.193H205.467V230.586H215.373V232.193ZM207.483 231.249H205.467V227.42H207.483V231.249ZM207.202 219.133C207.924 219.133 208.581 219.285 209.174 219.591C209.771 219.897 210.239 220.324 210.577 220.873C210.916 221.422 211.086 222.037 211.086 222.718C211.086 223.411 210.916 224.031 210.577 224.58C210.239 225.129 209.771 225.558 209.174 225.867C208.581 226.173 207.924 226.326 207.202 226.326C206.48 226.326 205.82 226.173 205.224 225.867C204.631 225.558 204.163 225.129 203.82 224.58C203.482 224.031 203.312 223.411 203.312 222.718C203.312 222.037 203.482 221.424 203.82 220.878C204.163 220.33 204.631 219.902 205.224 219.597C205.82 219.287 206.48 219.133 207.202 219.133ZM207.202 220.867C206.83 220.867 206.496 220.943 206.202 221.094C205.907 221.241 205.675 221.455 205.506 221.735C205.34 222.015 205.259 222.343 205.262 222.718C205.259 223.105 205.34 223.44 205.506 223.724C205.675 224.004 205.905 224.219 206.196 224.37C206.491 224.517 206.826 224.591 207.202 224.591C207.566 224.591 207.892 224.517 208.18 224.37C208.471 224.219 208.699 224.004 208.865 223.724C209.034 223.44 209.119 223.105 209.119 222.718C209.119 222.343 209.034 222.015 208.865 221.735C208.699 221.455 208.471 221.241 208.18 221.094C207.889 220.943 207.563 220.867 207.202 220.867Z" fill="white"/>
        <path d="M145 375C145 372.239 147.239 370 150 370H228C230.761 370 233 372.239 233 375V405C233 407.761 230.761 410 228 410H150C147.239 410 145 407.761 145 405V375Z" fill="#080B14"/>
        <path d="M170.439 388.304H167.699V386.68H170.439V388.304ZM171.909 391.663H169.92V383.21H171.909V391.663ZM167.047 391.978C168.056 391.978 168.929 392.087 169.666 392.304C170.402 392.521 170.966 392.836 171.356 393.249C171.75 393.657 171.948 394.147 171.948 394.718C171.948 395.289 171.75 395.779 171.356 396.188C170.966 396.597 170.402 396.91 169.666 397.127C168.929 397.348 168.056 397.459 167.047 397.459C166.038 397.459 165.167 397.348 164.434 397.127C163.704 396.91 163.143 396.597 162.749 396.188C162.355 395.779 162.159 395.289 162.163 394.718C162.159 394.147 162.355 393.657 162.749 393.249C163.143 392.836 163.706 392.521 164.439 392.304C165.172 392.087 166.041 391.978 167.047 391.978ZM167.047 393.492C166.413 393.492 165.881 393.538 165.45 393.63C165.019 393.718 164.693 393.855 164.472 394.039C164.255 394.219 164.146 394.446 164.146 394.718C164.146 394.987 164.255 395.212 164.472 395.392C164.693 395.573 165.019 395.709 165.45 395.801C165.881 395.89 166.413 395.934 167.047 395.934C167.68 395.934 168.213 395.89 168.644 395.801C169.078 395.709 169.406 395.573 169.627 395.392C169.852 395.212 169.966 394.987 169.97 394.718C169.966 394.446 169.852 394.219 169.627 394.039C169.406 393.855 169.078 393.718 168.644 393.63C168.213 393.538 167.68 393.492 167.047 393.492ZM164.881 385.575C164.881 386.499 164.732 387.365 164.434 388.171C164.139 388.978 163.69 389.687 163.086 390.298C162.485 390.91 161.745 391.366 160.865 391.669L159.831 390.088C160.59 389.838 161.227 389.475 161.743 389C162.259 388.525 162.64 387.994 162.887 387.409C163.134 386.82 163.259 386.208 163.262 385.575V384.641H164.881V385.575ZM165.29 385.558C165.29 386.144 165.408 386.707 165.644 387.249C165.883 387.79 166.248 388.28 166.738 388.718C167.227 389.153 167.835 389.49 168.561 389.729L167.577 391.298C166.719 391.018 165.997 390.589 165.412 390.011C164.826 389.433 164.388 388.762 164.097 388C163.809 387.238 163.666 386.424 163.666 385.558V384.641H165.29V385.558ZM168.124 385.68H160.412V384.077H168.124V385.68ZM185.035 390.829H183.035V383.21H185.035V390.829ZM186.947 387.928H184.472V386.293H186.947V387.928ZM175.494 388.89C176.614 388.886 177.525 388.873 178.229 388.851C178.936 388.829 179.577 388.786 180.151 388.724C180.726 388.661 181.299 388.567 181.87 388.442L182.08 390.044C181.49 390.169 180.894 390.265 180.289 390.331C179.685 390.394 179.017 390.436 178.284 390.459C177.551 390.481 176.621 390.494 175.494 390.497H174.306V388.89H175.494ZM180.649 385.663H176.289V389.956H174.306V384.072H180.649V385.663ZM177.682 392.834H183.035V391.508H185.035V397.265H175.693V391.508H177.682V392.834ZM183.035 395.674V394.398H177.682V395.674H183.035ZM196.556 391.757H194.568V389.729H196.556V391.757ZM202.634 392.895H200.639V383.232H202.634V392.895ZM204.457 388.934H201.927V387.298H204.457V388.934ZM191.109 391.072C192.184 391.072 193.197 391.063 194.148 391.044C195.098 391.026 196.081 390.989 197.098 390.934C198.118 390.875 199.078 390.79 199.976 390.68L200.12 392.05C199.192 392.212 198.221 392.333 197.208 392.414C196.196 392.495 195.234 392.549 194.324 392.575C193.418 392.597 192.415 392.61 191.313 392.613L191.109 391.072ZM202.634 397.442H200.639V395H192.916V393.459H202.634V397.442ZM199.617 385.718H191.485V384.271H199.617V385.718ZM195.545 386.044C196.238 386.044 196.847 386.131 197.374 386.304C197.901 386.473 198.308 386.718 198.595 387.039C198.882 387.355 199.026 387.731 199.026 388.166C199.026 388.6 198.882 388.978 198.595 389.298C198.308 389.619 197.901 389.866 197.374 390.039C196.847 390.208 196.238 390.293 195.545 390.293C194.849 390.293 194.238 390.206 193.711 390.033C193.184 389.86 192.776 389.613 192.485 389.293C192.197 388.972 192.056 388.597 192.059 388.166C192.056 387.735 192.197 387.359 192.485 387.039C192.776 386.718 193.184 386.473 193.711 386.304C194.238 386.131 194.849 386.044 195.545 386.044ZM195.545 387.37C195.199 387.37 194.908 387.4 194.672 387.459C194.44 387.514 194.264 387.6 194.142 387.718C194.024 387.836 193.965 387.985 193.965 388.166C193.965 388.339 194.026 388.486 194.148 388.608C194.273 388.729 194.453 388.823 194.689 388.89C194.925 388.956 195.21 388.987 195.545 388.983C195.877 388.987 196.161 388.956 196.396 388.89C196.632 388.823 196.811 388.729 196.932 388.608C197.057 388.486 197.12 388.339 197.12 388.166C197.12 387.985 197.059 387.836 196.938 387.718C196.816 387.6 196.637 387.514 196.402 387.459C196.17 387.4 195.884 387.37 195.545 387.37ZM196.556 384.95H194.568V383.11H196.556V384.95ZM216.998 393.453H214.998V383.232H216.998V393.453ZM217.374 397.193H207.467V395.586H217.374V397.193ZM209.484 396.249H207.467V392.42H209.484V396.249ZM209.202 384.133C209.924 384.133 210.582 384.285 211.175 384.591C211.771 384.897 212.239 385.324 212.578 385.873C212.917 386.422 213.086 387.037 213.086 387.718C213.086 388.411 212.917 389.031 212.578 389.58C212.239 390.129 211.771 390.558 211.175 390.867C210.582 391.173 209.924 391.326 209.202 391.326C208.48 391.326 207.821 391.173 207.224 390.867C206.631 390.558 206.164 390.129 205.821 389.58C205.482 389.031 205.313 388.411 205.313 387.718C205.313 387.037 205.482 386.424 205.821 385.878C206.164 385.33 206.631 384.902 207.224 384.597C207.821 384.287 208.48 384.133 209.202 384.133ZM209.202 385.867C208.83 385.867 208.497 385.943 208.202 386.094C207.908 386.241 207.676 386.455 207.506 386.735C207.34 387.015 207.259 387.343 207.263 387.718C207.259 388.105 207.34 388.44 207.506 388.724C207.676 389.004 207.906 389.219 208.197 389.37C208.491 389.517 208.827 389.591 209.202 389.591C209.567 389.591 209.893 389.517 210.18 389.37C210.471 389.219 210.699 389.004 210.865 388.724C211.035 388.44 211.119 388.105 211.119 387.718C211.119 387.343 211.035 387.015 210.865 386.735C210.699 386.455 210.471 386.241 210.18 386.094C209.889 385.943 209.563 385.867 209.202 385.867Z" fill="white"/>
        <path d="M103.174 111.191C103.174 114.506 102.581 117.572 101.393 120.39C100.219 123.193 98.5129 125.631 96.2753 127.703C94.0515 129.761 91.4065 131.315 88.3402 132.365L85.5847 127.931C88.2781 127.033 90.6123 125.749 92.5875 124.077C94.5626 122.406 96.0681 120.472 97.104 118.276C98.1399 116.066 98.6648 113.704 98.6786 111.191V107.296H103.174V111.191ZM104.19 111.17C104.176 113.463 104.68 115.631 105.702 117.675C106.738 119.706 108.209 121.494 110.115 123.041C112.035 124.575 114.293 125.735 116.89 126.522L113.989 130.831C111.034 129.865 108.478 128.421 106.324 126.501C104.169 124.581 102.518 122.316 101.372 119.706C100.239 117.081 99.68 114.236 99.6938 111.17V107.296H104.19V111.17ZM127.27 132.779H121.697V105.472H127.27V132.779ZM134.873 121.156H124.846V116.536H134.873V121.156ZM127.27 148.028H98.9065V155.528H93.4369V143.925H121.738V139.409H93.3126V135.017H127.27V148.028ZM129.052 157.475H93.4369V153H129.052V157.475Z" fill="#080B14"/>
        <path d="M203.011 113.304H169.842V108.787H203.011V113.304ZM211.879 135.804H164.02V131.267H211.879V135.804ZM190.581 158.055H185.007V134.312H190.581V158.055ZM205.788 113.698C205.774 116.101 205.732 118.228 205.663 120.079C205.594 121.916 205.408 124.022 205.104 126.398C204.814 128.76 204.365 131.308 203.757 134.043L198.205 133.359C198.84 130.735 199.303 128.269 199.593 125.963C199.897 123.642 200.083 121.591 200.152 119.809C200.221 118.014 200.256 115.942 200.256 113.594V113.407V108.787H205.788V113.407V113.698Z" fill="#080B14"/>
        <path d="M281.529 111.957H266.447V107.42H281.529V111.957ZM289.817 132.075H242.082V127.579H289.817V132.075ZM269.699 130.459H264.209V118.981H269.699V130.459ZM284.658 109.782C284.658 111.315 284.637 112.751 284.596 114.091C284.554 115.431 284.416 117.026 284.181 118.877C283.947 120.714 283.594 122.648 283.125 124.678L277.738 124.015C278.166 122.012 278.491 120.162 278.712 118.463C278.933 116.764 279.071 115.307 279.126 114.091C279.195 112.876 279.237 111.55 279.25 110.113V109.782V107.42H284.658V109.782ZM259.651 111.957H246.101V107.42H259.651V111.957ZM262.261 109.906C262.234 111.425 262.172 112.855 262.075 114.195C261.992 115.521 261.764 117.102 261.391 118.939C261.018 120.776 260.445 122.696 259.672 124.699L254.285 123.829C255.058 121.715 255.625 119.782 255.984 118.028C256.357 116.273 256.585 114.796 256.668 113.594C256.75 112.378 256.792 111.059 256.792 109.637V107.42H262.261V109.637V109.906ZM267.814 142.227C267.814 144.823 266.951 147.206 265.224 149.374C263.511 151.543 261.143 153.345 258.118 154.782C255.107 156.232 251.73 157.206 247.987 157.703L246.06 153.497C249.209 153.124 252.082 152.378 254.679 151.26C257.275 150.127 259.326 148.773 260.832 147.199C262.337 145.624 263.097 143.967 263.111 142.227V141.46H267.814V142.227ZM268.684 142.227C268.684 143.967 269.43 145.624 270.922 147.199C272.427 148.773 274.485 150.127 277.096 151.26C279.706 152.378 282.614 153.124 285.818 153.497L283.871 157.703C280.1 157.206 276.709 156.239 273.698 154.802C270.687 153.38 268.311 151.584 266.571 149.416C264.844 147.247 263.981 144.851 263.981 142.227V141.46H268.684V142.227ZM283.643 143.242H248.132V138.912H283.643V143.242ZM268.684 140.507H263.111V133.836H268.684V140.507Z" fill="#080B14"/>
        <path d="M91.5101 305.61C95.9162 305.61 99.5004 305.535 102.263 305.383C105.025 305.217 107.822 304.885 110.654 304.388L111.151 308.988C108.209 309.512 105.308 309.865 102.449 310.044C99.604 310.224 95.9576 310.314 91.5101 310.314H88.0294V305.61H91.5101ZM109.017 280.811H93.3333V307.434H88.0294V276.336H109.017V280.811ZM108.147 294.568H91.738V290.155H108.147V294.568ZM131.165 322.972H125.82V270.472H131.165V322.972ZM127.746 295.852H117.947V291.315H127.746V295.852ZM119.521 320.383H114.197V271.488H119.521V320.383Z" fill="#080B14"/>
        <path d="M205.29 284.084H194.165V279.609H205.29V284.084ZM205.29 293.656H194.165V289.14H205.29V293.656ZM193.398 278.801H165.511V274.264H193.398V278.801ZM164.082 295.396C169.897 295.383 175.373 295.293 180.511 295.127C185.65 294.948 190.422 294.588 194.828 294.05L195.076 298.235C190.574 298.953 185.774 299.43 180.677 299.664C175.594 299.899 170.284 300.017 164.745 300.017L164.082 295.396ZM175.85 296.93H170.442V277.931H175.85V296.93ZM188.405 296.93H183.06V277.931H188.405V296.93ZM207.777 302.772H202.224V270.472H207.777V302.772ZM190.187 303.767C193.861 303.767 197.031 304.14 199.697 304.885C202.376 305.631 204.42 306.722 205.829 308.159C207.238 309.595 207.942 311.329 207.942 313.359C207.942 315.348 207.231 317.061 205.808 318.497C204.4 319.934 202.362 321.025 199.697 321.771C197.031 322.517 193.861 322.89 190.187 322.89C186.513 322.89 183.336 322.517 180.657 321.771C177.991 321.025 175.953 319.934 174.545 318.497C173.136 317.061 172.438 315.348 172.452 313.359C172.438 311.329 173.136 309.595 174.545 308.159C175.953 306.722 177.991 305.631 180.657 304.885C183.322 304.14 186.499 303.767 190.187 303.767ZM190.187 308.076C187.604 308.076 185.394 308.283 183.557 308.698C181.734 309.098 180.339 309.699 179.372 310.5C178.419 311.287 177.949 312.24 177.963 313.359C177.949 314.45 178.419 315.39 179.372 316.177C180.339 316.95 181.734 317.544 183.557 317.959C185.394 318.359 187.604 318.559 190.187 318.559C192.742 318.559 194.931 318.359 196.755 317.959C198.592 317.544 199.994 316.95 200.96 316.177C201.927 315.39 202.418 314.45 202.431 313.359C202.418 312.24 201.927 311.287 200.96 310.5C199.994 309.699 198.592 309.098 196.755 308.698C194.931 308.283 192.742 308.076 190.187 308.076Z" fill="#080B14"/>
        <path d="M290.708 282.51H281.592V277.931H290.708V282.51ZM290.708 293.822H281.592V289.16H290.708V293.822ZM256.792 273.539C259.43 273.539 261.813 274.064 263.94 275.113C266.067 276.163 267.731 277.634 268.933 279.526C270.134 281.419 270.742 283.573 270.756 285.99C270.742 288.407 270.134 290.562 268.933 292.454C267.731 294.333 266.067 295.804 263.94 296.867C261.813 297.931 259.43 298.47 256.792 298.483C254.126 298.47 251.73 297.931 249.603 296.867C247.476 295.804 245.804 294.333 244.589 292.454C243.387 290.562 242.793 288.407 242.807 285.99C242.793 283.587 243.387 281.439 244.589 279.547C245.804 277.641 247.476 276.163 249.603 275.113C251.73 274.064 254.126 273.539 256.792 273.539ZM256.792 278.242C255.148 278.228 253.677 278.552 252.379 279.215C251.094 279.865 250.079 280.783 249.333 281.971C248.601 283.145 248.242 284.485 248.256 285.99C248.242 287.523 248.601 288.877 249.333 290.051C250.079 291.225 251.094 292.137 252.379 292.786C253.677 293.435 255.148 293.767 256.792 293.78C258.422 293.767 259.879 293.435 261.163 292.786C262.462 292.137 263.477 291.225 264.209 290.051C264.955 288.877 265.335 287.523 265.349 285.99C265.335 284.485 264.955 283.145 264.209 281.971C263.477 280.783 262.462 279.865 261.163 279.215C259.865 278.552 258.408 278.228 256.792 278.242ZM283.27 301.467H277.697V270.472H283.27V301.467ZM266.302 302.876C269.879 302.89 272.973 303.29 275.583 304.077C278.208 304.865 280.224 306.018 281.633 307.537C283.042 309.043 283.746 310.838 283.746 312.924C283.746 314.996 283.042 316.778 281.633 318.269C280.224 319.761 278.208 320.901 275.583 321.688C272.959 322.489 269.865 322.89 266.302 322.89C262.71 322.89 259.589 322.489 256.937 321.688C254.299 320.901 252.261 319.761 250.825 318.269C249.402 316.778 248.691 314.996 248.691 312.924C248.691 310.852 249.402 309.057 250.825 307.537C252.261 306.018 254.299 304.865 256.937 304.077C259.575 303.29 262.697 302.89 266.302 302.876ZM266.302 307.372C263.788 307.372 261.626 307.586 259.817 308.014C258.007 308.442 256.626 309.077 255.673 309.92C254.72 310.749 254.25 311.75 254.264 312.924C254.25 314.098 254.72 315.099 255.673 315.928C256.626 316.743 258 317.365 259.796 317.793C261.605 318.221 263.774 318.435 266.302 318.435C268.829 318.435 270.991 318.221 272.786 317.793C274.582 317.365 275.949 316.743 276.889 315.928C277.828 315.099 278.297 314.098 278.297 312.924C278.297 311.75 277.828 310.749 276.889 309.92C275.949 309.077 274.575 308.442 272.766 308.014C270.97 307.586 268.815 307.372 266.302 307.372Z" fill="#080B14"/>
        <path d="M264.818 91.7791L258.454 85.4152L261.284 82.5852L264.818 86.1291L274.716 76.2212L277.546 79.0512L264.818 91.7791Z" fill="#080B14"/>
        <path d="M264.818 256.779L258.454 250.415L261.284 247.585L264.818 251.129L274.716 241.221L277.546 244.051L264.818 256.779Z" fill="#080B14"/>
    </g>
    <defs>
        <filter id="filter0_d_239_5771" x="-16" y="450" width="407" height="374" filterUnits="userSpaceOnUse" color-interpolation-filters="sRGB">
            <feFlood flood-opacity="0" result="BackgroundImageFix"/>
            <feColorMatrix in="SourceAlpha" type="matrix" values="0 0 0 0 0 0 0 0 0 0 0 0 0 0 0 0 0 0 127 0" result="hardAlpha"/>
            <feOffset dy="-4"/>
            <feGaussianBlur stdDeviation="8"/>
            <feColorMatrix type="matrix" values="0 0 0 0 0 0 0 0 0 0 0 0 0 0 0 0 0 0 0.12 0"/>
            <feBlend mode="normal" in2="BackgroundImageFix" result="effect1_dropShadow_239_5771"/>
            <feBlend mode="normal" in="SourceGraphic" in2="effect1_dropShadow_239_5771" result="shape"/>
        </filter>
        <clipPath id="clip0_239_5771">
            <rect width="375" height="812" fill="white"/>
        </clipPath>
    </defs>
</svg>
