<svg width="375" height="812" viewBox="0 0 375 812" fill="none" xmlns="http://www.w3.org/2000/svg">
    <g clip-path="url(#clip0_239_5771)">
        <rect width="375" height="812" fill="white"/>
        <g filter="url(#filter0_d_239_5771)">
            <path d="M0 486C0 477.163 7.16344 470 16 470H359C367.837 470 375 477.163 375 486V796C375 804.837 367.837 812 359 812H16C7.16345 812 0 804.837 0 796V486Z" fill="white"/>
            <path d="M16 471H359V469H16V471ZM374 486V796H376V486H374ZM359 811H16V813H359V811ZM1 796V486H-1V796H1ZM16 811C7.71573 811 1 804.284 1 796H-1C-1 805.389 6.61116 813 16 813V811ZM374 796C374 804.284 367.284 811 359 811V813C368.389 813 376 805.389 376 796H374ZM359 471C367.284 471 374 477.716 374 486H376C376 476.611 368.389 469 359 469V471ZM16 469C6.61116 469 -1 476.611 -1 486H1C1 477.716 7.71573 471 16 471V469Z" fill="#666666"/>
        </g>
        <path d="M105.228 542.309C103.674 542.309 102.274 542.026 101.03 541.459C99.7846 540.884 98.8012 540.092 98.0793 539.083C97.3647 538.066 96.9927 536.917 96.9633 535.635H101.527C101.564 536.21 101.751 536.722 102.09 537.171C102.429 537.621 102.871 537.974 103.416 538.232C103.969 538.483 104.573 538.608 105.228 538.608C106.002 538.608 106.691 538.438 107.295 538.099C107.906 537.753 108.381 537.278 108.72 536.674C109.059 536.063 109.228 535.366 109.228 534.586C109.228 533.805 109.055 533.105 108.709 532.486C108.363 531.86 107.877 531.378 107.251 531.039C106.632 530.692 105.932 530.516 105.151 530.508C104.304 530.508 103.582 530.667 102.985 530.983C102.396 531.3 101.939 531.772 101.615 532.398H97.3389L98.5765 519.37H112.499V523.227H102.444L101.825 528.939H102.002C102.282 528.564 102.65 528.232 103.107 527.945C103.571 527.65 104.094 527.422 104.676 527.26C105.265 527.098 105.888 527.017 106.543 527.017C107.914 527.017 109.147 527.337 110.245 527.978C111.35 528.611 112.212 529.495 112.831 530.63C113.457 531.764 113.77 533.042 113.77 534.464C113.77 535.974 113.413 537.326 112.698 538.519C111.984 539.705 110.978 540.634 109.681 541.304C108.385 541.974 106.901 542.309 105.228 542.309ZM137.389 527.193H129.985V524H137.389V527.193ZM140.383 537.436H136.405V516.464H140.383V537.436ZM140.991 544.387H121.444V541.171H140.991V544.387ZM125.477 542.994H121.444V535.348H125.477V542.994ZM121.621 522.685H127.223V518.32H131.168V532.95H117.621V518.32H121.621V522.685ZM127.223 529.812V525.713H121.621V529.812H127.223ZM174.759 537.16H170.759V516.442H174.759V537.16ZM178.582 527.89H173.61V524.608H178.582V527.89ZM175.776 544.387H156.306V541.171H175.776V544.387ZM160.284 542.608H156.306V534.972H160.284V542.608ZM160.185 518.265C161.621 518.265 162.932 518.575 164.118 519.193C165.304 519.805 166.236 520.663 166.914 521.768C167.599 522.873 167.945 524.114 167.952 525.492C167.945 526.862 167.599 528.099 166.914 529.204C166.236 530.302 165.304 531.164 164.118 531.79C162.932 532.409 161.621 532.718 160.185 532.718C158.741 532.718 157.422 532.405 156.229 531.779C155.043 531.153 154.103 530.291 153.411 529.193C152.726 528.096 152.387 526.862 152.394 525.492C152.387 524.114 152.726 522.877 153.411 521.779C154.103 520.674 155.043 519.812 156.229 519.193C157.422 518.575 158.741 518.265 160.185 518.265ZM160.185 521.735C159.455 521.735 158.796 521.886 158.207 522.188C157.617 522.483 157.15 522.917 156.803 523.492C156.457 524.059 156.288 524.726 156.295 525.492C156.288 526.25 156.457 526.91 156.803 527.47C157.15 528.029 157.617 528.464 158.207 528.773C158.796 529.083 159.455 529.238 160.185 529.238C160.914 529.238 161.573 529.083 162.162 528.773C162.752 528.464 163.216 528.029 163.555 527.47C163.894 526.91 164.063 526.25 164.063 525.492C164.063 524.726 163.894 524.059 163.555 523.492C163.223 522.917 162.759 522.483 162.162 522.188C161.573 521.886 160.914 521.735 160.185 521.735ZM196.447 530.133H191.706V526.95H196.447V530.133ZM204.867 544.884H201.055V516.42H204.867V544.884ZM198.944 543.569H195.176V516.862H198.944V543.569ZM186.646 518.464C187.905 518.464 189.007 518.88 189.95 519.713C190.9 520.538 191.633 521.727 192.148 523.282C192.672 524.829 192.933 526.648 192.933 528.74C192.933 530.855 192.672 532.689 192.148 534.243C191.633 535.797 190.9 536.994 189.95 537.834C189.007 538.674 187.905 539.09 186.646 539.083C185.408 539.09 184.322 538.674 183.386 537.834C182.458 536.994 181.74 535.797 181.231 534.243C180.723 532.689 180.469 530.855 180.469 528.74C180.469 526.648 180.723 524.829 181.231 523.282C181.74 521.727 182.458 520.538 183.386 519.713C184.322 518.88 185.408 518.464 186.646 518.464ZM186.646 522.232C186.115 522.225 185.662 522.464 185.287 522.95C184.911 523.436 184.624 524.166 184.425 525.138C184.226 526.103 184.13 527.304 184.137 528.74C184.13 530.184 184.226 531.392 184.425 532.365C184.624 533.33 184.911 534.055 185.287 534.541C185.662 535.028 186.115 535.267 186.646 535.26C187.198 535.267 187.67 535.028 188.06 534.541C188.451 534.055 188.749 533.33 188.955 532.365C189.161 531.392 189.265 530.184 189.265 528.74C189.265 527.304 189.161 526.103 188.955 525.138C188.749 524.166 188.451 523.436 188.06 522.95C187.67 522.464 187.198 522.225 186.646 522.232ZM237.033 526.608H231.552V523.359H237.033V526.608ZM239.972 533.326H235.994V516.42H239.972V533.326ZM230.248 533.956C232.267 533.956 234.012 534.173 235.486 534.608C236.959 535.042 238.086 535.672 238.867 536.497C239.655 537.315 240.049 538.295 240.049 539.436C240.049 540.578 239.655 541.558 238.867 542.376C238.086 543.193 236.959 543.82 235.486 544.254C234.012 544.696 232.267 544.917 230.248 544.917C228.23 544.917 226.488 544.696 225.022 544.254C223.563 543.82 222.44 543.193 221.651 542.376C220.863 541.558 220.473 540.578 220.48 539.436C220.473 538.295 220.863 537.315 221.651 536.497C222.44 535.672 223.567 535.042 225.033 534.608C226.499 534.173 228.237 533.956 230.248 533.956ZM230.248 536.983C228.981 536.983 227.917 537.076 227.055 537.26C226.193 537.436 225.541 537.709 225.099 538.077C224.664 538.438 224.447 538.891 224.447 539.436C224.447 539.974 224.664 540.424 225.099 540.785C225.541 541.145 226.193 541.418 227.055 541.602C227.917 541.779 228.981 541.867 230.248 541.867C231.515 541.867 232.58 541.779 233.442 541.602C234.311 541.418 234.966 541.145 235.408 540.785C235.858 540.424 236.086 539.974 236.093 539.436C236.086 538.891 235.858 538.438 235.408 538.077C234.966 537.709 234.311 537.436 233.442 537.26C232.58 537.076 231.515 536.983 230.248 536.983ZM225.917 521.149C225.917 522.998 225.618 524.729 225.022 526.343C224.432 527.956 223.534 529.374 222.326 530.597C221.125 531.82 219.644 532.733 217.884 533.337L215.817 530.177C217.335 529.676 218.609 528.95 219.64 528C220.672 527.05 221.434 525.989 221.928 524.818C222.421 523.639 222.672 522.416 222.679 521.149V519.282H225.917V521.149ZM226.734 521.116C226.734 522.287 226.97 523.414 227.442 524.497C227.92 525.58 228.65 526.56 229.629 527.436C230.609 528.306 231.825 528.98 233.276 529.459L231.309 532.597C229.593 532.037 228.149 531.179 226.977 530.022C225.806 528.866 224.93 527.525 224.348 526C223.773 524.475 223.486 522.847 223.486 521.116V519.282H226.734V521.116ZM232.403 521.359H216.977V518.155H232.403V521.359ZM266.599 531.657H262.599V516.42H266.599V531.657ZM270.422 525.856H265.472V522.586H270.422V525.856ZM247.516 527.779C249.755 527.772 251.579 527.746 252.986 527.702C254.4 527.657 255.682 527.573 256.831 527.448C257.98 527.322 259.126 527.134 260.267 526.884L260.687 530.088C259.509 530.339 258.315 530.53 257.107 530.663C255.899 530.788 254.562 530.873 253.096 530.917C251.63 530.961 249.77 530.987 247.516 530.994H245.14V527.779H247.516ZM257.825 521.326H249.107V529.912H245.14V518.144H257.825V521.326ZM251.892 535.669H262.599V533.017H266.599V544.53H247.914V533.017H251.892V535.669ZM262.599 541.348V538.796H251.892V541.348H262.599ZM285.016 516.84C287.204 516.84 289.067 517.028 290.607 517.403C292.154 517.772 293.333 518.317 294.143 519.039C294.953 519.761 295.358 520.641 295.358 521.68C295.358 522.733 294.953 523.624 294.143 524.354C293.333 525.076 292.154 525.624 290.607 526C289.067 526.376 287.204 526.564 285.016 526.564C282.828 526.571 280.961 526.387 279.414 526.011C277.874 525.628 276.695 525.076 275.878 524.354C275.06 523.624 274.655 522.733 274.662 521.68C274.655 520.648 275.06 519.772 275.878 519.05C276.695 518.32 277.874 517.772 279.414 517.403C280.961 517.028 282.828 516.84 285.016 516.84ZM285.016 519.757C283.638 519.75 282.489 519.82 281.568 519.967C280.655 520.114 279.97 520.331 279.513 520.619C279.056 520.906 278.832 521.26 278.839 521.68C278.832 522.136 279.049 522.508 279.491 522.796C279.94 523.076 280.611 523.285 281.502 523.425C282.393 523.565 283.565 523.635 285.016 523.635C286.482 523.635 287.664 523.565 288.563 523.425C289.462 523.285 290.132 523.076 290.574 522.796C291.023 522.516 291.248 522.144 291.248 521.68C291.248 521.26 291.02 520.906 290.563 520.619C290.113 520.331 289.425 520.118 288.497 519.978C287.576 519.831 286.415 519.757 285.016 519.757ZM298.01 531.072H272.066V527.912H298.01V531.072ZM294.839 539.967H278.994V542.541H275.082V537.182H290.905V535.635H275.06V532.707H294.839V539.967ZM295.579 544.685H275.082V541.68H295.579V544.685ZM151.668 563.21C151.661 564.853 151.359 566.378 150.762 567.785C150.165 569.192 149.263 570.414 148.055 571.453C146.847 572.484 145.373 573.247 143.635 573.74L141.745 570.602C143.226 570.212 144.471 569.637 145.48 568.878C146.497 568.12 147.248 567.254 147.734 566.282C148.228 565.309 148.475 564.285 148.475 563.21V562.138H151.668V563.21ZM152.452 563.21C152.452 564.204 152.692 565.158 153.171 566.072C153.65 566.985 154.386 567.803 155.381 568.525C156.382 569.239 157.624 569.788 159.104 570.171L157.347 573.21C155.557 572.761 154.055 572.042 152.839 571.055C151.624 570.068 150.714 568.904 150.11 567.564C149.506 566.223 149.208 564.772 149.215 563.21V562.138H152.452V563.21ZM158.176 563.331H142.751V560.182H158.176V563.331ZM152.497 561.652H148.475V557.32H152.497V561.652ZM164.541 573.641H160.541V557.42H164.541V573.641ZM168.364 567.099H163.414V563.818H168.364V567.099ZM156.53 576.856C156.53 578.344 156.117 579.707 155.292 580.945C154.467 582.182 153.259 583.217 151.668 584.05C150.077 584.882 148.165 585.449 145.933 585.751L144.497 582.735C146.382 582.499 147.977 582.083 149.281 581.486C150.592 580.882 151.568 580.182 152.209 579.387C152.858 578.584 153.182 577.74 153.182 576.856V576.171H156.53V576.856ZM157.447 576.856C157.44 577.703 157.76 578.532 158.408 579.343C159.064 580.145 160.047 580.856 161.359 581.475C162.67 582.094 164.261 582.525 166.132 582.768L164.707 585.818C162.467 585.523 160.545 584.945 158.939 584.083C157.34 583.228 156.121 582.179 155.281 580.934C154.449 579.689 154.036 578.33 154.044 576.856V576.171H157.447V576.856ZM164.883 577.994H145.723V574.856H164.883V577.994ZM182.958 558.89C184.962 558.89 186.777 559.232 188.405 559.917C190.041 560.595 191.326 561.552 192.262 562.79C193.205 564.028 193.676 565.453 193.676 567.066C193.676 568.68 193.205 570.109 192.262 571.354C191.326 572.591 190.041 573.552 188.405 574.238C186.777 574.923 184.962 575.265 182.958 575.265C180.962 575.265 179.149 574.923 177.521 574.238C175.901 573.552 174.623 572.591 173.687 571.354C172.752 570.109 172.287 568.68 172.295 567.066C172.287 565.453 172.752 564.028 173.687 562.79C174.623 561.552 175.901 560.595 177.521 559.917C179.149 559.232 180.962 558.89 182.958 558.89ZM182.958 562.116C181.647 562.109 180.475 562.308 179.444 562.713C178.42 563.118 177.617 563.696 177.035 564.448C176.453 565.199 176.162 566.072 176.162 567.066C176.162 568.076 176.45 568.952 177.024 569.696C177.606 570.44 178.409 571.011 179.433 571.409C180.464 571.799 181.639 571.994 182.958 571.994C184.276 571.994 185.448 571.799 186.472 571.409C187.503 571.011 188.306 570.44 188.88 569.696C189.455 568.952 189.742 568.076 189.742 567.066C189.742 566.064 189.451 565.192 188.869 564.448C188.295 563.696 187.492 563.118 186.461 562.713C185.437 562.308 184.269 562.109 182.958 562.116ZM196.019 582.414H170.008V579.188H196.019V582.414ZM214.159 570.282H209.32V567.033H214.159V570.282ZM206.347 564.779C206.34 567.011 206.111 569.122 205.662 571.11C205.213 573.099 204.509 574.886 203.552 576.47C202.601 578.046 201.397 579.28 199.938 580.171L197.507 577.21C198.848 576.378 199.949 575.306 200.811 573.994C201.673 572.676 202.299 571.239 202.69 569.685C203.08 568.131 203.275 566.495 203.275 564.779V559.873H206.347V564.779ZM207.143 564.591C207.143 566.271 207.312 567.843 207.651 569.309C207.99 570.775 208.542 572.134 209.309 573.387C210.075 574.632 211.08 575.652 212.325 576.448L210.148 579.519C208.697 578.65 207.526 577.446 206.635 575.906C205.743 574.366 205.102 572.65 204.712 570.757C204.329 568.856 204.141 566.801 204.148 564.591V559.873H207.143V564.591ZM222.679 585.884H218.867V557.42H222.679V585.884ZM216.734 584.569H212.999V557.862H216.734V584.569ZM235.814 579.884H231.869V571.895H235.814V579.884ZM246.3 579.884H242.267V571.895H246.3V579.884ZM252.079 582.547H226.068V579.298H252.079V582.547ZM239.018 558.823C241.066 558.823 242.9 559.14 244.521 559.773C246.149 560.407 247.424 561.306 248.344 562.47C249.273 563.626 249.737 564.956 249.737 566.459C249.737 567.969 249.276 569.298 248.355 570.448C247.435 571.597 246.16 572.488 244.532 573.122C242.912 573.748 241.074 574.061 239.018 574.061C236.97 574.061 235.136 573.748 233.516 573.122C231.895 572.488 230.628 571.597 229.714 570.448C228.801 569.298 228.348 567.969 228.355 566.459C228.348 564.948 228.801 563.615 229.714 562.459C230.628 561.302 231.895 560.407 233.516 559.773C235.144 559.14 236.978 558.823 239.018 558.823ZM239.018 561.972C237.663 561.965 236.477 562.138 235.46 562.492C234.451 562.845 233.667 563.361 233.107 564.039C232.554 564.716 232.278 565.523 232.278 566.459C232.278 567.379 232.554 568.179 233.107 568.856C233.667 569.534 234.455 570.057 235.471 570.425C236.488 570.794 237.67 570.978 239.018 570.978C240.359 570.971 241.541 570.786 242.565 570.425C243.597 570.057 244.392 569.534 244.952 568.856C245.519 568.179 245.803 567.379 245.803 566.459C245.803 565.523 245.519 564.716 244.952 564.039C244.392 563.361 243.6 562.845 242.576 562.492C241.552 562.138 240.366 561.965 239.018 561.972Z" fill="#080B14"/>
        <path d="M137.114 630.35H135.857V615.593H137.114V630.35ZM136.339 622.531H133.451V621.439H136.339V622.531ZM133.791 629.599H132.547V615.91H133.791V629.599ZM130.668 626.37H125.009V617.318H130.668V626.37ZM126.242 625.325H129.435V618.363H126.242V625.325ZM154.529 623.564H144.338V622.508H154.529V623.564ZM156.125 628.483H142.612V627.392H156.125V628.483ZM149.973 627.838H148.682V622.965H149.973V627.838ZM154.388 617.858H145.641V623.001H144.338V616.79H154.388V617.858ZM168.567 620.758H164.786V619.69H168.567V620.758ZM169.13 626.429H167.827V615.604H169.13V626.429ZM169.541 630.021H159.656V628.941H169.541V630.021ZM160.959 629.47H159.656V625.454H160.959V629.47ZM161.792 618.645C161.788 619.529 161.61 620.363 161.258 621.146C160.91 621.928 160.423 622.613 159.797 623.2C159.17 623.787 158.45 624.233 157.636 624.539L156.955 623.47C157.679 623.216 158.325 622.844 158.893 622.355C159.464 621.862 159.91 621.294 160.231 620.653C160.552 620.007 160.712 619.338 160.712 618.645V617.436H161.792V618.645ZM162.027 618.645C162.027 619.271 162.182 619.884 162.491 620.482C162.8 621.081 163.229 621.613 163.777 622.079C164.324 622.545 164.954 622.899 165.667 623.142L164.986 624.186C164.191 623.901 163.489 623.48 162.878 622.924C162.272 622.365 161.8 621.717 161.464 620.981C161.127 620.242 160.959 619.463 160.959 618.645V617.436H162.027V618.645ZM165.326 617.882H157.378V616.802H165.326V617.882ZM184.635 624.433H171.181V623.376H184.635V624.433ZM183.133 630.021H172.919V628.941H183.133V630.021ZM174.234 629.27H172.919V625.736H174.234V629.27ZM177.897 616.109C178.953 616.105 179.875 616.219 180.661 616.45C181.448 616.677 182.053 617.013 182.475 617.459C182.898 617.901 183.109 618.426 183.109 619.032C183.109 619.639 182.898 620.165 182.475 620.612C182.053 621.054 181.448 621.392 180.661 621.627C179.875 621.862 178.953 621.979 177.897 621.979C176.836 621.979 175.912 621.862 175.126 621.627C174.343 621.392 173.739 621.054 173.312 620.612C172.885 620.165 172.672 619.639 172.672 619.032C172.672 618.426 172.885 617.901 173.312 617.459C173.739 617.013 174.343 616.677 175.126 616.45C175.912 616.219 176.836 616.105 177.897 616.109ZM177.897 617.166C177.11 617.166 176.423 617.24 175.836 617.389C175.253 617.538 174.803 617.755 174.486 618.04C174.173 618.322 174.018 618.653 174.022 619.032C174.018 619.42 174.173 619.754 174.486 620.036C174.803 620.314 175.253 620.529 175.836 620.682C176.423 620.835 177.11 620.911 177.897 620.911C178.683 620.911 179.368 620.835 179.951 620.682C180.538 620.529 180.99 620.314 181.307 620.036C181.624 619.754 181.783 619.42 181.783 619.032C181.783 618.653 181.624 618.322 181.307 618.04C180.99 617.755 180.538 617.538 179.951 617.389C179.368 617.24 178.683 617.166 177.897 617.166ZM200.865 623.106H199.562V615.593H200.865V623.106ZM203.084 619.89H200.278V618.798H203.084V619.89ZM196.779 622.331H189.958V616.438H196.779V622.331ZM191.226 621.287H195.511V617.494H191.226V621.287ZM200.865 627.403H192.764V629.657H191.484V626.417H199.573V624.856H191.449V623.811H200.865V627.403ZM201.405 630.151H191.484V629.094H201.405V630.151ZM215.771 630.374H214.468V615.593H215.771V630.374ZM207.929 616.731C208.657 616.735 209.306 616.949 209.878 617.371C210.449 617.79 210.895 618.389 211.216 619.167C211.537 619.946 211.698 620.848 211.698 621.874C211.698 622.903 211.537 623.807 211.216 624.586C210.895 625.36 210.447 625.959 209.872 626.382C209.301 626.805 208.653 627.016 207.929 627.016C207.197 627.016 206.545 626.805 205.974 626.382C205.407 625.959 204.962 625.36 204.642 624.586C204.321 623.811 204.16 622.907 204.16 621.874C204.16 620.844 204.321 619.942 204.642 619.167C204.962 618.389 205.407 617.79 205.974 617.371C206.545 616.949 207.197 616.735 207.929 616.731ZM207.929 617.894C207.44 617.898 207.003 618.066 206.62 618.398C206.24 618.727 205.945 619.193 205.733 619.796C205.522 620.394 205.416 621.087 205.416 621.874C205.416 622.664 205.522 623.361 205.733 623.963C205.945 624.566 206.24 625.032 206.62 625.36C207.003 625.689 207.44 625.854 207.929 625.854C208.418 625.854 208.85 625.689 209.226 625.36C209.606 625.032 209.901 624.566 210.113 623.963C210.324 623.361 210.43 622.664 210.43 621.874C210.43 621.087 210.324 620.394 210.113 619.796C209.901 619.193 209.606 618.727 209.226 618.398C208.85 618.066 208.418 617.898 207.929 617.894ZM230.545 623.048H222.961V621.968H230.545V623.048ZM227.316 626.241H226.013V622.813H227.316V626.241ZM230.486 618.058H224.24V622.355H222.961V617.001H230.486V618.058ZM233.856 630.374H232.553V615.593H233.856V630.374ZM221.834 626.041C223.669 626.041 225.395 626.014 227.011 625.959C228.627 625.904 230.15 625.795 231.578 625.631L231.684 626.605C230.682 626.75 229.639 626.863 228.555 626.945C227.471 627.024 226.416 627.077 225.391 627.104C224.366 627.131 223.305 627.145 222.209 627.145H222.01L221.834 626.041ZM247.964 621.122H237.867V620.066H247.964V621.122ZM249.525 624.186H236.012V623.13H249.525V624.186ZM239.159 620.606H237.867V616.133H239.159V620.606ZM248.058 629.986H237.773V628.906H248.058V629.986ZM239.065 629.211H237.773V625.689H239.065V629.211ZM104.614 651.164C103.824 651.164 103.116 651.031 102.489 650.765C101.863 650.499 101.368 650.125 101.004 649.644C100.644 649.163 100.45 648.609 100.423 647.983H101.938C101.965 648.355 102.098 648.681 102.337 648.963C102.579 649.241 102.896 649.456 103.288 649.609C103.679 649.761 104.113 649.838 104.591 649.838C105.115 649.838 105.585 649.748 106 649.568C106.415 649.388 106.739 649.139 106.974 648.822C107.209 648.501 107.326 648.135 107.326 647.724C107.326 647.286 107.213 646.899 106.986 646.562C106.759 646.226 106.424 645.963 105.982 645.776C105.544 645.588 105.017 645.494 104.403 645.494H103.429V644.179H104.403C104.888 644.179 105.321 644.093 105.7 643.921C106.08 643.748 106.373 643.508 106.581 643.199C106.788 642.885 106.892 642.523 106.892 642.113C106.892 641.717 106.8 641.369 106.616 641.068C106.432 640.762 106.17 640.528 105.829 640.363C105.489 640.199 105.092 640.117 104.638 640.117C104.207 640.117 103.804 640.193 103.429 640.346C103.053 640.498 102.746 640.717 102.507 641.003C102.272 641.285 102.145 641.616 102.125 641.995H100.681C100.705 641.377 100.897 640.825 101.257 640.34C101.617 639.855 102.096 639.479 102.695 639.213C103.294 638.947 103.949 638.814 104.661 638.814C105.401 638.814 106.049 638.96 106.604 639.254C107.164 639.547 107.592 639.941 107.89 640.434C108.191 640.927 108.34 641.463 108.336 642.042C108.34 642.488 108.26 642.895 108.095 643.263C107.935 643.631 107.698 643.942 107.385 644.196C107.076 644.451 106.712 644.637 106.293 644.754V644.848C106.81 644.926 107.258 645.095 107.637 645.353C108.017 645.611 108.305 645.946 108.5 646.357C108.7 646.768 108.798 647.227 108.794 647.736C108.798 648.382 108.618 648.967 108.254 649.491C107.894 650.012 107.393 650.421 106.751 650.718C106.113 651.016 105.401 651.164 104.614 651.164ZM121.32 639.295H111.728V638.238H121.32V639.295ZM123.527 644.167H110.014V643.11H123.527V644.167ZM121.754 639.236C121.754 639.976 121.731 640.663 121.684 641.297C121.637 641.931 121.527 642.641 121.355 643.427L120.076 643.287C120.193 642.743 120.281 642.23 120.34 641.749C120.398 641.263 120.434 640.835 120.445 640.463C120.457 640.091 120.463 639.682 120.463 639.236V639.177V638.238H121.754V639.177V639.236ZM121.801 649.368H112.949V651.47H111.646V648.347H120.51V646.703H111.623V645.646H121.801V649.368ZM122.177 652.174H111.646V651.117H122.177V652.174ZM129.053 642.124C129.053 643.122 128.862 644.118 128.478 645.112C128.095 646.102 127.58 646.987 126.934 647.766C126.292 648.54 125.594 649.122 124.839 649.509L124.052 648.476C124.752 648.135 125.404 647.623 126.007 646.938C126.613 646.249 127.097 645.48 127.457 644.631C127.821 643.778 128.005 642.942 128.008 642.124V639.682H129.053V642.124ZM129.288 642.124C129.284 642.895 129.453 643.68 129.793 644.478C130.137 645.273 130.603 645.993 131.19 646.638C131.777 647.284 132.423 647.775 133.127 648.112L132.376 649.145C131.609 648.769 130.91 648.214 130.28 647.478C129.65 646.742 129.153 645.905 128.789 644.965C128.425 644.026 128.243 643.079 128.243 642.124V639.682H129.288V642.124ZM132.611 640.199H124.58V639.107H132.611V640.199ZM135.722 652.35H134.419V637.593H135.722V652.35ZM138.187 644.672H135.428V643.557H138.187V644.672ZM152.096 650.519H138.583V649.415H152.096V650.519ZM145.944 649.896H144.653V646.245H145.944V649.896ZM150.394 643.146H141.565V646.128H140.274V642.077H149.102V639.765H140.238V638.684H150.394V643.146ZM150.734 646.633H140.274V645.552H150.734V646.633ZM168.889 652.374H167.586V637.593H168.889V652.374ZM161.046 638.731C161.774 638.735 162.424 638.949 162.995 639.371C163.567 639.79 164.013 640.389 164.334 641.167C164.655 641.946 164.815 642.848 164.815 643.874C164.815 644.903 164.655 645.807 164.334 646.586C164.013 647.36 163.565 647.959 162.989 648.382C162.418 648.805 161.77 649.016 161.046 649.016C160.315 649.016 159.663 648.805 159.092 648.382C158.524 647.959 158.08 647.36 157.759 646.586C157.438 645.811 157.278 644.907 157.278 643.874C157.278 642.844 157.438 641.942 157.759 641.167C158.08 640.389 158.524 639.79 159.092 639.371C159.663 638.949 160.315 638.735 161.046 638.731ZM161.046 639.894C160.557 639.898 160.121 640.066 159.737 640.398C159.358 640.727 159.062 641.193 158.851 641.796C158.64 642.394 158.534 643.087 158.534 643.874C158.534 644.664 158.64 645.361 158.851 645.963C159.062 646.566 159.358 647.032 159.737 647.36C160.121 647.689 160.557 647.854 161.046 647.854C161.536 647.854 161.968 647.689 162.344 647.36C162.723 647.032 163.019 646.566 163.23 645.963C163.441 645.361 163.547 644.664 163.547 643.874C163.547 643.087 163.441 642.394 163.23 641.796C163.019 641.193 162.723 640.727 162.344 640.398C161.968 640.066 161.536 639.898 161.046 639.894ZM182.868 642.019H173.969V644.555H172.654V640.997H181.541V639.248H172.619V638.191H182.868V642.019ZM183.185 645.012H172.654V643.932H183.185V645.012ZM184.5 647.619H170.987V646.562H184.5V647.619ZM178.371 652.374H177.068V646.95H178.371V652.374ZM189.263 638.731C189.979 638.735 190.615 638.949 191.171 639.371C191.73 639.79 192.165 640.389 192.474 641.167C192.787 641.942 192.945 642.844 192.949 643.874C192.945 644.907 192.787 645.811 192.474 646.586C192.165 647.36 191.73 647.959 191.171 648.382C190.615 648.805 189.979 649.016 189.263 649.016C188.539 649.016 187.895 648.805 187.332 648.382C186.772 647.959 186.336 647.36 186.023 646.586C185.713 645.811 185.561 644.907 185.565 643.874C185.561 642.844 185.713 641.942 186.023 641.167C186.336 640.389 186.772 639.79 187.332 639.371C187.895 638.949 188.539 638.735 189.263 638.731ZM189.263 639.894C188.782 639.898 188.355 640.066 187.983 640.398C187.615 640.727 187.328 641.193 187.12 641.796C186.913 642.394 186.809 643.087 186.809 643.874C186.809 644.664 186.913 645.361 187.12 645.963C187.328 646.566 187.615 647.032 187.983 647.36C188.355 647.689 188.782 647.854 189.263 647.854C189.74 647.854 190.165 647.689 190.537 647.36C190.908 647.032 191.198 646.566 191.405 645.963C191.613 645.361 191.717 644.664 191.717 643.874C191.717 643.087 191.613 642.394 191.405 641.796C191.198 641.193 190.908 640.727 190.537 640.398C190.165 640.066 189.74 639.898 189.263 639.894ZM197.528 652.374H196.237V637.593H197.528V652.374ZM196.812 644.308H192.515V643.228H196.812V644.308ZM211.812 652.35H210.509V637.593H211.812V652.35ZM204.44 641.972C204.436 643.001 204.248 644.016 203.876 645.018C203.508 646.016 203.011 646.908 202.385 647.695C201.763 648.478 201.082 649.075 200.342 649.485L199.473 648.499C200.174 648.151 200.822 647.629 201.416 646.932C202.015 646.231 202.491 645.445 202.843 644.572C203.199 643.696 203.379 642.829 203.383 641.972V639.671H204.44V641.972ZM204.698 641.972C204.698 642.727 204.874 643.516 205.226 644.337C205.578 645.155 206.05 645.905 206.641 646.586C207.232 647.263 207.872 647.775 208.56 648.124L207.774 649.122C207.03 648.734 206.343 648.159 205.713 647.396C205.083 646.629 204.582 645.768 204.211 644.813C203.839 643.858 203.653 642.911 203.653 641.972V639.671H204.698V641.972ZM208.056 640.199H200.013V639.107H208.056V640.199ZM211.355 642.84H207.48V641.749H211.355V642.84ZM211.355 645.987H207.48V644.895H211.355V645.987ZM217.808 638.731C218.532 638.735 219.176 638.949 219.739 639.371C220.307 639.79 220.747 640.389 221.06 641.167C221.377 641.942 221.538 642.844 221.542 643.874C221.538 644.907 221.377 645.811 221.06 646.586C220.747 647.36 220.307 647.959 219.739 648.382C219.176 648.805 218.532 649.016 217.808 649.016C217.084 649.016 216.44 648.805 215.877 648.382C215.317 647.959 214.879 647.36 214.562 646.586C214.249 645.811 214.094 644.907 214.098 643.874C214.094 642.844 214.249 641.942 214.562 641.167C214.879 640.389 215.317 639.79 215.877 639.371C216.44 638.949 217.084 638.735 217.808 638.731ZM217.808 639.894C217.327 639.898 216.898 640.066 216.523 640.398C216.151 640.727 215.859 641.193 215.648 641.796C215.437 642.394 215.331 643.087 215.331 643.874C215.331 644.664 215.437 645.361 215.648 645.963C215.859 646.566 216.151 647.032 216.523 647.36C216.898 647.689 217.327 647.854 217.808 647.854C218.297 647.854 218.728 647.689 219.1 647.36C219.475 647.032 219.767 646.568 219.974 645.969C220.182 645.367 220.285 644.668 220.285 643.874C220.285 643.083 220.182 642.388 219.974 641.79C219.767 641.191 219.475 640.727 219.1 640.398C218.728 640.066 218.297 639.898 217.808 639.894ZM227.682 642.418H224.935V641.302H227.682V642.418ZM227.682 646.797H224.935V645.705H227.682V646.797ZM225.287 652.35H223.984V637.593H225.287V652.35ZM243.547 646.163H242.244V637.593H243.547V646.163ZM245.766 642.477H242.984V641.373H245.766V642.477ZM235.505 648.394H242.244V646.809H243.547V652.151H234.214V646.809H235.505V648.394ZM242.244 651.094V649.427H235.505V651.094H242.244ZM240.835 640.187H232.042V639.119H240.835V640.187ZM236.444 640.88C237.145 640.88 237.761 640.985 238.293 641.197C238.83 641.408 239.244 641.709 239.538 642.101C239.835 642.492 239.986 642.946 239.99 643.463C239.986 643.983 239.835 644.439 239.538 644.83C239.244 645.218 238.83 645.519 238.293 645.734C237.757 645.946 237.141 646.049 236.444 646.046C235.736 646.049 235.112 645.946 234.572 645.734C234.036 645.519 233.619 645.218 233.321 644.83C233.028 644.439 232.883 643.983 232.887 643.463C232.883 642.946 233.028 642.492 233.321 642.101C233.619 641.709 234.036 641.408 234.572 641.197C235.108 640.985 235.732 640.88 236.444 640.88ZM236.444 641.878C235.982 641.874 235.577 641.938 235.229 642.071C234.881 642.201 234.609 642.387 234.413 642.629C234.221 642.872 234.127 643.15 234.131 643.463C234.127 643.78 234.221 644.06 234.413 644.302C234.609 644.541 234.881 644.727 235.229 644.86C235.577 644.993 235.982 645.059 236.444 645.059C236.898 645.059 237.299 644.993 237.648 644.86C237.996 644.727 238.266 644.541 238.458 644.302C238.653 644.06 238.753 643.78 238.757 643.463C238.753 643.15 238.653 642.872 238.458 642.629C238.266 642.387 237.996 642.201 237.648 642.071C237.299 641.938 236.898 641.874 236.444 641.878ZM237.09 639.694H235.799V637.452H237.09V639.694ZM258.454 652.35H257.162V637.593H258.454V652.35ZM248.533 648.171H247.254V639.048H248.533V648.171ZM248.451 647.407C249.664 647.407 250.858 647.353 252.032 647.243C253.206 647.134 254.392 646.953 255.589 646.703L255.765 647.818C254.505 648.077 253.28 648.263 252.091 648.376C250.905 648.49 249.692 648.546 248.451 648.546H247.254V647.407H248.451ZM271.999 652.374H270.695V637.593H271.999V652.374ZM274.464 644.519H271.705V643.427H274.464V644.519ZM262.383 647.572C263.827 647.572 265.068 647.535 266.105 647.46C267.146 647.386 268.202 647.251 269.275 647.055L269.439 648.182C268.343 648.378 267.271 648.509 266.222 648.576C265.173 648.642 263.894 648.675 262.383 648.675H261.221V647.572H262.383ZM268.112 640.105H262.524V648.077H261.221V639.037H268.112V640.105Z" fill="#818384"/>
        <path d="M130.586 684.523H127.205V683.443H130.586V684.523ZM131.49 688.386H130.187V679.593H131.49V688.386ZM126.594 688.844C127.612 688.844 128.492 688.952 129.236 689.167C129.979 689.382 130.549 689.697 130.944 690.112C131.339 690.523 131.537 691.016 131.537 691.591C131.537 692.166 131.339 692.658 130.944 693.065C130.549 693.475 129.979 693.789 129.236 694.004C128.496 694.223 127.616 694.334 126.594 694.338C125.569 694.334 124.686 694.223 123.947 694.004C123.207 693.789 122.638 693.475 122.238 693.065C121.843 692.658 121.648 692.166 121.651 691.591C121.648 691.016 121.843 690.523 122.238 690.112C122.638 689.697 123.207 689.382 123.947 689.167C124.69 688.952 125.573 688.844 126.594 688.844ZM126.594 689.865C125.843 689.865 125.193 689.934 124.645 690.071C124.097 690.208 123.675 690.407 123.377 690.67C123.084 690.928 122.939 691.235 122.943 691.591C122.939 691.943 123.084 692.249 123.377 692.507C123.675 692.765 124.097 692.961 124.645 693.094C125.193 693.231 125.843 693.297 126.594 693.294C127.342 693.297 127.989 693.231 128.537 693.094C129.089 692.961 129.512 692.765 129.805 692.507C130.099 692.249 130.245 691.943 130.245 691.591C130.245 691.235 130.099 690.928 129.805 690.67C129.512 690.407 129.089 690.208 128.537 690.071C127.989 689.934 127.342 689.865 126.594 689.865ZM124.152 682.305C124.148 683.193 123.97 684.032 123.618 684.823C123.27 685.609 122.782 686.3 122.156 686.895C121.53 687.486 120.81 687.936 119.996 688.245L119.315 687.212C120.039 686.95 120.687 686.566 121.258 686.061C121.833 685.553 122.28 684.974 122.597 684.324C122.914 683.67 123.072 682.997 123.072 682.305V681.084H124.152V682.305ZM124.387 682.293C124.387 682.927 124.54 683.541 124.845 684.136C125.15 684.731 125.579 685.261 126.13 685.727C126.682 686.193 127.314 686.547 128.026 686.789L127.346 687.834C126.551 687.549 125.849 687.126 125.238 686.566C124.632 686.003 124.16 685.353 123.823 684.617C123.487 683.882 123.319 683.107 123.319 682.293V681.084H124.387V682.293ZM127.686 681.753H119.738V680.673H127.686V681.753ZM145.082 687.459H143.778V679.593H145.082V687.459ZM147.3 684.16H144.718V683.056H147.3V684.16ZM135.384 685.862C136.472 685.862 137.388 685.848 138.131 685.821C138.875 685.793 139.566 685.744 140.203 685.674C140.845 685.6 141.497 685.494 142.158 685.357L142.323 686.437C141.638 686.578 140.963 686.686 140.297 686.76C139.636 686.834 138.924 686.885 138.161 686.913C137.401 686.94 136.476 686.954 135.384 686.954H134.245V685.862H135.384ZM140.773 681.647H135.537V686.613H134.245V680.567H140.773V681.647ZM137.028 690.088H143.778V688.257H145.082V694.104H135.736V688.257H137.028V690.088ZM143.778 693.023V691.145H137.028V693.023H143.778ZM163.225 690.276H161.921V679.581H163.225V690.276ZM165.455 685.075H162.814V683.983H165.455V685.075ZM153.527 686.555C154.607 686.558 155.519 686.549 156.263 686.525C157.006 686.498 157.699 686.451 158.341 686.384C158.986 686.314 159.64 686.21 160.301 686.073L160.466 687.153C159.448 687.349 158.433 687.482 157.419 687.552C156.409 687.623 155.112 687.654 153.527 687.646H152.388V686.555H153.527ZM158.951 681.952H153.68V687.165H152.388V680.872H158.951V681.952ZM163.905 694.021H153.985V692.941H163.905V694.021ZM155.276 693.434H153.985V689.196H155.276V693.434ZM169.936 680.731C170.653 680.735 171.289 680.949 171.844 681.371C172.404 681.79 172.838 682.389 173.147 683.167C173.46 683.942 173.619 684.844 173.623 685.874C173.619 686.907 173.46 687.811 173.147 688.586C172.838 689.36 172.404 689.959 171.844 690.382C171.289 690.805 170.653 691.016 169.936 691.016C169.212 691.016 168.569 690.805 168.005 690.382C167.446 689.959 167.009 689.36 166.696 688.586C166.387 687.811 166.234 686.907 166.238 685.874C166.234 684.844 166.387 683.942 166.696 683.167C167.009 682.389 167.446 681.79 168.005 681.371C168.569 680.949 169.212 680.735 169.936 680.731ZM169.936 681.894C169.455 681.898 169.029 682.066 168.657 682.398C168.289 682.727 168.001 683.193 167.794 683.796C167.586 684.394 167.483 685.087 167.483 685.874C167.483 686.664 167.586 687.361 167.794 687.963C168.001 688.566 168.289 689.032 168.657 689.36C169.029 689.689 169.455 689.854 169.936 689.854C170.414 689.854 170.838 689.689 171.21 689.36C171.582 689.032 171.872 688.566 172.079 687.963C172.286 687.361 172.39 686.664 172.39 685.874C172.39 685.087 172.286 684.394 172.079 683.796C171.872 683.193 171.582 682.727 171.21 682.398C170.838 682.066 170.414 681.898 169.936 681.894ZM178.202 694.374H176.91V679.593H178.202V694.374ZM177.485 686.308H173.188V685.228H177.485V686.308ZM192.181 685.122H182.084V684.066H192.181V685.122ZM193.742 688.186H180.229V687.13H193.742V688.186ZM183.375 684.606H182.084V680.133H183.375V684.606ZM192.275 693.986H181.99V692.906H192.275V693.986ZM183.282 693.211H181.99V689.689H183.282V693.211ZM209.831 683.068H205.487V681.999H209.831V683.068ZM209.854 686.003H205.487V684.923H209.854V686.003ZM210.629 688.339H209.326V679.593H210.629V688.339ZM205.862 687.271H199.088V680.72H205.862V687.271ZM200.38 686.202H204.583V681.776H200.38V686.202ZM205.733 688.762C206.751 688.762 207.631 688.871 208.375 689.09C209.118 689.31 209.688 689.629 210.083 690.047C210.478 690.466 210.676 690.969 210.676 691.556C210.676 692.135 210.478 692.632 210.083 693.047C209.688 693.462 209.118 693.777 208.375 693.992C207.635 694.207 206.755 694.315 205.733 694.315C204.708 694.315 203.825 694.207 203.086 693.992C202.346 693.777 201.777 693.462 201.378 693.047C200.982 692.632 200.787 692.135 200.791 691.556C200.787 690.969 200.982 690.466 201.378 690.047C201.777 689.629 202.346 689.31 203.086 689.09C203.829 688.871 204.712 688.762 205.733 688.762ZM205.733 689.783C204.978 689.787 204.326 689.859 203.778 690C203.235 690.137 202.814 690.339 202.516 690.605C202.223 690.871 202.078 691.188 202.082 691.556C202.078 691.908 202.223 692.213 202.516 692.472C202.814 692.73 203.236 692.93 203.784 693.07C204.332 693.211 204.982 693.282 205.733 693.282C206.481 693.282 207.128 693.211 207.676 693.07C208.228 692.93 208.651 692.73 208.944 692.472C209.238 692.213 209.384 691.908 209.384 691.556C209.384 691.188 209.238 690.871 208.944 690.605C208.651 690.339 208.23 690.137 207.682 690C207.134 689.859 206.485 689.787 205.733 689.783ZM217.411 683.561C217.411 684.617 217.231 685.654 216.871 686.672C216.511 687.689 216.016 688.593 215.386 689.384C214.76 690.174 214.061 690.777 213.29 691.192L212.469 690.147C213.177 689.795 213.827 689.269 214.418 688.568C215.012 687.868 215.48 687.079 215.82 686.202C216.165 685.322 216.339 684.441 216.343 683.561V680.872H217.411V683.561ZM217.634 683.561C217.63 684.406 217.799 685.249 218.139 686.091C218.484 686.932 218.947 687.686 219.53 688.351C220.114 689.016 220.753 689.521 221.45 689.865L220.64 690.91C219.877 690.507 219.184 689.926 218.562 689.167C217.944 688.404 217.456 687.533 217.1 686.555C216.748 685.576 216.574 684.578 216.578 683.561V680.872H217.634V683.561ZM224.103 694.35H222.8V679.593H224.103V694.35ZM226.569 686.707H223.81V685.58H226.569V686.707ZM239.127 694.374H237.824V679.593H239.127V694.374ZM231.285 680.731C232.013 680.735 232.662 680.949 233.234 681.371C233.805 681.79 234.251 682.389 234.572 683.167C234.893 683.946 235.053 684.848 235.053 685.874C235.053 686.903 234.893 687.807 234.572 688.586C234.251 689.36 233.803 689.959 233.228 690.382C232.656 690.805 232.009 691.016 231.285 691.016C230.553 691.016 229.901 690.805 229.33 690.382C228.763 689.959 228.318 689.36 227.997 688.586C227.677 687.811 227.516 686.907 227.516 685.874C227.516 684.844 227.677 683.942 227.997 683.167C228.318 682.389 228.763 681.79 229.33 681.371C229.901 680.949 230.553 680.735 231.285 680.731ZM231.285 681.894C230.796 681.898 230.359 682.066 229.976 682.398C229.596 682.727 229.301 683.193 229.089 683.796C228.878 684.394 228.772 685.087 228.772 685.874C228.772 686.664 228.878 687.361 229.089 687.963C229.301 688.566 229.596 689.032 229.976 689.36C230.359 689.689 230.796 689.854 231.285 689.854C231.774 689.854 232.206 689.689 232.582 689.36C232.962 689.032 233.257 688.566 233.468 687.963C233.68 687.361 233.785 686.664 233.785 685.874C233.785 685.087 233.68 684.394 233.468 683.796C233.257 683.193 232.962 682.727 232.582 682.398C232.206 682.066 231.774 681.898 231.285 681.894ZM252.696 684.218H248.07V683.138H252.696V684.218ZM252.696 688.28H248.07V687.212H252.696V688.28ZM248.575 690.617H241.847V681.06H248.575V690.617ZM243.139 689.56H247.307V682.093H243.139V689.56ZM253.482 694.374H252.191V679.593H253.482V694.374ZM78.5284 703.131C78.5245 704.649 78.3092 706.058 77.8826 707.357C77.46 708.656 76.7399 709.869 75.7224 710.997C74.7088 712.12 73.347 713.098 71.6368 713.932L70.9206 712.898C72.4469 712.163 73.6777 711.308 74.613 710.333C75.5483 709.359 76.2233 708.288 76.6382 707.122C77.053 705.952 77.2604 704.669 77.2604 703.271V703.131H78.5284ZM77.9296 704.211H71.719V703.131H77.9296V704.211ZM71.1907 708.355L70.9793 707.193L77.0373 706.794V707.803L71.1907 708.355ZM82.8136 716.35H81.5104V701.593H82.8136V716.35ZM98.4129 714.46H84.8998V713.368H98.4129V714.46ZM92.261 713.709H90.9695V709.811H92.261V713.709ZM87.7996 705.302H95.4661V702.637H96.7575V710.186H86.4964V702.637H87.7996V705.302ZM95.4661 709.118V706.371H87.7996V709.118H95.4661ZM111.101 709.764H100.91V708.684H111.101V709.764ZM112.697 714.331H99.1841V713.239H112.697V714.331ZM110.96 704.046H102.201V709.177H100.91V702.966H110.96V704.046ZM129.514 709.506H128.21V701.593H129.514V709.506ZM121.237 712.053H128.222V710.257H129.514V716.151H119.957V710.257H121.237V712.053ZM128.222 715.082V713.098H121.237V715.082H128.222ZM121.542 702.309C122.282 702.305 122.945 702.446 123.532 702.731C124.123 703.013 124.583 703.414 124.911 703.935C125.24 704.451 125.404 705.04 125.404 705.702C125.404 706.363 125.24 706.95 124.911 707.463C124.583 707.971 124.123 708.371 123.532 708.66C122.945 708.946 122.282 709.087 121.542 709.083C120.802 709.087 120.137 708.946 119.546 708.66C118.959 708.371 118.499 707.969 118.167 707.457C117.834 706.944 117.668 706.359 117.668 705.702C117.668 705.04 117.834 704.451 118.167 703.935C118.499 703.414 118.959 703.013 119.546 702.731C120.137 702.446 120.802 702.305 121.542 702.309ZM121.542 703.412C121.041 703.408 120.593 703.504 120.198 703.7C119.802 703.892 119.493 704.164 119.27 704.516C119.051 704.864 118.943 705.259 118.947 705.702C118.943 706.144 119.051 706.541 119.27 706.893C119.493 707.242 119.802 707.514 120.198 707.709C120.593 707.905 121.041 708.003 121.542 708.003C122.039 708.003 122.483 707.905 122.874 707.709C123.27 707.514 123.579 707.242 123.802 706.893C124.025 706.541 124.137 706.144 124.137 705.702C124.137 705.259 124.025 704.864 123.802 704.516C123.579 704.164 123.27 703.892 122.874 703.7C122.483 703.504 122.039 703.408 121.542 703.412ZM133.29 708.93C134.86 708.93 136.071 708.907 136.924 708.86C137.777 708.813 138.628 708.711 139.478 708.555L139.607 709.635C138.734 709.779 137.859 709.875 136.983 709.922C136.11 709.965 134.879 709.987 133.29 709.987H132.245V708.93H133.29ZM138.609 706.641H133.537V709.552H132.245V705.631H137.317V703.553H132.21V702.497H138.609V706.641ZM143.845 710.668H142.542V701.604H143.845V710.668ZM142.847 704.856H139.595V703.8H142.847V704.856ZM142.847 707.921H139.595V706.852H142.847V707.921ZM143.845 716.374H142.542V712.535H133.901V711.466H143.845V716.374ZM161.295 712.664H159.992V701.604H161.295V712.664ZM163.514 707.568H160.884V706.465H163.514V707.568ZM158.583 704.481H149.79V703.412H158.583V704.481ZM154.192 705.291C154.889 705.291 155.505 705.404 156.041 705.631C156.578 705.858 156.992 706.181 157.286 706.6C157.583 707.015 157.734 707.498 157.738 708.05C157.734 708.594 157.583 709.071 157.286 709.482C156.992 709.889 156.578 710.206 156.041 710.433C155.505 710.66 154.889 710.773 154.192 710.773C153.484 710.773 152.86 710.662 152.32 710.439C151.784 710.216 151.367 709.899 151.069 709.488C150.776 709.073 150.631 708.594 150.635 708.05C150.631 707.498 150.776 707.015 151.069 706.6C151.367 706.181 151.784 705.858 152.32 705.631C152.86 705.404 153.484 705.291 154.192 705.291ZM154.192 706.312C153.731 706.312 153.326 706.383 152.977 706.523C152.629 706.664 152.357 706.868 152.161 707.134C151.97 707.396 151.876 707.701 151.879 708.05C151.876 708.39 151.97 708.69 152.161 708.948C152.357 709.202 152.629 709.4 152.977 709.541C153.326 709.678 153.731 709.744 154.192 709.74C154.646 709.744 155.047 709.678 155.396 709.541C155.744 709.4 156.014 709.202 156.206 708.948C156.401 708.69 156.501 708.39 156.505 708.05C156.501 707.701 156.401 707.396 156.206 707.134C156.014 706.868 155.744 706.664 155.396 706.523C155.047 706.383 154.646 706.312 154.192 706.312ZM154.838 703.964H153.547V701.604H154.838V703.964ZM161.976 716.021H152.056V714.941H161.976V716.021ZM153.347 715.387H152.056V711.771H153.347V715.387ZM179.227 706.84H174.93V705.76H179.227V706.84ZM180.131 712.523H178.828V701.604H180.131V712.523ZM180.471 716.021H170.586V714.941H180.471V716.021ZM171.901 715.47H170.586V711.454H171.901V715.47ZM169.94 705.209H174.049V702.579H175.341V709.999H168.637V702.579H169.94V705.209ZM174.049 708.93V706.23H169.94V708.93H174.049ZM188.897 702.544C189.923 702.547 190.846 702.72 191.668 703.06C192.49 703.397 193.134 703.872 193.599 704.487C194.065 705.101 194.298 705.807 194.298 706.606C194.298 707.408 194.065 708.116 193.599 708.731C193.134 709.341 192.49 709.817 191.668 710.157C190.846 710.494 189.923 710.66 188.897 710.656C187.876 710.66 186.956 710.494 186.138 710.157C185.324 709.817 184.683 709.341 184.213 708.731C183.743 708.116 183.509 707.408 183.509 706.606C183.509 705.807 183.743 705.101 184.213 704.487C184.683 703.872 185.324 703.397 186.138 703.06C186.956 702.72 187.876 702.547 188.897 702.544ZM188.897 703.612C188.115 703.608 187.408 703.733 186.778 703.988C186.148 704.238 185.651 704.592 185.287 705.05C184.927 705.508 184.749 706.026 184.753 706.606C184.749 707.189 184.925 707.707 185.281 708.161C185.641 708.611 186.136 708.962 186.766 709.212C187.4 709.462 188.111 709.588 188.897 709.588C189.684 709.588 190.392 709.462 191.022 709.212C191.656 708.962 192.151 708.611 192.507 708.161C192.864 707.707 193.042 707.189 193.042 706.606C193.042 706.023 192.862 705.504 192.502 705.05C192.142 704.592 191.647 704.238 191.016 703.988C190.386 703.733 189.68 703.608 188.897 703.612ZM195.695 714.378H182.182V713.286H195.695V714.378ZM209.979 714.519H196.466V713.415H209.979V714.519ZM203.827 713.896H202.536V710.245H203.827V713.896ZM208.277 707.146H199.448V710.128H198.157V706.077H206.986V703.765H198.122V702.684H208.277V707.146ZM208.617 710.633H198.157V709.552H208.617V710.633ZM219.798 709.975H218.495V707.733H219.798V709.975ZM219.106 702.285C219.818 702.285 220.452 702.407 221.008 702.649C221.563 702.892 221.996 703.234 222.305 703.676C222.618 704.115 222.777 704.622 222.78 705.197C222.777 705.764 222.618 706.269 222.305 706.711C221.996 707.15 221.563 707.49 221.008 707.733C220.452 707.975 219.818 708.097 219.106 708.097C218.394 708.097 217.76 707.975 217.204 707.733C216.648 707.49 216.216 707.15 215.907 706.711C215.601 706.269 215.451 705.764 215.455 705.197C215.451 704.622 215.601 704.115 215.907 703.676C216.216 703.234 216.646 702.892 217.198 702.649C217.754 702.407 218.39 702.285 219.106 702.285ZM219.106 703.295C218.632 703.295 218.21 703.373 217.838 703.53C217.47 703.686 217.182 703.909 216.975 704.199C216.771 704.488 216.672 704.821 216.676 705.197C216.672 705.569 216.771 705.897 216.975 706.183C217.182 706.465 217.47 706.688 217.838 706.852C218.21 707.013 218.632 707.095 219.106 707.099C219.583 707.095 220.006 707.013 220.374 706.852C220.742 706.688 221.027 706.465 221.231 706.183C221.438 705.897 221.544 705.569 221.548 705.197C221.544 704.821 221.438 704.488 221.231 704.199C221.027 703.909 220.742 703.686 220.374 703.53C220.006 703.373 219.583 703.295 219.106 703.295ZM226.126 712.898H224.823V701.604H226.126V712.898ZM228.334 707.709H225.575V706.606H228.334V707.709ZM226.667 716.01H216.758V714.918H226.667V716.01ZM218.061 715.411H216.758V711.912H218.061V715.411ZM214.597 709.611C216.241 709.619 217.855 709.588 219.44 709.517C221.029 709.447 222.507 709.31 223.872 709.106L223.978 710.081C222.585 710.331 221.127 710.496 219.605 710.574C218.086 710.652 216.468 710.691 214.75 710.691L214.597 709.611ZM233.742 703.964C233.738 704.903 233.564 705.778 233.22 706.588C232.879 707.398 232.396 708.103 231.77 708.701C231.144 709.3 230.416 709.756 229.586 710.069L228.882 709.012C229.633 708.746 230.295 708.361 230.866 707.856C231.437 707.351 231.88 706.766 232.193 706.101C232.51 705.432 232.67 704.719 232.674 703.964V702.438H233.742V703.964ZM233.965 703.917C233.962 704.606 234.112 705.263 234.417 705.89C234.727 706.516 235.159 707.064 235.715 707.533C236.27 708.003 236.908 708.359 237.628 708.602L236.901 709.623C236.102 709.326 235.402 708.897 234.799 708.337C234.196 707.778 233.729 707.12 233.396 706.365C233.063 705.61 232.897 704.794 232.897 703.917V702.438H233.965V703.917ZM241.127 710.339H239.824V701.593H241.127V710.339ZM236.231 710.762C237.249 710.762 238.129 710.871 238.873 711.09C239.616 711.31 240.186 711.629 240.581 712.047C240.976 712.466 241.174 712.969 241.174 713.556C241.174 714.135 240.976 714.632 240.581 715.047C240.186 715.462 239.616 715.777 238.873 715.992C238.133 716.207 237.253 716.315 236.231 716.315C235.206 716.315 234.324 716.207 233.584 715.992C232.844 715.777 232.275 715.462 231.876 715.047C231.48 714.632 231.285 714.135 231.289 713.556C231.285 712.969 231.48 712.466 231.876 712.047C232.275 711.629 232.844 711.31 233.584 711.09C234.327 710.871 235.21 710.762 236.231 710.762ZM236.231 711.795C235.48 711.795 234.83 711.865 234.282 712.006C233.735 712.147 233.312 712.351 233.014 712.617C232.721 712.879 232.576 713.192 232.58 713.556C232.576 713.908 232.721 714.213 233.014 714.472C233.312 714.73 233.735 714.928 234.282 715.065C234.83 715.202 235.48 715.27 236.231 715.27C236.979 715.27 237.626 715.202 238.174 715.065C238.726 714.928 239.149 714.73 239.442 714.472C239.736 714.213 239.883 713.908 239.883 713.556C239.883 713.192 239.736 712.879 239.442 712.617C239.149 712.351 238.726 712.147 238.174 712.006C237.626 711.865 236.979 711.795 236.231 711.795ZM240.094 705.831H236.537V704.751H240.094V705.831ZM251.972 709.048H244.387V707.968H251.972V709.048ZM248.743 712.241H247.44V708.813H248.743V712.241ZM251.913 704.058H245.667V708.355H244.387V703.001H251.913V704.058ZM255.282 716.374H253.979V701.593H255.282V716.374ZM243.26 712.041C245.096 712.041 246.821 712.014 248.438 711.959C250.054 711.904 251.576 711.795 253.005 711.631L253.11 712.605C252.108 712.75 251.066 712.863 249.982 712.945C248.898 713.024 247.843 713.077 246.818 713.104C245.792 713.131 244.732 713.145 243.636 713.145H243.436L243.26 712.041ZM262.511 706.124C262.507 707.138 262.311 708.14 261.924 709.13C261.54 710.116 261.022 710.997 260.368 711.771C259.718 712.542 259.008 713.122 258.237 713.509L257.462 712.476C258.163 712.143 258.816 711.636 259.423 710.955C260.034 710.271 260.519 709.502 260.879 708.648C261.243 707.795 261.427 706.954 261.431 706.124V703.682H262.511V706.124ZM262.746 706.124C262.746 706.938 262.926 707.746 263.286 708.549C263.646 709.351 264.131 710.067 264.741 710.697C265.352 711.327 266.017 711.799 266.737 712.112L266.009 713.145C265.211 712.781 264.483 712.241 263.826 711.525C263.168 710.805 262.646 709.975 262.258 709.036C261.875 708.093 261.685 707.122 261.689 706.124V703.682H262.746V706.124ZM266.256 704.199H257.944V703.107H266.256V704.199ZM269.625 716.35H268.322V701.593H269.625V716.35ZM279.726 702.438C280.454 702.438 281.11 702.583 281.693 702.872C282.276 703.162 282.732 703.567 283.06 704.087C283.389 704.604 283.554 705.189 283.554 705.843C283.554 706.5 283.389 707.087 283.06 707.604C282.732 708.12 282.276 708.525 281.693 708.819C281.11 709.108 280.454 709.255 279.726 709.259C278.994 709.255 278.335 709.108 277.748 708.819C277.165 708.525 276.707 708.12 276.374 707.604C276.046 707.087 275.883 706.5 275.887 705.843C275.883 705.189 276.048 704.604 276.38 704.087C276.717 703.567 277.177 703.162 277.76 702.872C278.343 702.583 278.998 702.438 279.726 702.438ZM279.726 703.53C279.245 703.53 278.809 703.629 278.417 703.829C278.03 704.029 277.723 704.305 277.496 704.657C277.273 705.009 277.163 705.404 277.167 705.843C277.163 706.285 277.273 706.684 277.496 707.04C277.723 707.392 278.03 707.67 278.417 707.874C278.809 708.077 279.245 708.179 279.726 708.179C280.208 708.179 280.642 708.077 281.029 707.874C281.421 707.67 281.728 707.392 281.951 707.04C282.174 706.684 282.286 706.285 282.286 705.843C282.286 705.404 282.174 705.009 281.951 704.657C281.728 704.305 281.421 704.029 281.029 703.829C280.642 703.629 280.208 703.53 279.726 703.53ZM287.146 708.965H285.843V701.593H287.146V708.965ZM289.365 706.007H286.583V704.915H289.365V706.007ZM277.883 714.883C278.439 714.883 279.032 714.845 279.662 714.771C280.296 714.697 280.9 714.562 281.476 714.366L281.687 715.411C281.241 715.56 280.791 715.675 280.337 715.757C279.883 715.839 279.458 715.892 279.063 715.916C278.672 715.939 278.278 715.951 277.883 715.951H277.179V714.883H277.883ZM278.447 715.282H277.179V710.562H278.447V715.282ZM288.625 711.654H281.159V710.633H288.625V711.654ZM284.892 712.147C285.424 712.147 285.9 712.231 286.318 712.4C286.737 712.568 287.062 712.812 287.293 713.133C287.528 713.45 287.647 713.818 287.651 714.237C287.647 714.656 287.528 715.022 287.293 715.335C287.062 715.652 286.737 715.894 286.318 716.062C285.904 716.231 285.428 716.315 284.892 716.315C284.348 716.315 283.869 716.231 283.454 716.062C283.043 715.894 282.72 715.652 282.485 715.335C282.254 715.022 282.141 714.656 282.145 714.237C282.141 713.818 282.254 713.45 282.485 713.133C282.72 712.812 283.045 712.568 283.46 712.4C283.874 712.231 284.352 712.147 284.892 712.147ZM284.892 713.086C284.587 713.09 284.315 713.141 284.076 713.239C283.837 713.333 283.649 713.468 283.512 713.644C283.376 713.816 283.307 714.014 283.307 714.237C283.307 714.464 283.376 714.663 283.512 714.836C283.649 715.008 283.835 715.141 284.07 715.235C284.309 715.329 284.583 715.376 284.892 715.376C285.197 715.376 285.469 715.329 285.708 715.235C285.947 715.141 286.133 715.008 286.266 714.836C286.399 714.663 286.465 714.464 286.465 714.237C286.465 714.014 286.399 713.816 286.266 713.644C286.133 713.468 285.947 713.333 285.708 713.239C285.469 713.141 285.197 713.09 284.892 713.086ZM285.549 711.419H284.27V709.329H285.549V711.419ZM301.818 707.122H291.721V706.066H301.818V707.122ZM303.379 710.186H289.866V709.13H303.379V710.186ZM293.013 706.606H291.721V702.133H293.013V706.606ZM301.912 715.986H291.627V714.906H301.912V715.986ZM292.919 715.211H291.627V711.689H292.919V715.211ZM93.1502 736.448H79.6371V735.356H93.1502V736.448ZM86.9983 735.673H85.7068V731.494H86.9983V735.673ZM91.4713 731.752H81.2338V724.825H91.4713V731.752ZM82.5017 730.707H90.2034V725.882H82.5017V730.707ZM100.637 723.921C101.705 723.921 102.631 724.031 103.414 724.25C104.2 724.469 104.803 724.792 105.222 725.219C105.64 725.641 105.85 726.144 105.85 726.727C105.85 727.302 105.64 727.798 105.222 728.212C104.803 728.623 104.2 728.938 103.414 729.157C102.631 729.377 101.705 729.486 100.637 729.486C99.5725 729.486 98.6489 729.377 97.8662 729.157C97.0835 728.938 96.4789 728.621 96.0523 728.206C95.6258 727.792 95.4125 727.299 95.4125 726.727C95.4125 726.144 95.6238 725.641 96.0465 725.219C96.4691 724.792 97.0737 724.469 97.8603 724.25C98.6469 724.031 99.5725 723.921 100.637 723.921ZM100.637 724.966C99.8464 724.966 99.1596 725.037 98.5765 725.177C97.9934 725.318 97.5433 725.522 97.2264 725.788C96.9133 726.05 96.7587 726.363 96.7626 726.727C96.7587 727.079 96.9133 727.385 97.2264 727.643C97.5433 727.901 97.9934 728.101 98.5765 728.242C99.1596 728.379 99.8464 728.449 100.637 728.453C101.424 728.449 102.108 728.379 102.691 728.242C103.278 728.101 103.731 727.901 104.047 727.643C104.364 727.385 104.523 727.079 104.523 726.727C104.523 726.363 104.364 726.05 104.047 725.788C103.731 725.522 103.278 725.318 102.691 725.177C102.108 725.037 101.424 724.966 100.637 724.966ZM105.72 738.151H95.5651V733.302H105.72V738.151ZM96.8565 737.082H104.453V734.347H96.8565V737.082ZM107.376 731.834H93.9215V730.766H107.376V731.834ZM109.345 740.393H108.112L109.028 735.873H110.624L109.345 740.393ZM127.199 726.997H123.184V725.929H127.199V726.997ZM127.106 730.026H123.043V728.923H127.106V730.026ZM123.689 724.497C123.685 725.718 123.407 726.813 122.856 727.784C122.308 728.754 121.513 729.58 120.472 730.261C119.435 730.942 118.187 731.47 116.727 731.846L116.222 730.801C117.518 730.476 118.619 730.04 119.527 729.492C120.439 728.94 121.13 728.295 121.599 727.555C122.069 726.811 122.304 725.995 122.304 725.107V724.497H123.689ZM123.184 725.6H116.974V724.497H123.184V725.6ZM128.244 731.529H126.953V723.593H128.244V731.529ZM119.956 734.135H126.953V732.269H128.244V738.151H118.641V732.269H119.956V734.135ZM126.953 737.094V735.18H119.956V737.094H126.953ZM141.848 732.222H140.545V723.593H141.848V732.222ZM144.067 728.253H141.484V727.15H144.067V728.253ZM132.221 726.692H136.518V724.426H137.809V731.294H130.941V724.426H132.221V726.692ZM136.518 730.238V727.737H132.221V730.238H136.518ZM141.965 734.088H133.876V737.834H132.573V733.044H141.965V734.088ZM142.247 738.139H132.573V737.082H142.247V738.139ZM149.734 726.598C149.73 727.443 149.55 728.234 149.194 728.97C148.841 729.705 148.346 730.343 147.708 730.883C147.071 731.423 146.341 731.83 145.519 732.104L144.885 731.095C145.613 730.856 146.262 730.51 146.834 730.056C147.405 729.598 147.851 729.071 148.172 728.477C148.493 727.878 148.654 727.252 148.654 726.598V725.952H149.734V726.598ZM149.945 726.598C149.945 727.209 150.109 727.792 150.438 728.347C150.767 728.903 151.221 729.392 151.8 729.815C152.379 730.234 153.037 730.551 153.772 730.766L153.15 731.787C152.317 731.537 151.577 731.157 150.931 730.648C150.289 730.14 149.787 729.539 149.423 728.846C149.063 728.15 148.884 727.4 148.888 726.598V725.952H149.945V726.598ZM153.338 726.398H145.249V725.342H153.338V726.398ZM149.968 725.823H148.654V723.522H149.968V725.823ZM156.778 732.351H155.475V723.604H156.778V732.351ZM156.778 738.151H147.174V733.09H156.778V738.151ZM148.466 737.082H155.498V734.159H148.466V737.082ZM171.039 738.374H169.736V723.593H171.039V738.374ZM163.196 724.731C163.924 724.735 164.574 724.949 165.145 725.371C165.716 725.79 166.163 726.389 166.484 727.167C166.804 727.946 166.965 728.848 166.965 729.874C166.965 730.903 166.804 731.807 166.484 732.586C166.163 733.36 165.715 733.959 165.139 734.382C164.568 734.805 163.92 735.016 163.196 735.016C162.464 735.016 161.813 734.805 161.241 734.382C160.674 733.959 160.23 733.36 159.909 732.586C159.588 731.811 159.428 730.907 159.428 729.874C159.428 728.844 159.588 727.942 159.909 727.167C160.23 726.389 160.674 725.79 161.241 725.371C161.813 724.949 162.464 724.735 163.196 724.731ZM163.196 725.894C162.707 725.898 162.271 726.066 161.887 726.398C161.508 726.727 161.212 727.193 161.001 727.796C160.789 728.394 160.684 729.087 160.684 729.874C160.684 730.664 160.789 731.361 161.001 731.963C161.212 732.566 161.508 733.032 161.887 733.36C162.271 733.689 162.707 733.854 163.196 733.854C163.685 733.854 164.118 733.689 164.494 733.36C164.873 733.032 165.169 732.566 165.38 731.963C165.591 731.361 165.697 730.664 165.697 729.874C165.697 729.087 165.591 728.394 165.38 727.796C165.169 727.193 164.873 726.727 164.494 726.398C164.118 726.066 163.685 725.898 163.196 725.894ZM190.532 736.519H177.019V735.403H190.532V736.519ZM184.356 735.908H183.077V731.541H184.356V735.908ZM189.24 726.105H178.216V725.025H189.24V726.105ZM189.205 732.01H178.24V730.954H189.205V732.01ZM181.844 731.153H180.553V725.858H181.844V731.153ZM186.892 731.153H185.613V725.858H186.892V731.153ZM202.844 732.48H201.541V723.593H202.844V732.48ZM205.063 728.641H202.48V727.514H205.063V728.641ZM202.844 738.151H193.522V733.325H202.844V738.151ZM194.802 737.082H201.552V734.37H194.802V737.082ZM200.132 726.234H191.338V725.166H200.132V726.234ZM195.741 726.974C196.438 726.974 197.054 727.081 197.59 727.297C198.126 727.512 198.541 727.819 198.835 728.218C199.132 728.617 199.283 729.079 199.287 729.604C199.283 730.128 199.132 730.588 198.835 730.983C198.541 731.378 198.126 731.686 197.59 731.905C197.058 732.124 196.442 732.233 195.741 732.233C195.029 732.233 194.405 732.124 193.868 731.905C193.332 731.686 192.916 731.378 192.618 730.983C192.325 730.588 192.18 730.128 192.184 729.604C192.18 729.079 192.325 728.617 192.618 728.218C192.916 727.819 193.332 727.512 193.868 727.297C194.408 727.081 195.033 726.974 195.741 726.974ZM195.741 727.983C195.279 727.983 194.874 728.05 194.526 728.183C194.178 728.316 193.906 728.506 193.71 728.752C193.518 728.999 193.424 729.283 193.428 729.604C193.424 729.932 193.516 730.218 193.704 730.461C193.896 730.703 194.166 730.893 194.514 731.03C194.866 731.163 195.275 731.232 195.741 731.235C196.199 731.232 196.6 731.163 196.944 731.03C197.293 730.893 197.563 730.703 197.754 730.461C197.95 730.218 198.05 729.932 198.054 729.604C198.05 729.283 197.95 728.999 197.754 728.752C197.563 728.506 197.293 728.316 196.944 728.183C196.596 728.05 196.195 727.983 195.741 727.983ZM196.387 725.706H195.095V723.475H196.387V725.706ZM214.381 731.048H206.797V729.968H214.381V731.048ZM211.152 734.241H209.849V730.813H211.152V734.241ZM214.322 726.058H208.077V730.355H206.797V725.001H214.322V726.058ZM217.692 738.374H216.389V723.593H217.692V738.374ZM205.67 734.041C207.505 734.041 209.231 734.014 210.847 733.959C212.463 733.904 213.986 733.795 215.414 733.631L215.52 734.605C214.518 734.75 213.475 734.863 212.391 734.945C211.307 735.024 210.252 735.077 209.227 735.104C208.202 735.131 207.141 735.145 206.045 735.145H205.846L205.67 734.041ZM224.92 728.124C224.916 729.138 224.721 730.14 224.333 731.13C223.95 732.116 223.431 732.997 222.778 733.771C222.128 734.542 221.418 735.122 220.647 735.509L219.872 734.476C220.572 734.143 221.226 733.636 221.833 732.955C222.443 732.271 222.928 731.502 223.288 730.648C223.652 729.795 223.836 728.954 223.84 728.124V725.682H224.92V728.124ZM225.155 728.124C225.155 728.938 225.335 729.746 225.695 730.549C226.055 731.351 226.54 732.067 227.151 732.697C227.761 733.327 228.427 733.799 229.147 734.112L228.419 735.145C227.621 734.781 226.893 734.241 226.235 733.525C225.578 732.805 225.055 731.975 224.668 731.036C224.284 730.093 224.095 729.122 224.098 728.124V725.682H225.155V728.124ZM228.665 726.199H220.353V725.107H228.665V726.199ZM232.035 738.35H230.732V723.593H232.035V738.35ZM242.136 724.438C242.864 724.438 243.519 724.583 244.102 724.872C244.685 725.162 245.141 725.567 245.47 726.087C245.799 726.604 245.963 727.189 245.963 727.843C245.963 728.5 245.799 729.087 245.47 729.604C245.141 730.12 244.685 730.525 244.102 730.819C243.519 731.108 242.864 731.255 242.136 731.259C241.404 731.255 240.745 731.108 240.158 730.819C239.574 730.525 239.117 730.12 238.784 729.604C238.455 729.087 238.293 728.5 238.297 727.843C238.293 727.189 238.457 726.604 238.79 726.087C239.126 725.567 239.586 725.162 240.169 724.872C240.752 724.583 241.408 724.438 242.136 724.438ZM242.136 725.53C241.654 725.53 241.218 725.629 240.827 725.829C240.439 726.029 240.132 726.305 239.905 726.657C239.682 727.009 239.572 727.404 239.576 727.843C239.572 728.285 239.682 728.684 239.905 729.04C240.132 729.392 240.439 729.67 240.827 729.874C241.218 730.077 241.654 730.179 242.136 730.179C242.617 730.179 243.052 730.077 243.439 729.874C243.83 729.67 244.137 729.392 244.361 729.04C244.584 728.684 244.695 728.285 244.695 727.843C244.695 727.404 244.584 727.009 244.361 726.657C244.137 726.305 243.83 726.029 243.439 725.829C243.052 725.629 242.617 725.53 242.136 725.53ZM249.556 730.965H248.252V723.593H249.556V730.965ZM251.775 728.007H248.992V726.915H251.775V728.007ZM240.293 736.883C240.848 736.883 241.441 736.845 242.071 736.771C242.705 736.697 243.31 736.562 243.885 736.366L244.096 737.411C243.65 737.56 243.2 737.675 242.746 737.757C242.292 737.839 241.868 737.892 241.472 737.916C241.081 737.939 240.688 737.951 240.293 737.951H239.588V736.883H240.293ZM240.856 737.282H239.588V732.562H240.856V737.282ZM251.035 733.654H243.568V732.633H251.035V733.654ZM247.302 734.147C247.834 734.147 248.309 734.231 248.728 734.4C249.147 734.568 249.472 734.812 249.702 735.133C249.937 735.45 250.057 735.818 250.06 736.237C250.057 736.656 249.937 737.022 249.702 737.335C249.472 737.652 249.147 737.894 248.728 738.062C248.313 738.231 247.838 738.315 247.302 738.315C246.758 738.315 246.278 738.231 245.863 738.062C245.452 737.894 245.13 737.652 244.895 737.335C244.664 737.022 244.55 736.656 244.554 736.237C244.55 735.818 244.664 735.45 244.895 735.133C245.13 734.812 245.454 734.568 245.869 734.4C246.284 734.231 246.761 734.147 247.302 734.147ZM247.302 735.086C246.996 735.09 246.724 735.141 246.486 735.239C246.247 735.333 246.059 735.468 245.922 735.644C245.785 735.816 245.717 736.014 245.717 736.237C245.717 736.464 245.785 736.663 245.922 736.836C246.059 737.008 246.245 737.141 246.48 737.235C246.718 737.329 246.992 737.376 247.302 737.376C247.607 737.376 247.879 737.329 248.117 737.235C248.356 737.141 248.542 737.008 248.675 736.836C248.808 736.663 248.875 736.464 248.875 736.237C248.875 736.014 248.808 735.816 248.675 735.644C248.542 735.468 248.356 735.333 248.117 735.239C247.879 735.141 247.607 735.09 247.302 735.086ZM247.959 733.419H246.679V731.329H247.959V733.419ZM255.305 734.171H262.678V732.445H263.993V738.151H254.013V732.445H255.305V734.171ZM262.678 737.094V735.204H255.305V737.094H262.678ZM265.754 731.412H252.299V730.32H265.754V731.412ZM259.484 724.45C259.484 725.264 259.207 726.009 258.651 726.686C258.095 727.363 257.361 727.927 256.45 728.377C255.542 728.823 254.577 729.122 253.556 729.275L253.062 728.242C253.955 728.116 254.808 727.87 255.622 727.502C256.436 727.134 257.095 726.684 257.6 726.152C258.105 725.62 258.357 725.052 258.357 724.45V723.757H259.484V724.45ZM259.696 724.45C259.696 725.033 259.952 725.594 260.465 726.134C260.977 726.67 261.639 727.128 262.449 727.508C263.263 727.884 264.106 728.128 264.979 728.242L264.498 729.275C263.476 729.122 262.511 728.821 261.604 728.371C260.7 727.917 259.968 727.351 259.408 726.674C258.852 725.993 258.576 725.252 258.58 724.45V723.757H259.696V724.45ZM278.747 738.35H277.455V723.593H278.747V738.35ZM268.826 734.171H267.546V725.048H268.826V734.171ZM268.744 733.407C269.957 733.407 271.151 733.353 272.325 733.243C273.499 733.134 274.685 732.953 275.882 732.703L276.058 733.818C274.798 734.077 273.573 734.263 272.383 734.376C271.198 734.49 269.984 734.546 268.744 734.546H267.546V733.407H268.744ZM292.291 738.374H290.988V723.593H292.291V738.374ZM294.757 730.519H291.998V729.427H294.757V730.519ZM282.676 733.572C284.12 733.572 285.361 733.535 286.398 733.46C287.439 733.386 288.495 733.251 289.568 733.055L289.732 734.182C288.636 734.378 287.564 734.509 286.515 734.576C285.466 734.642 284.187 734.675 282.676 734.675H281.514V733.572H282.676ZM288.405 726.105H282.817V734.077H281.514V725.037H288.405V726.105Z" fill="#05944F"/>
        <rect x="75.5" y="96.5" width="69" height="69" fill="white" stroke="#D3D6DA"/>
        <path d="M75.5 165.5H98.5V188.5H75.5V165.5Z" fill="#787C7E" stroke="#D3D6DA"/>
        <path d="M98.5 165.5H121.5V188.5H98.5V165.5Z" fill="#787C7E" stroke="#D3D6DA"/>
        <rect x="121.5" y="165.5" width="23" height="23" fill="#BC8B2C" stroke="#D3D6DA"/>
        <rect x="153.5" y="96.5" width="69" height="69" fill="white" stroke="#D3D6DA"/>
        <rect x="153.5" y="165.5" width="23" height="23" fill="#787C7E" stroke="#D3D6DA"/>
        <rect x="176.5" y="165.5" width="23" height="23" fill="#787C7E" stroke="#D3D6DA"/>
        <rect x="199.5" y="165.5" width="23" height="23" fill="white" stroke="#D3D6DA"/>
        <rect x="231.5" y="96.5" width="69" height="69" fill="white" stroke="#D3D6DA"/>
        <rect x="231.5" y="165.5" width="23" height="23" fill="#787C7E" stroke="#D3D6DA"/>
        <rect x="254.5" y="165.5" width="23" height="23" fill="#787C7E" stroke="#D3D6DA"/>
        <rect x="277.5" y="165.5" width="23" height="23" fill="#787C7E" stroke="#D3D6DA"/>
        <rect x="75.5" y="261.5" width="69" height="69" fill="white" stroke="#D3D6DA"/>
        <rect x="75.5" y="329.5" width="23" height="23" fill="#05944F" stroke="#D3D6DA"/>
        <rect x="98.5" y="329.5" width="23" height="23" fill="#05944F" stroke="#D3D6DA"/>
        <rect x="121.5" y="329.5" width="23" height="23" fill="white" stroke="#D3D6DA"/>
        <rect x="153.5" y="261.5" width="69" height="69" fill="white" stroke="#D3D6DA"/>
        <rect x="153.5" y="329.5" width="23" height="23" fill="#787C7E" stroke="#D3D6DA"/>
        <rect x="176.5" y="329.5" width="23" height="23" fill="#BC8B2C" stroke="#D3D6DA"/>
        <path d="M199.5 329.5H222.5V352.5H199.5V329.5Z" fill="#05944F" stroke="#D3D6DA"/>
        <rect x="231.5" y="261.5" width="69" height="69" fill="white" stroke="#D3D6DA"/>
        <rect x="231.5" y="329.5" width="23" height="23" fill="#05944F" stroke="#D3D6DA"/>
        <rect x="254.5" y="329.5" width="23" height="23" fill="#BC8B2C" stroke="#D3D6DA"/>
        <path d="M277.5 329.5H300.5V352.5H277.5V329.5Z" fill="#BC8B2C" stroke="#D3D6DA"/>
        <path d="M143 210C143 207.239 145.239 205 148 205H226C228.761 205 231 207.239 231 210V240C231 242.761 228.761 245 226 245H148C145.239 245 143 242.761 143 240V210Z" fill="#080B14"/>
        <path d="M168.439 223.304H165.698V221.68H168.439V223.304ZM169.908 226.663H167.919V218.21H169.908V226.663ZM165.046 226.978C166.056 226.978 166.929 227.087 167.665 227.304C168.402 227.521 168.965 227.836 169.356 228.249C169.75 228.657 169.947 229.147 169.947 229.718C169.947 230.289 169.75 230.779 169.356 231.188C168.965 231.597 168.402 231.91 167.665 232.127C166.929 232.348 166.056 232.459 165.046 232.459C164.037 232.459 163.166 232.348 162.433 232.127C161.704 231.91 161.142 231.597 160.748 231.188C160.354 230.779 160.159 230.289 160.162 229.718C160.159 229.147 160.354 228.657 160.748 228.249C161.142 227.836 161.706 227.521 162.439 227.304C163.172 227.087 164.041 226.978 165.046 226.978ZM165.046 228.492C164.413 228.492 163.881 228.538 163.45 228.63C163.019 228.718 162.693 228.855 162.472 229.039C162.255 229.219 162.146 229.446 162.146 229.718C162.146 229.987 162.255 230.212 162.472 230.392C162.693 230.573 163.019 230.709 163.45 230.801C163.881 230.89 164.413 230.934 165.046 230.934C165.68 230.934 166.212 230.89 166.643 230.801C167.078 230.709 167.406 230.573 167.627 230.392C167.851 230.212 167.965 229.987 167.969 229.718C167.965 229.446 167.851 229.219 167.627 229.039C167.406 228.855 167.078 228.718 166.643 228.63C166.212 228.538 165.68 228.492 165.046 228.492ZM162.881 220.575C162.881 221.499 162.731 222.365 162.433 223.171C162.138 223.978 161.689 224.687 161.085 225.298C160.485 225.91 159.744 226.366 158.864 226.669L157.831 225.088C158.59 224.838 159.227 224.475 159.743 224C160.258 223.525 160.639 222.994 160.886 222.409C161.133 221.82 161.258 221.208 161.262 220.575V219.641H162.881V220.575ZM163.29 220.558C163.29 221.144 163.407 221.707 163.643 222.249C163.883 222.79 164.247 223.28 164.737 223.718C165.227 224.153 165.835 224.49 166.56 224.729L165.577 226.298C164.719 226.018 163.997 225.589 163.411 225.011C162.825 224.433 162.387 223.762 162.096 223C161.809 222.238 161.665 221.424 161.665 220.558V219.641H163.29V220.558ZM166.124 220.68H158.411V219.077H166.124V220.68ZM183.035 225.829H181.035V218.21H183.035V225.829ZM184.946 222.928H182.471V221.293H184.946V222.928ZM173.493 223.89C174.613 223.886 175.525 223.873 176.228 223.851C176.935 223.829 177.576 223.786 178.151 223.724C178.725 223.661 179.298 223.567 179.869 223.442L180.079 225.044C179.49 225.169 178.893 225.265 178.289 225.331C177.685 225.394 177.016 225.436 176.283 225.459C175.55 225.481 174.62 225.494 173.493 225.497H172.305V223.89H173.493ZM178.648 220.663H174.289V224.956H172.305V219.072H178.648V220.663ZM175.681 227.834H181.035V226.508H183.035V232.265H173.692V226.508H175.681V227.834ZM181.035 230.674V229.398H175.681V230.674H181.035ZM194.556 226.757H192.567V224.729H194.556V226.757ZM200.633 227.895H198.639V218.232H200.633V227.895ZM202.456 223.934H199.926V222.298H202.456V223.934ZM189.108 226.072C190.184 226.072 191.197 226.063 192.147 226.044C193.097 226.026 194.081 225.989 195.097 225.934C196.118 225.875 197.077 225.79 197.976 225.68L198.119 227.05C197.191 227.212 196.221 227.333 195.208 227.414C194.195 227.495 193.234 227.549 192.324 227.575C191.418 227.597 190.414 227.61 189.313 227.613L189.108 226.072ZM200.633 232.442H198.639V230H190.915V228.459H200.633V232.442ZM197.617 220.718H189.484V219.271H197.617V220.718ZM193.545 221.044C194.237 221.044 194.847 221.131 195.374 221.304C195.9 221.473 196.307 221.718 196.595 222.039C196.882 222.355 197.026 222.731 197.026 223.166C197.026 223.6 196.882 223.978 196.595 224.298C196.307 224.619 195.9 224.866 195.374 225.039C194.847 225.208 194.237 225.293 193.545 225.293C192.849 225.293 192.237 225.206 191.711 225.033C191.184 224.86 190.775 224.613 190.484 224.293C190.197 223.972 190.055 223.597 190.059 223.166C190.055 222.735 190.197 222.359 190.484 222.039C190.775 221.718 191.184 221.473 191.711 221.304C192.237 221.131 192.849 221.044 193.545 221.044ZM193.545 222.37C193.199 222.37 192.908 222.4 192.672 222.459C192.44 222.514 192.263 222.6 192.142 222.718C192.024 222.836 191.965 222.985 191.965 223.166C191.965 223.339 192.026 223.486 192.147 223.608C192.272 223.729 192.453 223.823 192.689 223.89C192.924 223.956 193.21 223.987 193.545 223.983C193.876 223.987 194.16 223.956 194.396 223.89C194.631 223.823 194.81 223.729 194.932 223.608C195.057 223.486 195.119 223.339 195.119 223.166C195.119 222.985 195.059 222.836 194.937 222.718C194.816 222.6 194.637 222.514 194.401 222.459C194.169 222.4 193.884 222.37 193.545 222.37ZM194.556 219.95H192.567V218.11H194.556V219.95ZM214.997 228.453H212.997V218.232H214.997V228.453ZM215.373 232.193H205.467V230.586H215.373V232.193ZM207.483 231.249H205.467V227.42H207.483V231.249ZM207.202 219.133C207.924 219.133 208.581 219.285 209.174 219.591C209.771 219.897 210.239 220.324 210.577 220.873C210.916 221.422 211.086 222.037 211.086 222.718C211.086 223.411 210.916 224.031 210.577 224.58C210.239 225.129 209.771 225.558 209.174 225.867C208.581 226.173 207.924 226.326 207.202 226.326C206.48 226.326 205.82 226.173 205.224 225.867C204.631 225.558 204.163 225.129 203.82 224.58C203.482 224.031 203.312 223.411 203.312 222.718C203.312 222.037 203.482 221.424 203.82 220.878C204.163 220.33 204.631 219.902 205.224 219.597C205.82 219.287 206.48 219.133 207.202 219.133ZM207.202 220.867C206.83 220.867 206.496 220.943 206.202 221.094C205.907 221.241 205.675 221.455 205.506 221.735C205.34 222.015 205.259 222.343 205.262 222.718C205.259 223.105 205.34 223.44 205.506 223.724C205.675 224.004 205.905 224.219 206.196 224.37C206.491 224.517 206.826 224.591 207.202 224.591C207.566 224.591 207.892 224.517 208.18 224.37C208.471 224.219 208.699 224.004 208.865 223.724C209.034 223.44 209.119 223.105 209.119 222.718C209.119 222.343 209.034 222.015 208.865 221.735C208.699 221.455 208.471 221.241 208.18 221.094C207.889 220.943 207.563 220.867 207.202 220.867Z" fill="white"/>
        <path d="M145 375C145 372.239 147.239 370 150 370H228C230.761 370 233 372.239 233 375V405C233 407.761 230.761 410 228 410H150C147.239 410 145 407.761 145 405V375Z" fill="#080B14"/>
        <path d="M170.439 388.304H167.699V386.68H170.439V388.304ZM171.909 391.663H169.92V383.21H171.909V391.663ZM167.047 391.978C168.056 391.978 168.929 392.087 169.666 392.304C170.402 392.521 170.966 392.836 171.356 393.249C171.75 393.657 171.948 394.147 171.948 394.718C171.948 395.289 171.75 395.779 171.356 396.188C170.966 396.597 170.402 396.91 169.666 397.127C168.929 397.348 168.056 397.459 167.047 397.459C166.038 397.459 165.167 397.348 164.434 397.127C163.704 396.91 163.143 396.597 162.749 396.188C162.355 395.779 162.159 395.289 162.163 394.718C162.159 394.147 162.355 393.657 162.749 393.249C163.143 392.836 163.706 392.521 164.439 392.304C165.172 392.087 166.041 391.978 167.047 391.978ZM167.047 393.492C166.413 393.492 165.881 393.538 165.45 393.63C165.019 393.718 164.693 393.855 164.472 394.039C164.255 394.219 164.146 394.446 164.146 394.718C164.146 394.987 164.255 395.212 164.472 395.392C164.693 395.573 165.019 395.709 165.45 395.801C165.881 395.89 166.413 395.934 167.047 395.934C167.68 395.934 168.213 395.89 168.644 395.801C169.078 395.709 169.406 395.573 169.627 395.392C169.852 395.212 169.966 394.987 169.97 394.718C169.966 394.446 169.852 394.219 169.627 394.039C169.406 393.855 169.078 393.718 168.644 393.63C168.213 393.538 167.68 393.492 167.047 393.492ZM164.881 385.575C164.881 386.499 164.732 387.365 164.434 388.171C164.139 388.978 163.69 389.687 163.086 390.298C162.485 390.91 161.745 391.366 160.865 391.669L159.831 390.088C160.59 389.838 161.227 389.475 161.743 389C162.259 388.525 162.64 387.994 162.887 387.409C163.134 386.82 163.259 386.208 163.262 385.575V384.641H164.881V385.575ZM165.29 385.558C165.29 386.144 165.408 386.707 165.644 387.249C165.883 387.79 166.248 388.28 166.738 388.718C167.227 389.153 167.835 389.49 168.561 389.729L167.577 391.298C166.719 391.018 165.997 390.589 165.412 390.011C164.826 389.433 164.388 388.762 164.097 388C163.809 387.238 163.666 386.424 163.666 385.558V384.641H165.29V385.558ZM168.124 385.68H160.412V384.077H168.124V385.68ZM185.035 390.829H183.035V383.21H185.035V390.829ZM186.947 387.928H184.472V386.293H186.947V387.928ZM175.494 388.89C176.614 388.886 177.525 388.873 178.229 388.851C178.936 388.829 179.577 388.786 180.151 388.724C180.726 388.661 181.299 388.567 181.87 388.442L182.08 390.044C181.49 390.169 180.894 390.265 180.289 390.331C179.685 390.394 179.017 390.436 178.284 390.459C177.551 390.481 176.621 390.494 175.494 390.497H174.306V388.89H175.494ZM180.649 385.663H176.289V389.956H174.306V384.072H180.649V385.663ZM177.682 392.834H183.035V391.508H185.035V397.265H175.693V391.508H177.682V392.834ZM183.035 395.674V394.398H177.682V395.674H183.035ZM196.556 391.757H194.568V389.729H196.556V391.757ZM202.634 392.895H200.639V383.232H202.634V392.895ZM204.457 388.934H201.927V387.298H204.457V388.934ZM191.109 391.072C192.184 391.072 193.197 391.063 194.148 391.044C195.098 391.026 196.081 390.989 197.098 390.934C198.118 390.875 199.078 390.79 199.976 390.68L200.12 392.05C199.192 392.212 198.221 392.333 197.208 392.414C196.196 392.495 195.234 392.549 194.324 392.575C193.418 392.597 192.415 392.61 191.313 392.613L191.109 391.072ZM202.634 397.442H200.639V395H192.916V393.459H202.634V397.442ZM199.617 385.718H191.485V384.271H199.617V385.718ZM195.545 386.044C196.238 386.044 196.847 386.131 197.374 386.304C197.901 386.473 198.308 386.718 198.595 387.039C198.882 387.355 199.026 387.731 199.026 388.166C199.026 388.6 198.882 388.978 198.595 389.298C198.308 389.619 197.901 389.866 197.374 390.039C196.847 390.208 196.238 390.293 195.545 390.293C194.849 390.293 194.238 390.206 193.711 390.033C193.184 389.86 192.776 389.613 192.485 389.293C192.197 388.972 192.056 388.597 192.059 388.166C192.056 387.735 192.197 387.359 192.485 387.039C192.776 386.718 193.184 386.473 193.711 386.304C194.238 386.131 194.849 386.044 195.545 386.044ZM195.545 387.37C195.199 387.37 194.908 387.4 194.672 387.459C194.44 387.514 194.264 387.6 194.142 387.718C194.024 387.836 193.965 387.985 193.965 388.166C193.965 388.339 194.026 388.486 194.148 388.608C194.273 388.729 194.453 388.823 194.689 388.89C194.925 388.956 195.21 388.987 195.545 388.983C195.877 388.987 196.161 388.956 196.396 388.89C196.632 388.823 196.811 388.729 196.932 388.608C197.057 388.486 197.12 388.339 197.12 388.166C197.12 387.985 197.059 387.836 196.938 387.718C196.816 387.6 196.637 387.514 196.402 387.459C196.17 387.4 195.884 387.37 195.545 387.37ZM196.556 384.95H194.568V383.11H196.556V384.95ZM216.998 393.453H214.998V383.232H216.998V393.453ZM217.374 397.193H207.467V395.586H217.374V397.193ZM209.484 396.249H207.467V392.42H209.484V396.249ZM209.202 384.133C209.924 384.133 210.582 384.285 211.175 384.591C211.771 384.897 212.239 385.324 212.578 385.873C212.917 386.422 213.086 387.037 213.086 387.718C213.086 388.411 212.917 389.031 212.578 389.58C212.239 390.129 211.771 390.558 211.175 390.867C210.582 391.173 209.924 391.326 209.202 391.326C208.48 391.326 207.821 391.173 207.224 390.867C206.631 390.558 206.164 390.129 205.821 389.58C205.482 389.031 205.313 388.411 205.313 387.718C205.313 387.037 205.482 386.424 205.821 385.878C206.164 385.33 206.631 384.902 207.224 384.597C207.821 384.287 208.48 384.133 209.202 384.133ZM209.202 385.867C208.83 385.867 208.497 385.943 208.202 386.094C207.908 386.241 207.676 386.455 207.506 386.735C207.34 387.015 207.259 387.343 207.263 387.718C207.259 388.105 207.34 388.44 207.506 388.724C207.676 389.004 207.906 389.219 208.197 389.37C208.491 389.517 208.827 389.591 209.202 389.591C209.567 389.591 209.893 389.517 210.18 389.37C210.471 389.219 210.699 389.004 210.865 388.724C211.035 388.44 211.119 388.105 211.119 387.718C211.119 387.343 211.035 387.015 210.865 386.735C210.699 386.455 210.471 386.241 210.18 386.094C209.889 385.943 209.563 385.867 209.202 385.867Z" fill="white"/>
        <path d="M103.174 111.191C103.174 114.506 102.581 117.572 101.393 120.39C100.219 123.193 98.5129 125.631 96.2753 127.703C94.0515 129.761 91.4065 131.315 88.3402 132.365L85.5847 127.931C88.2781 127.033 90.6123 125.749 92.5875 124.077C94.5626 122.406 96.0681 120.472 97.104 118.276C98.1399 116.066 98.6648 113.704 98.6786 111.191V107.296H103.174V111.191ZM104.19 111.17C104.176 113.463 104.68 115.631 105.702 117.675C106.738 119.706 108.209 121.494 110.115 123.041C112.035 124.575 114.293 125.735 116.89 126.522L113.989 130.831C111.034 129.865 108.478 128.421 106.324 126.501C104.169 124.581 102.518 122.316 101.372 119.706C100.239 117.081 99.68 114.236 99.6938 111.17V107.296H104.19V111.17ZM127.27 132.779H121.697V105.472H127.27V132.779ZM134.873 121.156H124.846V116.536H134.873V121.156ZM127.27 148.028H98.9065V155.528H93.4369V143.925H121.738V139.409H93.3126V135.017H127.27V148.028ZM129.052 157.475H93.4369V153H129.052V157.475Z" fill="#080B14"/>
        <path d="M203.011 113.304H169.842V108.787H203.011V113.304ZM211.879 135.804H164.02V131.267H211.879V135.804ZM190.581 158.055H185.007V134.312H190.581V158.055ZM205.788 113.698C205.774 116.101 205.732 118.228 205.663 120.079C205.594 121.916 205.408 124.022 205.104 126.398C204.814 128.76 204.365 131.308 203.757 134.043L198.205 133.359C198.84 130.735 199.303 128.269 199.593 125.963C199.897 123.642 200.083 121.591 200.152 119.809C200.221 118.014 200.256 115.942 200.256 113.594V113.407V108.787H205.788V113.407V113.698Z" fill="#080B14"/>
        <path d="M281.529 111.957H266.447V107.42H281.529V111.957ZM289.817 132.075H242.082V127.579H289.817V132.075ZM269.699 130.459H264.209V118.981H269.699V130.459ZM284.658 109.782C284.658 111.315 284.637 112.751 284.596 114.091C284.554 115.431 284.416 117.026 284.181 118.877C283.947 120.714 283.594 122.648 283.125 124.678L277.738 124.015C278.166 122.012 278.491 120.162 278.712 118.463C278.933 116.764 279.071 115.307 279.126 114.091C279.195 112.876 279.237 111.55 279.25 110.113V109.782V107.42H284.658V109.782ZM259.651 111.957H246.101V107.42H259.651V111.957ZM262.261 109.906C262.234 111.425 262.172 112.855 262.075 114.195C261.992 115.521 261.764 117.102 261.391 118.939C261.018 120.776 260.445 122.696 259.672 124.699L254.285 123.829C255.058 121.715 255.625 119.782 255.984 118.028C256.357 116.273 256.585 114.796 256.668 113.594C256.75 112.378 256.792 111.059 256.792 109.637V107.42H262.261V109.637V109.906ZM267.814 142.227C267.814 144.823 266.951 147.206 265.224 149.374C263.511 151.543 261.143 153.345 258.118 154.782C255.107 156.232 251.73 157.206 247.987 157.703L246.06 153.497C249.209 153.124 252.082 152.378 254.679 151.26C257.275 150.127 259.326 148.773 260.832 147.199C262.337 145.624 263.097 143.967 263.111 142.227V141.46H267.814V142.227ZM268.684 142.227C268.684 143.967 269.43 145.624 270.922 147.199C272.427 148.773 274.485 150.127 277.096 151.26C279.706 152.378 282.614 153.124 285.818 153.497L283.871 157.703C280.1 157.206 276.709 156.239 273.698 154.802C270.687 153.38 268.311 151.584 266.571 149.416C264.844 147.247 263.981 144.851 263.981 142.227V141.46H268.684V142.227ZM283.643 143.242H248.132V138.912H283.643V143.242ZM268.684 140.507H263.111V133.836H268.684V140.507Z" fill="#080B14"/>
        <path d="M91.5101 305.61C95.9162 305.61 99.5004 305.535 102.263 305.383C105.025 305.217 107.822 304.885 110.654 304.388L111.151 308.988C108.209 309.512 105.308 309.865 102.449 310.044C99.604 310.224 95.9576 310.314 91.5101 310.314H88.0294V305.61H91.5101ZM109.017 280.811H93.3333V307.434H88.0294V276.336H109.017V280.811ZM108.147 294.568H91.738V290.155H108.147V294.568ZM131.165 322.972H125.82V270.472H131.165V322.972ZM127.746 295.852H117.947V291.315H127.746V295.852ZM119.521 320.383H114.197V271.488H119.521V320.383Z" fill="#080B14"/>
        <path d="M205.29 284.084H194.165V279.609H205.29V284.084ZM205.29 293.656H194.165V289.14H205.29V293.656ZM193.398 278.801H165.511V274.264H193.398V278.801ZM164.082 295.396C169.897 295.383 175.373 295.293 180.511 295.127C185.65 294.948 190.422 294.588 194.828 294.05L195.076 298.235C190.574 298.953 185.774 299.43 180.677 299.664C175.594 299.899 170.284 300.017 164.745 300.017L164.082 295.396ZM175.85 296.93H170.442V277.931H175.85V296.93ZM188.405 296.93H183.06V277.931H188.405V296.93ZM207.777 302.772H202.224V270.472H207.777V302.772ZM190.187 303.767C193.861 303.767 197.031 304.14 199.697 304.885C202.376 305.631 204.42 306.722 205.829 308.159C207.238 309.595 207.942 311.329 207.942 313.359C207.942 315.348 207.231 317.061 205.808 318.497C204.4 319.934 202.362 321.025 199.697 321.771C197.031 322.517 193.861 322.89 190.187 322.89C186.513 322.89 183.336 322.517 180.657 321.771C177.991 321.025 175.953 319.934 174.545 318.497C173.136 317.061 172.438 315.348 172.452 313.359C172.438 311.329 173.136 309.595 174.545 308.159C175.953 306.722 177.991 305.631 180.657 304.885C183.322 304.14 186.499 303.767 190.187 303.767ZM190.187 308.076C187.604 308.076 185.394 308.283 183.557 308.698C181.734 309.098 180.339 309.699 179.372 310.5C178.419 311.287 177.949 312.24 177.963 313.359C177.949 314.45 178.419 315.39 179.372 316.177C180.339 316.95 181.734 317.544 183.557 317.959C185.394 318.359 187.604 318.559 190.187 318.559C192.742 318.559 194.931 318.359 196.755 317.959C198.592 317.544 199.994 316.95 200.96 316.177C201.927 315.39 202.418 314.45 202.431 313.359C202.418 312.24 201.927 311.287 200.96 310.5C199.994 309.699 198.592 309.098 196.755 308.698C194.931 308.283 192.742 308.076 190.187 308.076Z" fill="#080B14"/>
        <path d="M290.708 282.51H281.592V277.931H290.708V282.51ZM290.708 293.822H281.592V289.16H290.708V293.822ZM256.792 273.539C259.43 273.539 261.813 274.064 263.94 275.113C266.067 276.163 267.731 277.634 268.933 279.526C270.134 281.419 270.742 283.573 270.756 285.99C270.742 288.407 270.134 290.562 268.933 292.454C267.731 294.333 266.067 295.804 263.94 296.867C261.813 297.931 259.43 298.47 256.792 298.483C254.126 298.47 251.73 297.931 249.603 296.867C247.476 295.804 245.804 294.333 244.589 292.454C243.387 290.562 242.793 288.407 242.807 285.99C242.793 283.587 243.387 281.439 244.589 279.547C245.804 277.641 247.476 276.163 249.603 275.113C251.73 274.064 254.126 273.539 256.792 273.539ZM256.792 278.242C255.148 278.228 253.677 278.552 252.379 279.215C251.094 279.865 250.079 280.783 249.333 281.971C248.601 283.145 248.242 284.485 248.256 285.99C248.242 287.523 248.601 288.877 249.333 290.051C250.079 291.225 251.094 292.137 252.379 292.786C253.677 293.435 255.148 293.767 256.792 293.78C258.422 293.767 259.879 293.435 261.163 292.786C262.462 292.137 263.477 291.225 264.209 290.051C264.955 288.877 265.335 287.523 265.349 285.99C265.335 284.485 264.955 283.145 264.209 281.971C263.477 280.783 262.462 279.865 261.163 279.215C259.865 278.552 258.408 278.228 256.792 278.242ZM283.27 301.467H277.697V270.472H283.27V301.467ZM266.302 302.876C269.879 302.89 272.973 303.29 275.583 304.077C278.208 304.865 280.224 306.018 281.633 307.537C283.042 309.043 283.746 310.838 283.746 312.924C283.746 314.996 283.042 316.778 281.633 318.269C280.224 319.761 278.208 320.901 275.583 321.688C272.959 322.489 269.865 322.89 266.302 322.89C262.71 322.89 259.589 322.489 256.937 321.688C254.299 320.901 252.261 319.761 250.825 318.269C249.402 316.778 248.691 314.996 248.691 312.924C248.691 310.852 249.402 309.057 250.825 307.537C252.261 306.018 254.299 304.865 256.937 304.077C259.575 303.29 262.697 302.89 266.302 302.876ZM266.302 307.372C263.788 307.372 261.626 307.586 259.817 308.014C258.007 308.442 256.626 309.077 255.673 309.92C254.72 310.749 254.25 311.75 254.264 312.924C254.25 314.098 254.72 315.099 255.673 315.928C256.626 316.743 258 317.365 259.796 317.793C261.605 318.221 263.774 318.435 266.302 318.435C268.829 318.435 270.991 318.221 272.786 317.793C274.582 317.365 275.949 316.743 276.889 315.928C277.828 315.099 278.297 314.098 278.297 312.924C278.297 311.75 277.828 310.749 276.889 309.92C275.949 309.077 274.575 308.442 272.766 308.014C270.97 307.586 268.815 307.372 266.302 307.372Z" fill="#080B14"/>
        <path d="M264.818 91.7791L258.454 85.4152L261.284 82.5852L264.818 86.1291L274.716 76.2212L277.546 79.0512L264.818 91.7791Z" fill="#080B14"/>
        <path d="M264.818 256.779L258.454 250.415L261.284 247.585L264.818 251.129L274.716 241.221L277.546 244.051L264.818 256.779Z" fill="#080B14"/>
    </g>
    <defs>
        <filter id="filter0_d_239_5771" x="-16" y="450" width="407" height="374" filterUnits="userSpaceOnUse" color-interpolation-filters="sRGB">
            <feFlood flood-opacity="0" result="BackgroundImageFix"/>
            <feColorMatrix in="SourceAlpha" type="matrix" values="0 0 0 0 0 0 0 0 0 0 0 0 0 0 0 0 0 0 127 0" result="hardAlpha"/>
            <feOffset dy="-4"/>
            <feGaussianBlur stdDeviation="8"/>
            <feColorMatrix type="matrix" values="0 0 0 0 0 0 0 0 0 0 0 0 0 0 0 0 0 0 0.12 0"/>
            <feBlend mode="normal" in2="BackgroundImageFix" result="effect1_dropShadow_239_5771"/>
            <feBlend mode="normal" in="SourceGraphic" in2="effect1_dropShadow_239_5771" result="shape"/>
        </filter>
        <clipPath id="clip0_239_5771">
            <rect width="375" height="812" fill="white"/>
        </clipPath>
    </defs>
</svg>
