<svg width="375" height="812" viewBox="0 0 375 812" fill="none" xmlns="http://www.w3.org/2000/svg">
    <g clip-path="url(#clip0_243_4292)">
        <rect width="375" height="812" fill="white"/>
        <g filter="url(#filter0_d_243_4292)">
            <path d="M0 486C0 477.163 7.16344 470 16 470H359C367.837 470 375 477.163 375 486V796C375 804.837 367.837 812 359 812H16C7.16345 812 0 804.837 0 796V486Z" fill="white"/>
            <path d="M16 473H359V467H16V473ZM372 486V796H378V486H372ZM359 809H16V815H359V809ZM3 796V486H-3V796H3ZM16 809C8.8203 809 3 803.18 3 796H-3C-3 806.493 5.50659 815 16 815V809ZM372 796C372 803.18 366.18 809 359 809V815C369.493 815 378 806.493 378 796H372ZM359 473C366.18 473 372 478.82 372 486H378C378 475.507 369.493 467 359 467V473ZM16 467C5.50659 467 -3 475.507 -3 486H3C3 478.82 8.8203 473 16 473V467Z" fill="#666666"/>
        </g>
        <path d="M52.8155 630.35H51.5123V615.593H52.8155V630.35ZM48.4481 617.201C48.4442 618.657 48.2016 620.023 47.7202 621.298C47.2428 622.574 46.4894 623.746 45.4602 624.815C44.4349 625.883 43.118 626.805 41.5096 627.579L40.8052 626.511C42.2257 625.838 43.4056 625.044 44.3449 624.128C45.288 623.212 45.9905 622.193 46.4523 621.069C46.918 619.942 47.1528 618.719 47.1567 617.401V617.201H48.4481ZM47.6967 618.258H41.4861V617.201H47.6967V618.258ZM68.3913 624.797H54.8782V623.717H68.3913V624.797ZM66.6538 619.537H57.9307V621.545H56.6393V618.551H65.3506V617.025H56.5923V615.968H66.6538V619.537ZM66.9708 622.155H56.6393V621.11H66.9708V622.155ZM62.2746 624.245H60.9949V621.639H62.2746V624.245ZM66.7359 630.209H65.421V626.992H56.3927V625.924H66.7359V630.209ZM73.9996 618.774C73.9957 619.619 73.8196 620.408 73.4713 621.14C73.1269 621.872 72.6416 622.508 72.0155 623.048C71.3933 623.584 70.6771 623.991 69.867 624.269L69.2096 623.235C69.9375 623.009 70.5832 622.672 71.1467 622.226C71.7102 621.78 72.1486 621.259 72.4616 620.664C72.7747 620.066 72.9312 619.436 72.9312 618.774V618.152H73.9996V618.774ZM74.2227 618.774C74.2227 619.369 74.3753 619.936 74.6806 620.477C74.9858 621.017 75.4143 621.494 75.9661 621.909C76.5218 622.32 77.1617 622.633 77.8857 622.848L77.2634 623.881C76.4494 623.631 75.7333 623.253 75.1149 622.748C74.4966 622.243 74.0153 621.651 73.6709 620.97C73.3265 620.285 73.1543 619.553 73.1543 618.774V618.152H74.2227V618.774ZM77.5452 618.469H69.597V617.401H77.5452V618.469ZM74.2462 617.765H72.9312V615.522H74.2462V617.765ZM80.7268 624.644H79.4236V615.593H80.7268V624.644ZM82.9457 620.512H80.3629V619.432H82.9457V620.512ZM75.9955 625.008C77.0051 625.008 77.8759 625.112 78.6077 625.319C79.3395 625.527 79.8972 625.83 80.2807 626.229C80.6642 626.625 80.856 627.102 80.856 627.662C80.856 628.217 80.6623 628.693 80.2748 629.088C79.8874 629.483 79.3297 629.785 78.6018 629.992C77.8739 630.199 77.0051 630.303 75.9955 630.303C74.9819 630.303 74.1072 630.199 73.3715 629.992C72.6397 629.785 72.0781 629.483 71.6868 629.088C71.2954 628.693 71.0998 628.217 71.0998 627.662C71.0998 627.102 71.2954 626.625 71.6868 626.229C72.0781 625.83 72.6397 625.527 73.3715 625.319C74.1072 625.112 74.9819 625.008 75.9955 625.008ZM75.9955 626.041C75.248 626.041 74.6042 626.104 74.0642 626.229C73.528 626.355 73.1152 626.54 72.8256 626.787C72.5399 627.03 72.399 627.321 72.4029 627.662C72.399 627.998 72.5399 628.288 72.8256 628.53C73.1152 628.773 73.53 628.959 74.0701 629.088C74.6101 629.217 75.2519 629.282 75.9955 629.282C76.7351 629.282 77.375 629.217 77.915 629.088C78.459 628.959 78.8738 628.773 79.1595 628.53C79.4452 628.288 79.588 627.998 79.588 627.662C79.588 627.321 79.4452 627.03 79.1595 626.787C78.8738 626.54 78.4609 626.355 77.9209 626.229C77.3808 626.104 76.739 626.041 75.9955 626.041ZM90.1859 615.851C91.2817 615.851 92.219 615.949 92.9977 616.144C93.7765 616.34 94.3714 616.63 94.7823 617.013C95.1932 617.393 95.3986 617.855 95.3986 618.398C95.3986 618.95 95.1932 619.418 94.7823 619.801C94.3714 620.181 93.7765 620.473 92.9977 620.676C92.219 620.876 91.2817 620.977 90.1859 620.981C89.0902 620.977 88.1529 620.876 87.3741 620.676C86.5953 620.473 85.9985 620.181 85.5837 619.801C85.1689 619.418 84.9615 618.95 84.9615 618.398C84.9615 617.855 85.1689 617.393 85.5837 617.013C85.9985 616.63 86.5953 616.34 87.3741 616.144C88.1529 615.949 89.0902 615.851 90.1859 615.851ZM90.1859 616.837C89.3798 616.837 88.6871 616.9 88.1079 617.025C87.5287 617.15 87.0845 617.33 86.7754 617.565C86.4701 617.796 86.3194 618.074 86.3234 618.398C86.3194 618.735 86.4682 619.021 86.7695 619.256C87.0747 619.49 87.517 619.67 88.0962 619.796C88.6753 619.921 89.3719 619.983 90.1859 619.983C91.0038 619.983 91.7024 619.921 92.2816 619.796C92.8647 619.67 93.3089 619.49 93.6141 619.256C93.9194 619.021 94.072 618.735 94.072 618.398C94.072 618.074 93.9194 617.796 93.6141 617.565C93.3089 617.33 92.8627 617.15 92.2757 617.025C91.6926 616.9 90.996 616.837 90.1859 616.837ZM96.9249 623.036H83.4705V621.979H96.9249V623.036ZM95.1873 627.615H86.4173V629.423H85.1376V626.652H93.9076V625.314H85.1024V624.316H95.1873V627.615ZM95.6334 630.186H85.1376V629.153H95.6334V630.186ZM115.068 624.48H101.59V623.423H115.068V624.48ZM108.975 623.869H107.671V621.474H108.975V623.869ZM113.471 621.956H103.386V620.923H113.471V621.956ZM113.389 617.072H104.701V621.463H103.386V616.015H113.389V617.072ZM112.99 619.455H104.302V618.457H112.99V619.455ZM108.329 625.595C109.405 625.591 110.323 625.679 111.082 625.859C111.845 626.036 112.422 626.302 112.814 626.658C113.209 627.014 113.409 627.446 113.412 627.955C113.409 628.468 113.209 628.9 112.814 629.252C112.422 629.609 111.847 629.875 111.088 630.051C110.329 630.227 109.409 630.315 108.329 630.315C107.241 630.315 106.317 630.227 105.558 630.051C104.799 629.875 104.222 629.609 103.826 629.252C103.431 628.9 103.234 628.468 103.234 627.955C103.234 627.446 103.431 627.014 103.826 626.658C104.222 626.302 104.799 626.036 105.558 625.859C106.321 625.679 107.245 625.591 108.329 625.595ZM108.329 626.581C107.523 626.581 106.836 626.634 106.268 626.74C105.701 626.846 105.271 627.002 104.977 627.21C104.687 627.413 104.545 627.662 104.549 627.955C104.545 628.253 104.687 628.503 104.977 628.706C105.271 628.91 105.699 629.061 106.263 629.158C106.83 629.26 107.519 629.309 108.329 629.305C109.135 629.309 109.82 629.26 110.383 629.158C110.947 629.061 111.374 628.91 111.663 628.706C111.957 628.503 112.105 628.253 112.109 627.955C112.105 627.662 111.957 627.413 111.663 627.21C111.374 627.002 110.945 626.846 110.378 626.74C109.814 626.634 109.131 626.581 108.329 626.581ZM123.271 619.209H115.863V618.14H123.271V619.209ZM119.573 620.206C120.183 620.206 120.731 620.349 121.216 620.635C121.701 620.921 122.079 621.318 122.349 621.827C122.623 622.331 122.762 622.907 122.766 623.552C122.762 624.206 122.623 624.789 122.349 625.302C122.079 625.811 121.701 626.21 121.216 626.499C120.731 626.789 120.183 626.934 119.573 626.934C118.966 626.934 118.42 626.789 117.935 626.499C117.453 626.21 117.076 625.811 116.802 625.302C116.532 624.789 116.399 624.206 116.403 623.552C116.399 622.907 116.532 622.331 116.802 621.827C117.076 621.318 117.453 620.921 117.935 620.635C118.42 620.349 118.966 620.206 119.573 620.206ZM119.573 621.298C119.185 621.302 118.837 621.402 118.528 621.598C118.222 621.789 117.984 622.058 117.812 622.402C117.639 622.742 117.553 623.126 117.553 623.552C117.553 623.987 117.639 624.374 117.812 624.715C117.984 625.051 118.222 625.317 118.528 625.513C118.837 625.705 119.185 625.799 119.573 625.795C119.96 625.799 120.308 625.705 120.617 625.513C120.931 625.317 121.173 625.049 121.345 624.709C121.518 624.368 121.604 623.983 121.604 623.552C121.604 623.126 121.518 622.742 121.345 622.402C121.173 622.058 120.931 621.789 120.617 621.598C120.308 621.402 119.96 621.302 119.573 621.298ZM128.472 630.35H127.227V615.593H128.472V630.35ZM127.638 622.895H124.809V621.815H127.638V622.895ZM125.267 629.622H124.034V615.945H125.267V629.622ZM120.23 618.798H118.927V616.039H120.23V618.798ZM147.859 622.578H145.124V621.486H147.859V622.578ZM145.464 630.338H144.161V615.593H145.464V630.338ZM135.943 626.171H134.651V617.048H135.943V626.171ZM135.825 625.501C136.999 625.501 138.15 625.451 139.277 625.349C140.408 625.243 141.562 625.067 142.74 624.82L142.905 625.936C141.699 626.174 140.52 626.345 139.365 626.446C138.214 626.544 137.035 626.593 135.825 626.593H134.651V625.501H135.825ZM153.15 616.673C153.918 616.673 154.602 616.817 155.205 617.107C155.808 617.397 156.277 617.806 156.614 618.334C156.954 618.858 157.127 619.459 157.13 620.136C157.127 620.813 156.954 621.414 156.614 621.938C156.277 622.459 155.808 622.866 155.205 623.159C154.602 623.453 153.918 623.599 153.15 623.599C152.383 623.599 151.697 623.453 151.09 623.159C150.483 622.866 150.01 622.457 149.669 621.932C149.333 621.408 149.167 620.809 149.171 620.136C149.167 619.463 149.333 618.862 149.669 618.334C150.01 617.806 150.483 617.397 151.09 617.107C151.697 616.817 152.383 616.673 153.15 616.673ZM153.15 617.811C152.63 617.811 152.164 617.909 151.753 618.105C151.346 618.301 151.025 618.577 150.791 618.933C150.56 619.285 150.446 619.686 150.45 620.136C150.446 620.586 150.56 620.989 150.791 621.345C151.025 621.698 151.346 621.971 151.753 622.167C152.164 622.363 152.63 622.461 153.15 622.461C153.667 622.461 154.131 622.363 154.542 622.167C154.953 621.971 155.274 621.698 155.504 621.345C155.735 620.989 155.851 620.586 155.851 620.136C155.851 619.686 155.735 619.285 155.504 618.933C155.274 618.577 154.953 618.301 154.542 618.105C154.131 617.909 153.667 617.811 153.15 617.811ZM160.429 630.374H159.126V615.593H160.429V630.374ZM148.407 626.006C149.562 626.01 150.656 626.004 151.689 625.989C152.726 625.969 153.81 625.922 154.941 625.848C156.072 625.773 157.142 625.662 158.152 625.513L158.258 626.476C157.217 626.672 156.136 626.816 155.017 626.91C153.898 627.004 152.851 627.063 151.877 627.086C150.902 627.11 149.804 627.122 148.583 627.122L148.407 626.006ZM179.923 624.48H166.445V623.423H179.923V624.48ZM173.829 623.869H172.526V621.474H173.829V623.869ZM178.326 621.956H168.241V620.923H178.326V621.956ZM178.244 617.072H169.556V621.463H168.241V616.015H178.244V617.072ZM177.845 619.455H169.157V618.457H177.845V619.455ZM173.184 625.595C174.26 625.591 175.178 625.679 175.937 625.859C176.7 626.036 177.277 626.302 177.668 626.658C178.064 627.014 178.263 627.446 178.267 627.955C178.263 628.468 178.064 628.9 177.668 629.252C177.277 629.609 176.702 629.875 175.943 630.051C175.183 630.227 174.264 630.315 173.184 630.315C172.096 630.315 171.172 630.227 170.413 630.051C169.654 629.875 169.076 629.609 168.681 629.252C168.286 628.9 168.088 628.468 168.088 627.955C168.088 627.446 168.286 627.014 168.681 626.658C169.076 626.302 169.654 626.036 170.413 625.859C171.176 625.679 172.1 625.591 173.184 625.595ZM173.184 626.581C172.377 626.581 171.691 626.634 171.123 626.74C170.556 626.846 170.125 627.002 169.832 627.21C169.542 627.413 169.399 627.662 169.403 627.955C169.399 628.253 169.542 628.503 169.832 628.706C170.125 628.91 170.554 629.061 171.117 629.158C171.685 629.26 172.374 629.309 173.184 629.305C173.99 629.309 174.675 629.26 175.238 629.158C175.802 629.061 176.228 628.91 176.518 628.706C176.811 628.503 176.96 628.253 176.964 627.955C176.96 627.662 176.811 627.413 176.518 627.21C176.228 627.002 175.8 626.846 175.232 626.74C174.669 626.634 173.986 626.581 173.184 626.581ZM189.851 620.782H186.529V619.702H189.851V620.782ZM189.828 624.48H186.411V623.4H189.828V624.48ZM193.385 630.35H192.141V615.593H193.385V630.35ZM190.403 629.599H189.147V615.992H190.403V629.599ZM187.104 617.471C187.1 618.79 186.904 620.036 186.517 621.21C186.134 622.38 185.527 623.472 184.697 624.486C183.872 625.496 182.815 626.386 181.527 627.157L180.741 626.218C181.891 625.537 182.844 624.756 183.6 623.875C184.355 622.995 184.916 622.038 185.284 621.005C185.656 619.972 185.844 618.872 185.848 617.706V617.471H187.104ZM186.364 618.563H181.398V617.471H186.364V618.563ZM208.527 623.47H195.013V622.449H208.527V623.47ZM206.836 627.791H197.972V629.552H196.669V626.887H205.545V625.631H196.645V624.656H206.836V627.791ZM207.317 630.151H196.669V629.2H207.317V630.151ZM206.789 619.091H198.066V620.711H196.775V618.199H205.486V616.978H196.728V616.039H206.789V619.091ZM207.047 621.334H196.775V620.383H207.047V621.334ZM217.911 617.271C217.911 618.187 217.739 619.034 217.395 619.813C217.05 620.592 216.565 621.267 215.939 621.838C215.313 622.41 214.585 622.844 213.755 623.142L213.098 622.097C213.841 621.842 214.497 621.476 215.064 620.999C215.632 620.518 216.07 619.958 216.379 619.32C216.692 618.682 216.851 617.999 216.855 617.271V616.097H217.911V617.271ZM218.134 617.271C218.13 617.925 218.283 618.547 218.592 619.138C218.905 619.725 219.338 620.238 219.89 620.676C220.445 621.114 221.081 621.447 221.797 621.674L221.105 622.684C220.302 622.41 219.596 622.009 218.986 621.48C218.379 620.952 217.907 620.328 217.571 619.608C217.238 618.888 217.074 618.109 217.078 617.271V616.097H218.134V617.271ZM224.721 623.306H223.418V615.593H224.721V623.306ZM226.94 619.913H224.134V618.821H226.94V619.913ZM224.721 627.485H216.62V629.728H215.34V626.499H223.429V625.02H215.305V623.975H224.721V627.485ZM225.261 630.186H215.34V629.117H225.261V630.186ZM235.929 618.199H227.793V617.119H235.929V618.199ZM227.347 625.677C229.108 625.67 230.728 625.64 232.207 625.589C233.687 625.539 235.076 625.439 236.375 625.29L236.457 626.265C235.135 626.468 233.738 626.603 232.266 626.67C230.799 626.736 229.206 626.773 227.488 626.781L227.347 625.677ZM230.599 625.865H229.319V617.988H230.599V625.865ZM234.285 625.865H233.017V617.988H234.285V625.865ZM239.698 630.35H238.406V615.593H239.698V630.35ZM239.263 620.477H235.694V619.396H239.263V620.477ZM239.263 623.963H235.694V622.883H239.263V623.963ZM244.836 617.248H252.139V615.827H253.442V620.688H243.533V615.827H244.836V617.248ZM252.139 619.678V618.234H244.836V619.678H252.139ZM255.203 623.2H241.749V622.144H255.203V623.2ZM249.086 622.484H247.807V620.195H249.086V622.484ZM253.466 627.709H244.696V629.54H243.416V626.746H252.186V625.431H243.381V624.433H253.466V627.709ZM253.912 630.186H243.416V629.153H253.912V630.186ZM267.089 616.966C267.089 617.862 266.809 618.684 266.249 619.432C265.689 620.175 264.952 620.794 264.036 621.287C263.124 621.78 262.154 622.112 261.124 622.285L260.584 621.216C261.484 621.091 262.347 620.823 263.173 620.412C263.999 620.001 264.668 619.494 265.181 618.892C265.693 618.285 265.95 617.643 265.95 616.966V616.121H267.089V616.966ZM267.3 616.966C267.3 617.631 267.558 618.267 268.075 618.874C268.591 619.481 269.262 619.991 270.088 620.406C270.918 620.821 271.781 621.091 272.677 621.216L272.149 622.285C271.115 622.112 270.141 621.778 269.225 621.281C268.309 620.784 267.57 620.161 267.006 619.414C266.447 618.667 266.169 617.851 266.173 616.966V616.121H267.3V616.966ZM267.229 630.35H265.95V624.715H267.229V630.35ZM273.346 624.997H259.892V623.905H273.346V624.997ZM282.801 625.49C282.797 626.135 282.66 626.765 282.39 627.38C282.124 627.99 281.735 628.538 281.222 629.023C280.713 629.509 280.113 629.881 279.42 630.139L278.763 629.176C279.369 628.953 279.897 628.644 280.348 628.249C280.801 627.849 281.15 627.409 281.392 626.928C281.639 626.446 281.764 625.967 281.768 625.49V624.68H282.801V625.49ZM283.024 625.49C283.024 625.994 283.126 626.493 283.33 626.987C283.533 627.476 283.836 627.922 284.239 628.325C284.646 628.724 285.138 629.039 285.713 629.27L285.173 630.268C284.484 630.006 283.907 629.624 283.441 629.123C282.975 628.626 282.627 628.065 282.396 627.439C282.169 626.808 282.058 626.159 282.062 625.49V624.68H283.024V625.49ZM288.26 625.49C288.257 626.088 288.137 626.703 287.902 627.333C287.672 627.959 287.323 628.534 286.858 629.059C286.396 629.583 285.834 629.986 285.173 630.268L284.609 629.27C285.169 629.016 285.65 628.675 286.053 628.249C286.46 627.818 286.768 627.36 286.975 626.875C287.182 626.39 287.286 625.928 287.286 625.49V624.68H288.26V625.49ZM288.566 625.49C288.562 626.002 288.679 626.501 288.918 626.987C289.161 627.468 289.509 627.9 289.963 628.284C290.417 628.667 290.953 628.965 291.571 629.176L290.914 630.139C290.205 629.888 289.597 629.526 289.088 629.053C288.583 628.579 288.198 628.037 287.932 627.427C287.666 626.812 287.533 626.167 287.533 625.49V624.68H288.566V625.49ZM290.221 624.034H288.918V615.604H290.221V624.034ZM282.249 616.461C282.989 616.461 283.652 616.606 284.239 616.896C284.83 617.185 285.29 617.592 285.619 618.117C285.948 618.641 286.112 619.24 286.112 619.913C286.112 620.578 285.948 621.171 285.619 621.692C285.29 622.212 284.83 622.617 284.239 622.907C283.652 623.196 282.989 623.341 282.249 623.341C281.51 623.341 280.845 623.196 280.254 622.907C279.667 622.617 279.207 622.212 278.874 621.692C278.541 621.171 278.375 620.578 278.375 619.913C278.375 619.24 278.541 618.641 278.874 618.117C279.207 617.592 279.667 617.185 280.254 616.896C280.845 616.606 281.51 616.461 282.249 616.461ZM282.249 617.577C281.752 617.573 281.304 617.671 280.905 617.87C280.51 618.066 280.201 618.344 279.978 618.704C279.759 619.06 279.651 619.463 279.655 619.913C279.651 620.363 279.759 620.766 279.978 621.122C280.201 621.474 280.51 621.752 280.905 621.956C281.3 622.155 281.749 622.257 282.249 622.261C282.746 622.257 283.191 622.155 283.582 621.956C283.977 621.752 284.286 621.474 284.509 621.122C284.733 620.766 284.844 620.363 284.844 619.913C284.844 619.463 284.733 619.06 284.509 618.704C284.286 618.344 283.977 618.066 283.582 617.87C283.187 617.671 282.743 617.573 282.249 617.577ZM295.325 626.171H302.698V624.445H304.012V630.151H294.033V624.445H295.325V626.171ZM302.698 629.094V627.204H295.325V629.094H302.698ZM305.773 623.412H292.319V622.32H305.773V623.412ZM299.504 616.45C299.504 617.264 299.226 618.009 298.671 618.686C298.115 619.363 297.381 619.927 296.469 620.377C295.561 620.823 294.597 621.122 293.575 621.275L293.082 620.242C293.974 620.116 294.828 619.87 295.642 619.502C296.456 619.134 297.115 618.684 297.62 618.152C298.125 617.62 298.377 617.052 298.377 616.45V615.757H299.504V616.45ZM299.715 616.45C299.715 617.033 299.972 617.594 300.484 618.134C300.997 618.67 301.658 619.128 302.469 619.508C303.283 619.884 304.126 620.128 304.999 620.242L304.517 621.275C303.496 621.122 302.531 620.821 301.623 620.371C300.719 619.917 299.987 619.351 299.428 618.674C298.872 617.993 298.596 617.252 298.6 616.45V615.757H299.715V616.45ZM318.766 630.35H317.475V615.593H318.766V630.35ZM308.846 626.171H307.566V617.048H308.846V626.171ZM308.764 625.407C309.977 625.407 311.17 625.353 312.344 625.243C313.518 625.134 314.704 624.953 315.902 624.703L316.078 625.818C314.818 626.077 313.593 626.263 312.403 626.376C311.217 626.49 310.004 626.546 308.764 626.546H307.566V625.407H308.764ZM332.311 630.374H331.008V615.593H332.311V630.374ZM334.777 622.519H332.018V621.427H334.777V622.519ZM322.696 625.572C324.14 625.572 325.38 625.535 326.418 625.46C327.458 625.386 328.515 625.251 329.587 625.055L329.752 626.182C328.656 626.378 327.584 626.509 326.535 626.576C325.486 626.642 324.206 626.675 322.696 626.675H321.534V625.572H322.696ZM328.425 618.105H322.837V626.077H321.534V617.037H328.425V618.105Z" fill="#818384"/>
        <path d="M94.2501 668.523H90.8689V667.443H94.2501V668.523ZM95.1541 672.386H93.8509V663.593H95.1541V672.386ZM90.2584 672.844C91.2759 672.844 92.1564 672.952 92.8999 673.167C93.6435 673.382 94.2129 673.697 94.6082 674.112C95.0034 674.523 95.201 675.016 95.201 675.591C95.201 676.166 95.0034 676.658 94.6082 677.065C94.2129 677.475 93.6435 677.789 92.8999 678.004C92.1603 678.223 91.2798 678.334 90.2584 678.338C89.233 678.334 88.3506 678.223 87.6109 678.004C86.8713 677.789 86.3019 677.475 85.9027 677.065C85.5074 676.658 85.3118 676.166 85.3157 675.591C85.3118 675.016 85.5074 674.523 85.9027 674.112C86.3019 673.697 86.8713 673.382 87.6109 673.167C88.3545 672.952 89.237 672.844 90.2584 672.844ZM90.2584 673.865C89.507 673.865 88.8574 673.934 88.3095 674.071C87.7616 674.208 87.3389 674.407 87.0415 674.67C86.748 674.928 86.6032 675.235 86.6071 675.591C86.6032 675.943 86.748 676.249 87.0415 676.507C87.3389 676.765 87.7616 676.961 88.3095 677.094C88.8574 677.231 89.507 677.297 90.2584 677.294C91.0058 677.297 91.6535 677.231 92.2014 677.094C92.7532 676.961 93.1758 676.765 93.4693 676.507C93.7629 676.249 93.9096 675.943 93.9096 675.591C93.9096 675.235 93.7629 674.928 93.4693 674.67C93.1758 674.407 92.7532 674.208 92.2014 674.071C91.6535 673.934 91.0058 673.865 90.2584 673.865ZM87.8164 666.305C87.8125 667.193 87.6344 668.032 87.2822 668.823C86.9339 669.609 86.4467 670.3 85.8205 670.895C85.1944 671.486 84.4743 671.936 83.6603 672.245L82.9794 671.212C83.7033 670.95 84.351 670.566 84.9224 670.061C85.4977 669.553 85.9438 668.974 86.2608 668.324C86.5778 667.67 86.7363 666.997 86.7363 666.305V665.084H87.8164V666.305ZM88.0512 666.293C88.0512 666.927 88.2038 667.541 88.5091 668.136C88.8143 668.731 89.2428 669.261 89.7946 669.727C90.3464 670.193 90.9784 670.547 91.6907 670.789L91.0097 671.834C90.2153 671.549 89.5129 671.126 88.9024 670.566C88.2958 670.003 87.8242 669.353 87.4876 668.617C87.1511 667.882 86.9828 667.107 86.9828 666.293V665.084H88.0512V666.293ZM91.3502 665.753H83.402V664.673H91.3502V665.753ZM108.746 671.459H107.443V663.593H108.746V671.459ZM110.965 668.16H108.382V667.056H110.965V668.16ZM99.0483 669.862C100.136 669.862 101.052 669.848 101.796 669.821C102.539 669.793 103.23 669.744 103.868 669.674C104.509 669.6 105.161 669.494 105.822 669.357L105.987 670.437C105.302 670.578 104.627 670.686 103.962 670.76C103.3 670.834 102.588 670.885 101.825 670.913C101.066 670.94 100.14 670.954 99.0483 670.954H97.9095V669.862H99.0483ZM104.437 665.647H99.2009V670.613H97.9095V664.567H104.437V665.647ZM100.692 674.088H107.443V672.257H108.746V678.104H99.4005V672.257H100.692V674.088ZM107.443 677.023V675.145H100.692V677.023H107.443ZM118.205 663.851C119.301 663.851 120.238 663.949 121.017 664.144C121.795 664.34 122.39 664.63 122.801 665.013C123.212 665.393 123.418 665.855 123.418 666.398C123.418 666.95 123.212 667.418 122.801 667.801C122.39 668.181 121.795 668.473 121.017 668.676C120.238 668.876 119.301 668.977 118.205 668.981C117.109 668.977 116.172 668.876 115.393 668.676C114.614 668.473 114.018 668.181 113.603 667.801C113.188 667.418 112.98 666.95 112.98 666.398C112.98 665.855 113.188 665.393 113.603 665.013C114.018 664.63 114.614 664.34 115.393 664.144C116.172 663.949 117.109 663.851 118.205 663.851ZM118.205 664.837C117.399 664.837 116.706 664.9 116.127 665.025C115.548 665.15 115.103 665.33 114.794 665.565C114.489 665.796 114.338 666.074 114.342 666.398C114.338 666.735 114.487 667.021 114.788 667.256C115.094 667.49 115.536 667.67 116.115 667.796C116.694 667.921 117.391 667.983 118.205 667.983C119.023 667.983 119.721 667.921 120.301 667.796C120.884 667.67 121.328 667.49 121.633 667.256C121.938 667.021 122.091 666.735 122.091 666.398C122.091 666.074 121.938 665.796 121.633 665.565C121.328 665.33 120.882 665.15 120.295 665.025C119.712 664.9 119.015 664.837 118.205 664.837ZM124.944 671.036H111.489V669.979H124.944V671.036ZM123.206 675.615H114.436V677.423H113.157V674.652H121.927V673.314H113.121V672.316H123.206V675.615ZM123.652 678.186H113.157V677.153H123.652V678.186ZM137.088 670.907H130.266V664.602H137.088V670.907ZM131.534 669.85H135.82V665.659H131.534V669.85ZM141.173 672.022H139.87V663.593H141.173V672.022ZM143.392 668.242H140.809V667.138H143.392V668.242ZM136.994 673.771C136.994 674.515 136.751 675.202 136.266 675.832C135.78 676.462 135.127 676.986 134.305 677.405C133.487 677.828 132.591 678.119 131.617 678.28L131.123 677.282C131.973 677.149 132.759 676.91 133.483 676.566C134.211 676.221 134.792 675.806 135.227 675.321C135.665 674.836 135.886 674.319 135.89 673.771V673.372H136.994V673.771ZM137.24 673.771C137.236 674.304 137.453 674.814 137.892 675.304C138.334 675.793 138.921 676.211 139.653 676.56C140.385 676.908 141.169 677.149 142.007 677.282L141.514 678.303C140.539 678.135 139.641 677.836 138.819 677.405C138.001 676.978 137.346 676.452 136.853 675.826C136.36 675.196 136.113 674.511 136.113 673.771V673.372H137.24V673.771ZM141.431 673.948H131.699V672.891H141.431V673.948ZM156.103 674.722H154.8V663.593H156.103V674.722ZM156.561 678.021H146.57V676.941H156.561V678.021ZM147.873 677.188H146.57V673.76H147.873V677.188ZM153.18 666.492H144.128V665.436H153.18V666.492ZM148.66 667.291C149.372 667.291 150.002 667.404 150.55 667.631C151.098 667.858 151.523 668.181 151.824 668.6C152.125 669.015 152.276 669.498 152.276 670.05C152.276 670.602 152.125 671.083 151.824 671.494C151.523 671.901 151.098 672.216 150.55 672.439C150.002 672.662 149.372 672.773 148.66 672.773C147.944 672.773 147.312 672.662 146.764 672.439C146.22 672.216 145.795 671.901 145.49 671.494C145.189 671.083 145.04 670.602 145.044 670.05C145.04 669.498 145.189 669.015 145.49 668.6C145.795 668.181 146.22 667.858 146.764 667.631C147.312 667.404 147.944 667.291 148.66 667.291ZM148.66 668.324C148.182 668.328 147.766 668.4 147.41 668.541C147.053 668.678 146.776 668.878 146.576 669.14C146.38 669.398 146.284 669.701 146.288 670.05C146.284 670.39 146.38 670.69 146.576 670.948C146.776 671.202 147.053 671.4 147.41 671.541C147.77 671.678 148.186 671.744 148.66 671.74C149.126 671.744 149.538 671.678 149.898 671.541C150.262 671.4 150.542 671.202 150.738 670.948C150.938 670.69 151.039 670.39 151.043 670.05C151.039 669.701 150.938 669.398 150.738 669.14C150.542 668.878 150.264 668.678 149.904 668.541C149.544 668.4 149.129 668.328 148.66 668.324ZM149.317 665.929H148.002V663.569H149.317V665.929ZM174.728 666.363H162.764V665.283H174.728V666.363ZM175.573 674.229H162.06V673.149H175.573V674.229ZM169.421 678.374H168.13V674.006H169.421V678.374ZM168.775 667.209C169.777 667.209 170.638 667.304 171.358 667.496C172.078 667.688 172.63 667.968 173.014 668.336C173.397 668.703 173.589 669.15 173.589 669.674C173.589 670.191 173.397 670.631 173.014 670.995C172.63 671.359 172.078 671.639 171.358 671.834C170.638 672.026 169.777 672.124 168.775 672.128C167.769 672.124 166.905 672.026 166.181 671.834C165.461 671.639 164.909 671.359 164.525 670.995C164.146 670.631 163.958 670.191 163.962 669.674C163.958 669.15 164.146 668.703 164.525 668.336C164.909 667.968 165.461 667.688 166.181 667.496C166.905 667.304 167.769 667.209 168.775 667.209ZM168.775 668.206C168.047 668.206 167.423 668.263 166.903 668.377C166.382 668.49 165.985 668.658 165.711 668.882C165.441 669.101 165.308 669.365 165.312 669.674C165.308 669.979 165.441 670.24 165.711 670.455C165.985 670.67 166.382 670.836 166.903 670.954C167.423 671.067 168.047 671.122 168.775 671.118C169.499 671.122 170.12 671.067 170.636 670.954C171.157 670.836 171.554 670.67 171.828 670.455C172.106 670.24 172.246 669.979 172.25 669.674C172.246 669.365 172.106 669.101 171.828 668.882C171.554 668.658 171.157 668.49 170.636 668.377C170.12 668.263 169.499 668.206 168.775 668.206ZM169.421 665.999H168.13V663.51H169.421V665.999ZM177.483 680.393H176.25L177.166 675.873H178.763L177.483 680.393ZM190.829 672.914C191.882 672.914 192.798 673.022 193.577 673.237C194.359 673.452 194.96 673.764 195.379 674.171C195.802 674.578 196.015 675.063 196.019 675.626C196.015 676.182 195.802 676.663 195.379 677.07C194.96 677.477 194.359 677.787 193.577 677.998C192.798 678.209 191.882 678.315 190.829 678.315C189.781 678.315 188.869 678.209 188.094 677.998C187.319 677.787 186.72 677.477 186.298 677.07C185.875 676.663 185.664 676.182 185.664 675.626C185.664 675.063 185.875 674.578 186.298 674.171C186.72 673.764 187.319 673.452 188.094 673.237C188.869 673.022 189.781 672.914 190.829 672.914ZM190.829 673.912C190.051 673.916 189.37 673.989 188.787 674.129C188.207 674.266 187.757 674.464 187.437 674.722C187.12 674.977 186.963 675.278 186.967 675.626C186.963 675.963 187.12 676.254 187.437 676.501C187.757 676.748 188.207 676.939 188.787 677.076C189.37 677.213 190.051 677.282 190.829 677.282C191.612 677.282 192.295 677.215 192.878 677.082C193.461 676.949 193.911 676.757 194.228 676.507C194.549 676.256 194.712 675.963 194.716 675.626C194.712 675.278 194.549 674.977 194.228 674.722C193.911 674.464 193.461 674.266 192.878 674.129C192.295 673.989 191.612 673.916 190.829 673.912ZM195.35 665.412H185.769V664.344H195.35V665.412ZM197.604 671.541H184.173V670.472H197.604V671.541ZM191.017 670.801H189.738V667.619H191.017V670.801ZM195.89 665.706C195.89 666.199 195.882 666.625 195.866 666.985C195.85 667.346 195.813 667.741 195.755 668.171C195.696 668.602 195.604 669.048 195.479 669.51L194.199 669.369C194.324 668.899 194.416 668.457 194.475 668.042C194.534 667.627 194.569 667.25 194.581 666.909C194.592 666.569 194.598 666.148 194.598 665.647V665.6V664.344H195.89V665.6V665.706ZM203.271 678.35H201.932V672.703H203.271V678.35ZM208.378 678.35H207.063V672.703H208.378V678.35ZM211.935 673.079H198.422V671.999H211.935V673.079ZM205.149 664.18C206.178 664.183 207.084 664.318 207.867 664.585C208.654 664.847 209.264 665.221 209.698 665.706C210.133 666.191 210.35 666.759 210.35 667.408C210.35 668.054 210.133 668.617 209.698 669.099C209.264 669.576 208.654 669.946 207.867 670.208C207.084 670.467 206.178 670.594 205.149 670.59C204.124 670.594 203.22 670.467 202.437 670.208C201.654 669.946 201.046 669.576 200.611 669.099C200.177 668.617 199.96 668.054 199.96 667.408C199.96 666.759 200.177 666.191 200.611 665.706C201.046 665.221 201.652 664.847 202.431 664.585C203.214 664.318 204.12 664.183 205.149 664.18ZM205.149 665.248C204.386 665.248 203.713 665.336 203.13 665.512C202.551 665.688 202.099 665.941 201.774 666.269C201.453 666.594 201.294 666.974 201.298 667.408C201.294 667.839 201.453 668.214 201.774 668.535C202.099 668.856 202.551 669.105 203.13 669.281C203.713 669.457 204.386 669.545 205.149 669.545C205.912 669.545 206.585 669.457 207.168 669.281C207.755 669.105 208.209 668.856 208.53 668.535C208.851 668.214 209.012 667.839 209.012 667.408C209.012 666.974 208.851 666.594 208.53 666.269C208.209 665.941 207.755 665.688 207.168 665.512C206.585 665.336 205.912 665.248 205.149 665.248ZM224.153 678.35H222.862V663.593H224.153V678.35ZM226.619 670.766H223.86V669.674H226.619V670.766ZM221.429 667.044H212.648V665.964H221.429V667.044ZM217.109 668.265C217.798 668.265 218.416 668.408 218.964 668.694C219.512 668.979 219.94 669.381 220.249 669.897C220.562 670.414 220.721 671.001 220.725 671.658C220.721 672.316 220.562 672.901 220.249 673.413C219.94 673.926 219.512 674.325 218.964 674.611C218.416 674.897 217.798 675.039 217.109 675.039C216.416 675.039 215.794 674.897 215.242 674.611C214.694 674.325 214.264 673.926 213.951 673.413C213.642 672.897 213.489 672.312 213.493 671.658C213.489 671.005 213.642 670.42 213.951 669.903C214.264 669.382 214.694 668.979 215.242 668.694C215.794 668.408 216.416 668.265 217.109 668.265ZM217.109 669.357C216.655 669.357 216.248 669.455 215.888 669.651C215.528 669.846 215.244 670.12 215.037 670.472C214.833 670.825 214.733 671.22 214.737 671.658C214.733 672.096 214.833 672.49 215.037 672.838C215.244 673.186 215.528 673.458 215.888 673.654C216.248 673.846 216.655 673.94 217.109 673.936C217.559 673.94 217.962 673.846 218.318 673.654C218.678 673.458 218.96 673.186 219.163 672.838C219.371 672.49 219.477 672.096 219.48 671.658C219.477 671.22 219.371 670.825 219.163 670.472C218.96 670.12 218.678 669.846 218.318 669.651C217.962 669.455 217.559 669.357 217.109 669.357ZM217.743 666.457H216.44V663.769H217.743V666.457ZM239.212 678.35H237.909V663.593H239.212V678.35ZM234.845 665.201C234.841 666.657 234.598 668.023 234.117 669.298C233.64 670.574 232.886 671.746 231.857 672.815C230.832 673.883 229.515 674.805 227.906 675.579L227.202 674.511C228.623 673.838 229.802 673.044 230.742 672.128C231.685 671.212 232.387 670.193 232.849 669.069C233.315 667.942 233.55 666.719 233.553 665.401V665.201H234.845ZM234.094 666.258H227.883V665.201H234.094V666.258ZM254.788 671.47H241.275V670.449H254.788V671.47ZM253.098 675.791H244.234V677.552H242.93V674.887H251.806V673.631H242.907V672.656H253.098V675.791ZM253.579 678.151H242.93V677.2H253.579V678.151ZM253.051 667.091H244.328V668.711H243.036V666.199H251.747V664.978H242.989V664.039H253.051V667.091ZM253.309 669.334H243.036V668.383H253.309V669.334ZM266.779 672.703H265.523V670.061H266.779V672.703ZM271.346 668.218H261.273V667.138H271.346V668.218ZM272.931 670.578H259.418V669.51H272.931V670.578ZM262.541 667.643H261.273V663.827H262.541V667.643ZM271.194 675.521H262.459V677.505H261.156V674.57H269.914V673.161H261.12V672.151H271.194V675.521ZM271.722 678.186H261.156V677.141H271.722V678.186ZM285.948 678.374H284.656V663.593H285.948V678.374ZM284.973 670.355H281.78V669.263H284.973V670.355ZM275.416 673.713C276.861 673.713 278.082 673.681 279.079 673.619C280.077 673.552 281.091 673.423 282.12 673.231L282.226 674.323C281.173 674.511 280.134 674.64 279.109 674.711C278.083 674.781 276.853 674.82 275.416 674.828H274.289V673.713H275.416ZM280.887 670.12H275.581V674.065H274.289V669.04H279.62V666.046H274.242V664.966H280.887V670.12ZM98.9657 696.511H97.6625V685.604H98.9657V696.511ZM99.4236 700.021H89.4326V698.941H99.4236V700.021ZM90.7358 699.505H89.4326V695.49H90.7358V699.505ZM91.9215 689.032C91.9176 689.901 91.7396 690.715 91.3873 691.474C91.039 692.234 90.5499 692.893 89.9198 693.453C89.2897 694.012 88.5638 694.433 87.742 694.715L87.0845 693.693C87.8163 693.451 88.466 693.095 89.0334 692.625C89.6048 692.155 90.0489 691.609 90.3659 690.987C90.6829 690.365 90.8414 689.713 90.8414 689.032V688.41H91.9215V689.032ZM92.1329 689.032C92.1329 689.674 92.2953 690.287 92.6201 690.87C92.9449 691.453 93.393 691.966 93.9643 692.408C94.5396 692.85 95.1932 693.185 95.925 693.412L95.2793 694.456C94.4496 694.186 93.7178 693.787 93.0838 693.259C92.4498 692.727 91.9548 692.099 91.5987 691.375C91.2465 690.647 91.0723 689.866 91.0762 689.032V688.41H92.1329V689.032ZM95.5258 688.645H87.4367V687.588H95.5258V688.645ZM92.1563 688.117H90.8414V685.663H92.1563V688.117ZM112.064 687.635H102.754V686.555H112.064V687.635ZM114.518 693.975H101.064V692.895H114.518V693.975ZM108.413 700.374H107.11V693.599H108.413V700.374ZM112.734 687.929C112.734 688.594 112.724 689.183 112.704 689.696C112.685 690.208 112.634 690.794 112.552 691.451C112.469 692.105 112.342 692.809 112.17 693.564L110.867 693.4C111.043 692.668 111.172 691.981 111.254 691.339C111.34 690.694 111.393 690.12 111.413 689.619C111.432 689.115 111.442 688.539 111.442 687.894V687.847V686.555H112.734V687.847V687.929ZM120.455 696.546H119.152V693.036H120.455V696.546ZM119.798 686.555C120.549 686.559 121.222 686.708 121.817 687.001C122.412 687.291 122.877 687.698 123.214 688.222C123.555 688.747 123.727 689.346 123.731 690.019C123.727 690.692 123.555 691.291 123.214 691.815C122.877 692.339 122.41 692.746 121.811 693.036C121.216 693.326 120.545 693.47 119.798 693.47C119.034 693.47 118.354 693.326 117.755 693.036C117.16 692.746 116.694 692.341 116.358 691.821C116.025 691.296 115.861 690.696 115.865 690.019C115.861 689.342 116.025 688.743 116.358 688.222C116.694 687.698 117.16 687.291 117.755 687.001C118.354 686.708 119.034 686.559 119.798 686.555ZM119.798 687.671C119.285 687.674 118.825 687.776 118.418 687.976C118.015 688.172 117.698 688.447 117.467 688.804C117.24 689.16 117.129 689.565 117.133 690.019C117.129 690.473 117.24 690.878 117.467 691.234C117.698 691.59 118.015 691.868 118.418 692.067C118.825 692.263 119.285 692.359 119.798 692.355C120.302 692.359 120.754 692.263 121.154 692.067C121.557 691.868 121.872 691.59 122.099 691.234C122.33 690.878 122.447 690.473 122.451 690.019C122.447 689.565 122.33 689.16 122.099 688.804C121.872 688.447 121.557 688.172 121.154 687.976C120.754 687.776 120.302 687.674 119.798 687.671ZM126.748 700.35H125.456V685.593H126.748V700.35ZM129.155 692.801H126.396V691.686H129.155V692.801ZM115.97 696.041C117.019 696.034 118.005 696.018 118.929 695.994C119.852 695.971 120.799 695.928 121.77 695.865C122.741 695.803 123.652 695.717 124.505 695.607L124.599 696.593C123.625 696.758 122.604 696.881 121.535 696.963C120.471 697.045 119.441 697.096 118.447 697.116C117.457 697.135 116.436 697.141 115.383 697.133L115.16 696.041H115.97ZM140.852 697.615H139.561V693.928H140.852V697.615ZM140.206 686.555C141.251 686.559 142.183 686.722 143.001 687.042C143.823 687.359 144.462 687.811 144.92 688.398C145.378 688.982 145.607 689.655 145.607 690.418C145.607 691.193 145.378 691.872 144.92 692.455C144.462 693.038 143.823 693.488 143.001 693.805C142.183 694.122 141.251 694.28 140.206 694.28C139.169 694.28 138.242 694.122 137.424 693.805C136.61 693.488 135.972 693.038 135.51 692.455C135.049 691.868 134.818 691.189 134.818 690.418C134.818 689.655 135.049 688.982 135.51 688.398C135.972 687.811 136.61 687.359 137.424 687.042C138.242 686.722 139.169 686.559 140.206 686.555ZM140.206 687.635C139.42 687.631 138.712 687.747 138.081 687.982C137.455 688.213 136.964 688.539 136.608 688.962C136.252 689.385 136.074 689.87 136.074 690.418C136.074 690.974 136.252 691.465 136.608 691.891C136.964 692.318 137.455 692.648 138.081 692.883C138.708 693.114 139.416 693.232 140.206 693.235C141.001 693.232 141.711 693.114 142.337 692.883C142.967 692.648 143.461 692.318 143.817 691.891C144.173 691.465 144.351 690.974 144.351 690.418C144.351 689.87 144.173 689.385 143.817 688.962C143.461 688.539 142.967 688.213 142.337 687.982C141.707 687.747 140.997 687.631 140.206 687.635ZM147.004 698.448H133.491V697.356H147.004V698.448ZM159.68 690.218H149.607V689.138H159.68V690.218ZM161.265 692.742H147.752V691.674H161.265V692.742ZM150.875 689.643H149.607V685.827H150.875V689.643ZM159.527 697.521H150.793V699.458H149.489V696.535H158.248V695.102H149.454V694.069H159.527V697.521ZM160.056 700.151H149.489V699.106H160.056V700.151ZM166.885 686.673C167.652 686.673 168.337 686.817 168.94 687.107C169.542 687.397 170.012 687.806 170.348 688.334C170.689 688.858 170.861 689.459 170.865 690.136C170.861 690.813 170.689 691.414 170.348 691.938C170.012 692.459 169.542 692.866 168.94 693.159C168.337 693.453 167.652 693.599 166.885 693.599C166.118 693.599 165.431 693.453 164.825 693.159C164.218 692.866 163.745 692.457 163.404 691.932C163.067 691.408 162.901 690.809 162.905 690.136C162.901 689.463 163.067 688.862 163.404 688.334C163.745 687.806 164.218 687.397 164.825 687.107C165.431 686.817 166.118 686.673 166.885 686.673ZM166.885 687.811C166.365 687.811 165.899 687.909 165.488 688.105C165.081 688.301 164.76 688.577 164.525 688.933C164.294 689.285 164.181 689.686 164.185 690.136C164.181 690.586 164.294 690.989 164.525 691.345C164.76 691.698 165.081 691.971 165.488 692.167C165.899 692.363 166.365 692.461 166.885 692.461C167.402 692.461 167.865 692.363 168.276 692.167C168.687 691.971 169.008 691.698 169.239 691.345C169.47 690.989 169.585 690.586 169.585 690.136C169.585 689.686 169.47 689.285 169.239 688.933C169.008 688.577 168.687 688.301 168.276 688.105C167.865 687.909 167.402 687.811 166.885 687.811ZM174.164 700.374H172.861V685.593H174.164V700.374ZM162.142 696.006C163.296 696.01 164.39 696.004 165.423 695.989C166.46 695.969 167.544 695.922 168.675 695.848C169.806 695.773 170.877 695.662 171.886 695.513L171.992 696.476C170.951 696.672 169.871 696.816 168.752 696.91C167.633 697.004 166.586 697.063 165.611 697.086C164.637 697.11 163.539 697.122 162.318 697.122L162.142 696.006ZM192.436 693.142H191.133V685.593H192.436V693.142ZM187.857 686.332C187.854 687.545 187.576 688.625 187.024 689.573C186.476 690.52 185.685 691.32 184.652 691.973C183.619 692.623 182.375 693.122 180.919 693.47L180.449 692.39C181.729 692.093 182.815 691.684 183.707 691.163C184.603 690.643 185.282 690.028 185.744 689.32C186.206 688.608 186.437 687.819 186.437 686.954V686.332H187.857ZM187.024 687.412H181.201V686.332H187.024V687.412ZM191.344 688.786H187.317V687.741H191.344V688.786ZM191.262 691.592H187.188V690.559H191.262V691.592ZM192.436 697.403H184.194V699.798H182.903V696.405H191.133V694.867H182.868V693.811H192.436V697.403ZM192.941 700.209H182.903V699.141H192.941V700.209ZM201.907 688.293H195.168V687.224H201.907V688.293ZM198.808 696.441H197.516V691.439H198.808V696.441ZM202.67 688.152C202.666 688.735 202.655 689.279 202.635 689.784C202.619 690.285 202.58 690.887 202.518 691.592C202.455 692.296 202.361 693.048 202.236 693.846L200.933 693.74C201.062 692.93 201.158 692.173 201.22 691.469C201.287 690.76 201.328 690.152 201.344 689.643C201.359 689.13 201.367 688.602 201.367 688.058V687.999V687.224H202.67V687.999V688.152ZM205.875 700.35H204.572V685.593H205.875V700.35ZM208.27 692.895H205.523V691.768H208.27V692.895ZM194.335 696.006C196.119 695.998 197.78 695.967 199.318 695.912C200.856 695.854 202.298 695.74 203.645 695.572L203.715 696.558C202.314 696.777 200.835 696.924 199.277 696.998C197.72 697.073 196.127 697.106 194.499 697.098L194.335 696.006ZM222.261 693.47H208.748V692.449H222.261V693.47ZM220.571 697.791H211.707V699.552H210.403V696.887H219.279V695.631H210.38V694.656H220.571V697.791ZM221.052 700.151H210.403V699.2H221.052V700.151ZM220.524 689.091H211.801V690.711H210.509V688.199H219.22V686.978H210.462V686.039H220.524V689.091ZM220.782 691.334H210.509V690.383H220.782V691.334ZM240.733 692.578H237.997V691.486H240.733V692.578ZM238.338 700.338H237.035V685.593H238.338V700.338ZM228.816 696.171H227.525V687.048H228.816V696.171ZM228.699 695.501C229.873 695.501 231.024 695.451 232.151 695.349C233.282 695.243 234.436 695.067 235.614 694.82L235.778 695.936C234.573 696.174 233.393 696.345 232.239 696.446C231.088 696.544 229.908 696.593 228.699 696.593H227.525V695.501H228.699ZM253.115 691.639H242.936V690.57H253.115V691.639ZM254.712 694.961H241.199V693.869H254.712V694.961ZM248.537 700.35H247.245V694.445H248.537V700.35ZM244.24 691.11H242.936V686.344H244.24V691.11ZM264.242 691.991H261.342V690.887H264.242V691.991ZM259.639 689.843C259.635 690.852 259.491 691.836 259.205 692.795C258.923 693.754 258.518 694.615 257.99 695.378C257.465 696.137 256.853 696.73 256.152 697.157L255.319 696.182C255.984 695.791 256.565 695.259 257.062 694.586C257.559 693.913 257.941 693.165 258.207 692.343C258.473 691.517 258.606 690.684 258.606 689.843V686.978H259.639V689.843ZM259.862 689.784C259.862 690.574 259.988 691.361 260.238 692.144C260.489 692.926 260.847 693.642 261.312 694.292C261.782 694.942 262.336 695.454 262.974 695.83L262.222 696.84C261.526 696.421 260.923 695.84 260.414 695.096C259.905 694.349 259.518 693.515 259.252 692.596C258.99 691.676 258.861 690.739 258.864 689.784V686.978H259.862V689.784ZM268.128 700.35H266.871V685.593H268.128V700.35ZM265.075 699.599H263.842V685.91H265.075V699.599ZM274.393 697.615H273.114V693.2H274.393V697.615ZM279.923 697.615H278.608V693.2H279.923V697.615ZM283.281 698.448H269.768V697.356H283.281V698.448ZM276.483 686.52C277.528 686.524 278.459 686.684 279.277 687.001C280.099 687.314 280.739 687.759 281.197 688.334C281.655 688.909 281.884 689.573 281.884 690.324C281.884 691.075 281.655 691.737 281.197 692.308C280.739 692.879 280.099 693.322 279.277 693.635C278.459 693.948 277.528 694.104 276.483 694.104C275.438 694.104 274.507 693.948 273.689 693.635C272.875 693.322 272.239 692.879 271.781 692.308C271.323 691.737 271.094 691.075 271.094 690.324C271.094 689.573 271.323 688.909 271.781 688.334C272.239 687.759 272.877 687.314 273.695 687.001C274.513 686.684 275.442 686.524 276.483 686.52ZM276.483 687.588C275.685 687.584 274.973 687.696 274.346 687.923C273.72 688.146 273.231 688.467 272.879 688.886C272.527 689.301 272.351 689.78 272.351 690.324C272.351 690.864 272.527 691.341 272.879 691.756C273.231 692.171 273.72 692.494 274.346 692.725C274.973 692.956 275.685 693.071 276.483 693.071C277.281 693.071 277.996 692.956 278.626 692.725C279.256 692.494 279.747 692.171 280.099 691.756C280.451 691.341 280.627 690.864 280.627 690.324C280.627 689.78 280.451 689.301 280.099 688.886C279.747 688.467 279.256 688.146 278.626 687.923C277.996 687.696 277.281 687.584 276.483 687.588ZM286.33 695.607H284.933L284.815 686.978H286.447L286.33 695.607ZM285.637 699.094C285.445 699.094 285.265 699.045 285.097 698.947C284.933 698.849 284.801 698.72 284.704 698.56C284.61 698.395 284.565 698.217 284.569 698.026C284.565 697.834 284.61 697.656 284.704 697.491C284.801 697.323 284.933 697.192 285.097 697.098C285.265 697.004 285.445 696.957 285.637 696.957C285.829 696.957 286.007 697.004 286.171 697.098C286.339 697.192 286.471 697.323 286.564 697.491C286.658 697.656 286.705 697.834 286.705 698.026C286.705 698.217 286.658 698.395 286.564 698.56C286.471 698.72 286.339 698.849 286.171 698.947C286.007 699.045 285.829 699.094 285.637 699.094Z" fill="#818384"/>
        <rect x="75.5" y="96.5" width="69" height="69" fill="white" stroke="#D3D6DA"/>
        <rect x="75.5" y="164.5" width="23" height="23" fill="#05944F" stroke="#D3D6DA"/>
        <rect x="98.5" y="164.5" width="23" height="23" fill="#05944F" stroke="#D3D6DA"/>
        <rect x="121.5" y="164.5" width="23" height="23" fill="white" stroke="#D3D6DA"/>
        <rect x="153.5" y="96.5" width="69" height="69" fill="white" stroke="#D3D6DA"/>
        <rect x="153.5" y="164.5" width="23" height="23" fill="#05944F" stroke="#D3D6DA"/>
        <rect x="176.5" y="164.5" width="23" height="23" fill="#05944F" stroke="#D3D6DA"/>
        <path d="M199.5 164.5H222.5V187.5H199.5V164.5Z" fill="#05944F" stroke="#D3D6DA"/>
        <rect x="231.5" y="96.5" width="69" height="69" fill="white" stroke="#D3D6DA"/>
        <rect x="231.5" y="164.5" width="23" height="23" fill="#05944F" stroke="#D3D6DA"/>
        <rect x="254.5" y="164.5" width="23" height="23" fill="#05944F" stroke="#D3D6DA"/>
        <path d="M277.5 164.5H300.5V187.5H277.5V164.5Z" fill="#05944F" stroke="#D3D6DA"/>
        <path d="M91.5101 140.61C95.9162 140.61 99.5004 140.535 102.263 140.383C105.025 140.217 107.822 139.885 110.654 139.388L111.151 143.988C108.209 144.512 105.308 144.865 102.449 145.044C99.604 145.224 95.9576 145.314 91.5101 145.314H88.0294V140.61H91.5101ZM109.017 115.811H93.3333V142.434H88.0294V111.336H109.017V115.811ZM108.147 129.568H91.738V125.155H108.147V129.568ZM131.165 157.972H125.82V105.472H131.165V157.972ZM127.746 130.852H117.947V126.315H127.746V130.852ZM119.521 155.383H114.197V106.488H119.521V155.383Z" fill="#080B14"/>
        <path d="M212.708 117.51H203.592V112.931H212.708V117.51ZM212.708 128.822H203.592V124.16H212.708V128.822ZM178.792 108.539C181.43 108.539 183.813 109.064 185.94 110.113C188.067 111.163 189.731 112.634 190.933 114.526C192.134 116.419 192.742 118.573 192.756 120.99C192.742 123.407 192.134 125.562 190.933 127.454C189.731 129.333 188.067 130.804 185.94 131.867C183.813 132.931 181.43 133.47 178.792 133.483C176.126 133.47 173.73 132.931 171.603 131.867C169.476 130.804 167.804 129.333 166.589 127.454C165.387 125.562 164.793 123.407 164.807 120.99C164.793 118.587 165.387 116.439 166.589 114.547C167.804 112.641 169.476 111.163 171.603 110.113C173.73 109.064 176.126 108.539 178.792 108.539ZM178.792 113.242C177.148 113.228 175.677 113.552 174.379 114.215C173.094 114.865 172.079 115.783 171.333 116.971C170.601 118.145 170.242 119.485 170.256 120.99C170.242 122.523 170.601 123.877 171.333 125.051C172.079 126.225 173.094 127.137 174.379 127.786C175.677 128.435 177.148 128.767 178.792 128.78C180.422 128.767 181.879 128.435 183.163 127.786C184.462 127.137 185.477 126.225 186.209 125.051C186.955 123.877 187.335 122.523 187.349 120.99C187.335 119.485 186.955 118.145 186.209 116.971C185.477 115.783 184.462 114.865 183.163 114.215C181.865 113.552 180.408 113.228 178.792 113.242ZM205.27 136.467H199.697V105.472H205.27V136.467ZM188.302 137.876C191.879 137.89 194.973 138.29 197.583 139.077C200.208 139.865 202.224 141.018 203.633 142.537C205.042 144.043 205.746 145.838 205.746 147.924C205.746 149.996 205.042 151.778 203.633 153.269C202.224 154.761 200.208 155.901 197.583 156.688C194.959 157.489 191.865 157.89 188.302 157.89C184.71 157.89 181.589 157.489 178.937 156.688C176.299 155.901 174.261 154.761 172.825 153.269C171.402 151.778 170.691 149.996 170.691 147.924C170.691 145.852 171.402 144.057 172.825 142.537C174.261 141.018 176.299 139.865 178.937 139.077C181.575 138.29 184.697 137.89 188.302 137.876ZM188.302 142.372C185.788 142.372 183.626 142.586 181.817 143.014C180.007 143.442 178.626 144.077 177.673 144.92C176.72 145.749 176.25 146.75 176.264 147.924C176.25 149.098 176.72 150.099 177.673 150.928C178.626 151.743 180 152.365 181.796 152.793C183.605 153.221 185.774 153.435 188.302 153.435C190.829 153.435 192.991 153.221 194.786 152.793C196.582 152.365 197.949 151.743 198.889 150.928C199.828 150.099 200.297 149.098 200.297 147.924C200.297 146.75 199.828 145.749 198.889 144.92C197.949 144.077 196.575 143.442 194.766 143.014C192.97 142.586 190.815 142.372 188.302 142.372Z" fill="#080B14"/>
        <path d="M281.384 115.914H266.716V111.522H281.384V115.914ZM281.384 126.667H266.716V122.316H281.384V126.667ZM256.523 107.192C259.105 107.192 261.44 107.696 263.525 108.704C265.611 109.713 267.241 111.128 268.415 112.952C269.589 114.775 270.183 116.84 270.197 119.146C270.183 121.481 269.589 123.566 268.415 125.403C267.241 127.227 265.611 128.642 263.525 129.651C261.44 130.659 259.105 131.163 256.523 131.163C253.898 131.163 251.543 130.659 249.458 129.651C247.372 128.642 245.735 127.227 244.547 125.403C243.36 123.566 242.773 121.481 242.786 119.146C242.773 116.84 243.36 114.775 244.547 112.952C245.735 111.128 247.372 109.713 249.458 108.704C251.557 107.696 253.912 107.192 256.523 107.192ZM256.523 111.75C254.893 111.736 253.442 112.04 252.172 112.662C250.901 113.283 249.9 114.16 249.168 115.293C248.436 116.412 248.07 117.696 248.07 119.146C248.07 120.61 248.429 121.916 249.147 123.062C249.879 124.195 250.88 125.079 252.151 125.714C253.436 126.349 254.893 126.674 256.523 126.688C258.111 126.674 259.54 126.349 260.811 125.714C262.096 125.079 263.09 124.195 263.795 123.062C264.513 121.916 264.872 120.61 264.872 119.146C264.872 117.71 264.513 116.425 263.795 115.293C263.09 114.16 262.096 113.283 260.811 112.662C259.54 112.04 258.111 111.736 256.523 111.75ZM285.735 132.199H280.224V105.472H285.735V132.199ZM285.735 147.841H257.04V155.279H251.509V143.698H280.224V139.098H251.405V134.747H285.735V147.841ZM287.6 157.309H251.509V152.855H287.6V157.309Z" fill="#080B14"/>
        <path d="M64.7273 527.514H60.7494V523.459H64.7273V527.514ZM76.882 529.79H72.893V510.464H76.882V529.79ZM80.5284 521.867H75.4676V518.597H80.5284V521.867ZM53.8323 526.144C55.9833 526.144 58.0091 526.125 59.9096 526.088C61.8102 526.052 63.777 525.978 65.8102 525.867C67.8507 525.75 69.7697 525.58 71.5671 525.359L71.8544 528.099C69.998 528.424 68.0569 528.667 66.0312 528.829C64.0054 528.991 62.0827 529.098 60.2632 529.149C58.4511 529.193 56.4437 529.219 54.2411 529.227L53.8323 526.144ZM76.882 538.884H72.893V534H57.4455V530.917H76.882V538.884ZM70.8488 515.436H54.5836V512.541H70.8488V515.436ZM62.7052 516.088C64.0901 516.088 65.3092 516.262 66.3627 516.608C67.4161 516.947 68.2301 517.436 68.8046 518.077C69.3792 518.711 69.6665 519.462 69.6665 520.331C69.6665 521.201 69.3792 521.956 68.8046 522.597C68.2301 523.238 67.4161 523.731 66.3627 524.077C65.3092 524.416 64.0901 524.586 62.7052 524.586C61.3129 524.586 60.0901 524.413 59.0367 524.066C57.9833 523.72 57.1656 523.227 56.5836 522.586C56.0091 521.945 55.7255 521.193 55.7328 520.331C55.7255 519.47 56.0091 518.718 56.5836 518.077C57.1656 517.436 57.9833 516.947 59.0367 516.608C60.0901 516.262 61.3129 516.088 62.7052 516.088ZM62.7052 518.74C62.0127 518.74 61.4308 518.799 60.9593 518.917C60.4953 519.028 60.1417 519.201 59.8986 519.436C59.6628 519.672 59.545 519.971 59.545 520.331C59.545 520.678 59.6665 520.972 59.9096 521.215C60.1601 521.459 60.521 521.646 60.9925 521.779C61.4639 521.912 62.0348 521.974 62.7052 521.967C63.3682 521.974 63.9354 521.912 64.4069 521.779C64.8783 521.646 65.2356 521.459 65.4787 521.215C65.7291 520.972 65.8544 520.678 65.8544 520.331C65.8544 519.971 65.7328 519.672 65.4897 519.436C65.2466 519.201 64.8894 519.028 64.4179 518.917C63.9538 518.799 63.3829 518.74 62.7052 518.74ZM64.7273 513.901H60.7494V510.221H64.7273V513.901ZM105.984 530.906H101.984V510.464H105.984V530.906ZM106.735 538.387H86.9233V535.171H106.735V538.387ZM90.9564 536.497H86.9233V528.84H90.9564V536.497ZM90.3929 512.265C91.8367 512.265 93.1517 512.571 94.3377 513.182C95.531 513.794 96.4666 514.648 97.1443 515.746C97.822 516.843 98.1609 518.074 98.1609 519.436C98.1609 520.821 97.822 522.063 97.1443 523.16C96.4666 524.258 95.531 525.116 94.3377 525.735C93.1517 526.346 91.8367 526.652 90.3929 526.652C88.9491 526.652 87.6305 526.346 86.4371 525.735C85.2511 525.116 84.3156 524.258 83.6305 523.16C82.9528 522.063 82.6139 520.821 82.6139 519.436C82.6139 518.074 82.9528 516.847 83.6305 515.757C84.3156 514.659 85.2511 513.805 86.4371 513.193C87.6305 512.575 88.9491 512.265 90.3929 512.265ZM90.3929 515.735C89.6489 515.735 88.9822 515.886 88.3929 516.188C87.8036 516.483 87.3395 516.91 87.0006 517.47C86.6691 518.029 86.5071 518.685 86.5145 519.436C86.5071 520.21 86.6691 520.88 87.0006 521.448C87.3395 522.007 87.7999 522.438 88.3819 522.74C88.9712 523.035 89.6415 523.182 90.3929 523.182C91.1222 523.182 91.7741 523.035 92.3487 522.74C92.9307 522.438 93.3874 522.007 93.7189 521.448C94.0577 520.88 94.2272 520.21 94.2272 519.436C94.2272 518.685 94.0577 518.029 93.7189 517.47C93.3874 516.91 92.9307 516.483 92.3487 516.188C91.7668 515.886 91.1148 515.735 90.3929 515.735ZM132.644 538.884H128.699V510.42H132.644V538.884ZM136.843 524.851H131.76V521.569H136.843V524.851ZM126.777 517.867H110.059V514.674H126.777V517.867ZM118.489 519.459C119.86 519.459 121.094 519.746 122.191 520.32C123.296 520.895 124.165 521.702 124.799 522.74C125.432 523.772 125.749 524.939 125.749 526.243C125.749 527.547 125.432 528.715 124.799 529.746C124.165 530.77 123.296 531.573 122.191 532.155C121.094 532.737 119.86 533.028 118.489 533.028C117.105 533.028 115.86 532.737 114.755 532.155C113.65 531.573 112.78 530.77 112.147 529.746C111.521 528.715 111.208 527.547 111.208 526.243C111.208 524.947 111.521 523.779 112.147 522.74C112.78 521.702 113.65 520.895 114.755 520.32C115.86 519.746 117.105 519.459 118.489 519.459ZM118.489 522.696C117.819 522.703 117.222 522.851 116.699 523.138C116.176 523.425 115.768 523.838 115.473 524.376C115.178 524.913 115.031 525.536 115.031 526.243C115.031 526.965 115.178 527.595 115.473 528.133C115.768 528.663 116.176 529.068 116.699 529.348C117.222 529.621 117.819 529.757 118.489 529.757C119.16 529.757 119.753 529.621 120.268 529.348C120.791 529.068 121.197 528.663 121.484 528.133C121.779 527.595 121.93 526.965 121.937 526.243C121.93 525.536 121.779 524.913 121.484 524.376C121.189 523.838 120.78 523.425 120.257 523.138C119.742 522.851 119.152 522.703 118.489 522.696ZM120.478 515.89H116.501V510.873H120.478V515.89ZM162.133 538.884H158.1V510.42H162.133V538.884ZM153.614 513.414C153.606 516.464 153.194 519.234 152.376 521.724C151.558 524.206 150.177 526.486 148.232 528.564C146.295 530.641 143.687 532.453 140.409 534L138.332 530.829C141.057 529.532 143.249 528.077 144.906 526.464C146.571 524.851 147.779 523.039 148.531 521.028C149.282 519.009 149.662 516.7 149.669 514.099V513.414H153.614ZM151.503 516.541H139.857V513.414H151.503V516.541ZM198.012 538.95H194.067V510.42H198.012V538.95ZM195.194 523.691H187.514V520.453H195.194V523.691ZM179.05 519.525H184.885V512.63H188.785V532.188H175.061V512.63H179.05V519.525ZM184.885 528.994V522.641H179.05V528.994H184.885ZM227.998 528.939H201.987V525.801H227.998V528.939ZM225.346 538.387H205.18V535.171H225.346V538.387ZM209.103 536.431H205.18V530.365H209.103V536.431ZM225.202 524.033H205.246V521.017H225.202V524.033ZM224.959 514.409H209.224V522.331H205.246V511.359H224.959V514.409ZM224.296 519.16H208.086V516.221H224.296V519.16ZM243.033 510.84C245.221 510.84 247.085 511.028 248.625 511.403C250.172 511.772 251.35 512.317 252.161 513.039C252.971 513.761 253.376 514.641 253.376 515.68C253.376 516.733 252.971 517.624 252.161 518.354C251.35 519.076 250.172 519.624 248.625 520C247.085 520.376 245.221 520.564 243.033 520.564C240.846 520.571 238.978 520.387 237.431 520.011C235.892 519.628 234.713 519.076 233.895 518.354C233.078 517.624 232.673 516.733 232.68 515.68C232.673 514.648 233.078 513.772 233.895 513.05C234.713 512.32 235.892 511.772 237.431 511.403C238.978 511.028 240.846 510.84 243.033 510.84ZM243.033 513.757C241.656 513.75 240.507 513.82 239.586 513.967C238.673 514.114 237.987 514.331 237.531 514.619C237.074 514.906 236.849 515.26 236.857 515.68C236.849 516.136 237.067 516.508 237.509 516.796C237.958 517.076 238.628 517.285 239.52 517.425C240.411 517.565 241.582 517.635 243.033 517.635C244.499 517.635 245.682 517.565 246.58 517.425C247.479 517.285 248.15 517.076 248.591 516.796C249.041 516.516 249.266 516.144 249.266 515.68C249.266 515.26 249.037 514.906 248.58 514.619C248.131 514.331 247.442 514.118 246.514 513.978C245.593 513.831 244.433 513.757 243.033 513.757ZM256.028 525.072H230.083V521.912H256.028V525.072ZM252.857 533.967H237.011V536.541H233.1V531.182H248.923V529.635H233.078V526.707H252.857V533.967ZM253.597 538.685H233.1V535.68H253.597V538.685ZM280.724 528.11H276.813V522.652H280.724V528.11ZM288.857 519.359H269.089V516.199H288.857V519.359ZM291.84 524.221H265.829V521.028H291.84V524.221ZM273.034 517.901H269.089V510.762H273.034V517.901ZM288.724 533.823H272.857V536.486H268.835V531.05H284.78V529.425H268.802V526.453H288.724V533.823ZM289.619 538.685H268.835V535.613H289.619V538.685ZM317.849 538.95H313.882V510.42H317.849V538.95ZM314.688 523.945H309.307V520.685H314.688V523.945ZM297.23 529.028C299.941 529.028 302.228 528.976 304.092 528.873C305.955 528.77 307.845 528.552 309.76 528.221L310.081 531.459C308.099 531.79 306.114 532.018 304.125 532.144C302.136 532.262 299.837 532.32 297.23 532.32H294.887V529.028H297.23ZM307.716 523.47H298.865V530.066H294.887V520.298H303.815V516.033H294.821V512.818H307.716V523.47ZM93.07 561.608H87.5893V558.359H93.07V561.608ZM96.0092 568.326H92.0313V551.42H96.0092V568.326ZM86.2854 568.956C88.3038 568.956 90.0497 569.173 91.523 569.608C92.9963 570.042 94.1234 570.672 94.9042 571.497C95.6924 572.315 96.0865 573.295 96.0865 574.436C96.0865 575.578 95.6924 576.558 94.9042 577.376C94.1234 578.193 92.9963 578.82 91.523 579.254C90.0497 579.696 88.3038 579.917 86.2854 579.917C84.267 579.917 82.5248 579.696 81.0589 579.254C79.6003 578.82 78.4769 578.193 77.6887 577.376C76.9005 576.558 76.5101 575.578 76.5175 574.436C76.5101 573.295 76.9005 572.315 77.6887 571.497C78.4769 570.672 79.604 570.042 81.07 569.608C82.5359 569.173 84.2744 568.956 86.2854 568.956ZM86.2854 571.983C85.0184 571.983 83.9539 572.076 83.0921 572.26C82.2302 572.436 81.5782 572.709 81.1362 573.077C80.7016 573.438 80.4843 573.891 80.4843 574.436C80.4843 574.974 80.7016 575.424 81.1362 575.785C81.5782 576.145 82.2302 576.418 83.0921 576.602C83.9539 576.779 85.0184 576.867 86.2854 576.867C87.5525 576.867 88.6169 576.779 89.4788 576.602C90.348 576.418 91.0037 576.145 91.4456 575.785C91.895 575.424 92.1234 574.974 92.1307 574.436C92.1234 573.891 91.895 573.438 91.4456 573.077C91.0037 572.709 90.348 572.436 89.4788 572.26C88.6169 572.076 87.5525 571.983 86.2854 571.983ZM81.9539 556.149C81.9539 557.998 81.6556 559.729 81.0589 561.343C80.4696 562.956 79.5709 564.374 78.3628 565.597C77.162 566.82 75.6814 567.733 73.9208 568.337L71.8545 565.177C73.372 564.676 74.6464 563.95 75.6777 563C76.709 562.05 77.4714 560.989 77.965 559.818C78.4585 558.639 78.709 557.416 78.7164 556.149V554.282H81.9539V556.149ZM82.7716 556.116C82.7716 557.287 83.0073 558.414 83.4788 559.497C83.9576 560.58 84.6869 561.56 85.6666 562.436C86.6464 563.306 87.8618 563.98 89.313 564.459L87.3462 567.597C85.6298 567.037 84.186 566.179 83.0147 565.022C81.8434 563.866 80.9668 562.525 80.3849 561C79.8103 559.475 79.523 557.847 79.523 556.116V554.282H82.7716V556.116ZM88.4401 556.359H73.0147V553.155H88.4401V556.359ZM122.636 566.657H118.636V551.42H122.636V566.657ZM126.459 560.856H121.509V557.586H126.459V560.856ZM103.553 562.779C105.793 562.772 107.616 562.746 109.023 562.702C110.437 562.657 111.719 562.573 112.868 562.448C114.017 562.322 115.163 562.134 116.305 561.884L116.725 565.088C115.546 565.339 114.353 565.53 113.144 565.663C111.936 565.788 110.599 565.873 109.133 565.917C107.667 565.961 105.807 565.987 103.553 565.994H101.178V562.779H103.553ZM113.863 556.326H105.144V564.912H101.178V553.144H113.863V556.326ZM107.929 570.669H118.636V568.017H122.636V579.53H103.951V568.017H107.929V570.669ZM118.636 576.348V573.796H107.929V576.348H118.636ZM144.324 565.133H139.583V561.95H144.324V565.133ZM152.744 579.884H148.932V551.42H152.744V579.884ZM146.821 578.569H143.053V551.862H146.821V578.569ZM134.523 553.464C135.782 553.464 136.884 553.88 137.827 554.713C138.777 555.538 139.51 556.727 140.025 558.282C140.549 559.829 140.81 561.648 140.81 563.74C140.81 565.855 140.549 567.689 140.025 569.243C139.51 570.797 138.777 571.994 137.827 572.834C136.884 573.674 135.782 574.09 134.523 574.083C133.285 574.09 132.199 573.674 131.263 572.834C130.335 571.994 129.617 570.797 129.108 569.243C128.6 567.689 128.346 565.855 128.346 563.74C128.346 561.648 128.6 559.829 129.108 558.282C129.617 556.727 130.335 555.538 131.263 554.713C132.199 553.88 133.285 553.464 134.523 553.464ZM134.523 557.232C133.992 557.225 133.539 557.464 133.164 557.95C132.788 558.436 132.501 559.166 132.302 560.138C132.103 561.103 132.007 562.304 132.014 563.74C132.007 565.184 132.103 566.392 132.302 567.365C132.501 568.33 132.788 569.055 133.164 569.541C133.539 570.028 133.992 570.267 134.523 570.26C135.075 570.267 135.547 570.028 135.937 569.541C136.328 569.055 136.626 568.33 136.832 567.365C137.038 566.392 137.142 565.184 137.142 563.74C137.142 562.304 137.038 561.103 136.832 560.138C136.626 559.166 136.328 558.436 135.937 557.95C135.547 557.464 135.075 557.225 134.523 557.232ZM187.053 567.32H166.943V564.171H187.053V567.32ZM189.893 576.635H163.882V573.387H189.893V576.635ZM178.799 574.448H174.854V565.586H178.799V574.448ZM186.854 556.613H170.932V565.597H166.943V553.442H186.854V556.613ZM213.99 562.039H207.249V558.823H213.99V562.039ZM215.879 572.227H211.901V551.464H215.879V572.227ZM216.553 579.387H197.006V576.171H216.553V579.387ZM200.984 578.061H197.006V570.414H200.984V578.061ZM201.824 557C201.824 558.834 201.526 560.551 200.929 562.149C200.34 563.748 199.441 565.151 198.233 566.359C197.032 567.567 195.551 568.466 193.791 569.055L191.747 565.829C193.264 565.35 194.531 564.654 195.548 563.74C196.572 562.82 197.33 561.781 197.824 560.624C198.325 559.468 198.579 558.26 198.586 557V555.155H201.824V557ZM202.642 557.022C202.642 558.171 202.881 559.287 203.36 560.37C203.839 561.453 204.564 562.433 205.537 563.309C206.516 564.179 207.732 564.849 209.183 565.32L207.216 568.481C205.5 567.913 204.056 567.055 202.885 565.906C201.713 564.75 200.837 563.413 200.255 561.895C199.68 560.37 199.393 558.746 199.393 557.022V555.155H202.642V557.022ZM208.31 556.569H192.885V553.376H208.31V556.569ZM242.374 579.884H238.429V551.42H242.374V579.884ZM246.572 565.851H241.49V562.569H246.572V565.851ZM236.506 558.867H219.788V555.674H236.506V558.867ZM228.219 560.459C229.589 560.459 230.823 560.746 231.92 561.32C233.025 561.895 233.895 562.702 234.528 563.74C235.162 564.772 235.478 565.939 235.478 567.243C235.478 568.547 235.162 569.715 234.528 570.746C233.895 571.77 233.025 572.573 231.92 573.155C230.823 573.737 229.589 574.028 228.219 574.028C226.834 574.028 225.589 573.737 224.484 573.155C223.379 572.573 222.51 571.77 221.876 570.746C221.25 569.715 220.937 568.547 220.937 567.243C220.937 565.947 221.25 564.779 221.876 563.74C222.51 562.702 223.379 561.895 224.484 561.32C225.589 560.746 226.834 560.459 228.219 560.459ZM228.219 563.696C227.548 563.703 226.952 563.851 226.429 564.138C225.906 564.425 225.497 564.838 225.202 565.376C224.908 565.913 224.76 566.536 224.76 567.243C224.76 567.965 224.908 568.595 225.202 569.133C225.497 569.663 225.906 570.068 226.429 570.348C226.952 570.621 227.548 570.757 228.219 570.757C228.889 570.757 229.482 570.621 229.998 570.348C230.521 570.068 230.926 569.663 231.213 569.133C231.508 568.595 231.659 567.965 231.666 567.243C231.659 566.536 231.508 565.913 231.213 565.376C230.919 564.838 230.51 564.425 229.987 564.138C229.471 563.851 228.882 563.703 228.219 563.696ZM230.208 556.89H226.23V551.873H230.208V556.89ZM264.094 564.282H259.255V561.033H264.094V564.282ZM256.282 558.779C256.275 561.011 256.046 563.122 255.597 565.11C255.148 567.099 254.444 568.886 253.487 570.47C252.536 572.046 251.332 573.28 249.873 574.171L247.442 571.21C248.783 570.378 249.884 569.306 250.746 567.994C251.608 566.676 252.234 565.239 252.625 563.685C253.015 562.131 253.21 560.495 253.21 558.779V553.873H256.282V558.779ZM257.078 558.591C257.078 560.271 257.247 561.843 257.586 563.309C257.925 564.775 258.477 566.134 259.244 567.387C260.01 568.632 261.015 569.652 262.26 570.448L260.083 573.519C258.632 572.65 257.461 571.446 256.57 569.906C255.678 568.366 255.037 566.65 254.647 564.757C254.264 562.856 254.076 560.801 254.083 558.591V553.873H257.078V558.591ZM272.614 579.884H268.802V551.42H272.614V579.884ZM266.669 578.569H262.934V551.862H266.669V578.569ZM285.749 573.884H281.804V565.895H285.749V573.884ZM296.235 573.884H292.202V565.895H296.235V573.884ZM302.014 576.547H276.003V573.298H302.014V576.547ZM288.953 552.823C291.001 552.823 292.835 553.14 294.456 553.773C296.084 554.407 297.359 555.306 298.279 556.47C299.208 557.626 299.672 558.956 299.672 560.459C299.672 561.969 299.211 563.298 298.29 564.448C297.37 565.597 296.095 566.488 294.467 567.122C292.847 567.748 291.009 568.061 288.953 568.061C286.905 568.061 285.071 567.748 283.451 567.122C281.83 566.488 280.563 565.597 279.649 564.448C278.736 563.298 278.283 561.969 278.29 560.459C278.283 558.948 278.736 557.615 279.649 556.459C280.563 555.302 281.83 554.407 283.451 553.773C285.079 553.14 286.913 552.823 288.953 552.823ZM288.953 555.972C287.598 555.965 286.412 556.138 285.395 556.492C284.386 556.845 283.602 557.361 283.042 558.039C282.489 558.716 282.213 559.523 282.213 560.459C282.213 561.379 282.489 562.179 283.042 562.856C283.602 563.534 284.39 564.057 285.406 564.425C286.423 564.794 287.605 564.978 288.953 564.978C290.294 564.971 291.476 564.786 292.5 564.425C293.532 564.057 294.327 563.534 294.887 562.856C295.454 562.179 295.738 561.379 295.738 560.459C295.738 559.523 295.454 558.716 294.887 558.039C294.327 557.361 293.535 556.845 292.511 556.492C291.487 556.138 290.301 555.965 288.953 555.972Z" fill="#080B14"/>
        <path d="M51 514.295C51 511.534 53.2386 509.295 56 509.295H160C162.761 509.295 165 511.534 165 514.295V535.386C165 538.148 162.761 540.386 160 540.386H56C53.2386 540.386 51 538.148 51 535.386V514.295Z" fill="#05944F"/>
        <path d="M87.2029 525.696H85.7223V523.851H87.2029V525.696ZM93.1698 526.762H91.6891V517.337H93.1698V526.762ZM95.1642 522.724H92.5897V521.492H95.1642V522.724ZM82.0593 525.21C83.1716 525.21 84.19 525.201 85.1145 525.182C86.039 525.164 87.0095 525.125 88.0261 525.066C89.0427 525.004 89.9985 524.91 90.8935 524.785L91.0095 525.84C90.0814 526.002 89.109 526.123 88.0924 526.204C87.0758 526.285 86.1145 526.337 85.2084 526.359C84.306 526.381 83.3116 526.394 82.225 526.398L82.0593 525.21ZM93.1698 531.326H91.6891V528.586H83.8051V527.414H93.1698V531.326ZM90.4957 519.635H82.4184V518.525H90.4957V519.635ZM86.446 520.105C87.1127 520.101 87.6965 520.182 88.1974 520.348C88.702 520.514 89.0906 520.753 89.3631 521.066C89.6394 521.379 89.7793 521.748 89.783 522.171C89.7793 522.599 89.6394 522.971 89.3631 523.287C89.0906 523.6 88.702 523.842 88.1974 524.011C87.6965 524.177 87.1127 524.26 86.446 524.26C85.783 524.26 85.1992 524.175 84.6946 524.006C84.1937 523.832 83.8051 523.589 83.5289 523.276C83.2526 522.963 83.1164 522.595 83.12 522.171C83.1164 521.751 83.2526 521.385 83.5289 521.072C83.8051 520.755 84.1937 520.514 84.6946 520.348C85.1992 520.182 85.783 520.101 86.446 520.105ZM86.446 521.122C86.0482 521.118 85.7057 521.157 85.4184 521.238C85.1311 521.319 84.9119 521.44 84.7609 521.602C84.6099 521.761 84.5344 521.95 84.5344 522.171C84.5344 522.389 84.6118 522.578 84.7665 522.74C84.9211 522.902 85.1421 523.029 85.4294 523.122C85.7167 523.21 86.0556 523.252 86.446 523.249C86.8364 523.252 87.1771 523.21 87.4681 523.122C87.7591 523.029 87.9801 522.902 88.1311 522.74C88.2858 522.578 88.3631 522.389 88.3631 522.171C88.3631 521.95 88.2858 521.761 88.1311 521.602C87.9801 521.44 87.7609 521.319 87.4736 521.238C87.1863 521.157 86.8438 521.118 86.446 521.122ZM87.2029 519.077H85.7223V517.215H87.2029V519.077ZM107.6 527.514H106.114V517.337H107.6V527.514ZM108.009 531.039H98.4399V529.823H108.009V531.039ZM99.9316 530.276H98.4399V526.481H99.9316V530.276ZM99.9979 518.287C100.694 518.287 101.326 518.435 101.893 518.729C102.464 519.02 102.909 519.431 103.23 519.961C103.554 520.492 103.716 521.088 103.716 521.751C103.716 522.425 103.554 523.028 103.23 523.558C102.909 524.085 102.464 524.495 101.893 524.79C101.326 525.085 100.694 525.232 99.9979 525.232C99.3018 525.232 98.6682 525.085 98.0973 524.79C97.5301 524.495 97.0826 524.085 96.7548 523.558C96.4307 523.028 96.2686 522.425 96.2686 521.751C96.2686 521.088 96.4307 520.494 96.7548 519.967C97.0826 519.436 97.5301 519.024 98.0973 518.729C98.6682 518.435 99.3018 518.287 99.9979 518.287ZM99.9979 519.58C99.5633 519.58 99.1728 519.672 98.8266 519.856C98.4804 520.037 98.2078 520.293 98.0089 520.624C97.8137 520.952 97.718 521.328 97.7217 521.751C97.718 522.182 97.8137 522.564 98.0089 522.895C98.2078 523.227 98.4804 523.484 98.8266 523.669C99.1728 523.849 99.5633 523.939 99.9979 523.939C100.425 523.939 100.81 523.849 101.153 523.669C101.499 523.484 101.77 523.227 101.965 522.895C102.164 522.564 102.263 522.182 102.263 521.751C102.263 521.328 102.164 520.952 101.965 520.624C101.77 520.293 101.499 520.037 101.153 519.856C100.806 519.672 100.421 519.58 99.9979 519.58ZM120.721 531.326H119.251V517.326H120.721V531.326ZM122.964 524.232H120.39V523H122.964V524.232ZM118.03 520.729H109.738V519.519H118.03V520.729ZM113.942 521.762C114.601 521.762 115.194 521.901 115.721 522.177C116.248 522.449 116.662 522.834 116.964 523.331C117.266 523.829 117.417 524.392 117.417 525.022C117.417 525.652 117.266 526.214 116.964 526.707C116.662 527.201 116.248 527.586 115.721 527.862C115.194 528.138 114.601 528.276 113.942 528.276C113.275 528.276 112.677 528.138 112.146 527.862C111.62 527.586 111.205 527.201 110.903 526.707C110.605 526.21 110.456 525.648 110.456 525.022C110.456 524.396 110.605 523.834 110.903 523.337C111.205 522.836 111.62 522.449 112.146 522.177C112.677 521.901 113.275 521.762 113.942 521.762ZM113.942 522.989C113.544 522.989 113.189 523.076 112.876 523.249C112.563 523.418 112.316 523.657 112.135 523.967C111.959 524.276 111.872 524.628 111.876 525.022C111.872 525.416 111.959 525.768 112.135 526.077C112.316 526.383 112.563 526.621 112.876 526.79C113.189 526.956 113.544 527.039 113.942 527.039C114.336 527.039 114.688 526.956 114.997 526.79C115.31 526.621 115.555 526.383 115.732 526.077C115.909 525.768 115.999 525.416 116.003 525.022C115.999 524.628 115.907 524.276 115.727 523.967C115.55 523.657 115.305 523.418 114.992 523.249C114.682 523.076 114.332 522.989 113.942 522.989ZM114.671 520.033H113.191V517.508H114.671V520.033ZM135.278 531.326H133.787V517.326H135.278V531.326ZM131.118 518.834C131.115 520.256 130.894 521.575 130.455 522.79C130.017 524.002 129.313 525.116 128.345 526.133C127.38 527.149 126.118 528.029 124.56 528.773L123.776 527.575C125.12 526.937 126.225 526.197 127.091 525.354C127.96 524.51 128.603 523.567 129.019 522.525C129.435 521.483 129.645 520.331 129.649 519.072V518.834H131.118ZM130.295 520.017H124.455V518.834H130.295V520.017Z" fill="#080B14"/>
        <path d="M140 225C140 222.239 142.239 220 145 220H231C233.761 220 236 222.239 236 225V255C236 257.761 233.761 260 231 260H145C142.239 260 140 257.761 140 255V225Z" fill="#080B14"/>
        <path d="M162.416 238.304H159.675V236.68H162.416V238.304ZM163.885 241.663H161.896V233.21H163.885V241.663ZM159.024 241.978C160.033 241.978 160.906 242.087 161.642 242.304C162.379 242.521 162.942 242.836 163.333 243.249C163.727 243.657 163.924 244.147 163.924 244.718C163.924 245.289 163.727 245.779 163.333 246.188C162.942 246.597 162.379 246.91 161.642 247.127C160.906 247.348 160.033 247.459 159.024 247.459C158.014 247.459 157.143 247.348 156.41 247.127C155.681 246.91 155.119 246.597 154.725 246.188C154.331 245.779 154.136 245.289 154.14 244.718C154.136 244.147 154.331 243.657 154.725 243.249C155.119 242.836 155.683 242.521 156.416 242.304C157.149 242.087 158.018 241.978 159.024 241.978ZM159.024 243.492C158.39 243.492 157.858 243.538 157.427 243.63C156.996 243.718 156.67 243.855 156.449 244.039C156.232 244.219 156.123 244.446 156.123 244.718C156.123 244.987 156.232 245.212 156.449 245.392C156.67 245.573 156.996 245.709 157.427 245.801C157.858 245.89 158.39 245.934 159.024 245.934C159.657 245.934 160.189 245.89 160.62 245.801C161.055 245.709 161.383 245.573 161.604 245.392C161.828 245.212 161.942 244.987 161.946 244.718C161.942 244.446 161.828 244.219 161.604 244.039C161.383 243.855 161.055 243.718 160.62 243.63C160.189 243.538 159.657 243.492 159.024 243.492ZM156.858 235.575C156.858 236.499 156.709 237.365 156.41 238.171C156.116 238.978 155.666 239.687 155.062 240.298C154.462 240.91 153.721 241.366 152.841 241.669L151.808 240.088C152.567 239.838 153.204 239.475 153.72 239C154.235 238.525 154.617 237.994 154.863 237.409C155.11 236.82 155.235 236.208 155.239 235.575V234.641H156.858V235.575ZM157.267 235.558C157.267 236.144 157.384 236.707 157.62 237.249C157.86 237.79 158.224 238.28 158.714 238.718C159.204 239.153 159.812 239.49 160.537 239.729L159.554 241.298C158.696 241.018 157.974 240.589 157.388 240.011C156.803 239.433 156.364 238.762 156.073 238C155.786 237.238 155.642 236.424 155.642 235.558V234.641H157.267V235.558ZM160.101 235.68H152.388V234.077H160.101V235.68ZM177.012 240.829H175.012V233.21H177.012V240.829ZM178.923 237.928H176.448V236.293H178.923V237.928ZM167.47 238.89C168.59 238.886 169.502 238.873 170.205 238.851C170.912 238.829 171.553 238.786 172.128 238.724C172.702 238.661 173.275 238.567 173.846 238.442L174.056 240.044C173.467 240.169 172.87 240.265 172.266 240.331C171.662 240.394 170.993 240.436 170.26 240.459C169.528 240.481 168.598 240.494 167.47 240.497H166.283V238.89H167.47ZM172.625 235.663H168.266V239.956H166.283V234.072H172.625V235.663ZM169.658 242.834H175.012V241.508H177.012V247.265H167.669V241.508H169.658V242.834ZM175.012 245.674V244.398H169.658V245.674H175.012ZM191.459 240.862H189.459V233.21H191.459V240.862ZM183.912 242.807H189.47V241.486H191.459V247.282H181.95V241.486H183.912V242.807ZM189.47 245.669V244.354H183.912V245.669H189.47ZM183.663 233.807C184.396 233.803 185.059 233.945 185.652 234.232C186.245 234.516 186.709 234.915 187.044 235.431C187.38 235.947 187.547 236.53 187.547 237.182C187.547 237.82 187.38 238.392 187.044 238.901C186.709 239.405 186.243 239.801 185.647 240.088C185.054 240.372 184.392 240.514 183.663 240.514C182.93 240.514 182.267 240.372 181.674 240.088C181.081 239.801 180.615 239.405 180.276 238.901C179.941 238.392 179.774 237.82 179.774 237.182C179.774 236.53 179.941 235.947 180.276 235.431C180.615 234.915 181.081 234.516 181.674 234.232C182.267 233.945 182.93 233.803 183.663 233.807ZM183.663 235.47C183.284 235.466 182.947 235.534 182.652 235.674C182.357 235.81 182.127 236.009 181.962 236.271C181.799 236.529 181.72 236.832 181.724 237.182C181.72 237.529 181.799 237.831 181.962 238.088C182.127 238.343 182.356 238.538 182.647 238.674C182.941 238.807 183.28 238.875 183.663 238.878C184.035 238.875 184.367 238.807 184.658 238.674C184.949 238.538 185.175 238.343 185.337 238.088C185.499 237.831 185.58 237.529 185.58 237.182C185.58 236.832 185.497 236.529 185.332 236.271C185.17 236.009 184.943 235.81 184.652 235.674C184.365 235.534 184.035 235.466 183.663 235.47ZM205.342 247.442H203.359V233.21H205.342V247.442ZM196.121 243.403H194.149V234.575H196.121V243.403ZM195.403 242.232C196.519 242.232 197.648 242.182 198.79 242.083C199.931 241.983 201.066 241.825 202.193 241.608L202.442 243.254C201.263 243.497 200.092 243.672 198.928 243.779C197.768 243.882 196.593 243.932 195.403 243.928H194.149V242.232H195.403ZM218.43 247.475H216.435V233.21H218.43V247.475ZM220.529 240.127H217.988V238.497H220.529V240.127ZM208.971 242.376C210.264 242.379 211.408 242.35 212.402 242.287C213.397 242.221 214.399 242.099 215.408 241.923L215.629 243.591C214.601 243.768 213.585 243.884 212.579 243.939C211.577 243.994 210.375 244.02 208.971 244.017H207.778V242.376H208.971ZM214.447 236.144H209.761V243.188H207.778V234.536H214.447V236.144ZM224.07 242.613H222.07L221.86 234.685H224.28L224.07 242.613ZM223.07 246.138C222.834 246.138 222.615 246.079 222.413 245.961C222.21 245.84 222.05 245.68 221.932 245.481C221.814 245.282 221.757 245.064 221.761 244.829C221.757 244.593 221.814 244.376 221.932 244.177C222.05 243.974 222.21 243.816 222.413 243.702C222.615 243.584 222.834 243.525 223.07 243.525C223.302 243.525 223.52 243.584 223.722 243.702C223.925 243.816 224.085 243.974 224.203 244.177C224.321 244.376 224.381 244.593 224.385 244.829C224.381 245.064 224.321 245.282 224.203 245.481C224.085 245.68 223.925 245.84 223.722 245.961C223.52 246.079 223.302 246.138 223.07 246.138Z" fill="white"/>
    </g>
    <defs>
        <filter id="filter0_d_243_4292" x="-16" y="450" width="407" height="374" filterUnits="userSpaceOnUse" color-interpolation-filters="sRGB">
            <feFlood flood-opacity="0" result="BackgroundImageFix"/>
            <feColorMatrix in="SourceAlpha" type="matrix" values="0 0 0 0 0 0 0 0 0 0 0 0 0 0 0 0 0 0 127 0" result="hardAlpha"/>
            <feOffset dy="-4"/>
            <feGaussianBlur stdDeviation="8"/>
            <feColorMatrix type="matrix" values="0 0 0 0 0 0 0 0 0 0 0 0 0 0 0 0 0 0 0.12 0"/>
            <feBlend mode="normal" in2="BackgroundImageFix" result="effect1_dropShadow_243_4292"/>
            <feBlend mode="normal" in="SourceGraphic" in2="effect1_dropShadow_243_4292" result="shape"/>
        </filter>
        <clipPath id="clip0_243_4292">
            <rect width="375" height="812" fill="white"/>
        </clipPath>
    </defs>
</svg>
