<svg width="44" height="44" viewBox="0 0 44 44" fill="none" xmlns="http://www.w3.org/2000/svg">
<path d="M34.833 7.3335H9.16634C8.15382 7.3335 7.33301 8.15431 7.33301 9.16683V34.8335C7.33301 35.846 8.15382 36.6668 9.16634 36.6668H34.833C35.8455 36.6668 36.6663 35.846 36.6663 34.8335V9.16683C36.6663 8.15431 35.8455 7.3335 34.833 7.3335Z" stroke="#263238" stroke-width="2" stroke-linecap="round" stroke-linejoin="round"/>
<path d="M29.333 29.3335H29.3367V29.3372H29.333V29.3335Z" stroke="#263238" stroke-width="2" stroke-linecap="round" stroke-linejoin="round"/>
<path d="M22 29.3335H22.0037V29.3372H22V29.3335Z" stroke="#263238" stroke-width="2" stroke-linecap="round" stroke-linejoin="round"/>
<path d="M14.667 29.3335H14.6707V29.3372H14.667V29.3335Z" stroke="#263238" stroke-width="2" stroke-linecap="round" stroke-linejoin="round"/>
<path d="M29.333 22H29.3367V22.0037H29.333V22Z" stroke="#263238" stroke-width="2" stroke-linecap="round" stroke-linejoin="round"/>
<path d="M22 22H22.0037V22.0037H22V22Z" stroke="#263238" stroke-width="2" stroke-linecap="round" stroke-linejoin="round"/>
<path d="M14.667 22H14.6707V22.0037H14.667V22Z" stroke="#263238" stroke-width="2" stroke-linecap="round" stroke-linejoin="round"/>
<path d="M7.33301 14.6665H36.6663" stroke="#263238" stroke-width="2" stroke-linecap="round" stroke-linejoin="round"/>
<path d="M29.333 3.6665V7.33317" stroke="#263238" stroke-width="2" stroke-linecap="round" stroke-linejoin="round"/>
<path d="M14.667 3.6665V7.33317" stroke="#263238" stroke-width="2" stroke-linecap="round" stroke-linejoin="round"/>
</svg>
