<svg width="16" height="16" viewBox="0 0 16 16" fill="none" xmlns="http://www.w3.org/2000/svg">
<path d="M12.6665 2.66675H3.33317C2.96498 2.66675 2.6665 2.96522 2.6665 3.33341V12.6667C2.6665 13.0349 2.96498 13.3334 3.33317 13.3334H12.6665C13.0347 13.3334 13.3332 13.0349 13.3332 12.6667V3.33341C13.3332 2.96522 13.0347 2.66675 12.6665 2.66675Z" stroke="#263238" stroke-width="1.2" stroke-linecap="round" stroke-linejoin="round"/>
<path d="M10.6665 10.6667H10.6678V10.6681H10.6665V10.6667Z" stroke="#263238" stroke-width="1.2" stroke-linecap="round" stroke-linejoin="round"/>
<path d="M8 10.6667H8.00133V10.6681H8V10.6667Z" stroke="#263238" stroke-width="1.2" stroke-linecap="round" stroke-linejoin="round"/>
<path d="M5.3335 10.6667H5.33483V10.6681H5.3335V10.6667Z" stroke="#263238" stroke-width="1.2" stroke-linecap="round" stroke-linejoin="round"/>
<path d="M10.6665 8H10.6678V8.00133H10.6665V8Z" stroke="#263238" stroke-width="1.2" stroke-linecap="round" stroke-linejoin="round"/>
<path d="M8 8H8.00133V8.00133H8V8Z" stroke="#263238" stroke-width="1.2" stroke-linecap="round" stroke-linejoin="round"/>
<path d="M5.3335 8H5.33483V8.00133H5.3335V8Z" stroke="#263238" stroke-width="1.2" stroke-linecap="round" stroke-linejoin="round"/>
<path d="M2.6665 5.33325H13.3332" stroke="#263238" stroke-width="1.2" stroke-linecap="round" stroke-linejoin="round"/>
<path d="M10.6665 1.33325V2.66659" stroke="#263238" stroke-width="1.2" stroke-linecap="round" stroke-linejoin="round"/>
<path d="M5.3335 1.33325V2.66659" stroke="#263238" stroke-width="1.2" stroke-linecap="round" stroke-linejoin="round"/>
</svg>
