<svg width="30" height="22" viewBox="0 0 30 22" fill="none" xmlns="http://www.w3.org/2000/svg">
<path d="M27 1H12.3889C12.243 1 12.0975 1.01597 11.9551 1.04763L11.2314 1.20845C10.9423 1.27269 10.6711 1.40032 10.4374 1.58212L9.4153 2.37705L1.46321 10.1846C1.20808 10.4351 1.20619 10.8455 1.45902 11.0984L9.25977 19.3492C9.36313 19.4585 9.47849 19.5558 9.60366 19.6392L10.2885 20.0958C10.617 20.3148 11.0031 20.4317 11.3979 20.4317H12.1694H27C28.1046 20.4317 29 19.5363 29 18.4317V3C29 1.89543 28.1046 1 27 1Z" stroke="black" stroke-width="2"/>
<path d="M23.8995 15.8994L14 5.99992" stroke="black" stroke-width="2" stroke-linecap="round"/>
<path d="M14 15.8994L23.8995 5.99992" stroke="black" stroke-width="2" stroke-linecap="round"/>
</svg>
