<svg width="34" height="34" viewBox="0 0 34 34" fill="none" xmlns="http://www.w3.org/2000/svg">
<path d="M18.7 32.3C18.7 33.2389 17.9389 34 17 34C16.0611 34 15.3 33.2389 15.3 32.3V30.6C15.3 29.6611 16.0611 28.9 17 28.9C17.9389 28.9 18.7 29.6611 18.7 30.6V32.3ZM26.016 28.4198L25.415 27.8188C24.7512 27.155 24.7512 26.0788 25.415 25.415C26.0788 24.7512 27.155 24.7512 27.8188 25.415L29.0227 26.6189C29.6863 27.2825 29.6863 28.3585 29.0227 29.0221C28.3595 29.6853 27.2844 29.6858 26.6206 29.0233L26.016 28.4198ZM7.3831 29.0196C6.71933 29.684 5.64262 29.6844 4.97831 29.0206C4.3141 28.3568 4.31366 27.2803 4.97732 26.6161L6.1778 25.4144C6.84157 24.75 7.91828 24.7496 8.58259 25.4134C9.2468 26.0772 9.24724 27.1537 8.58358 27.8179L7.3831 29.0196ZM17 25.5119C12.2994 25.51 8.49025 21.6983 8.4915 16.9977C8.49275 12.2972 12.304 8.48748 17.0045 8.4881C21.7051 8.48873 25.5153 12.2994 25.5153 17C25.5106 21.7004 21.7004 25.5091 17 25.5119ZM17 11.8881C14.1772 11.89 11.8902 14.1795 11.8915 17.0023C11.8928 19.825 14.1818 22.1125 17.0045 22.1119C19.8273 22.1113 22.1153 19.8228 22.1153 17C22.1125 14.1766 19.8234 11.889 17 11.8881ZM34 17C34 17.9389 33.2389 18.7 32.3 18.7H30.6C29.6611 18.7 28.9 17.9389 28.9 17C28.9 16.0611 29.6611 15.3 30.6 15.3H32.3C33.2389 15.3 34 16.0611 34 17ZM5.1 17C5.1 17.9389 4.33888 18.7 3.4 18.7H1.7C0.761116 18.7 0 17.9389 0 17C0 16.0611 0.761116 15.3 1.7 15.3H3.4C4.33888 15.3 5.1 16.0611 5.1 17ZM27.8181 8.58571C27.1539 9.24991 26.0769 9.24953 25.4132 8.58486C24.7502 7.92096 24.7505 6.84549 25.4137 6.18191L26.6164 4.97864C27.2804 4.31432 28.3573 4.31419 29.0215 4.97836C29.6857 5.64259 29.6855 6.7196 29.021 7.38357L28.0533 8.35048L27.8181 8.58571ZM5.5811 7.98575L4.98114 7.38551C4.3173 6.72135 4.31761 5.64477 4.98185 4.981C5.64609 4.31723 6.72267 4.31768 7.38636 4.98199L8.58712 6.18389C9.25064 6.84803 9.25 7.92434 8.58571 8.58769C7.92219 9.25027 6.84741 9.25027 6.18389 8.58769L5.5811 7.98575ZM18.7 3.4C18.7 4.33888 17.9389 5.1 17 5.1C16.0611 5.1 15.3 4.33888 15.3 3.4V1.7C15.3 0.761116 16.0611 0 17 0C17.9389 0 18.7 0.761116 18.7 1.7V3.4Z" fill="#263238"/>
</svg>
