<svg width="34" height="34" viewBox="0 0 34 34" fill="none" xmlns="http://www.w3.org/2000/svg">
<path d="M13.2797 0.169006C5.65363 0.909523 1.91461 3.85308 0.618907 10.166C-0.0844732 13.5539 -0.195533 18.5153 0.322747 22.2364C1.04464 27.3275 3.06223 30.6043 6.44955 32.2519C9.39264 33.6589 12.5764 34.1217 18.2589 33.9736C23.7194 33.844 26.3478 33.2146 28.9762 31.4374C31.2715 29.8823 32.6967 27.4756 33.4927 23.81C33.9739 21.5885 34.159 15.3681 33.8443 12.5542C32.8818 4.31591 29.2169 0.928036 20.4616 0.150494C18.0738 -0.0531502 15.575 -0.0531502 13.2797 0.169006ZM6.52359 15.8865V19.8668H5.7832H5.0428L4.98727 16.0901C4.93174 11.9618 4.98727 11.7581 5.94979 11.8507L6.52359 11.9062V15.8865ZM9.72582 12.5357C9.79986 13.2391 9.55923 13.4798 8.78181 13.4798C8.13396 13.4798 7.76376 12.8133 8.09694 12.2024C8.26353 11.8692 8.44863 11.7951 8.98542 11.8507C9.61476 11.9062 9.67029 11.9618 9.72582 12.5357ZM21.9609 12.0728C22.109 12.2394 22.1645 13.4613 22.1275 16.0901L22.072 19.8668H21.3316H20.5912L20.5357 16.0716C20.5172 13.9982 20.5357 12.1839 20.5727 12.0543C20.7023 11.7396 21.7018 11.7396 21.9609 12.0728ZM12.6874 13.6094C12.743 14.2018 12.7615 14.2203 13.6499 14.2203C14.3533 14.2203 14.6125 14.2944 14.7605 14.5721C15.1122 15.2385 14.8161 15.5162 13.724 15.5162H12.7244V16.8677C12.7244 17.6637 12.817 18.3117 12.9466 18.4413C13.0761 18.5709 13.5204 18.6634 13.9646 18.6634C15.4084 18.6634 15.2788 19.7557 13.798 20.0149C12.6504 20.237 11.6879 19.8298 11.3362 18.9596C11.04 18.2747 10.929 13.2947 11.1881 13.0355C11.2622 12.9614 11.6138 12.9244 11.984 12.9614C12.5579 13.017 12.6319 13.0725 12.6874 13.6094ZM17.3149 13.6094C17.3705 14.1833 17.4075 14.2018 18.3145 14.2574C19.314 14.3129 19.7397 14.6461 19.5176 15.22C19.4251 15.4422 19.1474 15.5162 18.37 15.5162H17.3519V16.8677C17.3519 17.6637 17.4445 18.3117 17.5741 18.4413C17.7036 18.5709 18.1479 18.6634 18.5921 18.6634C20.0359 18.6634 19.9063 19.7557 18.4255 20.0149C17.2779 20.237 16.3154 19.8298 15.9637 18.9596C15.6675 18.2747 15.5565 13.2947 15.8156 13.0355C15.8897 12.9614 16.2413 12.9244 16.6115 12.9614C17.1854 13.017 17.2594 13.0725 17.3149 13.6094ZM9.54072 14.3684C9.70731 14.498 9.76284 15.183 9.72582 17.2009L9.67029 19.8668H8.92989H8.18949L8.13396 17.275C8.11545 15.868 8.13396 14.5906 8.17098 14.461C8.28204 14.2018 9.17052 14.1463 9.54072 14.3684ZM24.9596 16.1086C25.0891 18.3302 25.3112 18.6634 26.6255 18.6634H27.5139L27.5695 16.4789L27.625 14.3129H28.2728H28.9207L28.9762 17.6267C29.0132 20.4037 28.9762 21.0146 28.7171 21.3848C28.3284 21.9958 27.3844 22.366 26.1997 22.366C24.941 22.366 24.2932 22.0328 24.2932 21.4404C24.2932 20.9961 24.3302 20.9776 25.3483 21.0331C27.3659 21.1071 28.1988 20.2926 26.2923 20.0704C24.0711 19.8112 23.5158 19.1818 23.3492 16.6826C23.2011 14.6646 23.3862 14.1648 24.2562 14.2574L24.8485 14.3129L24.9596 16.1086Z" fill="#263238"/>
</svg>
