<svg width="33" height="33" viewBox="0 0 33 33" fill="none" xmlns="http://www.w3.org/2000/svg">
<g clip-path="url(#clip0_300_8371)">
<path d="M6.1316 5.78615C7.15735 6.6194 7.54235 6.55615 9.4701 6.4269L27.6407 5.33652C28.0257 5.33652 27.7054 4.95152 27.5775 4.88827L24.558 2.70615C23.9805 2.2579 23.2091 1.74365 21.7324 1.87152L4.13923 3.15577C3.49848 3.21902 3.36923 3.54077 3.62498 3.79652L6.1316 5.78615ZM7.22198 10.0211V29.1392C7.22198 30.1663 7.73485 30.5513 8.89123 30.4867L28.8604 29.3317C30.0167 29.2684 30.146 28.5617 30.146 27.727V8.7369C30.146 7.90365 29.8256 7.45402 29.1175 7.51727L8.2491 8.7369C7.4791 8.80152 7.22198 9.18652 7.22198 10.0198V10.0211ZM26.9354 11.0455C27.0632 11.623 26.9354 12.2005 26.3579 12.2665L25.3954 12.459V26.572C24.5594 27.0217 23.7894 27.2788 23.1472 27.2788C22.1187 27.2788 21.8616 26.957 21.0916 25.9959L14.7982 16.1152V25.6742L16.7892 26.1252C16.7892 26.1252 16.7892 27.2802 15.1832 27.2802L10.753 27.5359C10.6251 27.2802 10.753 26.638 11.2026 26.5102L12.3576 26.1898V13.5494L10.7557 13.4202C10.6265 12.8427 10.9482 12.0094 11.8461 11.9448L16.5981 11.6244L23.1486 21.633V12.778L21.478 12.5869C21.3501 11.8801 21.863 11.3673 22.5051 11.304L26.9354 11.0455ZM2.66248 1.42327L20.9637 0.0757722C23.2105 -0.116728 23.7894 0.0111472 25.2015 1.03827L31.0438 5.14402C32.0064 5.8494 32.3281 6.0419 32.3281 6.8119V29.3317C32.3281 30.7424 31.8152 31.5784 30.0181 31.7049L8.76335 32.9892C7.41585 33.0538 6.77235 32.8613 6.0656 31.962L1.76323 26.3795C0.993226 25.3524 0.672852 24.5838 0.672852 23.6845V3.66727C0.672852 2.51365 1.1871 1.54977 2.66248 1.42327Z" fill="#263238"/>
</g>
<defs>
<clipPath id="clip0_300_8371">
<rect width="33" height="33" fill="white"/>
</clipPath>
</defs>
</svg>
