<svg width="44" height="44" viewBox="0 0 44 44" fill="none" xmlns="http://www.w3.org/2000/svg">
<path d="M36.6663 15.3335C36.6663 11.5623 36.6663 9.67664 35.4948 8.50507C34.3232 7.3335 32.4376 7.3335 28.6663 7.3335H15.333C11.5618 7.3335 9.67615 7.3335 8.50458 8.50507C7.33301 9.67664 7.33301 11.5623 7.33301 15.3335V34.6668C7.33301 35.6096 7.33301 36.081 7.6259 36.3739C7.91879 36.6668 8.3902 36.6668 9.33301 36.6668H28.6663C32.4376 36.6668 34.3232 36.6668 35.4948 35.4953C36.6663 34.3237 36.6663 32.4381 36.6663 28.6668V15.3335Z" stroke="#263238" stroke-width="2"/>
<path d="M16.5 18.3335L27.5 18.3335" stroke="#263238" stroke-width="2" stroke-linecap="round" stroke-linejoin="round"/>
<path d="M16.5 25.6665H22" stroke="#263238" stroke-width="2" stroke-linecap="round" stroke-linejoin="round"/>
</svg>
