<svg width="16" height="16" viewBox="0 0 16 16" fill="none" xmlns="http://www.w3.org/2000/svg">
<path d="M6.44732 8.70397C6.213 8.93828 6.213 9.31818 6.44732 9.5525C6.68163 9.78681 7.06153 9.78681 7.29585 9.5525L6.44732 8.70397ZM10.5266 6.32172C10.7609 6.08741 10.7609 5.70751 10.5266 5.4732C10.2923 5.23888 9.9124 5.23888 9.67809 5.4732L10.5266 6.32172ZM7.29585 9.5525L10.5266 6.32172L9.67809 5.4732L6.44732 8.70397L7.29585 9.5525Z" fill="#263238"/>
<path d="M9.1536 13.845L8.61694 14.1134L8.61694 14.1134L9.1536 13.845ZM10.3871 13.7429L9.8136 13.5665L9.8136 13.5665L10.3871 13.7429ZM6.62205 9.08006L6.35372 9.61672L6.62205 9.08006ZM6.92019 9.37821L7.45685 9.10988L7.45685 9.10988L6.92019 9.37821ZM2.25731 5.61318L2.43376 6.18665L2.25731 5.61318ZM2.15523 6.84665L1.8869 7.38331L1.8869 7.38331L2.15523 6.84665ZM12.7967 2.37029L12.9732 2.94376L12.7967 2.37029ZM13.63 3.20353L14.2034 3.37998L14.2034 3.37998L13.63 3.20353ZM12.6203 1.79682L2.08086 5.03972L2.43376 6.18665L12.9732 2.94376L12.6203 1.79682ZM1.8869 7.38331L6.35372 9.61672L6.89037 8.54341L2.42355 6.31L1.8869 7.38331ZM6.38353 9.64653L8.61694 14.1134L9.69026 13.5767L7.45685 9.10988L6.38353 9.64653ZM10.9605 13.9194L14.2034 3.37998L13.0565 3.02708L9.8136 13.5665L10.9605 13.9194ZM8.61694 14.1134C9.12799 15.1354 10.6245 15.0116 10.9605 13.9194L9.8136 13.5665C9.80657 13.5893 9.7981 13.5966 9.79353 13.6001C9.78619 13.6057 9.77315 13.6119 9.75538 13.6133C9.73761 13.6148 9.72374 13.6109 9.71557 13.6065C9.7105 13.6039 9.70095 13.5981 9.69026 13.5767L8.61694 14.1134ZM6.35372 9.61672C6.36662 9.62317 6.37708 9.63363 6.38353 9.64653L7.45685 9.10988C7.33428 8.86474 7.13551 8.66598 6.89037 8.54341L6.35372 9.61672ZM2.08086 5.03972C0.988655 5.37578 0.864807 6.87226 1.8869 7.38331L2.42355 6.31C2.40217 6.2993 2.3964 6.28976 2.39371 6.28468C2.38939 6.27651 2.38546 6.26264 2.38693 6.24487C2.3884 6.2271 2.39456 6.21406 2.40017 6.20672C2.40365 6.20215 2.41091 6.19368 2.43376 6.18665L2.08086 5.03972ZM12.9732 2.94376C12.9913 2.93819 13.0019 2.93964 13.009 2.94155C13.0181 2.94402 13.0295 2.94988 13.0399 2.96033C13.0504 2.97079 13.0562 2.98211 13.0587 2.99129C13.0606 2.99837 13.0621 3.00899 13.0565 3.02708L14.2034 3.37998C14.5025 2.4081 13.5922 1.49778 12.6203 1.79682L12.9732 2.94376Z" fill="#263238"/>
</svg>
