<svg width="32" height="32" viewBox="0 0 32 32" fill="none" xmlns="http://www.w3.org/2000/svg">
<path d="M16 20C18.2091 20 20 18.2091 20 16C20 13.7909 18.2091 12 16 12C13.7909 12 12 13.7909 12 16C12 18.2091 13.7909 20 16 20Z" stroke="#828688" stroke-width="2" stroke-linecap="round" stroke-linejoin="round"/>
<path d="M23.1671 11.94L23.1013 11.8262C22.9199 11.5122 22.8273 11.1547 22.8334 10.7922L22.8634 9.01333C22.8695 8.64981 22.6778 8.3116 22.3628 8.13007L19.6261 6.55307C19.3119 6.372 18.9243 6.37524 18.6131 6.56155L17.094 7.47113C16.7836 7.65704 16.4285 7.75522 16.0666 7.75522H15.9349C15.5722 7.75522 15.2164 7.65661 14.9055 7.46994L13.3794 6.55377C13.0672 6.36632 12.6777 6.36344 12.3627 6.54625L9.63473 8.12954C9.32124 8.31149 9.13075 8.64883 9.13685 9.01125L9.16681 10.7922C9.17291 11.1547 9.08031 11.5122 8.89892 11.8262L8.83403 11.9385C8.65254 12.2527 8.389 12.5116 8.07164 12.6875L6.51675 13.5491C6.19805 13.7258 6.00064 14.0617 6.00147 14.4261L6.00863 17.5779C6.00945 17.9401 6.20601 18.2735 6.52248 18.4495L8.0699 19.3104C8.38835 19.4875 8.65235 19.7483 8.83337 20.0646L8.9029 20.186C9.08174 20.4985 9.17293 20.8534 9.16685 21.2133L9.13692 22.9865C9.13078 23.35 9.32245 23.6882 9.63749 23.8698L12.3741 25.4468C12.6883 25.6278 13.076 25.6246 13.3871 25.4383L14.9062 24.5287C15.2167 24.3428 15.5718 24.2446 15.9337 24.2446H16.0654C16.428 24.2446 16.7838 24.3432 17.0948 24.5299L18.6208 25.4461C18.9331 25.6335 19.3226 25.6364 19.6375 25.4536L22.3655 23.8703C22.679 23.6884 22.8695 23.351 22.8634 22.9886L22.8334 21.2077C22.8273 20.8451 22.9199 20.4877 23.1013 20.1737L23.1662 20.0613C23.3477 19.7471 23.6112 19.4882 23.9286 19.3124L25.4835 18.4507C25.8022 18.2741 25.9996 17.9381 25.9988 17.5738L25.9916 14.4219C25.9908 14.0598 25.7942 13.7264 25.4778 13.5503L23.9266 12.6874C23.6105 12.5116 23.348 12.2533 23.1671 11.94Z" stroke="#828688" stroke-width="2" stroke-linecap="round" stroke-linejoin="round"/>
</svg>
