<svg width="32" height="32" viewBox="0 0 32 32" fill="none" xmlns="http://www.w3.org/2000/svg">
<path d="M23.9997 18.6668C22.5269 18.6668 21.333 17.4729 21.333 16.0002C21.333 14.5274 22.5269 13.3335 23.9997 13.3335C25.4724 13.3335 26.6663 14.5274 26.6663 16.0002C26.6663 16.7074 26.3854 17.3857 25.8853 17.8858C25.3852 18.3859 24.7069 18.6668 23.9997 18.6668ZM15.9997 18.6668C14.5269 18.6668 13.333 17.4729 13.333 16.0002C13.333 14.5274 14.5269 13.3335 15.9997 13.3335C17.4724 13.3335 18.6663 14.5274 18.6663 16.0002C18.6663 16.7074 18.3854 17.3857 17.8853 17.8858C17.3852 18.3859 16.7069 18.6668 15.9997 18.6668ZM7.99967 18.6668C6.52691 18.6668 5.33301 17.4729 5.33301 16.0002C5.33301 14.5274 6.52691 13.3335 7.99967 13.3335C9.47243 13.3335 10.6663 14.5274 10.6663 16.0002C10.6663 16.7074 10.3854 17.3857 9.88529 17.8858C9.3852 18.3859 8.70692 18.6668 7.99967 18.6668Z" fill="#D3D6DA"/>
</svg>
