<svg width="16" height="16" viewBox="0 0 16 16" fill="none" xmlns="http://www.w3.org/2000/svg">
<path d="M14.3511 12.3333L8.5776 2.33333C8.321 1.88889 7.6795 1.88889 7.4229 2.33333L1.64939 12.3333C1.39279 12.7778 1.71354 13.3333 2.22674 13.3333H13.7737C14.2869 13.3333 14.6077 12.7778 14.3511 12.3333Z" stroke="#263238" stroke-width="1.2" stroke-linecap="round" stroke-linejoin="round"/>
<path d="M10.4243 9.09101C10.6586 8.8567 10.6586 8.4768 10.4243 8.24248C10.1899 8.00817 9.81005 8.00817 9.57574 8.24248L10.4243 9.09101ZM7.33333 11.3334L6.90907 11.7577C7.14338 11.992 7.52328 11.992 7.7576 11.7577L7.33333 11.3334ZM6.42426 9.57582C6.18995 9.3415 5.81005 9.3415 5.57574 9.57582C5.34142 9.81013 5.34142 10.19 5.57574 10.4243L6.42426 9.57582ZM9.57574 8.24248L6.90907 10.9091L7.7576 11.7577L10.4243 9.09101L9.57574 8.24248ZM7.7576 10.9091L6.42426 9.57582L5.57574 10.4243L6.90907 11.7577L7.7576 10.9091Z" fill="#14181F"/>
</svg>
