<svg width="44" height="44" viewBox="0 0 44 44" fill="none" xmlns="http://www.w3.org/2000/svg">
<path d="M18.1904 24.3953C17.7998 24.7858 17.7998 25.419 18.1904 25.8095C18.5809 26.2 19.214 26.2 19.6046 25.8095L18.1904 24.3953ZM28.4892 16.9249C28.8797 16.5344 28.8797 15.9012 28.4892 15.5107C28.0987 15.1201 27.4655 15.1201 27.075 15.5107L28.4892 16.9249ZM19.6046 25.8095L28.4892 16.9249L27.075 15.5107L18.1904 24.3953L19.6046 25.8095Z" fill="#263238"/>
<path d="M25.1723 38.0738L24.2778 38.521L25.1723 38.0738ZM28.5643 37.7931L27.6085 37.499L28.5643 37.7931ZM18.2105 24.9702L17.7633 25.8646L18.2105 24.9702ZM19.0304 25.7901L19.9248 25.3429V25.3429L19.0304 25.7901ZM6.20748 15.4363L6.50157 16.392L6.20748 15.4363ZM5.92675 18.8283L5.47954 19.7227L5.92675 18.8283ZM35.1909 6.51829L35.4849 7.47407L35.1909 6.51829ZM37.4823 8.80971L38.4381 9.1038L37.4823 8.80971ZM34.8968 5.56251L5.9134 14.4805L6.50157 16.392L35.4849 7.47407L34.8968 5.56251ZM5.47954 19.7227L17.7633 25.8646L18.6577 24.0758L6.37396 17.9339L5.47954 19.7227ZM18.136 26.2373L24.2778 38.521L26.0667 37.6266L19.9248 25.3429L18.136 26.2373ZM29.5201 38.0872L38.4381 9.1038L36.5265 8.51562L27.6085 37.499L29.5201 38.0872ZM24.2778 38.521C25.421 40.8073 28.7684 40.5303 29.5201 38.0872L27.6085 37.499C27.3874 38.2176 26.4029 38.299 26.0667 37.6266L24.2778 38.521ZM17.7633 25.8646C17.9246 25.9452 18.0553 26.076 18.136 26.2373L19.9248 25.3429C19.6507 24.7945 19.206 24.3499 18.6577 24.0758L17.7633 25.8646ZM5.9134 14.4805C3.47031 15.2322 3.19328 18.5796 5.47954 19.7227L6.37396 17.9339C5.70153 17.5977 5.78302 16.6131 6.50157 16.392L5.9134 14.4805ZM35.4849 7.47407C36.1243 7.27733 36.7232 7.87623 36.5265 8.51562L38.4381 9.1038C39.107 6.92984 37.0707 4.89361 34.8968 5.56251L35.4849 7.47407Z" fill="#263238"/>
</svg>
