<svg width="44" height="44" viewBox="0 0 44 44" fill="none" xmlns="http://www.w3.org/2000/svg">
<path d="M18.1904 24.3955C17.7998 24.7861 17.7998 25.4192 18.1904 25.8097C18.5809 26.2003 19.214 26.2003 19.6046 25.8097L18.1904 24.3955ZM28.4892 16.9251C28.8797 16.5346 28.8797 15.9014 28.4892 15.5109C28.0987 15.1204 27.4655 15.1204 27.075 15.5109L28.4892 16.9251ZM19.6046 25.8097L28.4892 16.9251L27.075 15.5109L18.1904 24.3955L19.6046 25.8097Z" fill="#D3D6DA"/>
<path d="M25.1718 38.0738L24.2774 38.521L25.1718 38.0738ZM28.5638 37.7931L27.6081 37.499L28.5638 37.7931ZM18.21 24.9702L17.7628 25.8646L18.21 24.9702ZM19.0299 25.7901L19.9243 25.3429V25.3429L19.0299 25.7901ZM6.20699 15.4363L6.50108 16.392L6.20699 15.4363ZM5.92626 18.8283L5.47905 19.7227L5.92626 18.8283ZM35.1904 6.51829L35.4845 7.47407L35.1904 6.51829ZM37.4818 8.80971L38.4376 9.1038L37.4818 8.80971ZM34.8963 5.56251L5.91291 14.4805L6.50108 16.392L35.4845 7.47407L34.8963 5.56251ZM5.47905 19.7227L17.7628 25.8646L18.6572 24.0758L6.37348 17.9339L5.47905 19.7227ZM18.1355 26.2373L24.2774 38.521L26.0662 37.6266L19.9243 25.3429L18.1355 26.2373ZM29.5196 38.0872L38.4376 9.1038L36.526 8.51562L27.6081 37.499L29.5196 38.0872ZM24.2774 38.521C25.4205 40.8073 28.7679 40.5303 29.5196 38.0872L27.6081 37.499C27.387 38.2176 26.4024 38.299 26.0662 37.6266L24.2774 38.521ZM17.7628 25.8646C17.9241 25.9452 18.0548 26.076 18.1355 26.2373L19.9243 25.3429C19.6502 24.7945 19.2056 24.3499 18.6572 24.0758L17.7628 25.8646ZM5.91291 14.4805C3.46982 15.2322 3.19279 18.5796 5.47905 19.7227L6.37348 17.9339C5.70104 17.5977 5.78253 16.6131 6.50108 16.392L5.91291 14.4805ZM35.4845 7.47407C36.1239 7.27733 36.7227 7.87623 36.526 8.51562L38.4376 9.1038C39.1065 6.92984 37.0702 4.89361 34.8963 5.56251L35.4845 7.47407Z" fill="#D3D6DA"/>
</svg>
