<svg width="30" height="26" viewBox="0 0 30 26" fill="none" xmlns="http://www.w3.org/2000/svg">
<mask id="path-1-outside-1_300_23901" maskUnits="userSpaceOnUse" x="0.5" y="0.5" width="29" height="26" fill="black">
<rect fill="white" x="0.5" y="0.5" width="29" height="26"/>
<path d="M2.5 16L15 2.5L27.5 16H20V24H10V16H2.5Z"/>
</mask>
<path d="M15 2.5L16.4675 1.14118C16.089 0.732386 15.5571 0.5 15 0.5C14.4429 0.5 13.911 0.732386 13.5325 1.14118L15 2.5ZM2.5 16L1.03248 14.6412C0.492382 15.2245 0.349018 16.0723 0.667293 16.8007C0.985567 17.5292 1.70505 18 2.5 18L2.5 16ZM10 16H12C12 14.8954 11.1046 14 10 14V16ZM10 24H8C8 25.1046 8.89543 26 10 26V24ZM20 24V26C21.1046 26 22 25.1046 22 24H20ZM20 16V14C18.8954 14 18 14.8954 18 16H20ZM27.5 16V18C28.295 18 29.0144 17.5292 29.3327 16.8007C29.651 16.0723 29.5076 15.2245 28.9675 14.6412L27.5 16ZM13.5325 1.14118L1.03248 14.6412L3.96752 17.3588L16.4675 3.85882L13.5325 1.14118ZM2.5 18H10V14H2.5V18ZM8 16V24H12V16H8ZM10 26H20V22H10V26ZM22 24V16H18V24H22ZM20 18H27.5V14H20V18ZM28.9675 14.6412L16.4675 1.14118L13.5325 3.85882L26.0325 17.3588L28.9675 14.6412Z" fill="#E4E5E7" mask="url(#path-1-outside-1_300_23901)"/>
</svg>
