<svg width="33" height="33" viewBox="0 0 33 33" fill="none" xmlns="http://www.w3.org/2000/svg">
<g clip-path="url(#clip0_370_7465)">
<path d="M6.13111 5.78603C7.15686 6.61928 7.54186 6.55603 9.46961 6.42678L27.6402 5.3364C28.0252 5.3364 27.7049 4.9514 27.577 4.88815L24.5575 2.70603C23.98 2.25778 23.2086 1.74353 21.7319 1.8714L4.13874 3.15565C3.49799 3.2189 3.36874 3.54065 3.62449 3.7964L6.13111 5.78603ZM7.22149 10.021V29.139C7.22149 30.1662 7.73436 30.5512 8.89074 30.4865L28.8599 29.3315C30.0162 29.2683 30.1455 28.5615 30.1455 27.7269V8.73678C30.1455 7.90353 29.8251 7.4539 29.117 7.51715L8.24861 8.73678C7.47861 8.8014 7.22149 9.1864 7.22149 10.0197V10.021ZM26.9349 11.0454C27.0627 11.6229 26.9349 12.2004 26.3574 12.2664L25.3949 12.4589V26.5719C24.5589 27.0215 23.7889 27.2787 23.1467 27.2787C22.1182 27.2787 21.8611 26.9569 21.0911 25.9958L14.7977 16.115V25.674L16.7887 26.125C16.7887 26.125 16.7887 27.28 15.1827 27.28L10.7525 27.5358C10.6246 27.28 10.7525 26.6379 11.2021 26.51L12.3571 26.1897V13.5493L10.7552 13.42C10.626 12.8425 10.9477 12.0093 11.8456 11.9447L16.5976 11.6243L23.1481 21.6329V12.7779L21.4775 12.5868C21.3496 11.88 21.8625 11.3672 22.5046 11.3039L26.9349 11.0454ZM2.66199 1.42315L20.9632 0.0756501C23.21 -0.11685 23.7889 0.0110252 25.201 1.03815L31.0434 5.1439C32.0059 5.84928 32.3276 6.04178 32.3276 6.81178V29.3315C32.3276 30.7423 31.8147 31.5783 30.0176 31.7048L8.76286 32.989C7.41536 33.0537 6.77186 32.8612 6.06511 31.9619L1.76274 26.3794C0.992738 25.3523 0.672363 24.5837 0.672363 23.6844V3.66715C0.672363 2.51353 1.18661 1.54965 2.66199 1.42315Z" fill="#D3D6DA"/>
</g>
<defs>
<clipPath id="clip0_370_7465">
<rect width="33" height="33" fill="white"/>
</clipPath>
</defs>
</svg>
