<svg width="44" height="44" viewBox="0 0 44 44" fill="none" xmlns="http://www.w3.org/2000/svg">
<path d="M6.5 13.5C6.5 11.5861 6.50212 10.2513 6.63753 9.24416C6.76907 8.26579 7.00966 7.7477 7.37868 7.37868C7.7477 7.00966 8.26579 6.76907 9.24416 6.63753C10.2513 6.50212 11.5861 6.5 13.5 6.5H30.5C32.4139 6.5 33.7487 6.50212 34.7558 6.63753C35.7342 6.76907 36.2523 7.00966 36.6213 7.37868C36.9903 7.7477 37.2309 8.26579 37.3625 9.24416C37.4979 10.2513 37.5 11.5861 37.5 13.5V30.5C37.5 32.4139 37.4979 33.7487 37.3625 34.7558C37.2309 35.7342 36.9903 36.2523 36.6213 36.6213C36.2523 36.9903 35.7342 37.2309 34.7558 37.3625C33.7487 37.4979 32.4139 37.5 30.5 37.5H13.5C11.5861 37.5 10.2513 37.4979 9.24416 37.3625C8.26579 37.2309 7.7477 36.9903 7.37868 36.6213C7.00966 36.2523 6.76907 35.7342 6.63753 34.7558C6.50212 33.7487 6.5 32.4139 6.5 30.5V13.5Z" stroke="#D3D6DA" stroke-width="2"/>
<path d="M15.1699 22H28.8399" stroke="#D3D6DA" stroke-width="2" stroke-linecap="round" stroke-linejoin="round"/>
<path d="M22 28.84L22 15.17" stroke="#D3D6DA" stroke-width="2" stroke-linecap="round" stroke-linejoin="round"/>
</svg>
