<svg width="44" height="44" viewBox="0 0 44 44" fill="none" xmlns="http://www.w3.org/2000/svg">
<path d="M34.8335 7.33337H9.16683C8.15431 7.33337 7.3335 8.15419 7.3335 9.16671V34.8334C7.3335 35.8459 8.15431 36.6667 9.16683 36.6667H34.8335C35.846 36.6667 36.6668 35.8459 36.6668 34.8334V9.16671C36.6668 8.15419 35.846 7.33337 34.8335 7.33337Z" stroke="#D3D6DA" stroke-width="2" stroke-linecap="round" stroke-linejoin="round"/>
<path d="M29.3335 29.3334H29.3372V29.337H29.3335V29.3334Z" stroke="#D3D6DA" stroke-width="2" stroke-linecap="round" stroke-linejoin="round"/>
<path d="M22 29.3334H22.0037V29.337H22V29.3334Z" stroke="#D3D6DA" stroke-width="2" stroke-linecap="round" stroke-linejoin="round"/>
<path d="M14.6665 29.3334H14.6702V29.337H14.6665V29.3334Z" stroke="#D3D6DA" stroke-width="2" stroke-linecap="round" stroke-linejoin="round"/>
<path d="M29.3335 22H29.3372V22.0037H29.3335V22Z" stroke="#D3D6DA" stroke-width="2" stroke-linecap="round" stroke-linejoin="round"/>
<path d="M22 22H22.0037V22.0037H22V22Z" stroke="#D3D6DA" stroke-width="2" stroke-linecap="round" stroke-linejoin="round"/>
<path d="M14.6665 22H14.6702V22.0037H14.6665V22Z" stroke="#D3D6DA" stroke-width="2" stroke-linecap="round" stroke-linejoin="round"/>
<path d="M7.3335 14.6666H36.6668" stroke="#D3D6DA" stroke-width="2" stroke-linecap="round" stroke-linejoin="round"/>
<path d="M29.3335 3.66663V7.33329" stroke="#D3D6DA" stroke-width="2" stroke-linecap="round" stroke-linejoin="round"/>
<path d="M14.6665 3.66663V7.33329" stroke="#D3D6DA" stroke-width="2" stroke-linecap="round" stroke-linejoin="round"/>
</svg>
