<svg width="32" height="32" viewBox="0 0 32 32" fill="none" xmlns="http://www.w3.org/2000/svg">
<rect width="32" height="32" rx="5" fill="#080B14"/>
<path d="M16.5 4.375C10.3476 4.375 5.35938 9.58202 5.35938 16C5.35938 22.4217 10.3476 27.625 16.5 27.625C22.6524 27.625 27.6406 22.4217 27.6406 16C27.6406 9.58202 22.6524 4.375 16.5 4.375ZM16.5 9.53125C17.542 9.53125 18.3867 10.4127 18.3867 11.5C18.3867 12.5873 17.542 13.4688 16.5 13.4688C15.458 13.4688 14.6133 12.5873 14.6133 11.5C14.6133 10.4127 15.458 9.53125 16.5 9.53125ZM19.0156 21.4375C19.0156 21.7481 18.7743 22 18.4766 22H14.5234C14.2257 22 13.9844 21.7481 13.9844 21.4375V20.3125C13.9844 20.0019 14.2257 19.75 14.5234 19.75H15.0625V16.75H14.5234C14.2257 16.75 13.9844 16.4981 13.9844 16.1875V15.0625C13.9844 14.7519 14.2257 14.5 14.5234 14.5H17.3984C17.6961 14.5 17.9375 14.7519 17.9375 15.0625V19.75H18.4766C18.7743 19.75 19.0156 20.0019 19.0156 20.3125V21.4375Z" fill="#D3D6DA"/>
</svg>
