<svg width="44" height="44" viewBox="0 0 44 44" fill="none" xmlns="http://www.w3.org/2000/svg">
<path d="M36.6668 15.3334C36.6668 11.5621 36.6668 9.67652 35.4953 8.50495C34.3237 7.33337 32.4381 7.33337 28.6668 7.33337H15.3335C11.5623 7.33337 9.67664 7.33337 8.50507 8.50495C7.3335 9.67652 7.3335 11.5621 7.3335 15.3334V34.6667C7.3335 35.6095 7.3335 36.0809 7.62639 36.3738C7.91928 36.6667 8.39069 36.6667 9.3335 36.6667H28.6668C32.4381 36.6667 34.3237 36.6667 35.4953 35.4951C36.6668 34.3236 36.6668 32.4379 36.6668 28.6667V15.3334Z" stroke="#D3D6DA" stroke-width="2"/>
<path d="M16.5 18.3334L27.5 18.3334" stroke="#D3D6DA" stroke-width="2" stroke-linecap="round" stroke-linejoin="round"/>
<path d="M16.5 25.6666H22" stroke="#D3D6DA" stroke-width="2" stroke-linecap="round" stroke-linejoin="round"/>
</svg>
