<svg width="34" height="34" viewBox="0 0 34 34" fill="none" xmlns="http://www.w3.org/2000/svg">
<path fill-rule="evenodd" clip-rule="evenodd" d="M27.9542 25.393C27.8124 25.3961 27.6701 25.3977 27.5275 25.3977C17.0754 25.3977 8.60235 16.9246 8.60235 6.47254C8.60235 6.32992 8.60394 6.18765 8.60709 6.04574C5.45753 8.56897 3.44094 12.4484 3.44094 16.7953C3.44094 24.3968 9.60319 30.5591 17.2047 30.5591C21.5516 30.5591 25.431 28.5425 27.9542 25.393ZM30.0499 21.7523C29.229 21.8868 28.3864 21.9568 27.5275 21.9568C18.9758 21.9568 12.0433 15.0242 12.0433 6.47254C12.0433 5.6136 12.1132 4.77099 12.2477 3.9501C12.475 2.56269 12.8867 1.23733 13.4569 0C11.9749 0.329231 10.5649 0.849592 9.25411 1.53388C3.75432 4.40492 0 10.1617 0 16.7953C0 26.2972 7.70281 34 17.2047 34C23.8383 34 29.5951 30.2457 32.4661 24.746C33.1504 23.4352 33.6708 22.0252 34 20.5432C32.7627 21.1133 31.4373 21.525 30.0499 21.7523Z" fill="#D3D6DA"/>
</svg>
