<svg width="33" height="27" viewBox="0 0 33 27" fill="none" xmlns="http://www.w3.org/2000/svg">
<path d="M10.3815 26.9063C22.8312 26.9063 29.6426 16.5892 29.6426 7.64509C29.6426 7.35505 29.6362 7.05857 29.6233 6.76853C30.9483 5.81029 32.0918 4.62338 33 3.26357C31.766 3.81261 30.4558 4.17118 29.1141 4.32704C30.5268 3.48028 31.5845 2.15005 32.0912 0.58296C30.7623 1.37055 29.3089 1.92612 27.7935 2.22587C26.7724 1.14093 25.4224 0.422565 23.9521 0.181851C22.4818 -0.0588642 20.9731 0.191475 19.6594 0.894163C18.3456 1.59685 17.3 2.71275 16.684 4.06933C16.0681 5.42592 15.9162 6.94763 16.2519 8.39919C13.5609 8.26416 10.9284 7.56512 8.52497 6.34742C6.12154 5.12971 4.00083 3.42051 2.30033 1.33062C1.43605 2.82074 1.17158 4.58404 1.56067 6.26216C1.94976 7.94027 2.96321 9.40727 4.39506 10.365C3.32011 10.3309 2.26872 10.0415 1.32773 9.52067V9.60446C1.32677 11.1682 1.86738 12.6841 2.85768 13.8943C3.84797 15.1046 5.22682 15.9346 6.75984 16.2431C5.76408 16.5156 4.71898 16.5553 3.70541 16.3591C4.138 17.704 4.97966 18.8803 6.11293 19.7237C7.24621 20.5672 8.61454 21.0359 10.027 21.0642C7.62908 22.9478 4.66699 23.9695 1.61777 23.9646C1.07702 23.9638 0.536799 23.9307 0 23.8654C3.09768 25.8527 6.70111 26.9082 10.3815 26.9063Z" fill="#D3D6DA"/>
</svg>
