<svg width="32" height="32" viewBox="0 0 32 32" fill="none" xmlns="http://www.w3.org/2000/svg">
<rect width="32" height="32" rx="5" fill="#080B14"/>
<path d="M23.9997 18.6667C22.5269 18.6667 21.333 17.4728 21.333 16C21.333 14.5273 22.5269 13.3334 23.9997 13.3334C25.4724 13.3334 26.6663 14.5273 26.6663 16C26.6663 16.7073 26.3854 17.3856 25.8853 17.8857C25.3852 18.3858 24.7069 18.6667 23.9997 18.6667ZM15.9997 18.6667C14.5269 18.6667 13.333 17.4728 13.333 16C13.333 14.5273 14.5269 13.3334 15.9997 13.3334C17.4724 13.3334 18.6663 14.5273 18.6663 16C18.6663 16.7073 18.3854 17.3856 17.8853 17.8857C17.3852 18.3858 16.7069 18.6667 15.9997 18.6667ZM7.99967 18.6667C6.52691 18.6667 5.33301 17.4728 5.33301 16C5.33301 14.5273 6.52691 13.3334 7.99967 13.3334C9.47243 13.3334 10.6663 14.5273 10.6663 16C10.6663 16.7073 10.3854 17.3856 9.88529 17.8857C9.3852 18.3858 8.70692 18.6667 7.99967 18.6667Z" fill="#D3D6DA"/>
</svg>
